<svg width="18" height="23" viewBox="0 0 18 23" fill="none" xmlns="http://www.w3.org/2000/svg">
<g clip-path="url(#clip0_34_1216)">
<path d="M0 21.228C0 21.8001 0.460227 22.2681 1.02273 22.2681C1.58523 22.2681 2.04545 21.8001 2.04545 21.228H0ZM11.4545 14.7794C12.017 14.7794 12.4773 14.3114 12.4773 13.7393C12.4773 13.1673 12.017 12.6992 11.4545 12.6992V14.7794ZM12.2727 5.00253C12.2727 6.50027 11.0864 7.70678 9.61364 7.70678V9.78697C12.2114 9.78697 14.3182 7.64437 14.3182 5.00253H12.2727ZM9.61364 7.70678C8.14091 7.70678 6.95455 6.50027 6.95455 5.00253H4.90909C4.90909 7.64437 7.01591 9.78697 9.61364 9.78697V7.70678ZM6.95455 5.00253C6.95455 3.5048 8.14091 2.29829 9.61364 2.29829V0.218102C7.01591 0.218102 4.90909 2.3607 4.90909 5.00253H6.95455ZM9.61364 2.29829C11.0864 2.29829 12.2727 3.5048 12.2727 5.00253H14.3182C14.3182 2.3607 12.2114 0.218102 9.61364 0.218102V2.29829ZM2.04545 21.228V17.4837H0V21.228H2.04545ZM4.70455 12.6992C2.10682 12.6992 0 14.8418 0 17.4837H2.04545C2.04545 15.9859 3.23182 14.7794 4.70455 14.7794V12.6992ZM4.70455 14.7794H11.4545V12.6992H4.70455V14.7794Z" fill="#888888"/>
<path d="M16.7829 16.2668L17.7443 15.2891C18.092 14.9354 18.092 14.353 17.7443 13.9994C17.3966 13.6457 16.8238 13.6457 16.4761 13.9994L15.5148 14.977L14.5534 13.9994C14.2057 13.6457 13.6329 13.6457 13.2852 13.9994C12.9375 14.353 12.9375 14.9354 13.2852 15.2891L14.2466 16.2668L13.2852 17.2445C12.9375 17.5981 12.9375 18.1805 13.2852 18.5342C13.4591 18.711 13.6943 18.8046 13.9193 18.8046C14.1443 18.8046 14.3795 18.7214 14.5534 18.5342L15.5148 17.5565L16.4761 18.5342C16.65 18.711 16.8852 18.8046 17.1102 18.8046C17.3352 18.8046 17.5704 18.7214 17.7443 18.5342C18.092 18.1805 18.092 17.5981 17.7443 17.2445L16.7829 16.2668Z" fill="#888888"/>
</g>
<defs>
<clipPath id="clip0_34_1216">
<rect width="18" height="22.05" fill="white" transform="translate(0 0.218102)"/>
</clipPath>
</defs>
</svg>
