<svg width="30" height="27" viewBox="0 0 30 27" fill="none" xmlns="http://www.w3.org/2000/svg">
<path d="M7.83399 7.92975V8.92975C8.18966 8.92975 8.51856 8.74084 8.69777 8.43362L7.83399 7.92975ZM9.58228 4.93268V3.93268C9.22661 3.93268 8.89771 4.12159 8.7185 4.42881L9.58228 4.93268ZM16.0759 4.93268L16.9397 4.42881C16.7605 4.12159 16.4316 3.93268 16.0759 3.93268V4.93268ZM17.8242 7.92975L16.9605 8.43362C17.1397 8.74084 17.4686 8.92975 17.8242 8.92975V7.92975ZM3.83887 20.6673V10.4273H1.83887V20.6673H3.83887ZM5.33643 8.92975H7.83399V6.92975H5.33643V8.92975ZM8.69777 8.43362L10.4461 5.43655L8.7185 4.42881L6.97021 7.42588L8.69777 8.43362ZM9.58228 5.93268H16.0759V3.93268H9.58228V5.93268ZM15.2122 5.43655L16.9605 8.43362L18.688 7.42588L16.9397 4.42881L15.2122 5.43655ZM17.8242 8.92975H20.3218V6.92975H17.8242V8.92975ZM21.8194 10.4273V20.6673H23.8194V10.4273H21.8194ZM21.8194 20.6673C21.8194 21.4944 21.1489 22.1649 20.3218 22.1649V24.1649C22.2534 24.1649 23.8194 22.599 23.8194 20.6673H21.8194ZM20.3218 8.92975C21.1489 8.92975 21.8194 9.60023 21.8194 10.4273H23.8194C23.8194 8.49566 22.2534 6.92975 20.3218 6.92975V8.92975ZM3.83887 10.4273C3.83887 9.60023 4.50935 8.92975 5.33643 8.92975V6.92975C3.40478 6.92975 1.83887 8.49566 1.83887 10.4273H3.83887ZM5.33643 22.1649C4.50935 22.1649 3.83887 21.4944 3.83887 20.6673H1.83887C1.83887 22.599 3.40478 24.1649 5.33643 24.1649V22.1649ZM15.5754 14.9229C15.5754 16.4397 14.3459 17.6693 12.8291 17.6693V19.6693C15.4504 19.6693 17.5754 17.5443 17.5754 14.9229H15.5754ZM12.8291 17.6693C11.3123 17.6693 10.0828 16.4397 10.0828 14.9229H8.08277C8.08277 17.5443 10.2078 19.6693 12.8291 19.6693V17.6693ZM10.0828 14.9229C10.0828 13.4062 11.3123 12.1766 12.8291 12.1766V10.1766C10.2078 10.1766 8.08277 12.3016 8.08277 14.9229H10.0828ZM12.8291 12.1766C14.3459 12.1766 15.5754 13.4062 15.5754 14.9229H17.5754C17.5754 12.3016 15.4504 10.1766 12.8291 10.1766V12.1766ZM20.3218 22.1649H5.33643V24.1649H20.3218V22.1649Z" fill="#888888"/>
<path d="M25.3166 1.87317L25.3166 7.49268M28.1263 4.68293L22.5068 4.68293" stroke="#888888" stroke-width="2" stroke-linecap="round"/>
</svg>
