<svg width="24" height="25" viewBox="0 0 24 25" fill="none" xmlns="http://www.w3.org/2000/svg">
<path d="M4.10557 18.6074L3.31176 17.9992L3.31176 17.9992L4.10557 18.6074ZM5.26855 15.3377L4.26855 15.3254V15.3377H5.26855ZM5.29296 13.3609L6.29296 13.3732V13.3609H5.29296ZM19.9006 18.6233L20.7065 18.0312L20.7065 18.0312L19.9006 18.6233ZM18.7814 15.3377L17.7814 15.3247V15.3377H18.7814ZM18.8058 13.4588L19.8058 13.4718V13.4588H18.8058ZM4.89939 19.2156C5.58054 18.3265 6.26855 16.9851 6.26855 15.3377H4.26855C4.26855 16.4189 3.81418 17.3434 3.31176 17.9992L4.89939 19.2156ZM6.26848 15.3501L6.29289 13.3732L4.29304 13.3485L4.26863 15.3254L6.26848 15.3501ZM20.7065 18.0312C20.2257 17.3767 19.7814 16.4405 19.7814 15.3377H17.7814C17.7814 16.9822 18.4401 18.3243 19.0948 19.2153L20.7065 18.0312ZM19.7813 15.3507L19.8057 13.4718L17.8059 13.4458L17.7815 15.3247L19.7813 15.3507ZM19.8058 13.4588C19.8058 9.17158 16.303 5.71053 12 5.71053V7.71053C15.2145 7.71053 17.8058 10.2921 17.8058 13.4588H19.8058ZM19.4933 20.5394C20.2194 20.5394 20.6784 20.0334 20.864 19.601C21.0482 19.1718 21.0878 18.5502 20.7065 18.0312L19.0947 19.2153C18.9586 19.03 19.0028 18.8665 19.0262 18.812C19.051 18.7543 19.1836 18.5394 19.4933 18.5394V20.5394ZM6.29296 13.3609C6.29296 10.2483 8.84007 7.71053 12 7.71053V5.71053C7.75154 5.71053 4.29296 9.12772 4.29296 13.3609H6.29296ZM4.50763 18.5394C4.82438 18.5394 4.95436 18.7618 4.97604 18.8139C4.99661 18.8633 5.04246 19.0288 4.89939 19.2156L3.31176 17.9992C2.91365 18.5189 2.94973 19.1504 3.12969 19.5826C3.31075 20.0175 3.76928 20.5394 4.50763 20.5394V18.5394ZM19.4933 18.5394H4.50763V20.5394H19.4933V18.5394ZM14.2 19.5395C14.2 20.5504 13.2897 21.5 12 21.5V23.5C14.2449 23.5 16.2 21.7986 16.2 19.5395H14.2ZM12 21.5C10.7103 21.5 9.8 20.5504 9.8 19.5395H7.8C7.8 21.7986 9.75506 23.5 12 23.5V21.5ZM13.1333 4.60526C13.1333 5.20324 12.6385 5.71053 12 5.71053V7.71053C13.718 7.71053 15.1333 6.3327 15.1333 4.60526H13.1333ZM12 5.71053C11.3615 5.71053 10.8667 5.20324 10.8667 4.60526H8.86667C8.86667 6.3327 10.282 7.71053 12 7.71053V5.71053ZM10.8667 4.60526C10.8667 4.00729 11.3615 3.5 12 3.5V1.5C10.282 1.5 8.86667 2.87783 8.86667 4.60526H10.8667ZM12 3.5C12.6385 3.5 13.1333 4.00729 13.1333 4.60526H15.1333C15.1333 2.87783 13.718 1.5 12 1.5V3.5Z" fill="#5A5A5A"/>
</svg>
