<svg width="239" height="240" viewBox="0 0 239 240" fill="none" xmlns="http://www.w3.org/2000/svg">
<path d="M95.8416 218.673C145.975 218.673 186.616 191.464 186.616 157.9C186.616 124.336 145.975 97.1272 95.8416 97.1272C45.7081 97.1272 5.0668 124.336 5.0668 157.9C5.0668 191.464 45.7081 218.673 95.8416 218.673Z" fill="#EBEBEB"/>
<path opacity="0.1" d="M103.152 209.505C102.579 209.505 102.053 209.409 101.575 209.123L93.5924 204.534L86.0878 208.836C85.6098 209.075 85.0362 209.218 84.5104 209.218C83.9368 209.218 83.411 209.123 82.933 208.836L77.914 205.92C77.2448 205.633 76.958 204.916 77.197 204.247C77.3404 203.912 77.5794 203.673 77.914 203.53L84.9406 199.467L77.436 195.165C76.7668 194.878 76.48 194.161 76.719 193.492C76.8624 193.157 77.1014 192.918 77.436 192.775L83.6978 189.142C84.7016 188.616 85.8488 188.616 86.8526 189.142L94.8352 193.731L102.292 189.429C103.296 188.903 104.443 188.903 105.447 189.429L110.466 192.345C111.135 192.632 111.422 193.349 111.183 194.018C111.039 194.352 110.8 194.591 110.466 194.735L103.487 198.75L110.992 203.1C111.661 203.387 111.948 204.151 111.709 204.773C111.565 205.107 111.326 205.346 110.992 205.49L104.73 209.123C104.252 209.409 103.678 209.505 103.105 209.505H103.152Z" fill="black"/>
<path opacity="0.1" d="M122.081 187.087C121.508 187.087 120.982 186.991 120.504 186.704L115.485 183.789C114.816 183.502 114.529 182.785 114.768 182.116C114.911 181.781 115.15 181.542 115.485 181.399L139.863 167.345C140.867 166.82 142.014 166.82 143.018 167.345L148.037 170.261C148.706 170.548 148.993 171.313 148.754 171.934C148.61 172.269 148.371 172.508 148.037 172.651L123.659 186.704C123.181 186.991 122.607 187.087 122.081 187.087Z" fill="black"/>
<path opacity="0.1" d="M48.517 194.735L15.774 175.806C14.6268 175.137 14.6268 174.085 15.774 173.416L81.5468 135.415C82.8374 134.746 84.367 134.746 85.6576 135.415L118.401 154.344C119.548 155.013 119.548 156.065 118.401 156.734L52.6278 194.687C51.3372 195.356 49.8076 195.356 48.4692 194.687L48.517 194.735Z" fill="black"/>
<path d="M42.5898 162.518C42.4942 161.801 41.5382 142.633 35.4198 132.117C29.3014 121.601 20.2194 116.677 15.5828 121.123C11.3764 125.138 16.5388 130.97 22.8006 136.945C30.2096 144.067 35.5632 152.002 37.045 161.944L42.5898 162.518Z" fill="#2ABFB0"/>
<path opacity="0.2" d="M42.5898 162.518C42.4942 161.801 41.5382 142.633 35.4198 132.117C29.3014 121.601 20.2194 116.677 15.5828 121.123C11.3764 125.138 16.5388 130.97 22.8006 136.945C30.2096 144.067 35.5632 152.002 37.045 161.944L42.5898 162.518Z" fill="black"/>
<path d="M39.2438 161.036C39.0526 161.036 38.8614 160.892 38.8614 160.653C37.7142 139.621 22.9918 126.094 19.1678 123.608C18.9766 123.513 18.9288 123.274 19.0244 123.083C19.12 122.891 19.359 122.844 19.5502 122.939C19.5502 122.939 19.5502 122.939 19.598 122.939C23.5176 125.473 38.479 139.239 39.674 160.558C39.674 160.749 39.5306 160.94 39.2916 160.988L39.2438 161.036Z" fill="white"/>
<path d="M43.2112 158.646C42.2074 156.017 39.5306 154.296 36.806 153.436C33.9858 152.527 31.0222 152.288 28.2498 151.332C25.4774 150.376 23.0874 148.751 20.315 147.795C17.5426 146.839 13.862 146.696 11.472 148.464C7.7436 151.237 11.9022 155.109 14.0532 156.973C15.3916 158.12 16.4432 160.032 15.774 161.657C15.1048 163.282 13.1928 163.999 12.5714 165.577C11.8066 167.537 13.384 169.64 15.1048 170.883C17.3036 172.46 19.8848 173.512 22.5616 173.894C24.139 174.133 26.0032 174.276 26.768 175.615C27.3894 176.619 27.1026 177.909 27.1504 179.104C27.2938 181.542 28.9668 183.741 31.07 184.936C33.3166 186.226 37.1884 187.326 39.7696 186.609L47.2742 184.458C49.1384 183.932 50.19 180.586 50.429 178.913C50.8114 176.571 50.3334 174.181 49.1384 172.125C47.6088 169.544 44.932 167.68 44.0716 164.812C43.498 162.9 43.8804 160.797 43.259 158.885C43.259 158.789 43.2112 158.694 43.1634 158.646H43.2112Z" fill="#2ABFB0"/>
<path d="M45.1232 183.119C45.0276 183.119 44.9798 183.024 44.932 182.928C41.4904 167.489 22.4182 153.675 15.0092 150.472C14.8658 150.424 14.818 150.233 14.8658 150.137C14.9136 149.994 15.1048 149.946 15.2482 149.994C22.705 153.197 42.0162 167.202 45.5056 182.833C45.5056 182.976 45.4578 183.119 45.3144 183.167C45.2666 183.167 45.2188 183.167 45.171 183.167L45.1232 183.119Z" fill="white"/>
<path d="M20.7452 167.967C20.6496 167.967 20.554 167.823 20.5062 167.728C20.4584 167.537 20.5062 167.345 20.7452 167.298C22.2748 166.82 23.8044 166.485 25.3818 166.198C28.5366 165.625 31.7392 165.433 34.9418 165.72C35.2764 165.72 35.611 165.768 35.8978 165.911C36.0412 166.007 36.1846 166.15 36.1846 166.294C36.089 166.676 35.611 166.485 35.372 166.437C34.9418 166.389 34.5594 166.342 34.1292 166.342C33.3166 166.294 32.4562 166.294 31.6436 166.294C30.114 166.294 28.5366 166.437 27.007 166.676C25.0472 166.915 23.1352 167.345 21.271 167.871H21.032C20.9364 167.967 20.8408 167.967 20.793 167.919L20.7452 167.967Z" fill="white"/>
<path d="M119.835 19.8824C119.835 18.544 119.357 17.6358 118.64 17.2056C117.923 16.7754 111.613 13.0948 110.848 12.6646C110.083 12.2344 109.08 12.33 107.932 12.9514L45.0276 49.3272C42.7332 50.6656 40.869 53.8682 40.869 56.4972V186.131C40.869 187.469 41.347 188.377 42.064 188.808C42.781 189.238 49.0906 192.871 49.8076 193.301C50.5246 193.731 51.624 193.683 52.7712 193.014L115.676 156.686C117.97 155.348 119.835 152.145 119.835 149.516V19.8824Z" fill="#37474F"/>
<path d="M48.6604 190.576V60.9904C48.6604 58.3614 50.5246 55.1588 52.819 53.8204L115.676 17.4924C117.97 16.154 119.835 17.2534 119.835 19.8824V149.516C119.835 152.145 117.97 155.348 115.676 156.686L52.7712 193.014C50.4768 194.305 48.6126 193.253 48.6126 190.624L48.6604 190.576Z" fill="#37474F"/>
<path d="M65.1992 166.915C65.0558 166.82 64.8168 166.82 64.6734 166.915L55.448 172.269C54.9222 172.556 54.492 173.607 54.492 174.515V183.55C54.4442 183.98 54.5876 184.41 54.9222 184.745C55.0656 184.84 56.5952 185.701 56.882 185.844C57.0254 185.94 57.2644 185.94 57.4078 185.844L66.6332 180.49C67.159 180.204 67.5892 179.152 67.5892 178.244V169.21C67.637 168.779 67.4936 168.301 67.159 168.015L65.1992 166.915Z" fill="#2ABFB0"/>
<path opacity="0.2" d="M56.882 185.892L54.9222 184.792C54.5876 184.506 54.4442 184.075 54.492 183.597V174.515C54.492 174.037 54.5876 173.512 54.8266 173.081L56.7864 174.181C56.5952 174.611 56.4996 175.137 56.4518 175.615V184.649C56.4518 185.27 56.5952 185.701 56.882 185.844V185.892Z" fill="black"/>
<path opacity="0.5" d="M67.1112 168.015C66.9678 167.967 66.7766 167.967 66.6332 168.015L57.36 173.368C57.0732 173.559 56.8342 173.846 56.6908 174.181L54.731 173.081C54.8744 172.747 55.0656 172.46 55.4002 172.269L64.6256 166.915C64.769 166.82 64.9602 166.82 65.1514 166.915C65.4382 167.059 66.8722 167.919 67.0634 168.015H67.1112Z" fill="white"/>
<path d="M66.6332 180.49L57.36 185.844C56.8342 186.131 56.404 185.653 56.404 184.697V175.663C56.404 174.707 56.8342 173.703 57.36 173.416L66.5854 168.062C67.1112 167.776 67.5414 168.254 67.5414 169.21V178.244C67.5414 179.2 67.1112 180.204 66.5854 180.49H66.6332Z" fill="#2ABFB0"/>
<path d="M98.1812 147.843C98.0378 147.747 97.7988 147.747 97.6554 147.843L88.43 153.197C87.9042 153.483 87.474 154.535 87.474 155.443V164.477C87.4262 164.908 87.5696 165.338 87.9042 165.672L89.864 166.772C90.0074 166.867 90.2464 166.867 90.3898 166.772L99.6152 161.418C100.141 161.131 100.571 160.08 100.571 159.172V150.137C100.619 149.707 100.476 149.229 100.141 148.942C99.9976 148.847 98.468 147.986 98.1812 147.843Z" fill="#2ABFB0"/>
<path opacity="0.2" d="M89.864 166.82L87.9042 165.72C87.5696 165.433 87.4262 165.003 87.474 164.525V155.491C87.474 155.013 87.5696 154.487 87.7608 154.057L89.7206 155.156C89.5294 155.587 89.4338 156.112 89.4338 156.59V165.625C89.4338 166.246 89.625 166.676 89.9118 166.82H89.864Z" fill="black"/>
<path opacity="0.5" d="M100.093 148.942C99.9498 148.847 99.7586 148.895 99.5674 148.942L90.342 154.296C90.0552 154.487 89.8162 154.774 89.6728 155.109L87.713 154.009C87.8564 153.675 88.0476 153.388 88.3822 153.197L97.6076 147.843C97.751 147.747 97.9422 147.747 98.1334 147.843C98.4202 147.986 99.8542 148.847 100.045 148.942H100.093Z" fill="white"/>
<path d="M99.6152 161.466L90.3898 166.82C89.864 167.106 89.4338 166.628 89.4338 165.672V156.59C89.4338 155.634 89.864 154.631 90.3898 154.344L99.6152 148.99C100.141 148.703 100.571 149.181 100.571 150.137V159.172C100.571 160.08 100.141 161.131 99.6152 161.418V161.466Z" fill="#2ABFB0"/>
<path d="M114.672 138.331C114.529 138.235 114.29 138.283 114.146 138.331L104.921 143.684C104.395 143.971 103.965 145.023 103.965 145.931V154.965C103.917 155.395 104.061 155.826 104.395 156.16L106.355 157.26C106.498 157.355 106.737 157.355 106.881 157.26L116.106 151.906C116.632 151.619 117.062 150.568 117.062 149.659V140.625C117.11 140.195 116.967 139.717 116.632 139.43L114.72 138.331H114.672Z" fill="#2ABFB0"/>
<path opacity="0.2" d="M106.355 157.307L104.395 156.208C104.061 155.921 103.917 155.491 103.965 155.013V145.931C103.965 145.453 104.061 144.927 104.252 144.497L106.212 145.596C106.02 146.027 105.925 146.552 105.925 147.03V156.065C105.925 156.686 106.116 157.116 106.355 157.26V157.307Z" fill="black"/>
<path opacity="0.5" d="M116.632 139.43C116.489 139.335 116.297 139.382 116.106 139.43L106.833 144.784C106.546 144.975 106.307 145.262 106.164 145.596L104.204 144.497C104.347 144.162 104.539 143.876 104.873 143.684L114.099 138.331C114.242 138.235 114.433 138.235 114.624 138.331C114.863 138.474 116.345 139.335 116.584 139.43H116.632Z" fill="white"/>
<path d="M116.106 151.954L106.881 157.26C106.355 157.546 105.925 157.068 105.925 156.112V147.078C105.925 146.122 106.355 145.118 106.881 144.832L116.106 139.478C116.632 139.191 117.062 139.669 117.062 140.625V149.659C117.062 150.615 116.632 151.619 116.106 151.906V151.954Z" fill="#2ABFB0"/>
<path d="M114.672 119.259C114.529 119.163 114.29 119.163 114.146 119.259L104.921 124.612C104.395 124.899 103.965 125.951 103.965 126.859V135.893C103.917 136.323 104.061 136.753 104.395 137.088L106.355 138.187C106.498 138.283 106.737 138.283 106.881 138.187L116.106 132.834C116.632 132.547 117.062 131.495 117.062 130.587V121.553C117.11 121.123 116.967 120.645 116.632 120.358L114.72 119.259H114.672Z" fill="#2ABFB0"/>
<path opacity="0.2" d="M106.355 138.235L104.395 137.136C104.061 136.849 103.917 136.419 103.965 135.941V126.859C103.965 126.381 104.061 125.855 104.252 125.425L106.212 126.524C106.02 126.954 105.925 127.48 105.925 127.958V136.992C105.925 137.614 106.116 138.044 106.355 138.187V138.235Z" fill="black"/>
<path opacity="0.5" d="M116.632 120.358C116.489 120.262 116.297 120.31 116.106 120.358L106.881 125.712C106.594 125.903 106.355 126.19 106.212 126.524L104.252 125.425C104.395 125.09 104.586 124.803 104.921 124.612L114.146 119.259C114.29 119.163 114.481 119.163 114.672 119.259C114.911 119.402 116.393 120.262 116.584 120.358H116.632Z" fill="white"/>
<path d="M116.106 132.834L106.881 138.187C106.355 138.474 105.925 137.996 105.925 137.04V128.006C105.925 127.05 106.355 126.046 106.881 125.759L116.106 120.406C116.632 120.119 117.062 120.597 117.062 121.553V130.587C117.062 131.543 116.632 132.547 116.106 132.834Z" fill="#2ABFB0"/>
<path d="M114.672 100.186C114.529 100.091 114.29 100.091 114.146 100.186L104.921 105.54C104.395 105.827 103.965 106.878 103.965 107.787V116.821C103.917 117.251 104.061 117.681 104.395 118.016L106.355 119.115C106.498 119.211 106.737 119.211 106.881 119.115L116.106 113.762C116.632 113.475 117.062 112.423 117.062 111.515V102.481C117.11 102.051 116.967 101.573 116.632 101.286L114.672 100.186Z" fill="#2ABFB0"/>
<path opacity="0.2" d="M106.355 119.163L104.395 118.064C104.061 117.777 103.917 117.347 103.965 116.869V107.834C103.965 107.356 104.061 106.831 104.252 106.4L106.212 107.5C106.02 107.93 105.925 108.456 105.925 108.934V117.968C105.925 118.589 106.116 119.02 106.355 119.163Z" fill="black"/>
<path opacity="0.5" d="M116.632 101.286C116.489 101.19 116.297 101.238 116.106 101.286L106.881 106.639C106.594 106.831 106.355 107.117 106.212 107.452L104.252 106.353C104.395 106.018 104.586 105.731 104.921 105.54L114.146 100.186C114.29 100.091 114.481 100.091 114.672 100.186C114.911 100.33 116.393 101.19 116.584 101.286H116.632Z" fill="white"/>
<path d="M116.106 113.762L106.881 119.115C106.355 119.402 105.925 118.924 105.925 117.968V108.934C105.925 107.978 106.355 106.974 106.881 106.687L116.106 101.381C116.632 101.095 117.062 101.573 117.062 102.529V111.563C117.062 112.471 116.632 113.523 116.106 113.809V113.762Z" fill="#2ABFB0"/>
<path d="M114.672 81.1142C114.529 81.0186 114.29 81.0186 114.146 81.1142L104.921 86.4678C104.395 86.7546 103.965 87.8062 103.965 88.7144V97.7486C103.917 98.1788 104.061 98.609 104.395 98.9436L106.355 100.043C106.498 100.139 106.737 100.139 106.881 100.043L116.106 94.6894C116.632 94.4026 117.062 93.351 117.062 92.4428V83.4086C117.11 82.9784 116.967 82.5004 116.632 82.2136C116.489 82.118 114.959 81.2576 114.672 81.1142Z" fill="#2ABFB0"/>
<path opacity="0.2" d="M106.355 100.091L104.395 98.9436C104.061 98.6568 103.917 98.2266 103.965 97.7486V88.7144C103.965 88.2364 104.061 87.7106 104.252 87.2804L106.212 88.3798C106.02 88.81 105.925 89.3358 105.925 89.8138V98.848C105.925 99.4694 106.116 99.8996 106.403 100.043L106.355 100.091Z" fill="black"/>
<path opacity="0.5" d="M116.632 82.2136C116.489 82.118 116.297 82.1658 116.106 82.2136L106.881 87.5672C106.594 87.7584 106.355 88.0452 106.212 88.3798L104.252 87.2804C104.395 86.9458 104.586 86.659 104.921 86.4678L114.146 81.1142C114.29 81.0186 114.481 81.0186 114.672 81.1142C114.911 81.2576 116.393 82.118 116.584 82.2136H116.632Z" fill="white"/>
<path d="M116.106 94.6894L106.881 100.043C106.355 100.33 105.925 99.8518 105.925 98.8958V89.8616C105.925 88.9056 106.355 87.9018 106.881 87.615L116.106 82.2614C116.632 81.9746 117.062 82.4526 117.062 83.4086V92.4428C117.062 93.3988 116.632 94.4026 116.106 94.6894Z" fill="#2ABFB0"/>
<path d="M114.672 62.042C114.529 61.9464 114.29 61.9464 114.146 62.042L104.921 67.3956C104.395 67.6824 103.965 68.734 103.965 69.6422V78.6764C103.917 79.1066 104.061 79.5368 104.395 79.8714C104.539 79.967 106.068 80.8274 106.355 80.9708C106.498 81.0664 106.737 81.0664 106.881 80.9708L116.106 75.6172C116.632 75.3304 117.062 74.2788 117.062 73.3706V64.3364C117.062 63.715 116.871 63.2848 116.632 63.1414C116.489 63.0458 114.959 62.1854 114.672 62.042Z" fill="#2ABFB0"/>
<path opacity="0.2" d="M106.355 81.0186L104.395 79.9192C104.061 79.6324 103.917 79.2022 103.965 78.7242V69.69C103.965 69.212 104.061 68.6862 104.252 68.256L106.212 69.3554C106.02 69.7856 105.925 70.3114 105.925 70.7894V79.8236C105.925 80.445 106.116 80.8752 106.355 81.0186Z" fill="black"/>
<path opacity="0.5" d="M116.632 63.1414C116.489 63.0458 116.297 63.0936 116.106 63.1414L106.881 68.495C106.594 68.6862 106.355 68.973 106.212 69.3076L104.252 68.2082C104.395 67.8736 104.586 67.5868 104.921 67.3956L114.146 62.042C114.29 61.9464 114.481 61.9464 114.672 62.042C114.911 62.1854 116.393 63.0458 116.584 63.1414H116.632Z" fill="white"/>
<path d="M116.106 75.6172L106.881 80.9708C106.355 81.2576 105.925 80.7796 105.925 79.8236V70.7416C105.925 69.7856 106.355 68.7818 106.881 68.495L116.106 63.1414C116.632 62.8546 117.062 63.3326 117.062 64.2886V73.3228C117.062 74.2788 116.632 75.2826 116.106 75.6172Z" fill="#2ABFB0"/>
<path d="M98.1812 71.5542C98.0378 71.4586 97.7988 71.4586 97.6554 71.5542L88.43 76.9078C87.9042 77.1946 87.474 78.2462 87.474 79.1544V88.1886C87.4262 88.6188 87.5696 89.049 87.9042 89.3836L89.864 90.483C90.0074 90.5786 90.2464 90.5786 90.3898 90.483L99.6152 85.1294C100.141 84.8426 100.571 83.791 100.571 82.8828V73.8486C100.619 73.4184 100.476 72.9404 100.141 72.6536L98.1812 71.5542Z" fill="#2ABFB0"/>
<path opacity="0.2" d="M89.864 90.5309L87.9042 89.3837C87.5696 89.0969 87.4262 88.6667 87.474 88.1887V79.1545C87.474 78.6765 87.5696 78.1507 87.7608 77.7205L89.7206 78.8677C89.5294 79.2979 89.4338 79.8237 89.4338 80.3017V89.3359C89.4338 89.9573 89.625 90.3875 89.864 90.5309Z" fill="black"/>
<path opacity="0.5" d="M100.093 72.6536C99.9498 72.558 99.7586 72.6058 99.5674 72.6536L90.342 78.0072C90.0552 78.1984 89.8162 78.4852 89.6728 78.8676L87.713 77.7682C87.8564 77.4336 88.0476 77.1468 88.3822 76.9556L97.6076 71.602C97.751 71.5064 97.9422 71.5064 98.1334 71.602C98.4202 71.7454 99.8542 72.6058 100.045 72.7014L100.093 72.6536Z" fill="white"/>
<path d="M99.6152 85.1294L90.3898 90.483C89.864 90.7698 89.4338 90.2918 89.4338 89.3358V80.3016C89.4338 79.3456 89.864 78.3418 90.3898 78.055L99.6152 72.7014C100.141 72.4146 100.571 72.8926 100.571 73.8486V82.8828C100.571 83.791 100.141 84.7948 99.6152 85.1294Z" fill="#2ABFB0"/>
<path d="M81.6902 81.0664C81.5468 80.9708 81.3078 81.0186 81.1644 81.0664L71.939 86.42C71.4132 86.7068 70.983 87.7584 70.983 88.6666V97.7008C70.9352 98.131 71.0786 98.5612 71.4132 98.8958L73.373 99.9952C73.5164 100.091 73.7554 100.091 73.8988 99.9952L83.1242 94.6416C83.65 94.3548 84.0802 93.3032 84.0802 92.395V83.3608C84.128 82.9306 83.9846 82.4526 83.65 82.1658L81.6902 81.0664Z" fill="#2ABFB0"/>
<path opacity="0.2" d="M73.373 100.043L71.4132 98.9436C71.0786 98.6568 70.9352 98.2266 70.983 97.7486V88.6666C70.983 88.1886 71.0786 87.6628 71.2698 87.2326L73.2296 88.332C73.0384 88.7622 72.9428 89.288 72.9428 89.766V98.8002C72.9428 99.4216 73.134 99.8518 73.4208 99.9952L73.373 100.043Z" fill="black"/>
<path opacity="0.5" d="M83.6022 82.1658C83.4588 82.118 83.2676 82.118 83.1242 82.1658L73.8988 87.5195C73.612 87.7107 73.373 87.9974 73.2296 88.332L71.2698 87.2326C71.4132 86.898 71.6044 86.6112 71.939 86.42L81.1644 81.0665C81.3078 80.9709 81.499 80.9709 81.6902 81.0665C81.9292 81.2099 83.411 82.0702 83.6022 82.1658Z" fill="white"/>
<path d="M83.1242 94.6894L73.8988 100.043C73.373 100.33 72.9428 99.8518 72.9428 98.8958V89.8616C72.9428 88.9056 73.373 87.9018 73.8988 87.615L83.1242 82.2614C83.65 81.9746 84.0802 82.4526 84.0802 83.4086V92.4428C84.0802 93.3988 83.65 94.4026 83.1242 94.6894Z" fill="#2ABFB0"/>
<path d="M65.1992 90.6264C65.0558 90.5308 64.8168 90.5308 64.6734 90.6264L55.448 95.98C54.9222 96.2668 54.492 97.3184 54.492 98.2266V107.261C54.4442 107.691 54.5876 108.121 54.9222 108.456L56.882 109.555C57.0254 109.651 57.2644 109.651 57.4078 109.555L66.6332 104.202C67.159 103.915 67.5892 102.863 67.5892 101.955V92.9208C67.5892 92.2994 67.398 91.8692 67.159 91.7258L65.247 90.6264H65.1992Z" fill="#2ABFB0"/>
<path opacity="0.2" d="M56.882 109.555L54.9222 108.456C54.5876 108.169 54.4442 107.739 54.492 107.261V98.2266C54.492 97.7486 54.5876 97.2228 54.8266 96.7926L56.7864 97.892C56.5952 98.3222 56.4996 98.848 56.4518 99.326V108.36C56.4518 108.982 56.5952 109.412 56.882 109.555Z" fill="black"/>
<path opacity="0.5" d="M67.1112 91.7258C66.9678 91.678 66.7766 91.678 66.6332 91.7258L57.36 97.0794C57.0732 97.2706 56.8342 97.5574 56.6908 97.892L54.731 96.7926C54.8744 96.458 55.0656 96.1712 55.4002 95.98L64.6256 90.6264C64.769 90.5308 64.9602 90.5308 65.1514 90.6264C65.4382 90.7698 66.8722 91.6302 67.0634 91.7258H67.1112Z" fill="white"/>
<path d="M66.6332 104.202L57.36 109.555C56.8342 109.842 56.404 109.364 56.404 108.408V99.3738C56.404 98.4178 56.8342 97.414 57.36 97.1272L66.5854 91.7736C67.1112 91.4868 67.5414 91.9648 67.5414 92.9208V101.955C67.5414 102.911 67.1112 103.915 66.5854 104.202H66.6332Z" fill="#2ABFB0"/>
<path d="M81.6902 157.403C81.5468 157.307 81.3078 157.307 81.1644 157.403L71.939 162.757C71.4132 163.043 70.983 164.095 70.983 165.003V174.037C70.9352 174.468 71.0786 174.898 71.4132 175.232C71.5566 175.328 73.0862 176.188 73.373 176.332C73.5164 176.427 73.7554 176.427 73.8988 176.332L83.1242 170.978C83.65 170.691 84.0802 169.64 84.0802 168.732V159.697C84.0802 159.076 83.889 158.646 83.65 158.502L81.6902 157.403Z" fill="#E0E0E0"/>
<path d="M83.6022 158.502C83.4588 158.455 83.2676 158.455 83.1242 158.502L73.8988 163.856C73.612 164.047 73.373 164.334 73.2296 164.669L71.2698 163.569C71.4132 163.235 71.6044 162.948 71.939 162.757L81.1644 157.403C81.3078 157.307 81.499 157.307 81.6902 157.403C81.9292 157.546 83.411 158.407 83.6022 158.502Z" fill="#F0F0F0"/>
<path opacity="0.2" d="M73.373 176.38L71.4132 175.28C71.0786 174.993 70.9352 174.563 70.983 174.085V165.003C70.983 164.525 71.0786 163.999 71.2698 163.569L73.2296 164.669C73.0384 165.099 72.9428 165.625 72.9428 166.103V175.137C72.9428 175.758 73.134 176.188 73.4208 176.332L73.373 176.38Z" fill="black"/>
<path d="M65.1992 147.843C65.0558 147.747 64.8168 147.747 64.6734 147.843L55.448 153.197C54.9222 153.483 54.492 154.535 54.492 155.443V164.477C54.4442 164.908 54.5876 165.338 54.9222 165.672C55.0656 165.768 56.5952 166.628 56.882 166.772C57.0254 166.867 57.2644 166.867 57.4078 166.772L66.6332 161.418C67.159 161.131 67.5892 160.08 67.5892 159.172V150.09C67.5892 149.468 67.398 149.038 67.159 148.895L65.1992 147.795V147.843Z" fill="#E0E0E0"/>
<path d="M67.1112 148.942C66.9678 148.895 66.7766 148.895 66.6332 148.942L57.36 154.296C57.0732 154.487 56.8342 154.774 56.6908 155.109L54.731 154.009C54.8744 153.675 55.0656 153.388 55.4002 153.197L64.6256 147.843C64.769 147.747 64.9602 147.747 65.1514 147.843C65.4382 147.986 66.8722 148.847 67.0634 148.942H67.1112Z" fill="#F0F0F0"/>
<path opacity="0.2" d="M56.882 166.82L54.9222 165.72C54.5876 165.433 54.4442 165.003 54.492 164.525V155.443C54.492 154.965 54.5876 154.439 54.8266 154.009L56.7864 155.109C56.5952 155.539 56.4996 156.065 56.4518 156.543V165.577C56.4518 166.198 56.5952 166.628 56.882 166.772V166.82Z" fill="black"/>
<path d="M98.1812 128.771C98.0378 128.675 97.7988 128.675 97.6554 128.771L88.43 134.124C87.9042 134.411 87.474 135.463 87.474 136.371V145.405C87.4262 145.835 87.5696 146.266 87.9042 146.6L89.864 147.7C90.0074 147.795 90.2464 147.795 90.3898 147.7L99.6152 142.346C100.141 142.059 100.571 141.008 100.571 140.099V131.065C100.619 130.635 100.476 130.157 100.141 129.87C99.9976 129.775 98.468 128.914 98.1812 128.771Z" fill="#E0E0E0"/>
<path d="M100.093 129.87C99.9498 129.775 99.7586 129.822 99.5674 129.87L90.342 135.224C90.0552 135.415 89.8162 135.702 89.6728 136.036L87.713 134.937C87.8564 134.602 88.0476 134.316 88.3822 134.124L97.6076 128.771C97.751 128.675 97.9422 128.675 98.1334 128.771C98.4202 128.914 99.8542 129.775 100.045 129.87H100.093Z" fill="#F0F0F0"/>
<path opacity="0.2" d="M89.864 147.747L87.9042 146.648C87.5696 146.361 87.4262 145.931 87.474 145.453V136.371C87.474 135.893 87.5696 135.367 87.7608 134.937L89.7206 136.036C89.5294 136.467 89.4338 136.992 89.4338 137.47V146.505C89.4338 147.126 89.625 147.556 89.9118 147.7L89.864 147.747Z" fill="black"/>
<path d="M81.6902 138.331C81.5468 138.235 81.3078 138.235 81.1644 138.331L71.939 143.684C71.4132 143.971 70.983 145.023 70.983 145.931V154.965C70.9352 155.395 71.0786 155.826 71.4132 156.16L73.373 157.26C73.5164 157.355 73.7554 157.355 73.8988 157.26L83.1242 151.906C83.65 151.619 84.0802 150.568 84.0802 149.659V140.625C84.0802 140.004 83.889 139.574 83.65 139.43L81.6902 138.331Z" fill="#E0E0E0"/>
<path d="M83.6022 139.43C83.4588 139.382 83.2676 139.382 83.1242 139.43L73.8988 144.784C73.612 144.975 73.373 145.262 73.2296 145.596L71.2698 144.497C71.4132 144.162 71.6044 143.876 71.939 143.684L81.1644 138.331C81.3078 138.235 81.499 138.235 81.6902 138.331C81.9292 138.474 83.411 139.335 83.6022 139.43Z" fill="#F0F0F0"/>
<path opacity="0.2" d="M73.373 157.26L71.4132 156.16C71.0786 155.873 70.9352 155.443 70.983 154.965V145.883C70.983 145.405 71.0786 144.879 71.2698 144.449L73.2296 145.549C73.0384 145.979 72.9428 146.505 72.9428 146.983V156.017C72.9428 156.638 73.134 157.068 73.4208 157.212L73.373 157.26Z" fill="black"/>
<path d="M65.1992 128.771C65.0558 128.675 64.8168 128.675 64.6734 128.771L55.448 134.124C54.9222 134.411 54.492 135.463 54.492 136.371V145.405C54.4442 145.835 54.5876 146.266 54.9222 146.6L56.882 147.7C57.0254 147.795 57.2166 147.747 57.36 147.7L66.5854 142.346C67.1112 142.059 67.5414 141.008 67.5414 140.099V131.065C67.5892 130.635 67.4458 130.157 67.1112 129.87L65.1992 128.771Z" fill="#E0E0E0"/>
<path d="M67.1112 129.87C66.9678 129.822 66.7766 129.822 66.6332 129.87L57.36 135.224C57.0732 135.415 56.8342 135.702 56.6908 136.036L54.731 134.937C54.8744 134.602 55.0656 134.316 55.4002 134.124L64.6256 128.771C64.769 128.675 64.9602 128.675 65.1514 128.771C65.4382 128.914 66.8722 129.775 67.0634 129.87H67.1112Z" fill="#F0F0F0"/>
<path opacity="0.2" d="M56.882 147.747L54.9222 146.648C54.5876 146.361 54.4442 145.931 54.492 145.453V136.371C54.492 135.893 54.5876 135.367 54.8266 134.937L56.7864 136.036C56.5952 136.467 56.4996 136.992 56.4518 137.47V146.505C56.4518 147.126 56.5952 147.556 56.882 147.7V147.747Z" fill="black"/>
<path d="M98.1812 109.699C98.0378 109.603 97.7988 109.603 97.6554 109.699L88.43 115.052C87.9042 115.339 87.474 116.391 87.474 117.299V126.333C87.4262 126.763 87.5696 127.193 87.9042 127.528L89.864 128.627C90.0074 128.723 90.2464 128.723 90.3898 128.627L99.6152 123.274C100.141 122.987 100.571 121.935 100.571 121.027V111.993C100.619 111.563 100.476 111.085 100.141 110.798C99.9976 110.702 98.5158 109.842 98.229 109.699H98.1812Z" fill="#E0E0E0"/>
<path d="M100.093 110.798C99.9498 110.702 99.7586 110.75 99.5674 110.798L90.342 116.152C90.0552 116.343 89.8162 116.63 89.6728 116.964L87.713 115.865C87.8564 115.53 88.0476 115.243 88.3822 115.052L97.6076 109.699C97.751 109.603 97.9422 109.603 98.1334 109.699C98.4202 109.842 99.8542 110.702 100.045 110.798H100.093Z" fill="#F0F0F0"/>
<path opacity="0.2" d="M89.864 128.675L87.9042 127.576C87.5696 127.289 87.4262 126.859 87.474 126.381V117.299C87.474 116.821 87.5696 116.295 87.7608 115.865L89.7206 116.964C89.5294 117.394 89.4338 117.92 89.4338 118.398V127.432C89.4338 128.054 89.625 128.484 89.9118 128.627L89.864 128.675Z" fill="black"/>
<path d="M81.6902 119.211C81.5468 119.115 81.3078 119.115 81.1644 119.211L71.939 124.564C71.4132 124.851 70.983 125.903 70.983 126.811V135.845C70.9352 136.275 71.0786 136.706 71.4132 137.04L73.373 138.14C73.5164 138.235 73.7554 138.235 73.8988 138.14L83.1242 132.786C83.65 132.499 84.0802 131.448 84.0802 130.539V121.505C84.128 121.075 83.9846 120.597 83.65 120.31L81.6902 119.211Z" fill="#E0E0E0"/>
<path d="M83.6022 120.358C83.4588 120.31 83.2676 120.31 83.1242 120.358L73.851 125.664C73.5642 125.855 73.3252 126.142 73.1818 126.476L71.222 125.377C71.3654 125.042 71.5566 124.756 71.8912 124.564L81.1166 119.211C81.26 119.115 81.4512 119.115 81.6424 119.211C81.9292 119.354 83.3632 120.215 83.5544 120.31L83.6022 120.358Z" fill="#F0F0F0"/>
<path opacity="0.2" d="M73.373 138.235L71.4132 137.136C71.0786 136.849 70.9352 136.419 70.983 135.941V126.859C70.983 126.381 71.0786 125.855 71.2698 125.425L73.2296 126.524C73.0384 126.954 72.9428 127.48 72.9428 127.958V136.992C72.9428 137.614 73.134 138.044 73.4208 138.187L73.373 138.235Z" fill="black"/>
<path d="M65.1992 109.699C65.0558 109.603 64.8168 109.603 64.6734 109.699L55.448 115.052C54.9222 115.339 54.492 116.391 54.492 117.299V126.333C54.4442 126.763 54.5876 127.193 54.9222 127.528C55.0656 127.624 56.5952 128.484 56.882 128.627C57.0254 128.723 57.2644 128.723 57.4078 128.627L66.6332 123.274C67.159 122.987 67.5892 121.935 67.5892 121.027V111.993C67.5892 111.372 67.398 110.941 67.159 110.798L65.1992 109.699Z" fill="#E0E0E0"/>
<path d="M67.1112 110.798C66.9678 110.75 66.7766 110.75 66.6332 110.798L57.36 116.104C57.0732 116.295 56.8342 116.582 56.6908 116.916L54.731 115.817C54.8744 115.482 55.0656 115.196 55.4002 115.004L64.6256 109.651C64.769 109.555 64.9602 109.555 65.1514 109.651C65.4382 109.794 66.8722 110.655 67.0634 110.798H67.1112Z" fill="#F0F0F0"/>
<path opacity="0.2" d="M56.882 128.675L54.9222 127.576C54.5876 127.289 54.4442 126.859 54.492 126.381V117.299C54.492 116.821 54.5876 116.295 54.8266 115.865L56.7864 116.964C56.5952 117.394 56.4996 117.92 56.4518 118.398V127.432C56.4518 128.054 56.5952 128.484 56.882 128.627V128.675Z" fill="black"/>
<path d="M98.1812 90.6264C98.0378 90.5308 97.7988 90.5308 97.6554 90.6264L88.43 95.98C87.9042 96.2668 87.474 97.3184 87.474 98.2266V107.261C87.4262 107.691 87.5696 108.121 87.9042 108.456L89.864 109.555C90.0074 109.651 90.2464 109.651 90.3898 109.555L99.6152 104.202C100.141 103.915 100.571 102.863 100.571 101.955V92.9208C100.619 92.4906 100.476 92.0126 100.141 91.7258C99.9976 91.6302 98.468 90.7698 98.1812 90.6264Z" fill="#E0E0E0"/>
<path d="M100.093 91.7258C99.9498 91.6302 99.7586 91.678 99.5674 91.7258L90.342 97.0794C90.0552 97.2706 89.8162 97.5574 89.6728 97.892L87.713 96.7926C87.8564 96.458 88.0476 96.1712 88.3822 95.98L97.6076 90.6264C97.751 90.5308 97.9422 90.5308 98.1334 90.6264C98.4202 90.7698 99.8542 91.6302 100.045 91.7258H100.093Z" fill="#F0F0F0"/>
<path opacity="0.2" d="M89.864 109.603L87.9042 108.504C87.5696 108.217 87.4262 107.787 87.474 107.309V98.2266C87.474 97.7486 87.5696 97.2228 87.7608 96.7926L89.7206 97.892C89.5294 98.3222 89.4338 98.848 89.4338 99.326V108.36C89.4338 108.982 89.625 109.412 89.9118 109.555L89.864 109.603Z" fill="black"/>
<path d="M81.6902 100.186C81.5468 100.091 81.3078 100.091 81.1644 100.186L71.939 105.54C71.4132 105.827 70.983 106.878 70.983 107.787V116.821C70.9352 117.251 71.0786 117.681 71.4132 118.016L73.373 119.115C73.5164 119.211 73.7554 119.211 73.8988 119.115L83.1242 113.762C83.65 113.475 84.0802 112.423 84.0802 111.515V102.481C84.0802 101.859 83.889 101.429 83.65 101.286L81.6902 100.186Z" fill="#E0E0E0"/>
<path d="M83.6022 101.286C83.4588 101.238 83.2676 101.238 83.1242 101.286L73.8988 106.639C73.612 106.831 73.373 107.117 73.2296 107.452L71.2698 106.353C71.4132 106.018 71.6044 105.731 71.939 105.54L81.1644 100.186C81.3078 100.091 81.499 100.091 81.6902 100.186C81.9292 100.33 83.411 101.19 83.6022 101.286Z" fill="#F0F0F0"/>
<path opacity="0.2" d="M73.373 119.115L71.4132 118.016C71.0786 117.729 70.9352 117.299 70.983 116.821V107.787C70.983 107.309 71.0786 106.783 71.2698 106.353L73.2296 107.452C73.0384 107.882 72.9428 108.408 72.9428 108.886V117.92C72.9428 118.542 73.134 118.972 73.4208 119.115H73.373Z" fill="black"/>
<path d="M61.1362 122.939V122.844L62.2834 118.016L60.706 118.924C60.706 118.924 60.6582 118.924 60.6104 118.924C60.6104 118.924 60.6104 118.828 60.6104 118.781V117.92C60.6104 117.872 60.6104 117.777 60.6104 117.729C60.6104 117.729 60.6582 117.633 60.706 117.633L63.2872 116.152H63.3828C63.3828 116.152 63.3828 116.247 63.3828 116.295V117.06C63.3828 117.203 63.3828 117.394 63.2872 117.538L62.14 122.366C62.14 122.413 62.14 122.461 62.0922 122.557C62.0922 122.605 62.0444 122.652 61.9966 122.652L61.2318 123.083C61.2318 123.083 61.184 123.083 61.1362 123.083C61.1362 123.083 61.0884 122.987 61.1362 122.939Z" fill="#455A64"/>
<path d="M76.958 109.89C76.958 109.603 76.958 109.364 77.0536 109.077C77.1492 108.79 77.2448 108.551 77.3882 108.312C77.5316 108.073 77.675 107.882 77.8662 107.643C78.0574 107.452 78.2486 107.309 78.4398 107.165C78.631 107.07 78.8222 106.974 79.0134 106.974C79.1568 106.974 79.348 106.974 79.4914 107.07C79.6348 107.165 79.7782 107.309 79.826 107.452C79.9216 107.643 79.9694 107.882 79.9216 108.121C79.9216 108.36 79.9216 108.551 79.8738 108.79C79.826 108.982 79.7304 109.221 79.6826 109.412C79.826 109.507 79.9216 109.651 79.9694 109.794C80.065 109.985 80.065 110.224 80.065 110.416C80.065 110.702 80.065 110.989 79.9216 111.228C79.826 111.515 79.7304 111.754 79.587 111.993C79.4436 112.232 79.3002 112.471 79.0612 112.662C78.87 112.853 78.6788 112.997 78.4398 113.14C78.2486 113.236 78.0574 113.331 77.8184 113.379C77.6272 113.379 77.4838 113.379 77.2926 113.284C77.1492 113.188 77.0058 113.045 76.958 112.901C76.8624 112.71 76.8146 112.471 76.8146 112.232C76.8146 111.993 76.8146 111.754 76.9102 111.515C76.958 111.276 77.0536 111.037 77.197 110.846C77.1014 110.75 77.0058 110.607 77.0058 110.463C76.958 110.272 76.9102 110.129 76.9102 109.938L76.958 109.89ZM77.8662 111.706C77.8662 111.85 77.8662 111.945 78.0096 112.041C78.1052 112.089 78.2486 112.041 78.4398 111.945C78.631 111.85 78.7744 111.706 78.87 111.515C78.9656 111.372 79.0134 111.228 79.0134 111.037C79.0134 110.894 79.0134 110.798 78.87 110.702C78.7744 110.655 78.631 110.702 78.4398 110.798C78.2486 110.894 78.1052 111.037 78.0096 111.228C77.914 111.372 77.914 111.563 77.914 111.706H77.8662ZM77.9618 109.316C77.9618 109.46 77.9618 109.555 78.1052 109.651C78.2486 109.699 78.392 109.651 78.4876 109.603C78.631 109.507 78.7744 109.364 78.87 109.221C78.9656 109.077 79.0134 108.934 79.0134 108.743C79.0134 108.599 79.0134 108.504 78.87 108.408C78.7266 108.36 78.5832 108.408 78.4876 108.456C78.3442 108.551 78.2008 108.695 78.1052 108.838C78.0096 108.982 77.9618 109.125 78.0096 109.316H77.9618Z" fill="#455A64"/>
<path d="M93.4012 100.712C93.4012 100.378 93.4012 100.043 93.5446 99.7562C93.6402 99.4694 93.7358 99.1826 93.8792 98.8958C94.0226 98.6568 94.166 98.4178 94.405 98.1788C94.5962 97.9876 94.7874 97.8442 94.9786 97.7008C95.1698 97.6052 95.361 97.5096 95.6 97.5096C95.7912 97.5096 95.9346 97.5096 96.1258 97.6052C96.2692 97.7008 96.4126 97.892 96.4604 98.0354C96.556 98.2744 96.6038 98.5612 96.6038 98.8002C96.6038 98.9436 96.6038 99.1348 96.6038 99.2782C96.6038 99.4216 96.556 99.565 96.5082 99.7084C96.5082 99.8518 96.4126 99.9952 96.3648 100.139C96.317 100.282 96.2692 100.425 96.2214 100.521L95.2176 103.293C95.2176 103.293 95.2176 103.389 95.1698 103.437C95.1698 103.485 95.122 103.532 95.0742 103.58L94.2138 104.058H94.1182C94.1182 104.058 94.1182 104.01 94.1182 103.963V103.915C94.1182 103.915 94.1182 103.915 94.1182 103.867L94.7874 102.003C94.644 102.051 94.4528 102.098 94.3094 102.051C94.166 102.051 94.0226 101.955 93.8792 101.859C93.7358 101.716 93.6402 101.573 93.5924 101.429C93.4968 101.19 93.449 100.951 93.449 100.712H93.4012ZM95.5522 99.4694C95.5522 99.3738 95.5522 99.2782 95.5044 99.1826C95.5044 99.1348 95.4566 99.087 95.361 99.0392C95.3132 99.0392 95.2176 98.9914 95.1698 99.0392C95.0742 99.0392 95.0264 99.0392 94.9786 99.087C94.883 99.087 94.8352 99.1826 94.7396 99.2782C94.6918 99.3738 94.5962 99.4216 94.5484 99.5172C94.5006 99.6128 94.4528 99.7084 94.405 99.804C94.405 99.8996 94.3572 100.043 94.3572 100.139C94.3572 100.234 94.3572 100.33 94.405 100.425C94.405 100.473 94.4528 100.569 94.5484 100.569C94.5962 100.569 94.6918 100.617 94.7396 100.569C94.8352 100.569 94.883 100.569 94.9786 100.521C95.0742 100.521 95.122 100.425 95.1698 100.33C95.2654 100.234 95.3132 100.186 95.361 100.091C95.4088 99.9952 95.4566 99.8996 95.5044 99.804C95.5044 99.7084 95.5522 99.565 95.5522 99.4694Z" fill="#455A64"/>
<path d="M62.2356 141.533H62.14C62.14 141.533 62.14 141.438 62.14 141.39V140.53L60.4192 141.486C60.4192 141.486 60.3714 141.486 60.3236 141.486C60.3236 141.486 60.3236 141.39 60.3236 141.342V140.482C60.3236 140.338 60.3236 140.195 60.4192 140.099L62.0444 136.036C62.0444 135.989 62.0922 135.941 62.14 135.845C62.14 135.845 62.2356 135.797 62.2356 135.75L63.0482 135.272H63.1438C63.1438 135.272 63.1438 135.367 63.1438 135.415V138.57L63.6218 138.283C63.6218 138.283 63.6696 138.283 63.7174 138.283C63.7174 138.283 63.7174 138.379 63.7174 138.426V139.287C63.7174 139.335 63.7174 139.43 63.7174 139.478C63.7174 139.526 63.6696 139.574 63.6218 139.621L63.1438 139.86V140.721C63.1438 140.769 63.1438 140.864 63.1438 140.912C63.1438 140.96 63.096 141.008 63.0482 141.055L62.3312 141.486L62.2356 141.533ZM62.14 139.239V137.709L61.3752 139.669L62.14 139.191V139.239Z" fill="#455A64"/>
<path d="M77.914 130.731L78.0096 130.826C78.0096 130.826 78.0574 130.874 78.1052 130.922C78.153 130.922 78.2008 130.922 78.2486 130.922C78.3442 130.922 78.392 130.922 78.4398 130.826C78.5354 130.778 78.5832 130.731 78.631 130.635C78.6788 130.587 78.7744 130.492 78.8222 130.396C78.87 130.3 78.9178 130.205 78.9656 130.109C78.9656 130.014 79.0134 129.87 79.0134 129.775C79.0134 129.631 79.0134 129.488 78.87 129.392C78.7744 129.344 78.631 129.344 78.4876 129.44C78.4398 129.44 78.392 129.488 78.3442 129.536C78.3442 129.536 78.2486 129.631 78.2008 129.679L78.1052 129.822C78.1052 129.822 78.0574 129.87 78.0096 129.918L77.1492 130.396H77.0536C77.0536 130.396 77.0536 130.3 77.0536 130.253L77.197 127.193C77.197 127.146 77.197 127.05 77.197 127.002C77.197 126.954 77.2448 126.907 77.2926 126.859L79.587 125.52H79.6826C79.6826 125.52 79.6826 125.616 79.6826 125.664V126.572C79.6826 126.62 79.6826 126.715 79.6826 126.763C79.6826 126.811 79.6348 126.859 79.587 126.907L78.0096 127.815V128.58C78.0096 128.484 78.1052 128.388 78.2008 128.293C78.2964 128.197 78.392 128.149 78.4876 128.102C78.6788 128.006 78.87 127.91 79.0612 127.91C79.2046 127.91 79.3958 127.91 79.5392 128.006C79.6826 128.102 79.7782 128.293 79.826 128.436C79.9216 128.675 79.9216 128.962 79.9216 129.201C79.9216 129.536 79.9216 129.822 79.826 130.157C79.7304 130.444 79.6348 130.731 79.4914 131.017C79.348 131.256 79.2046 131.495 79.0134 131.687C78.8222 131.878 78.631 132.021 78.392 132.165C78.2008 132.308 77.9618 132.356 77.7228 132.404C77.5794 132.404 77.3882 132.404 77.2448 132.308C77.1014 132.212 77.0058 132.069 76.958 131.926C76.8624 131.734 76.8624 131.543 76.8624 131.352C76.8624 131.304 76.8624 131.256 76.8624 131.209C76.8624 131.209 76.8624 131.113 76.958 131.113L77.6272 130.731C77.6272 130.731 77.7228 130.731 77.7706 130.731H77.914Z" fill="#455A64"/>
<path d="M96.6038 119.689C96.6038 120.023 96.6038 120.31 96.4604 120.645C96.3648 120.932 96.2692 121.218 96.1258 121.505C95.9824 121.744 95.7912 121.983 95.6 122.222C95.4088 122.413 95.2176 122.557 94.9786 122.7C94.7874 122.796 94.5962 122.891 94.3572 122.891C94.166 122.891 93.9748 122.891 93.8314 122.796C93.688 122.7 93.5446 122.509 93.4968 122.366C93.4012 122.127 93.3534 121.84 93.3534 121.553C93.3534 121.41 93.3534 121.218 93.3534 121.075C93.3534 120.932 93.4012 120.788 93.449 120.645C93.4968 120.501 93.5446 120.358 93.5924 120.215C93.6402 120.071 93.688 119.976 93.7358 119.832L94.7396 117.108C94.7396 117.108 94.7396 117.012 94.7874 116.964C94.7874 116.916 94.8352 116.869 94.883 116.821L95.7434 116.343C95.7434 116.343 95.7912 116.343 95.839 116.343V116.438C95.839 116.438 95.839 116.438 95.839 116.486C95.839 116.534 95.122 118.398 95.122 118.398C95.3132 118.303 95.4566 118.303 95.6478 118.303C95.7912 118.303 95.9824 118.35 96.078 118.494C96.2214 118.589 96.317 118.781 96.3648 118.924C96.4126 119.163 96.4604 119.402 96.4604 119.641L96.6038 119.689ZM94.3572 120.979C94.3572 121.075 94.3572 121.171 94.405 121.266C94.4528 121.41 94.5962 121.457 94.7396 121.457C94.8352 121.457 94.883 121.457 94.9786 121.362C95.0742 121.314 95.122 121.266 95.2176 121.171C95.3132 121.075 95.361 121.027 95.4088 120.932C95.4566 120.836 95.5044 120.74 95.5522 120.597C95.5522 120.501 95.6 120.358 95.6 120.262C95.6 120.167 95.6 120.071 95.5522 119.976C95.5522 119.928 95.4566 119.88 95.4088 119.832C95.361 119.832 95.2654 119.832 95.2176 119.832C95.122 119.832 95.0742 119.832 94.9786 119.928C94.883 119.976 94.8352 120.023 94.7396 120.119C94.644 120.215 94.5962 120.262 94.5484 120.358C94.5006 120.454 94.4528 120.549 94.405 120.693C94.405 120.788 94.3572 120.932 94.3572 121.075V120.979Z" fill="#455A64"/>
<path d="M60.8972 157.499C60.8972 157.499 60.8972 157.403 60.8972 157.355C60.8972 157.307 60.8972 157.212 60.945 157.164L62.0922 155.156C62.0922 155.109 62.14 155.061 62.1878 154.965C62.1878 154.917 62.2834 154.87 62.3312 154.822L63.0004 154.439H63.096C63.096 154.439 63.096 154.535 63.096 154.583V159.936C63.096 159.984 63.096 160.08 63.096 160.128C63.096 160.175 63.0482 160.223 63.0004 160.271L62.2834 160.701C62.2834 160.701 62.2356 160.701 62.1878 160.701C62.1878 160.701 62.1878 160.606 62.1878 160.558V156.925L61.5664 158.024C61.5664 158.024 61.5186 158.12 61.4708 158.12H61.3752L60.9928 157.546L60.8972 157.499Z" fill="#455A64"/>
<path d="M79.9694 146.505C79.9694 146.648 79.9694 146.839 79.9694 146.983C79.9694 147.174 79.9216 147.317 79.8738 147.461C79.826 147.652 79.7304 147.843 79.6826 147.986C79.587 148.178 79.4914 148.369 79.3958 148.56L78.631 149.851L79.9694 149.086H80.065C80.065 149.086 80.065 149.181 80.065 149.229V150.09C80.065 150.137 80.065 150.233 80.065 150.281C80.065 150.329 80.0172 150.376 79.9694 150.424L77.1492 152.049H77.0536C77.0536 152.049 77.0536 151.954 77.0536 151.906V151.189C77.0536 151.093 77.0536 150.998 77.0536 150.902C77.0536 150.807 77.1014 150.711 77.197 150.615L78.8222 147.939C78.9178 147.795 79.0134 147.604 79.0612 147.413C79.0612 147.269 79.109 147.174 79.109 147.03C79.109 146.983 79.109 146.935 79.109 146.887C79.109 146.839 79.109 146.744 79.0612 146.696C79.0612 146.648 78.9656 146.6 78.9178 146.6C78.8222 146.6 78.7266 146.6 78.6788 146.648C78.5832 146.696 78.4876 146.791 78.4398 146.887C78.392 146.983 78.3442 147.078 78.2964 147.126C78.2964 147.222 78.2486 147.269 78.2486 147.365C78.2486 147.461 78.2486 147.508 78.2486 147.556C78.2486 147.652 78.2486 147.7 78.153 147.747C78.153 147.747 78.0574 147.843 78.0096 147.843L77.3404 148.225H77.2448C77.2448 148.225 77.2448 148.178 77.2448 148.13C77.2448 147.891 77.2448 147.604 77.3404 147.365C77.3882 147.078 77.4838 146.839 77.6272 146.6C77.7706 146.361 77.914 146.122 78.1052 145.883C78.2964 145.644 78.4876 145.453 78.7744 145.357C78.9656 145.214 79.1568 145.166 79.3958 145.166C79.587 145.166 79.7304 145.214 79.8738 145.357C80.0172 145.501 80.1128 145.644 80.1606 145.835C80.1606 146.074 80.2084 146.266 80.1606 146.505H79.9694Z" fill="#455A64"/>
<path d="M96.2692 135.128C96.2692 135.128 96.317 135.128 96.3648 135.128C96.3648 135.128 96.3648 135.224 96.3648 135.272V136.132C96.3648 136.18 96.3648 136.275 96.3648 136.323C96.3648 136.371 96.3648 136.419 96.317 136.514L95.6478 137.901C95.8868 137.853 96.1258 137.901 96.317 138.044C96.5082 138.283 96.6038 138.618 96.6038 138.952C96.6038 140.099 96.0302 141.199 95.0264 141.772C94.8352 141.916 94.5962 142.011 94.3572 142.011C94.2138 142.011 94.0226 142.011 93.8792 141.916C93.7358 141.82 93.6402 141.725 93.5446 141.581C93.449 141.438 93.449 141.247 93.449 141.055C93.449 141.008 93.449 140.96 93.449 140.912C93.449 140.912 93.449 140.816 93.5446 140.816L94.2138 140.434C94.3094 140.434 94.3572 140.386 94.405 140.434L94.5484 140.53C94.5962 140.53 94.6918 140.577 94.7396 140.577C94.8352 140.577 94.9786 140.577 95.0742 140.482C95.2654 140.386 95.4088 140.243 95.5044 140.099C95.6 139.956 95.6956 139.765 95.6956 139.574C95.6956 139.382 95.6478 139.287 95.5044 139.239C95.361 139.239 95.2176 139.239 95.0742 139.335L94.644 139.574H94.5484C94.5484 139.574 94.5484 139.478 94.5484 139.43V138.713C94.5484 138.665 94.5484 138.57 94.5484 138.522L94.644 138.331L95.2176 137.136L93.8314 137.948H93.7358C93.7358 137.948 93.7358 137.853 93.7358 137.805V136.945C93.7358 136.897 93.7358 136.801 93.7358 136.753C93.7358 136.706 93.7836 136.658 93.8314 136.61L96.3648 135.08L96.2692 135.128Z" fill="#455A64"/>
<path d="M78.4876 164.43C78.6788 164.286 78.9178 164.238 79.1568 164.191C79.348 164.191 79.4914 164.286 79.6348 164.382C79.7782 164.525 79.8738 164.716 79.9216 164.908C79.9694 165.147 80.0172 165.433 80.0172 165.72V167.202C80.0172 167.489 79.9694 167.823 79.9216 168.11C79.8738 168.397 79.7782 168.732 79.6348 168.971C79.4914 169.257 79.348 169.496 79.1568 169.735C78.9656 169.974 78.7266 170.166 78.4876 170.309C78.2964 170.452 78.0574 170.5 77.8184 170.548C77.6272 170.548 77.4838 170.452 77.3404 170.357C77.197 170.213 77.1014 170.022 77.0536 169.831C77.0058 169.592 76.958 169.305 76.958 169.018V167.537C76.958 167.25 76.958 166.915 77.0536 166.628C77.1014 166.342 77.197 166.007 77.3404 165.768C77.4838 165.481 77.6272 165.242 77.8184 165.003C78.0096 164.764 78.2486 164.573 78.4876 164.43ZM79.0612 167.776V166.389C79.0612 166.246 79.0612 166.15 79.0612 166.007C79.0612 165.911 79.0612 165.816 78.9656 165.768C78.9656 165.72 78.87 165.672 78.7744 165.672C78.6788 165.672 78.5832 165.672 78.4876 165.768C78.392 165.816 78.2964 165.911 78.2008 166.007C78.1052 166.103 78.0574 166.198 78.0096 166.294C78.0096 166.389 77.914 166.533 77.914 166.676C77.914 166.82 77.914 166.963 77.914 167.059C77.914 167.537 77.914 168.015 77.914 168.445C77.914 168.588 77.914 168.684 77.914 168.827C77.914 168.923 77.914 169.018 78.0096 169.066C78.0096 169.114 78.1052 169.162 78.2008 169.162C78.2964 169.162 78.392 169.162 78.4876 169.066C78.5832 169.018 78.6788 168.923 78.7744 168.827C78.87 168.732 78.9178 168.636 78.9656 168.54C78.9656 168.445 79.0612 168.301 79.0612 168.158C79.0612 168.015 79.0612 167.871 79.0612 167.776Z" fill="#455A64"/>
<path d="M59.7022 103.389C59.7022 103.389 59.6544 103.341 59.6066 103.293L59.0808 102.242V104.966C59.0808 105.014 59.0808 105.11 59.0808 105.158C59.0808 105.205 59.033 105.253 58.9852 105.301L58.2682 105.731C58.2682 105.731 58.2204 105.731 58.1726 105.731C58.1726 105.731 58.1726 105.636 58.1726 105.588V100.234C58.1726 100.186 58.1726 100.091 58.1726 100.043C58.1726 99.9952 58.2204 99.9474 58.2682 99.8996L58.8896 99.5172C58.9852 99.5172 59.033 99.5172 59.033 99.5172C59.033 99.5172 59.0808 99.565 59.1286 99.6128L59.989 101.381L60.8494 98.5612C60.8494 98.5612 60.8494 98.4656 60.8972 98.37C60.8972 98.2744 60.9928 98.2266 61.0406 98.1788L61.662 97.7964H61.7576C61.7576 97.7964 61.7576 97.892 61.7576 97.9398V103.293C61.7576 103.341 61.7576 103.437 61.7576 103.485C61.7576 103.532 61.7098 103.58 61.662 103.628L60.945 104.058C60.945 104.058 60.8972 104.058 60.8494 104.058C60.8494 104.058 60.8494 103.963 60.8494 103.915V101.19L60.3236 102.863C60.3236 102.911 60.3236 102.959 60.228 103.054C60.228 103.102 60.1802 103.15 60.0846 103.198L59.75 103.389C59.7022 103.389 59.6544 103.389 59.6066 103.389H59.7022Z" fill="#FAFAFA"/>
<path d="M63.4784 99.087V100.473C63.4784 100.569 63.4784 100.712 63.5262 100.808C63.5262 100.903 63.574 100.999 63.6218 101.047C63.6696 101.095 63.7652 101.142 63.813 101.142C63.9086 101.142 64.052 101.142 64.0998 101.047C64.1954 100.999 64.291 100.903 64.3866 100.808C64.4822 100.712 64.53 100.617 64.5778 100.521C64.5778 100.425 64.6734 100.33 64.6734 100.234C64.6734 100.139 64.7212 100.043 64.7212 99.9952C64.7212 99.8996 64.7212 99.8518 64.769 99.7562C64.769 99.7084 64.8168 99.6606 64.9124 99.6128L65.6294 99.1826C65.6294 99.1826 65.6772 99.1826 65.725 99.1826C65.725 99.1826 65.725 99.2304 65.725 99.2782C65.725 99.565 65.6772 99.8518 65.5816 100.139C65.486 100.425 65.3904 100.712 65.247 100.999C65.1036 101.286 64.9124 101.525 64.7212 101.764C64.53 101.955 64.291 102.146 64.052 102.29C63.8608 102.433 63.6218 102.481 63.3828 102.529C63.1916 102.529 63.0004 102.481 62.857 102.337C62.7136 102.194 62.5702 102.003 62.5224 101.812C62.4268 101.573 62.379 101.286 62.379 101.047V99.565C62.379 99.2304 62.4268 98.9436 62.5224 98.609C62.618 98.2744 62.7136 97.9876 62.857 97.7008C63.0004 97.414 63.1916 97.175 63.3828 96.936C63.574 96.697 63.813 96.5058 64.052 96.3624C64.2432 96.219 64.4822 96.1712 64.7212 96.1234C64.9124 96.1234 65.1036 96.1234 65.247 96.2668C65.3904 96.3624 65.5338 96.5058 65.5816 96.697C65.6772 96.936 65.725 97.175 65.725 97.414C65.725 97.4618 65.725 97.5096 65.725 97.5574C65.725 97.5574 65.725 97.653 65.6294 97.653L64.9124 98.0832C64.8646 98.0832 64.8168 98.0832 64.769 98.0832C64.769 98.0832 64.769 97.9876 64.7212 97.9398C64.7212 97.892 64.7212 97.7964 64.6734 97.7486C64.6734 97.7008 64.6256 97.653 64.5778 97.6052C64.53 97.6052 64.4344 97.5574 64.3866 97.5574C64.291 97.5574 64.1954 97.5574 64.0998 97.653C64.0042 97.7008 63.8608 97.7964 63.813 97.892C63.7174 97.9876 63.6696 98.0832 63.6218 98.2266C63.574 98.37 63.5262 98.4656 63.5262 98.609C63.5262 98.7524 63.5262 98.8958 63.4784 99.0392V99.087Z" fill="#FAFAFA"/>
<path d="M76.241 93.8768C76.241 93.8768 76.1932 93.829 76.1932 93.7812L75.6674 92.7296V95.4542C75.6674 95.502 75.6674 95.5976 75.6674 95.6454C75.6674 95.6932 75.6196 95.741 75.5718 95.7888L74.8548 96.219H74.7592C74.7592 96.219 74.7592 96.1234 74.7592 96.0756V90.722C74.7592 90.6742 74.7592 90.5786 74.7592 90.5308C74.7592 90.483 74.807 90.4352 74.8548 90.3874L75.4762 90.005C75.524 90.005 75.6196 90.005 75.6196 90.005C75.6196 90.005 75.6674 90.0528 75.6674 90.1006L76.5278 91.8692L77.3882 89.049C77.3882 89.0012 77.3882 88.9534 77.436 88.8578C77.436 88.7622 77.5316 88.7144 77.5794 88.6666L78.2008 88.2842C78.2008 88.2842 78.2486 88.2842 78.2964 88.2842C78.2964 88.2842 78.2964 88.3798 78.2964 88.4276V93.7812C78.2964 93.829 78.2964 93.9246 78.2964 93.9724C78.2964 94.0202 78.2486 94.068 78.2008 94.1158L77.4838 94.546H77.3882C77.3882 94.546 77.3882 94.4504 77.3882 94.4026V91.678L76.8624 93.351C76.8624 93.3988 76.8624 93.4944 76.8146 93.5422C76.8146 93.59 76.7668 93.6378 76.6712 93.6856L76.3366 93.8768C76.2888 93.8768 76.241 93.8768 76.1932 93.8768H76.241Z" fill="#FAFAFA"/>
<path d="M80.782 86.898C80.9732 86.7546 81.2122 86.7068 81.4034 86.659C81.5468 86.659 81.738 86.659 81.8814 86.7068C82.0248 86.8024 82.1204 86.9458 82.1682 87.137C82.2638 87.376 82.2638 87.6628 82.2638 87.9018C82.2638 88.2842 82.216 88.6666 82.0726 89.049C81.977 89.3836 81.7858 89.6704 81.5946 89.9572L82.2638 91.5346C82.2638 91.5346 82.2638 91.5824 82.2638 91.6302C82.2638 91.678 82.2638 91.7258 82.2638 91.7736C82.2638 91.7736 82.2638 91.8692 82.1682 91.8692L81.4512 92.2994C81.4034 92.2994 81.3556 92.3472 81.3078 92.2994C81.3078 92.2994 81.26 92.2516 81.26 92.2038L80.6864 90.7698L80.2084 91.0566V92.8252C80.2084 92.873 80.2084 92.9686 80.2084 93.0164C80.2084 93.0642 80.1606 93.112 80.1128 93.1598L79.3958 93.59H79.3002C79.3002 93.59 79.3002 93.4944 79.3002 93.4466V88.093C79.3002 88.0452 79.3002 87.9496 79.3002 87.9018C79.3002 87.854 79.348 87.8062 79.3958 87.7584L80.8776 86.898H80.782ZM80.1606 89.766L80.782 89.4314C80.9254 89.3358 81.0688 89.2402 81.1644 89.0968C81.26 88.9056 81.3078 88.7144 81.3078 88.5232C81.3078 88.2842 81.26 88.1408 81.1644 88.1408C81.021 88.1408 80.8776 88.1408 80.782 88.2364L80.1606 88.571V89.8138V89.766Z" fill="#FAFAFA"/>
<path d="M93.3534 83.9822C93.3534 83.9822 93.3056 83.9344 93.3056 83.8866L92.7798 82.835V85.6074C92.7798 85.6552 92.7798 85.7508 92.7798 85.7986C92.7798 85.8464 92.732 85.8942 92.6842 85.942L91.9672 86.3722H91.8716C91.8716 86.3722 91.8716 86.2766 91.8716 86.2288V80.8752C91.8716 80.8274 91.8716 80.7318 91.8716 80.684C91.8716 80.6362 91.9194 80.5884 91.9672 80.5406L92.5886 80.1582C92.6364 80.1582 92.732 80.1582 92.732 80.1582C92.732 80.1582 92.7798 80.206 92.7798 80.2538L93.688 82.0224L94.5484 79.2022C94.5484 79.1544 94.5484 79.1066 94.5962 79.011C94.5962 78.9154 94.6918 78.8676 94.7396 78.8198L95.361 78.4374H95.4566C95.4566 78.4374 95.4566 78.533 95.4566 78.5808V83.9344C95.4566 83.9822 95.4566 84.0778 95.4566 84.1256C95.4566 84.1734 95.4088 84.2212 95.361 84.269L94.644 84.6992H94.5484C94.5484 84.6992 94.5484 84.6036 94.5484 84.5558V81.8312L94.0226 83.5042C94.0226 83.552 94.0226 83.6476 93.9748 83.6954C93.9748 83.7432 93.927 83.791 93.8314 83.8388L93.4968 84.03C93.4012 84.03 93.3534 84.03 93.3534 84.03V83.9822Z" fill="#FAFAFA"/>
<path d="M96.3648 81.8312C96.3648 81.8312 96.317 81.8312 96.2692 81.8312C96.2692 81.8312 96.2692 81.7356 96.2692 81.6878V80.8274C96.2692 80.7796 96.2692 80.684 96.2692 80.6362C96.2692 80.5884 96.317 80.5406 96.3648 80.4928L98.0856 79.5368H98.1812C98.1812 79.5368 98.1812 79.6324 98.1812 79.6802V80.5406C98.1812 80.5884 98.1812 80.684 98.1812 80.7318C98.1812 80.7796 98.1334 80.8274 98.0856 80.8752L96.3648 81.8312Z" fill="#FAFAFA"/>
<path d="M109.462 74.6612C109.462 74.6612 109.414 74.6134 109.414 74.5656L108.888 73.514V76.2386C108.888 76.2864 108.888 76.382 108.888 76.4298C108.888 76.4776 108.841 76.5254 108.793 76.5732L108.076 76.9556H107.98C107.98 76.9556 107.98 76.86 107.98 76.8122V71.4586C107.98 71.4108 107.98 71.3152 107.98 71.2674C107.98 71.2196 108.028 71.1718 108.076 71.124L108.697 70.7416C108.745 70.7416 108.841 70.7416 108.841 70.7416C108.841 70.7416 108.888 70.7894 108.888 70.8372L109.749 72.6536L110.609 69.8334C110.609 69.8334 110.609 69.7378 110.657 69.6422C110.657 69.5466 110.753 69.4988 110.8 69.451L111.422 69.0686H111.517C111.517 69.0686 111.517 69.1642 111.517 69.212V74.5656C111.517 74.6134 111.517 74.709 111.517 74.7568C111.517 74.8046 111.47 74.8524 111.422 74.9002L110.705 75.3304C110.705 75.3304 110.657 75.3304 110.609 75.3304C110.609 75.3304 110.609 75.2348 110.609 75.187V72.4624L110.083 74.1354C110.083 74.1832 110.083 74.231 110.036 74.3266C110.036 74.3744 109.988 74.4222 109.892 74.47L109.558 74.6612C109.51 74.6612 109.462 74.6612 109.462 74.6612Z" fill="#FAFAFA"/>
<path d="M114.146 71.602V72.9882C114.146 73.036 114.146 73.1316 114.146 73.1794C114.146 73.2272 114.099 73.275 114.051 73.3228L113.382 73.7052H113.286C113.286 73.7052 113.286 73.6096 113.286 73.5618V72.1756L112.426 72.6536H112.33C112.33 72.6536 112.33 72.558 112.33 72.5102V71.6498C112.33 71.602 112.33 71.5064 112.33 71.4586C112.33 71.4108 112.378 71.363 112.426 71.3152L113.286 70.8372V69.451C113.286 69.4032 113.286 69.3076 113.286 69.2598C113.286 69.212 113.334 69.1642 113.382 69.1164L114.051 68.734C114.051 68.734 114.099 68.734 114.146 68.734C114.146 68.734 114.146 68.8296 114.146 68.8774V70.2636L114.959 69.7856H115.055C115.055 69.7856 115.055 69.8812 115.055 69.929V70.7894C115.055 70.8372 115.055 70.9328 115.055 70.9806C115.055 71.0284 115.007 71.0762 114.959 71.124L114.146 71.602Z" fill="#FAFAFA"/>
<path d="M109.892 92.634H109.797C109.797 92.634 109.797 92.5384 109.797 92.4906V91.6302C109.797 91.5824 109.797 91.4868 109.797 91.439C109.797 91.3912 109.844 91.3434 109.892 91.2956L113.095 89.4314C113.095 89.4314 113.143 89.4314 113.19 89.4314C113.19 89.4314 113.19 89.527 113.19 89.5748V90.3874C113.19 90.4352 113.19 90.5308 113.19 90.5786C113.19 90.6264 113.143 90.6742 113.095 90.722L109.892 92.5862V92.634Z" fill="#FAFAFA"/>
<path d="M112.043 88.4754C112.043 88.9056 111.852 89.3358 111.517 89.6226C111.231 89.8138 110.992 89.5748 110.992 89.0968C110.992 88.6666 111.183 88.2364 111.517 87.9496C111.804 87.7584 112.043 87.9974 112.043 88.4754Z" fill="#FAFAFA"/>
<path d="M112.043 93.2076C112.043 92.7774 111.804 92.5384 111.517 92.6818C111.183 92.9686 110.992 93.351 110.992 93.829C110.992 94.2592 111.231 94.4982 111.517 94.3548C111.852 94.068 112.043 93.6856 112.043 93.2076Z" fill="#FAFAFA"/>
<path d="M110.8 110.607L110.083 109.938C110.083 109.938 110.083 109.842 110.083 109.794C110.083 109.746 110.083 109.651 110.083 109.603L110.561 108.599C110.561 108.551 110.609 108.504 110.657 108.456H110.753L111.422 109.125L112.091 107.643C112.091 107.595 112.139 107.548 112.187 107.5H112.282L112.76 107.978C112.76 107.978 112.76 108.073 112.76 108.121C112.76 108.169 112.76 108.265 112.76 108.312L112.091 109.794L112.76 110.463C112.76 110.463 112.76 110.559 112.76 110.607C112.76 110.655 112.76 110.75 112.76 110.798L112.282 111.802C112.282 111.85 112.234 111.897 112.187 111.945H112.091L111.422 111.276L110.753 112.758C110.753 112.806 110.705 112.853 110.657 112.901H110.561L110.083 112.423C110.083 112.423 110.083 112.328 110.083 112.28C110.083 112.232 110.083 112.136 110.083 112.089L110.8 110.607Z" fill="#FAFAFA"/>
<path d="M109.892 130.874C109.892 130.874 109.844 130.874 109.797 130.874C109.797 130.874 109.797 130.778 109.797 130.731V129.87C109.797 129.822 109.797 129.727 109.797 129.679C109.797 129.631 109.844 129.583 109.892 129.536L113.095 127.671H113.19C113.19 127.671 113.19 127.767 113.19 127.815V128.675C113.19 128.723 113.19 128.819 113.19 128.866C113.19 128.914 113.143 128.962 113.095 129.01L109.892 130.874Z" fill="#FAFAFA"/>
<path d="M60.6582 174.85C60.7538 174.85 60.8016 174.85 60.8016 174.85C60.8016 174.85 60.8494 174.946 60.8972 174.993L62.0444 179.534V179.63C62.0444 179.678 62.0444 179.726 62.0444 179.773C62.0444 179.773 62.0444 179.869 61.9488 179.869L61.2796 180.251C61.2318 180.251 61.1362 180.299 61.1362 180.251C61.1362 180.251 61.0884 180.204 61.0884 180.156L60.945 179.534L59.511 180.347L59.3676 181.112C59.3676 181.16 59.3676 181.207 59.3198 181.303C59.3198 181.351 59.2242 181.446 59.1764 181.446L58.5072 181.829C58.5072 181.829 58.4594 181.829 58.4116 181.829C58.4116 181.829 58.4116 181.781 58.4116 181.733C58.4116 181.733 58.4116 181.638 58.4116 181.59L59.5588 175.71C59.5588 175.615 59.5588 175.567 59.6544 175.471C59.6544 175.376 59.75 175.328 59.7978 175.28L60.706 174.802L60.6582 174.85ZM59.75 178.961L60.6104 178.483L60.1802 176.762L59.75 179.009V178.961Z" fill="#FAFAFA"/>
<path d="M63.2872 175.519V176.905C63.2872 177.001 63.2872 177.144 63.335 177.24C63.335 177.336 63.3828 177.431 63.4306 177.479C63.4784 177.527 63.574 177.575 63.6218 177.575C63.7174 177.575 63.8608 177.575 63.9086 177.479C64.0042 177.431 64.1476 177.336 64.1954 177.24C64.291 177.144 64.3388 177.049 64.3866 176.953C64.3866 176.858 64.4822 176.762 64.4822 176.666C64.4822 176.571 64.4822 176.523 64.53 176.427C64.53 176.332 64.53 176.284 64.5778 176.188C64.5778 176.141 64.6734 176.093 64.7212 176.045L65.4382 175.615C65.4382 175.615 65.486 175.615 65.5338 175.615C65.5338 175.615 65.5338 175.663 65.5338 175.71C65.5338 175.997 65.486 176.284 65.3904 176.571C65.2948 176.858 65.1992 177.144 65.0558 177.431C64.9124 177.718 64.7212 177.957 64.53 178.148C64.3388 178.387 64.0998 178.531 63.8608 178.674C63.6696 178.817 63.4306 178.865 63.1916 178.913C63.0004 178.913 62.8092 178.865 62.6658 178.722C62.5224 178.578 62.379 178.387 62.3312 178.196C62.2356 177.957 62.1878 177.67 62.1878 177.431V175.949C62.1878 175.615 62.1878 175.328 62.3312 174.993C62.4268 174.659 62.5224 174.372 62.6658 174.085C62.8092 173.798 62.9526 173.559 63.1916 173.32C63.3828 173.081 63.6218 172.89 63.8608 172.747C64.052 172.603 64.291 172.556 64.53 172.508C64.7212 172.508 64.9124 172.508 65.0558 172.651C65.1992 172.747 65.3426 172.89 65.3904 173.081C65.486 173.32 65.5338 173.559 65.5338 173.798C65.5338 173.846 65.5338 173.894 65.5338 173.942C65.5338 173.942 65.5338 174.037 65.4382 174.037L64.7212 174.468C64.6734 174.468 64.6256 174.468 64.5778 174.468C64.5778 174.468 64.5778 174.372 64.53 174.324C64.53 174.276 64.53 174.181 64.4822 174.133C64.4822 174.085 64.4344 174.037 64.3866 173.99C64.3388 173.99 64.2432 173.942 64.1954 173.942C64.0998 173.942 64.0042 173.942 63.9086 174.037C63.813 174.085 63.6696 174.181 63.6218 174.276C63.5262 174.372 63.4784 174.468 63.4306 174.611C63.3828 174.754 63.335 174.85 63.335 174.993C63.335 175.137 63.335 175.28 63.335 175.424L63.2872 175.519Z" fill="#FAFAFA"/>
<path d="M93.449 158.407C93.449 158.407 93.4012 158.407 93.3534 158.407C93.3534 158.407 93.3534 158.311 93.3534 158.263V157.403C93.3534 157.355 93.3534 157.26 93.3534 157.212C93.3534 157.164 93.4012 157.116 93.449 157.068L96.5082 155.3H96.6038C96.6038 155.3 96.6038 155.395 96.6038 155.443V156.304C96.6038 156.351 96.6038 156.447 96.6038 156.495C96.6038 156.543 96.556 156.59 96.5082 156.638L93.449 158.407ZM93.449 160.462C93.449 160.462 93.4012 160.462 93.3534 160.462C93.3534 160.462 93.3534 160.367 93.3534 160.319V159.458C93.3534 159.411 93.3534 159.315 93.3534 159.267C93.3534 159.219 93.4012 159.172 93.449 159.124L96.5082 157.355H96.6038C96.6038 157.355 96.6038 157.451 96.6038 157.499V158.359C96.6038 158.407 96.6038 158.502 96.6038 158.55C96.6038 158.598 96.556 158.646 96.5082 158.694L93.449 160.462Z" fill="#FAFAFA"/>
<path d="M111.995 148.751V150.09C111.995 150.137 111.995 150.233 111.995 150.281C111.995 150.329 111.948 150.376 111.9 150.424L111.231 150.807H111.135C111.135 150.807 111.135 150.711 111.135 150.663V149.277L110.322 149.755H110.227C110.227 149.755 110.227 149.659 110.227 149.612V148.751C110.227 148.703 110.227 148.608 110.227 148.56C110.227 148.512 110.275 148.464 110.322 148.417L111.135 147.939V146.552C111.135 146.505 111.135 146.409 111.135 146.361C111.135 146.313 111.183 146.266 111.231 146.218L111.9 145.835H111.995C111.995 145.835 111.995 145.931 111.995 145.979V147.365L112.808 146.887H112.904C112.904 146.887 112.904 146.983 112.904 147.03V147.891C112.904 147.939 112.904 148.034 112.904 148.082C112.904 148.13 112.856 148.178 112.808 148.225L111.995 148.703V148.751Z" fill="#FAFAFA"/>
<path d="M49.8554 56.8796C49.0906 58.1224 48.6604 59.5564 48.6126 60.9904V190.576C48.6126 191.867 49.0428 192.775 49.7598 193.205C48.8994 192.679 42.781 189.142 42.064 188.712C41.347 188.282 40.869 187.326 40.869 186.035V56.4494C40.9168 55.0154 41.347 53.5814 42.064 52.3386L49.8554 56.8318V56.8796Z" fill="#263238"/>
<path d="M118.64 17.2056C117.875 16.7754 116.823 16.8232 115.676 17.4924L52.7712 53.8204C51.5762 54.5852 50.5724 55.6368 49.8554 56.8796L42.064 52.3864C42.781 51.1436 43.7848 50.0442 44.9798 49.3272L107.932 12.9992C109.08 12.33 110.083 12.2822 110.848 12.7124C111.613 13.1426 117.923 16.7754 118.64 17.2534V17.2056Z" fill="#455A64"/>
<path d="M113.716 54.2506C113.525 54.5852 113.286 54.8242 112.999 55.0154L55.5436 88.1886C54.97 88.5232 54.492 88.2364 54.492 87.615V60.7514C54.492 60.0344 54.9222 59.3652 55.5436 58.935L88.669 39.815L113.764 54.2506H113.716Z" fill="#455A64"/>
<path d="M114.003 26.3354V53.1991C114.003 53.5815 113.907 53.9161 113.716 54.2029L88.6212 39.7672L112.043 26.2398L112.951 25.714C113.525 25.3794 114.003 25.6662 114.003 26.3354Z" fill="#263238"/>
<path d="M112.043 26.2876V52.1474C112.043 52.8644 111.613 53.5336 110.992 53.9638L54.4442 86.6112V60.7992C54.4442 60.0822 54.8744 59.413 55.4958 58.9828L112.043 26.2876Z" fill="#2ABFB0"/>
<path opacity="0.2" d="M112.043 26.2876V52.1474C112.043 52.8644 111.613 53.5336 110.992 53.9638L54.4442 86.6112V60.7992C54.4442 60.0822 54.8744 59.413 55.4958 58.9828L112.043 26.2876Z" fill="black"/>
<g opacity="0.5">
<path d="M65.1036 73.0838L63.096 74.231C62.6658 74.5656 62.0444 74.5178 61.662 74.1354C61.2318 73.6096 60.9928 72.9404 61.0884 72.2712C61.0884 72.0322 61.1362 71.841 61.2318 71.6498C61.2796 71.4586 61.423 71.3152 61.6142 71.2196C61.7098 71.124 61.8532 71.124 61.9488 71.2196C62.0444 71.363 62.0922 71.5064 62.0922 71.6976C62.0922 72.0322 62.1878 72.3668 62.379 72.6058C62.5702 72.797 62.857 72.797 63.096 72.6058L65.1036 71.4586C65.4382 71.2674 65.6772 70.9328 65.8206 70.5982C66.0118 70.2158 66.1074 69.7856 66.1074 69.3076V67.3478C65.8684 67.778 65.486 68.1126 65.1036 68.3516L63.096 69.4988C62.6658 69.8334 62.0444 69.7856 61.662 69.4032C61.2318 68.8774 60.9928 68.2082 61.0884 67.539V66.0094C61.0884 65.149 61.2796 64.2408 61.662 63.476C61.9488 62.759 62.4746 62.1376 63.096 61.7552L65.1036 60.608C65.5338 60.2734 66.1552 60.3212 66.5376 60.7036C66.9678 61.2294 67.2068 61.8986 67.1112 62.5678V68.7818C67.1112 69.6422 66.92 70.5504 66.5376 71.3152C66.2508 72.0322 65.725 72.6058 65.1036 73.036V73.0838ZM66.1074 63.1892C66.1074 62.8546 66.0118 62.52 65.8206 62.281C65.6294 62.0898 65.2948 62.0898 65.1036 62.281L63.096 63.4282C62.7614 63.6194 62.5224 63.954 62.379 64.2886C62.1878 64.671 62.0922 65.1012 62.0922 65.5792V67.1088C62.0922 67.4434 62.1878 67.778 62.379 68.017C62.5702 68.2082 62.857 68.2082 63.096 68.017L65.1036 66.8698C65.4382 66.6786 65.6772 66.344 65.8206 66.0094C66.0118 65.627 66.1074 65.1968 66.1074 64.7188V63.1892Z" fill="black"/>
<path d="M70.1704 62.042C70.1704 62.1376 70.1704 62.2332 70.266 62.281C70.3138 62.281 70.4094 62.281 70.4572 62.281L73.2296 60.7036C73.6598 60.369 74.2812 60.4168 74.6636 60.7992C75.0938 61.325 75.3328 61.9942 75.2372 62.6634V64.193C75.2372 65.0534 75.046 65.9138 74.6636 66.7264C74.3768 67.4434 73.851 68.0648 73.2296 68.4472L71.222 69.5944C70.7918 69.929 70.1704 69.8812 69.788 69.4988C69.3578 68.973 69.1188 68.3038 69.2144 67.6346C69.2144 67.3956 69.2622 67.2044 69.3578 67.0132C69.4534 66.822 69.549 66.6786 69.7402 66.583C69.8358 66.4874 69.9792 66.4874 70.1226 66.583C70.2182 66.7264 70.266 66.8698 70.266 67.061C70.266 67.3956 70.3616 67.7302 70.5528 67.9692C70.744 68.1604 71.0308 68.1604 71.2698 67.9692L73.2774 66.822C73.612 66.6308 73.851 66.2962 73.9944 65.9616C74.1856 65.5792 74.2812 65.149 74.2812 64.671V63.1414C74.2812 62.8068 74.1856 62.4722 73.9944 62.2332C73.8032 62.042 73.5164 62.042 73.2774 62.2332L70.266 63.954C70.0748 64.0974 69.7402 64.0974 69.549 63.954C69.31 63.715 69.2144 63.3804 69.2622 63.0458V59.174C69.2622 58.935 69.31 58.7438 69.4056 58.5526C69.4534 58.3614 69.5968 58.218 69.788 58.1224L74.807 55.2066C74.9026 55.111 75.046 55.111 75.1894 55.2066C75.285 55.35 75.3806 55.4934 75.3328 55.6846C75.3328 55.9236 75.285 56.1148 75.1894 56.306C75.0938 56.4972 74.9982 56.6406 74.807 56.7362L70.505 59.2218C70.4094 59.2696 70.3616 59.3652 70.3138 59.4608C70.266 59.5564 70.2182 59.6998 70.2182 59.7954V62.1376L70.1704 62.042Z" fill="black"/>
<path d="M81.26 63.7628L79.2524 64.91C78.8222 65.2446 78.2008 65.1968 77.8184 64.8144C77.3882 64.2886 77.1492 63.6194 77.2448 62.9502V56.7362C77.2448 55.8758 77.436 54.9676 77.8184 54.2028C78.1052 53.4858 78.631 52.8644 79.2524 52.482L81.26 51.3348C81.6902 51.0002 82.3116 51.048 82.694 51.4304C83.1242 51.9562 83.3632 52.6254 83.2676 53.2946V59.5086C83.2676 60.369 83.0764 61.2772 82.694 62.042C82.4072 62.759 81.8814 63.3326 81.26 63.7628ZM79.2524 63.3804L81.26 62.2332C81.4512 62.0898 81.5946 61.9464 81.738 61.7552L78.2486 56.3538V62.4244C78.2486 62.759 78.3442 63.0936 78.5354 63.3326C78.7266 63.5238 79.0134 63.5238 79.2524 63.3326V63.3804ZM81.26 52.9122L79.2524 54.0594C79.0612 54.2028 78.9178 54.3462 78.7744 54.5374L82.2638 59.9388V53.8682C82.2638 53.5336 82.1682 53.199 81.977 52.96C81.7858 52.7688 81.499 52.7688 81.26 52.96V52.9122Z" fill="black"/>
<path d="M88.8124 59.413L85.801 61.1816C85.7054 61.2772 85.562 61.2772 85.4186 61.1816C85.323 61.0382 85.2274 60.8948 85.2752 60.7036C85.2752 60.4646 85.323 60.2734 85.4186 60.0822C85.5142 59.891 85.6098 59.7476 85.801 59.652L86.8048 59.0784V51.287C86.8048 50.9524 86.7092 50.6178 86.518 50.3788C86.3268 50.1876 86.04 50.1876 85.801 50.331C85.7054 50.4266 85.562 50.4266 85.4186 50.331C85.323 50.1876 85.2274 50.0442 85.2752 49.853C85.2752 49.614 85.323 49.4228 85.4186 49.2316C85.4664 49.0404 85.6098 48.897 85.801 48.8014C86.2312 48.4668 86.8526 48.5146 87.235 48.897C87.6652 49.4228 87.9042 50.092 87.8086 50.7612V58.5048L88.8124 57.9312C88.908 57.8356 89.0514 57.8356 89.1948 57.9312C89.2904 58.0746 89.3382 58.218 89.3382 58.4092C89.3382 58.6482 89.2904 58.8394 89.1948 59.0306C89.0992 59.2218 89.0036 59.3652 88.8124 59.5086V59.413Z" fill="black"/>
<path d="M95.361 55.6368L93.3534 56.784C92.9232 57.1186 92.3018 57.0708 91.9194 56.6884C91.4892 56.1626 91.2502 55.4934 91.3458 54.8242V48.6102C91.3458 47.7498 91.537 46.8894 91.9194 46.0768C92.2062 45.3598 92.732 44.7384 93.3534 44.356L95.361 43.2088C95.7912 42.8742 96.4126 42.922 96.795 43.3044C97.2252 43.8302 97.4642 44.4994 97.3686 45.1686V51.3826C97.3686 52.243 97.1774 53.1034 96.795 53.916C96.5082 54.633 95.9824 55.2544 95.361 55.6368ZM93.3534 55.2544L95.361 54.1072C95.5522 53.9638 95.6956 53.8204 95.839 53.6292L92.3496 48.2278V54.2984C92.3496 54.633 92.4452 54.9676 92.6364 55.2066C92.8276 55.3978 93.1144 55.3978 93.3534 55.2544ZM95.361 44.7384L93.3534 45.8856C93.1622 46.029 93.0188 46.1724 92.8754 46.3636L96.3648 51.765V45.6944C96.3648 45.3598 96.2692 45.0252 96.078 44.7862C95.8868 44.595 95.6 44.595 95.361 44.7862V44.7384Z" fill="black"/>
<path d="M105.303 49.6618C105.208 49.853 105.112 49.9964 104.921 50.092C104.825 50.1876 104.682 50.1876 104.586 50.092C104.491 49.9486 104.443 49.8052 104.443 49.614V45.312C104.204 45.7422 103.822 46.0768 103.439 46.3158L101.432 47.463C101.001 47.7976 100.38 47.7498 99.9976 47.3674C99.5674 46.8416 99.3284 46.1724 99.424 45.5032V41.5836C99.424 41.3446 99.4718 41.1534 99.5674 40.9622C99.6152 40.771 99.7586 40.6276 99.902 40.532C99.9976 40.4364 100.141 40.4364 100.284 40.532C100.38 40.6754 100.476 40.8188 100.428 41.01V44.8818C100.428 45.2164 100.523 45.551 100.715 45.79C100.906 45.9812 101.193 45.9812 101.432 45.79L103.439 44.6428C103.774 44.4516 104.013 44.117 104.156 43.7824C104.347 43.4 104.443 42.9698 104.443 42.4918V38.62C104.443 38.381 104.491 38.1898 104.586 37.9986C104.634 37.8074 104.778 37.664 104.921 37.5684C105.017 37.4728 105.16 37.4728 105.303 37.5684C105.399 37.7118 105.495 37.8552 105.447 38.0464V48.897C105.447 49.136 105.447 49.3272 105.303 49.5184V49.6618Z" fill="black"/>
</g>
<path d="M111.326 196.408C111.326 196.073 111.087 195.786 110.8 195.643L108.075 194.113L110.226 192.87C110.561 192.727 110.752 192.44 110.752 192.106V185.7C110.752 185.366 110.513 185.079 110.226 184.936L105.207 182.02C104.777 181.781 104.347 181.685 103.869 181.685C103.391 181.685 102.913 181.781 102.531 182.02L94.8349 186.465L86.6133 181.733C85.7529 181.303 84.7491 181.303 83.9365 181.733L77.6747 185.366C77.3401 185.509 77.1489 185.796 77.1489 186.131V192.488C77.1489 192.823 77.3879 193.109 77.6747 193.253L80.3993 194.83L78.2005 196.121C77.8659 196.264 77.6747 196.551 77.6747 196.886V203.243C77.6747 203.578 77.9137 203.864 78.2005 204.008L83.2195 206.924C84.0799 207.354 85.0837 207.354 85.8963 206.924L93.6399 202.478L101.861 207.21C102.722 207.641 103.726 207.641 104.538 207.21L110.8 203.578C111.087 203.434 111.326 203.147 111.326 202.813V196.455V196.408Z" fill="#2ABFB0"/>
<path opacity="0.2" d="M111.326 196.408C111.326 196.073 111.087 195.786 110.8 195.643L108.075 194.113L110.226 192.87C110.561 192.727 110.752 192.44 110.752 192.106V185.7C110.752 185.366 110.513 185.079 110.226 184.936L105.207 182.02C104.777 181.781 104.347 181.685 103.869 181.685C103.391 181.685 102.913 181.781 102.531 182.02L94.8349 186.465L86.6133 181.733C85.7529 181.303 84.7491 181.303 83.9365 181.733L77.6747 185.366C77.3401 185.509 77.1489 185.796 77.1489 186.131V192.488C77.1489 192.823 77.3879 193.109 77.6747 193.253L80.3993 194.83L78.2005 196.121C77.8659 196.264 77.6747 196.551 77.6747 196.886V203.243C77.6747 203.578 77.9137 203.864 78.2005 204.008L83.2195 206.924C84.0799 207.354 85.0837 207.354 85.8963 206.924L93.6399 202.478L101.861 207.21C102.722 207.641 103.726 207.641 104.538 207.21L110.8 203.578C111.087 203.434 111.326 203.147 111.326 202.813V196.455V196.408Z" fill="black"/>
<path opacity="0.2" d="M101.384 194.4H108.697L108.076 194.018L110.227 192.775C110.561 192.632 110.753 192.345 110.753 192.01V185.653C110.753 185.318 110.514 185.031 110.227 184.888L108.984 184.171H101.336V194.4H101.384Z" fill="black"/>
<path opacity="0.2" d="M103.2 207.45C103.678 207.45 104.108 207.354 104.539 207.115L110.8 203.482C111.087 203.339 111.326 203.052 111.326 202.717V196.36C111.326 196.217 111.326 196.073 111.231 195.978H103.2V207.402V207.45Z" fill="black"/>
<path opacity="0.2" d="M77.6272 185.27C77.2926 185.414 77.1014 185.701 77.1014 186.035V192.393C77.1014 192.727 77.3404 193.014 77.6272 193.157L80.3518 194.735H87.8086V184.745H78.5354L77.6272 185.27Z" fill="black"/>
<path opacity="0.2" d="M84.5582 207.163C85.0362 207.163 85.4664 207.067 85.8488 206.876L93.5924 202.431V196.073H84.5582V207.211V207.163Z" fill="black"/>
<path d="M102.579 190.863L110.8 195.595C111.231 195.739 111.47 196.217 111.326 196.647C111.231 196.886 111.039 197.077 110.8 197.173L104.539 200.805C103.678 201.236 102.674 201.236 101.862 200.805L93.6402 196.073L85.8966 200.519C85.0362 200.949 84.0324 200.949 83.2198 200.519L78.2008 197.603C77.7706 197.459 77.5316 196.981 77.675 196.551C77.7706 196.312 77.9618 196.121 78.2008 196.025L85.9444 191.58L77.7228 186.848C77.2926 186.704 77.0536 186.226 77.2448 185.796C77.3404 185.557 77.5316 185.366 77.7228 185.318L83.9846 181.685C84.845 181.255 85.8488 181.255 86.6614 181.685L94.883 186.418L102.579 181.972C103.009 181.733 103.439 181.638 103.917 181.638C104.395 181.638 104.825 181.733 105.256 181.972L110.275 184.888C110.609 185.031 110.8 185.318 110.8 185.653C110.8 185.987 110.561 186.274 110.275 186.418L102.627 190.863H102.579Z" fill="#2ABFB0"/>
<path d="M145.647 171.982L147.798 170.739C148.132 170.596 148.323 170.309 148.323 169.974V163.617C148.323 163.282 148.084 162.996 147.798 162.852L142.779 159.936C142.348 159.697 141.918 159.602 141.44 159.602C140.962 159.602 140.484 159.697 140.102 159.936L132.454 164.382L117.97 172.747L115.772 174.037C115.437 174.181 115.246 174.468 115.246 174.802V181.16C115.246 181.494 115.485 181.781 115.772 181.924L120.791 184.84C121.221 185.079 121.651 185.175 122.129 185.175C122.607 185.175 123.037 185.079 123.467 184.84L131.211 180.395L145.694 172.03L145.647 171.982Z" fill="#2ABFB0"/>
<path opacity="0.2" d="M145.647 171.982L147.798 170.739C148.132 170.596 148.323 170.309 148.323 169.974V163.617C148.323 163.282 148.084 162.996 147.798 162.852L142.779 159.936C142.348 159.697 141.918 159.602 141.44 159.602C140.962 159.602 140.484 159.697 140.102 159.936L132.454 164.382L117.97 172.747L115.772 174.037C115.437 174.181 115.246 174.468 115.246 174.802V181.16C115.246 181.494 115.485 181.781 115.772 181.924L120.791 184.84C121.221 185.079 121.651 185.175 122.129 185.175C122.607 185.175 123.037 185.079 123.467 184.84L131.211 180.395L145.694 172.03L145.647 171.982Z" fill="black"/>
<path opacity="0.2" d="M122.177 177.479V185.079C122.607 185.079 123.037 184.984 123.42 184.792L131.163 180.347L145.647 171.982L147.798 170.739C148.132 170.596 148.323 170.309 148.323 169.974V163.617C148.323 163.282 148.084 162.996 147.798 162.852L145.455 161.514L122.177 177.527V177.479Z" fill="black"/>
<path d="M140.102 168.779L131.115 173.942L123.372 178.387C122.511 178.817 121.508 178.817 120.695 178.387L115.676 175.471C115.246 175.328 115.007 174.85 115.15 174.42C115.246 174.181 115.437 173.99 115.676 173.894L123.42 169.449L132.406 164.286L140.054 159.841C140.484 159.602 140.914 159.506 141.392 159.506C141.87 159.506 142.301 159.602 142.731 159.841L147.75 162.757C148.18 162.9 148.419 163.378 148.276 163.808C148.18 164.047 147.989 164.238 147.75 164.334L140.102 168.779Z" fill="#2ABFB0"/>
</svg>
