<svg width="24" height="25" viewBox="0 0 24 25" fill="none" xmlns="http://www.w3.org/2000/svg">
<path d="M3 9.82135H7.17801M3 9.82135L7.1196 9.82245C7.13918 9.82245 7.15866 9.82208 7.17801 9.82135M3 9.82135L3 5.93617C3 5.40598 3.53726 4.97617 4.2 4.97617H7.12C7.78274 4.97617 8.32 5.40598 8.32 5.93617V8.86245C8.32 9.3771 7.81379 9.79714 7.17801 9.82135M3 9.82135L3 14.6679M7.17801 9.82135L12.776 9.82135C13.4387 9.82135 13.976 10.2512 13.976 10.7813V13.7079C13.976 14.2381 13.4387 14.6679 12.776 14.6679M3 14.6679H12.776M3 14.6679L3 18.4162C3 18.9464 3.53726 19.3762 4.2 19.3762L19.8 19.3762C20.4627 19.3762 21 18.9464 21 18.4162V15.6279C21 15.0978 20.4627 14.6679 19.8 14.6679L12.776 14.6679M3 21.7762V2.57617" stroke="#888888" stroke-width="2" stroke-linecap="round" stroke-linejoin="round"/>
</svg>
