<svg width="28" height="24" viewBox="0 0 28 24" fill="none" xmlns="http://www.w3.org/2000/svg">
<path d="M20.0237 9.99995H25.378C26.1634 9.99995 26.8002 10.6367 26.8002 11.4222V19.7307V20.8C26.8002 21.9045 25.9048 22.8 24.8002 22.8H4.40019M1.2002 2.62217V20C1.2002 21.5463 2.4538 22.8 4.00019 22.8V22.8C5.54659 22.8 6.80019 21.5463 6.80019 20V11.4222C6.80019 10.6367 7.43694 9.99995 8.22242 9.99995H23.9557V6.63786C23.9557 5.85239 23.319 5.21564 22.5335 5.21564H13.1636L10.9903 1.85058C10.7284 1.44495 10.2785 1.19995 9.79561 1.19995H2.62242C1.83695 1.19995 1.2002 1.8367 1.2002 2.62217Z" stroke="#5A5A5A" stroke-width="2" stroke-linecap="round" stroke-linejoin="round"/>
</svg>
