<svg width="358" height="57" viewBox="0 0 358 57" fill="none" xmlns="http://www.w3.org/2000/svg">
<path d="M1.81631 34.7219V22.0569H6.16831C6.99565 22.0569 7.72098 22.2213 8.34431 22.5499C8.96765 22.8673 9.44931 23.3206 9.78931 23.9099C10.1406 24.4879 10.3163 25.1623 10.3163 25.9329C10.3163 26.8283 10.0783 27.5933 9.60231 28.2279C9.13765 28.8626 8.50298 29.3103 7.69831 29.5709L10.6563 34.7219H9.05831L5.96431 29.2649L6.88231 29.7919H3.17631V34.7219H1.81631ZM3.17631 28.5169H6.23631C6.78031 28.5169 7.25631 28.4149 7.66431 28.2109C8.07231 27.9956 8.38965 27.6953 8.61631 27.3099C8.84298 26.9133 8.95631 26.4486 8.95631 25.9159C8.95631 25.3833 8.84298 24.9243 8.61631 24.5389C8.38965 24.1536 8.07231 23.8589 7.66431 23.6549C7.25631 23.4396 6.78031 23.3319 6.23631 23.3319H3.17631V28.5169ZM15.1549 34.9259C14.5769 34.9259 14.0613 34.8183 13.6079 34.6029C13.1546 34.3763 12.7976 34.0703 12.5369 33.6849C12.2763 33.2996 12.1459 32.8576 12.1459 32.3589C12.1459 31.8829 12.2479 31.4523 12.4519 31.0669C12.6559 30.6703 12.9733 30.3359 13.4039 30.0639C13.8346 29.7919 14.3843 29.5993 15.0529 29.4859L18.6229 28.8909V30.0469L15.3589 30.5909C14.7016 30.7043 14.2256 30.9139 13.9309 31.2199C13.6476 31.5259 13.5059 31.8886 13.5059 32.3079C13.5059 32.7159 13.6646 33.0616 13.9819 33.3449C14.3106 33.6283 14.7299 33.7699 15.2399 33.7699C15.8633 33.7699 16.4073 33.6396 16.8719 33.3789C17.3366 33.1069 17.6993 32.7443 17.9599 32.2909C18.2206 31.8376 18.3509 31.3333 18.3509 30.7779V28.4659C18.3509 27.9219 18.1526 27.4799 17.7559 27.1399C17.3593 26.7999 16.8436 26.6299 16.2089 26.6299C15.6536 26.6299 15.1663 26.7716 14.7469 27.0549C14.3276 27.3269 14.0159 27.6839 13.8119 28.1259L12.6559 27.4969C12.8259 27.1116 13.0923 26.7603 13.4549 26.4429C13.8289 26.1256 14.2539 25.8763 14.7299 25.6949C15.2059 25.5023 15.6989 25.4059 16.2089 25.4059C16.8776 25.4059 17.4669 25.5363 17.9769 25.7969C18.4983 26.0576 18.9006 26.4203 19.1839 26.8849C19.4786 27.3383 19.6259 27.8653 19.6259 28.4659V34.7219H18.3509V32.9029L18.5379 33.0899C18.3793 33.4299 18.1299 33.7416 17.7899 34.0249C17.4613 34.2969 17.0703 34.5179 16.6169 34.6879C16.1749 34.8466 15.6876 34.9259 15.1549 34.9259ZM22.2485 34.7219V25.6099H23.5235V27.1059L23.3535 26.8849C23.5688 26.4543 23.8918 26.1143 24.3225 25.8649C24.7645 25.6156 25.2971 25.4909 25.9205 25.4909H26.4985V26.7659H25.6995C25.0421 26.7659 24.5151 26.9699 24.1185 27.3779C23.7218 27.7859 23.5235 28.3639 23.5235 29.1119V34.7219H22.2485ZM32.1406 34.9259C31.2906 34.9259 30.5199 34.7219 29.8286 34.3139C29.1486 33.8946 28.6103 33.3223 28.2136 32.5969C27.8169 31.8716 27.6186 31.0499 27.6186 30.1319C27.6186 29.2139 27.8113 28.4036 28.1966 27.7009C28.5819 26.9869 29.1033 26.4259 29.7606 26.0179C30.4293 25.6099 31.1773 25.4059 32.0046 25.4059C32.6619 25.4059 33.2456 25.5306 33.7556 25.7799C34.2769 26.0179 34.7189 26.3466 35.0816 26.7659C35.4443 27.1739 35.7219 27.6386 35.9146 28.1599C36.1073 28.6699 36.2036 29.1969 36.2036 29.7409C36.2036 29.8543 36.1979 29.9846 36.1866 30.1319C36.1753 30.2679 36.1583 30.4096 36.1356 30.5569H28.4346V29.3669H35.4046L34.7926 29.8769C34.8946 29.2536 34.8209 28.6983 34.5716 28.2109C34.3336 27.7123 33.9879 27.3213 33.5346 27.0379C33.0813 26.7433 32.5713 26.5959 32.0046 26.5959C31.4379 26.5959 30.9109 26.7433 30.4236 27.0379C29.9476 27.3326 29.5736 27.7463 29.3016 28.2789C29.0296 28.8003 28.9219 29.4236 28.9786 30.1489C28.9219 30.8743 29.0353 31.5089 29.3186 32.0529C29.6133 32.5856 30.0099 32.9993 30.5086 33.2939C31.0186 33.5886 31.5626 33.7359 32.1406 33.7359C32.8093 33.7359 33.3703 33.5773 33.8236 33.2599C34.2769 32.9426 34.6453 32.5459 34.9286 32.0699L36.0166 32.6479C35.8353 33.0559 35.5576 33.4356 35.1836 33.7869C34.8096 34.1269 34.3619 34.4046 33.8406 34.6199C33.3306 34.8239 32.7639 34.9259 32.1406 34.9259ZM38.5026 25.9669V25.3719C38.8426 25.2813 39.0862 25.1169 39.2336 24.8789C39.3922 24.6296 39.4772 24.3123 39.4886 23.9269H38.8426V22.0569H40.2026V23.4849C40.2026 24.1423 40.0609 24.6863 39.7776 25.1169C39.4942 25.5476 39.0692 25.8309 38.5026 25.9669ZM46.1956 34.9259C45.3229 34.9259 44.5579 34.7049 43.9006 34.2629C43.2433 33.8209 42.7673 33.2203 42.4726 32.4609L43.5436 31.9509C43.8043 32.5063 44.1669 32.9483 44.6316 33.2769C45.1076 33.6056 45.6289 33.7699 46.1956 33.7699C46.7396 33.7699 47.1986 33.6396 47.5726 33.3789C47.9466 33.1069 48.1336 32.7556 48.1336 32.3249C48.1336 32.0076 48.0429 31.7583 47.8616 31.5769C47.6803 31.3843 47.4706 31.2369 47.2326 31.1349C46.9946 31.0329 46.7849 30.9593 46.6036 30.9139L45.2946 30.5399C44.4559 30.3019 43.8496 29.9676 43.4756 29.5369C43.1016 29.1063 42.9146 28.6076 42.9146 28.0409C42.9146 27.5083 43.0506 27.0436 43.3226 26.6469C43.5946 26.2503 43.9629 25.9443 44.4276 25.7289C44.8923 25.5136 45.4079 25.4059 45.9746 25.4059C46.7453 25.4059 47.4423 25.6099 48.0656 26.0179C48.7003 26.4146 49.1479 26.9699 49.4086 27.6839L48.3206 28.1939C48.0939 27.6839 47.7653 27.2873 47.3346 27.0039C46.9153 26.7093 46.4449 26.5619 45.9236 26.5619C45.4136 26.5619 45.0056 26.6923 44.6996 26.9529C44.3936 27.2136 44.2406 27.5423 44.2406 27.9389C44.2406 28.2449 44.3199 28.4886 44.4786 28.6699C44.6373 28.8513 44.8186 28.9873 45.0226 29.0779C45.2379 29.1686 45.4249 29.2366 45.5836 29.2819L47.0966 29.7239C47.8333 29.9393 48.4056 30.2736 48.8136 30.7269C49.2329 31.1803 49.4426 31.7129 49.4426 32.3249C49.4426 32.8236 49.3009 33.2713 49.0176 33.6679C48.7456 34.0646 48.3659 34.3763 47.8786 34.6029C47.3913 34.8183 46.8303 34.9259 46.1956 34.9259ZM59.0257 34.9259C58.221 34.9259 57.49 34.7729 56.8327 34.4669C56.1754 34.1609 55.62 33.7529 55.1667 33.2429C54.7134 32.7216 54.3904 32.1493 54.1977 31.5259L55.4217 31.0669C55.7164 31.9283 56.1754 32.5856 56.7987 33.0389C57.422 33.4809 58.1644 33.7019 59.0257 33.7019C59.5697 33.7019 60.0457 33.6169 60.4537 33.4469C60.873 33.2656 61.196 33.0163 61.4227 32.6989C61.6494 32.3816 61.7627 32.0133 61.7627 31.5939C61.7627 30.9706 61.5927 30.4889 61.2527 30.1489C60.9127 29.8089 60.4254 29.5483 59.7907 29.3669L57.5127 28.6869C56.6174 28.4263 55.926 27.9899 55.4387 27.3779C54.9627 26.7659 54.7247 26.0689 54.7247 25.2869C54.7247 24.6183 54.889 24.0289 55.2177 23.5189C55.5464 22.9976 55.994 22.5896 56.5607 22.2949C57.1387 22.0003 57.7904 21.8529 58.5157 21.8529C59.275 21.8529 59.955 21.9946 60.5557 22.2779C61.1677 22.5499 61.6834 22.9126 62.1027 23.3659C62.522 23.8193 62.8224 24.3236 63.0037 24.8789L61.8137 25.3549C61.5417 24.6069 61.1167 24.0403 60.5387 23.6549C59.972 23.2696 59.3034 23.0769 58.5327 23.0769C58.0454 23.0769 57.6147 23.1619 57.2407 23.3319C56.878 23.5019 56.5947 23.7456 56.3907 24.0629C56.1867 24.3803 56.0847 24.7543 56.0847 25.1849C56.0847 25.7063 56.249 26.1766 56.5777 26.5959C56.9064 27.0039 57.4107 27.3099 58.0907 27.5139L60.0967 28.1089C61.094 28.4036 61.8477 28.8286 62.3577 29.3839C62.8677 29.9393 63.1227 30.6363 63.1227 31.4749C63.1227 32.1549 62.947 32.7556 62.5957 33.2769C62.2557 33.7869 61.774 34.1893 61.1507 34.4839C60.5387 34.7786 59.8304 34.9259 59.0257 34.9259ZM65.5619 34.7219V25.6099H66.8369V27.3439L66.6329 27.0889C66.8823 26.5563 67.2506 26.1426 67.7379 25.8479C68.2366 25.5533 68.7806 25.4059 69.3699 25.4059C70.0726 25.4059 70.7073 25.6043 71.2739 26.0009C71.8406 26.3976 72.2429 26.9133 72.4809 27.5479L72.1239 27.5649C72.3506 26.8623 72.7416 26.3296 73.2969 25.9669C73.8636 25.5929 74.4869 25.4059 75.1669 25.4059C75.7789 25.4059 76.3399 25.5533 76.8499 25.8479C77.3713 26.1426 77.7849 26.5506 78.0909 27.0719C78.4083 27.5819 78.5669 28.1599 78.5669 28.8059V34.7219H77.2919V29.2989C77.2919 28.7436 77.1899 28.2733 76.9859 27.8879C76.7933 27.5026 76.5269 27.2079 76.1869 27.0039C75.8469 26.7886 75.4559 26.6809 75.0139 26.6809C74.5833 26.6809 74.1923 26.7886 73.8409 27.0039C73.4896 27.2079 73.2119 27.5083 73.0079 27.9049C72.8039 28.2903 72.7019 28.7549 72.7019 29.2989V34.7219H71.4269V29.2989C71.4269 28.7436 71.3249 28.2733 71.1209 27.8879C70.9283 27.5026 70.6619 27.2079 70.3219 27.0039C69.9819 26.7886 69.5909 26.6809 69.1489 26.6809C68.7069 26.6809 68.3103 26.7886 67.9589 27.0039C67.6189 27.2079 67.3469 27.5083 67.1429 27.9049C66.9389 28.2903 66.8369 28.7549 66.8369 29.2989V34.7219H65.5619ZM81.0014 34.7219V25.6099H82.2764V34.7219H81.0014ZM81.0014 23.9269V22.0569H82.2764V23.9269H81.0014ZM84.8861 34.7219V21.8529H86.1611V34.7219H84.8861ZM92.9189 34.9259C92.0689 34.9259 91.2982 34.7219 90.6069 34.3139C89.9269 33.8946 89.3886 33.3223 88.9919 32.5969C88.5952 31.8716 88.3969 31.0499 88.3969 30.1319C88.3969 29.2139 88.5896 28.4036 88.9749 27.7009C89.3602 26.9869 89.8816 26.4259 90.5389 26.0179C91.2076 25.6099 91.9556 25.4059 92.7829 25.4059C93.4402 25.4059 94.0239 25.5306 94.5339 25.7799C95.0552 26.0179 95.4972 26.3466 95.8599 26.7659C96.2226 27.1739 96.5002 27.6386 96.6929 28.1599C96.8856 28.6699 96.9819 29.1969 96.9819 29.7409C96.9819 29.8543 96.9762 29.9846 96.9649 30.1319C96.9536 30.2679 96.9366 30.4096 96.9139 30.5569H89.2129V29.3669H96.1829L95.5709 29.8769C95.6729 29.2536 95.5992 28.6983 95.3499 28.2109C95.1119 27.7123 94.7662 27.3213 94.3129 27.0379C93.8596 26.7433 93.3496 26.5959 92.7829 26.5959C92.2162 26.5959 91.6892 26.7433 91.2019 27.0379C90.7259 27.3326 90.3519 27.7463 90.0799 28.2789C89.8079 28.8003 89.7002 29.4236 89.7569 30.1489C89.7002 30.8743 89.8136 31.5089 90.0969 32.0529C90.3916 32.5856 90.7882 32.9993 91.2869 33.2939C91.7969 33.5886 92.3409 33.7359 92.9189 33.7359C93.5876 33.7359 94.1486 33.5773 94.6019 33.2599C95.0552 32.9426 95.4236 32.5459 95.7069 32.0699L96.7949 32.6479C96.6136 33.0559 96.3359 33.4356 95.9619 33.7869C95.5879 34.1269 95.1402 34.4046 94.6189 34.6199C94.1089 34.8239 93.5422 34.9259 92.9189 34.9259ZM102.119 38.1219V25.6099H103.394V27.6499L103.19 27.2929C103.552 26.7149 104.034 26.2559 104.635 25.9159C105.247 25.5759 105.944 25.4059 106.726 25.4059C107.587 25.4059 108.352 25.6156 109.021 26.0349C109.701 26.4429 110.233 27.0039 110.619 27.7179C111.015 28.4319 111.214 29.2479 111.214 30.1659C111.214 31.0726 111.015 31.8886 110.619 32.6139C110.233 33.3279 109.701 33.8946 109.021 34.3139C108.352 34.7219 107.587 34.9259 106.726 34.9259C105.944 34.9259 105.235 34.7503 104.601 34.3989C103.977 34.0363 103.507 33.5263 103.19 32.8689L103.394 32.6819V38.1219H102.119ZM106.658 33.6509C107.27 33.6509 107.814 33.4979 108.29 33.1919C108.777 32.8859 109.157 32.4723 109.429 31.9509C109.712 31.4183 109.854 30.8233 109.854 30.1659C109.854 29.4973 109.712 28.9023 109.429 28.3809C109.157 27.8596 108.777 27.4459 108.29 27.1399C107.814 26.8339 107.27 26.6809 106.658 26.6809C106.046 26.6809 105.49 26.8339 104.992 27.1399C104.504 27.4459 104.113 27.8653 103.819 28.3979C103.535 28.9193 103.394 29.5086 103.394 30.1659C103.394 30.8233 103.535 31.4183 103.819 31.9509C104.113 32.4723 104.504 32.8859 104.992 33.1919C105.49 33.4979 106.046 33.6509 106.658 33.6509ZM117.724 34.9259C116.863 34.9259 116.081 34.7219 115.378 34.3139C114.676 33.8946 114.115 33.3279 113.695 32.6139C113.287 31.8886 113.083 31.0669 113.083 30.1489C113.083 29.2423 113.287 28.4319 113.695 27.7179C114.103 27.0039 114.653 26.4429 115.344 26.0349C116.047 25.6156 116.84 25.4059 117.724 25.4059C118.608 25.4059 119.396 25.6099 120.087 26.0179C120.79 26.4259 121.34 26.9869 121.736 27.7009C122.144 28.4149 122.348 29.2309 122.348 30.1489C122.348 31.0783 122.139 31.9056 121.719 32.6309C121.3 33.3449 120.739 33.9059 120.036 34.3139C119.345 34.7219 118.574 34.9259 117.724 34.9259ZM117.724 33.6509C118.336 33.6509 118.886 33.4979 119.373 33.1919C119.872 32.8859 120.263 32.4666 120.546 31.9339C120.841 31.4013 120.988 30.8063 120.988 30.1489C120.988 29.4916 120.841 28.9023 120.546 28.3809C120.263 27.8596 119.872 27.4459 119.373 27.1399C118.886 26.8339 118.336 26.6809 117.724 26.6809C117.112 26.6809 116.557 26.8339 116.058 27.1399C115.571 27.4459 115.18 27.8596 114.885 28.3809C114.591 28.9023 114.443 29.4916 114.443 30.1489C114.443 30.8063 114.591 31.4013 114.885 31.9339C115.18 32.4666 115.571 32.8859 116.058 33.1919C116.557 33.4979 117.112 33.6509 117.724 33.6509ZM126.437 34.7219L123.309 25.6099H124.754L127.338 33.5829H126.828L129.259 25.6099H130.534L132.965 33.5829H132.455L135.056 25.6099H136.484L133.356 34.7219H132.081L129.718 26.9189H130.075L127.712 34.7219H126.437ZM141.96 34.9259C141.11 34.9259 140.339 34.7219 139.648 34.3139C138.968 33.8946 138.43 33.3223 138.033 32.5969C137.636 31.8716 137.438 31.0499 137.438 30.1319C137.438 29.2139 137.631 28.4036 138.016 27.7009C138.401 26.9869 138.923 26.4259 139.58 26.0179C140.249 25.6099 140.997 25.4059 141.824 25.4059C142.481 25.4059 143.065 25.5306 143.575 25.7799C144.096 26.0179 144.538 26.3466 144.901 26.7659C145.264 27.1739 145.541 27.6386 145.734 28.1599C145.927 28.6699 146.023 29.1969 146.023 29.7409C146.023 29.8543 146.017 29.9846 146.006 30.1319C145.995 30.2679 145.978 30.4096 145.955 30.5569H138.254V29.3669H145.224L144.612 29.8769C144.714 29.2536 144.64 28.6983 144.391 28.2109C144.153 27.7123 143.807 27.3213 143.354 27.0379C142.901 26.7433 142.391 26.5959 141.824 26.5959C141.257 26.5959 140.73 26.7433 140.243 27.0379C139.767 27.3326 139.393 27.7463 139.121 28.2789C138.849 28.8003 138.741 29.4236 138.798 30.1489C138.741 30.8743 138.855 31.5089 139.138 32.0529C139.433 32.5856 139.829 32.9993 140.328 33.2939C140.838 33.5886 141.382 33.7359 141.96 33.7359C142.629 33.7359 143.19 33.5773 143.643 33.2599C144.096 32.9426 144.465 32.5459 144.748 32.0699L145.836 32.6479C145.655 33.0559 145.377 33.4356 145.003 33.7869C144.629 34.1269 144.181 34.4046 143.66 34.6199C143.15 34.8239 142.583 34.9259 141.96 34.9259ZM148.271 34.7219V25.6099H149.546V27.1059L149.376 26.8849C149.591 26.4543 149.914 26.1143 150.345 25.8649C150.787 25.6156 151.32 25.4909 151.943 25.4909H152.521V26.7659H151.722C151.065 26.7659 150.538 26.9699 150.141 27.3779C149.744 27.7859 149.546 28.3639 149.546 29.1119V34.7219H148.271ZM158.163 34.9259C157.313 34.9259 156.542 34.7219 155.851 34.3139C155.171 33.8946 154.633 33.3223 154.236 32.5969C153.839 31.8716 153.641 31.0499 153.641 30.1319C153.641 29.2139 153.834 28.4036 154.219 27.7009C154.604 26.9869 155.126 26.4259 155.783 26.0179C156.452 25.6099 157.2 25.4059 158.027 25.4059C158.684 25.4059 159.268 25.5306 159.778 25.7799C160.299 26.0179 160.741 26.3466 161.104 26.7659C161.467 27.1739 161.744 27.6386 161.937 28.1599C162.13 28.6699 162.226 29.1969 162.226 29.7409C162.226 29.8543 162.22 29.9846 162.209 30.1319C162.198 30.2679 162.181 30.4096 162.158 30.5569H154.457V29.3669H161.427L160.815 29.8769C160.917 29.2536 160.843 28.6983 160.594 28.2109C160.356 27.7123 160.01 27.3213 159.557 27.0379C159.104 26.7433 158.594 26.5959 158.027 26.5959C157.46 26.5959 156.933 26.7433 156.446 27.0379C155.97 27.3326 155.596 27.7463 155.324 28.2789C155.052 28.8003 154.944 29.4236 155.001 30.1489C154.944 30.8743 155.058 31.5089 155.341 32.0529C155.636 32.5856 156.032 32.9993 156.531 33.2939C157.041 33.5886 157.585 33.7359 158.163 33.7359C158.832 33.7359 159.393 33.5773 159.846 33.2599C160.299 32.9426 160.668 32.5459 160.951 32.0699L162.039 32.6479C161.858 33.0559 161.58 33.4356 161.206 33.7869C160.832 34.1269 160.384 34.4046 159.863 34.6199C159.353 34.8239 158.786 34.9259 158.163 34.9259ZM168.588 34.9259C167.738 34.9259 166.973 34.7219 166.293 34.3139C165.613 33.8946 165.075 33.3279 164.678 32.6139C164.293 31.8886 164.1 31.0726 164.1 30.1659C164.1 29.2479 164.293 28.4319 164.678 27.7179C165.075 27.0039 165.607 26.4429 166.276 26.0349C166.956 25.6156 167.727 25.4059 168.588 25.4059C169.37 25.4059 170.067 25.5759 170.679 25.9159C171.291 26.2559 171.773 26.7149 172.124 27.2929L171.92 27.6499V21.8529H173.195V34.7219H171.92V32.6819L172.124 32.8689C171.807 33.5263 171.331 34.0363 170.696 34.3989C170.073 34.7503 169.37 34.9259 168.588 34.9259ZM168.656 33.6509C169.268 33.6509 169.818 33.4979 170.305 33.1919C170.804 32.8859 171.195 32.4723 171.478 31.9509C171.773 31.4183 171.92 30.8233 171.92 30.1659C171.92 29.5086 171.773 28.9193 171.478 28.3979C171.195 27.8653 170.804 27.4459 170.305 27.1399C169.818 26.8339 169.268 26.6809 168.656 26.6809C168.055 26.6809 167.511 26.8339 167.024 27.1399C166.537 27.4459 166.151 27.8596 165.868 28.3809C165.596 28.9023 165.46 29.4973 165.46 30.1659C165.46 30.8233 165.596 31.4183 165.868 31.9509C166.151 32.4723 166.531 32.8859 167.007 33.1919C167.494 33.4979 168.044 33.6509 168.656 33.6509ZM183.309 34.9259C182.527 34.9259 181.818 34.7503 181.184 34.3989C180.56 34.0363 180.09 33.5263 179.773 32.8689L179.977 32.6819V34.7219H178.702V21.8529H179.977V27.6499L179.773 27.2929C180.135 26.7149 180.617 26.2559 181.218 25.9159C181.83 25.5759 182.527 25.4059 183.309 25.4059C184.17 25.4059 184.935 25.6156 185.604 26.0349C186.284 26.4429 186.816 27.0039 187.202 27.7179C187.598 28.4319 187.797 29.2479 187.797 30.1659C187.797 31.0726 187.598 31.8886 187.202 32.6139C186.816 33.3279 186.284 33.8946 185.604 34.3139C184.935 34.7219 184.17 34.9259 183.309 34.9259ZM183.241 33.6509C183.853 33.6509 184.397 33.4979 184.873 33.1919C185.36 32.8859 185.74 32.4723 186.012 31.9509C186.295 31.4183 186.437 30.8233 186.437 30.1659C186.437 29.4973 186.295 28.9023 186.012 28.3809C185.74 27.8596 185.36 27.4459 184.873 27.1399C184.397 26.8339 183.853 26.6809 183.241 26.6809C182.629 26.6809 182.073 26.8339 181.575 27.1399C181.087 27.4459 180.696 27.8653 180.402 28.3979C180.118 28.9193 179.977 29.5086 179.977 30.1659C179.977 30.8233 180.118 31.4183 180.402 31.9509C180.696 32.4723 181.087 32.8859 181.575 33.1919C182.073 33.4979 182.629 33.6509 183.241 33.6509ZM190.061 38.4619C189.88 38.4619 189.693 38.4449 189.5 38.4109C189.319 38.3883 189.138 38.3429 188.956 38.2749V37.0849C189.07 37.0963 189.211 37.1133 189.381 37.1359C189.563 37.1699 189.744 37.1869 189.925 37.1869C190.481 37.1869 190.906 37.0679 191.2 36.8299C191.495 36.6033 191.784 36.1613 192.067 35.5039L192.645 34.1439L192.611 35.2659L188.752 25.6099H190.129L193.291 33.5829H192.934L196.079 25.6099H197.49L193.325 35.8779C193.144 36.3199 192.912 36.7393 192.628 37.1359C192.356 37.5326 192.011 37.8499 191.591 38.0879C191.172 38.3373 190.662 38.4619 190.061 38.4619Z" fill="#888888"/>
<g clip-path="url(#clip0_4114_2135)">
<path d="M214.235 34.539C213.153 34.539 212.119 34.3269 211.124 33.9027C210.134 33.4785 209.255 32.8663 208.487 32.0661C207.729 31.2659 207.125 30.2922 206.676 29.1353C206.227 27.9833 206 26.6818 206 25.2356C206 23.7895 206.222 22.4736 206.662 21.2974C207.106 20.1164 207.715 19.1041 208.502 18.2509C209.275 17.4074 210.192 16.7566 211.245 16.2987C212.303 15.8408 213.428 15.6094 214.631 15.6094C215.524 15.6094 216.336 15.7202 217.055 15.942C217.78 16.1637 218.466 16.4722 219.122 16.8723L219.644 16.0046H220.668L220.784 22.4591H219.736C219.601 21.8276 219.398 21.148 219.122 20.4105C218.852 19.6729 218.533 19.0511 218.166 18.5402C217.756 17.9617 217.273 17.5086 216.712 17.1808C216.152 16.853 215.51 16.6891 214.785 16.6891C213.959 16.6891 213.191 16.8723 212.482 17.2387C211.772 17.605 211.153 18.1449 210.637 18.8583C210.144 19.5476 209.758 20.4249 209.477 21.4902C209.197 22.5555 209.057 23.7413 209.057 25.0525C209.057 26.2094 209.202 27.2698 209.497 28.2387C209.791 29.2028 210.212 30.056 210.752 30.7839C211.298 31.5069 211.941 32.0709 212.689 32.4807C213.433 32.8904 214.264 33.0928 215.186 33.0928C215.877 33.0928 216.51 32.982 217.089 32.7699C217.669 32.553 218.171 32.2637 218.596 31.907C219.021 31.531 219.398 31.1069 219.721 30.6296C220.045 30.1524 220.311 29.6318 220.513 29.0727L221.47 29.5306C220.736 31.3238 219.765 32.606 218.557 33.3772C217.35 34.1485 215.911 34.5341 214.24 34.5341L214.235 34.539Z" fill="#888888"/>
<path d="M230.98 26.0598C230.98 26.3683 230.728 26.619 230.419 26.619H223.923C223.614 26.619 223.363 26.3683 223.363 26.0598V25.168C223.363 24.8595 223.614 24.6089 223.923 24.6089H230.419C230.728 24.6089 230.98 24.8595 230.98 25.168V26.0598Z" fill="#888888"/>
<path d="M250.521 34.1051H245.638C244.556 32.4132 243.58 30.9526 242.706 29.7186C241.832 28.4846 240.885 27.212 239.866 25.9057H238.007V31.6467C238.007 31.9456 238.055 32.2059 238.147 32.4324C238.244 32.659 238.442 32.8325 238.746 32.9482C238.9 33.0061 239.166 33.0639 239.552 33.1121C239.934 33.1651 240.258 33.1941 240.523 33.2037V34.1099H232.854V33.2037C233.056 33.1844 233.356 33.1555 233.742 33.1121C234.129 33.0687 234.399 33.0157 234.554 32.9482C234.81 32.8374 234.993 32.6783 235.109 32.4614C235.225 32.2493 235.283 31.9745 235.283 31.6467V18.5546C235.283 18.2557 235.239 17.9955 235.157 17.7641C235.07 17.5327 234.872 17.3592 234.558 17.2435C234.346 17.1663 234.071 17.0989 233.728 17.0314C233.385 16.9687 233.095 16.9253 232.858 16.9109V16.0046H241.228C241.996 16.0046 242.716 16.0818 243.387 16.2408C244.059 16.3999 244.672 16.6506 245.213 17.0025C245.739 17.3447 246.164 17.7882 246.478 18.3329C246.792 18.8824 246.952 19.5428 246.952 20.3189C246.952 21.0178 246.845 21.6348 246.633 22.1699C246.42 22.7049 246.106 23.1677 245.686 23.563C245.305 23.9293 244.841 24.2475 244.305 24.5126C243.769 24.7777 243.175 25.0091 242.528 25.1923C243.421 26.3732 244.165 27.3711 244.759 28.1761C245.353 28.9859 246.077 29.9644 246.937 31.1213C247.314 31.6323 247.652 32.0083 247.951 32.2493C248.256 32.4903 248.555 32.6879 248.854 32.8422C249.077 32.953 249.352 33.0398 249.685 33.0977C250.018 33.1555 250.294 33.1892 250.516 33.1989V34.1051H250.521ZM243.798 20.6129C243.798 19.5187 243.484 18.651 242.851 18.0099C242.218 17.3688 241.33 17.0507 240.18 17.0507H238.007V24.8066H239.683C240.861 24.8066 241.837 24.4306 242.624 23.6787C243.407 22.9267 243.798 21.9048 243.798 20.6177V20.6129Z" fill="#888888"/>
<path d="M262.827 33.8737C262.426 34.0183 262.073 34.134 261.774 34.2255C261.47 34.3171 261.132 34.3605 260.745 34.3605C260.083 34.3605 259.552 34.2063 259.156 33.8929C258.76 33.5844 258.504 33.1313 258.393 32.5336H258.316C257.76 33.1458 257.166 33.6134 256.534 33.9363C255.901 34.2593 255.133 34.4184 254.239 34.4184C253.293 34.4184 252.515 34.1291 251.907 33.5507C251.298 32.9723 250.994 32.2155 250.994 31.2803C250.994 30.7983 251.062 30.3644 251.197 29.9788C251.332 29.598 251.54 29.2509 251.81 28.9472C252.023 28.6918 252.303 28.4652 252.65 28.2628C253.003 28.0651 253.327 27.9012 253.636 27.7855C254.017 27.6409 254.795 27.371 255.969 26.9805C257.137 26.5901 257.929 26.2816 258.34 26.0598V24.7969C258.34 24.686 258.316 24.4739 258.272 24.1606C258.224 23.8473 258.127 23.5484 257.973 23.2689C257.804 22.9555 257.562 22.6808 257.248 22.4446C256.939 22.2084 256.495 22.0927 255.925 22.0927C255.534 22.0927 255.167 22.1602 254.834 22.2903C254.495 22.4205 254.259 22.5603 254.124 22.7049C254.124 22.8736 254.162 23.1242 254.244 23.4568C254.326 23.7895 254.365 24.0931 254.365 24.3775C254.365 24.6764 254.23 24.9463 253.964 25.1922C253.699 25.438 253.322 25.5633 252.844 25.5633C252.419 25.5633 252.105 25.4139 251.907 25.1102C251.709 24.8066 251.607 24.4691 251.607 24.098C251.607 23.7268 251.747 23.3315 252.023 22.9748C252.298 22.6181 252.66 22.3 253.104 22.0204C253.486 21.7842 253.955 21.5817 254.495 21.413C255.041 21.2491 255.572 21.1624 256.094 21.1624C256.809 21.1624 257.437 21.2106 257.968 21.307C258.499 21.4034 258.982 21.6155 259.417 21.9384C259.852 22.2518 260.18 22.6808 260.407 23.2206C260.634 23.7605 260.745 24.4547 260.745 25.3079C260.745 26.5226 260.731 27.6024 260.707 28.5423C260.682 29.4823 260.668 30.509 260.668 31.6225C260.668 31.9552 260.726 32.2155 260.842 32.4131C260.958 32.6107 261.132 32.7746 261.373 32.9096C261.499 32.9867 261.701 33.0301 261.982 33.0349C262.257 33.0446 262.542 33.0494 262.832 33.0494V33.864L262.827 33.8737ZM258.364 27.1396C257.64 27.3517 257.007 27.5638 256.461 27.7663C255.915 27.9687 255.408 28.2242 254.94 28.5327C254.515 28.8219 254.177 29.1642 253.93 29.5594C253.684 29.9547 253.558 30.4271 253.558 30.9718C253.558 31.6804 253.747 32.201 254.114 32.5336C254.486 32.8662 254.954 33.0349 255.524 33.0349C256.128 33.0349 256.659 32.8903 257.123 32.5914C257.582 32.2974 257.968 31.9503 258.287 31.5502L258.364 27.1396Z" fill="#888888"/>
<path d="M273.732 23.1435C273.732 23.5774 273.626 23.963 273.414 24.3004C273.201 24.6379 272.873 24.8066 272.428 24.8066C271.95 24.8066 271.588 24.6812 271.337 24.4354C271.086 24.1896 270.96 23.9148 270.96 23.6208C270.96 23.4328 270.975 23.264 271.004 23.1098C271.033 22.9555 271.062 22.8013 271.086 22.6519C270.685 22.6519 270.216 22.8109 269.68 23.1339C269.144 23.4569 268.69 23.9148 268.313 24.5125V31.8347C268.313 32.1335 268.371 32.3745 268.487 32.5625C268.603 32.7505 268.782 32.8903 269.028 32.9819C269.241 33.0687 269.516 33.1313 269.854 33.1747C270.192 33.2181 270.482 33.247 270.728 33.2615V34.1051H264.083V33.2615C264.281 33.2422 264.483 33.2277 264.691 33.2085C264.899 33.1892 265.082 33.1603 265.237 33.1072C265.474 33.0301 265.652 32.9 265.768 32.7071C265.884 32.5143 265.942 32.2685 265.942 31.96V24.1992C265.942 23.9341 265.879 23.6786 265.758 23.4231C265.633 23.1676 265.464 22.9652 265.242 22.8109C265.082 22.7097 264.889 22.6326 264.667 22.5892C264.445 22.541 264.208 22.5121 263.952 22.4928V21.6492L268.144 21.3696L268.323 21.548V23.3219H268.386C268.912 22.6326 269.502 22.112 270.149 21.7553C270.796 21.3986 271.39 21.2202 271.926 21.2202C272.462 21.2202 272.902 21.3937 273.235 21.7456C273.573 22.0927 273.737 22.5603 273.737 23.1484L273.732 23.1435Z" fill="#888888"/>
<path d="M286 31.1454C285.474 32.148 284.764 32.9482 283.88 33.5459C282.991 34.1388 281.972 34.4377 280.823 34.4377C279.808 34.4377 278.92 34.2593 278.157 33.9026C277.393 33.5459 276.766 33.0591 276.273 32.4469C275.78 31.8347 275.408 31.1213 275.167 30.3018C274.925 29.4872 274.805 28.6243 274.805 27.7133C274.805 26.8987 274.935 26.0937 275.196 25.3079C275.457 24.5222 275.838 23.8136 276.341 23.1821C276.828 22.5796 277.427 22.0927 278.147 21.7216C278.867 21.3504 279.673 21.1672 280.571 21.1672C281.47 21.1672 282.281 21.3118 282.938 21.6011C283.595 21.8903 284.126 22.2856 284.537 22.7869C284.928 23.2641 285.218 23.8233 285.411 24.4692C285.604 25.1151 285.701 25.8189 285.701 26.5757V27.4193H277.355C277.355 28.2435 277.432 28.9955 277.591 29.6704C277.751 30.3452 277.997 30.9381 278.34 31.4491C278.673 31.9456 279.108 32.3312 279.644 32.6204C280.18 32.9048 280.818 33.0494 281.562 33.0494C282.305 33.0494 282.972 32.8711 283.522 32.5192C284.073 32.1625 284.604 31.5262 285.111 30.6007L286.005 31.1502L286 31.1454ZM283.175 26.3491C283.175 25.8719 283.136 25.3658 283.054 24.8211C282.972 24.2764 282.841 23.8233 282.663 23.4617C282.465 23.0713 282.199 22.7531 281.856 22.5073C281.513 22.2615 281.074 22.1361 280.538 22.1361C279.644 22.1361 278.9 22.5073 278.306 23.2496C277.712 23.992 277.393 25.0235 277.34 26.3443H283.17L283.175 26.3491Z" fill="#888888"/>
<path d="M261.107 15.9757H259.383C259.195 16.4963 258.881 16.9639 258.437 17.3784L258.084 17.0699C258.364 16.8 258.596 16.4915 258.77 16.1396C258.944 15.7877 259.055 15.4213 259.098 15.0405L259.581 15.0743C259.572 15.2237 259.547 15.3731 259.509 15.5177H261.639V15.6142C261.639 16.6939 261.388 17.4941 260.885 18.0147C260.383 18.5353 259.576 18.8438 258.475 18.9402L258.403 18.4871C259.33 18.4003 260.001 18.1641 260.417 17.7833C260.832 17.4025 261.064 16.8 261.107 15.9709V15.9757Z" fill="#888888"/>
<path d="M264.189 15.219H264.725V18.4535C265.367 18.4004 265.884 18.2269 266.28 17.9232C266.676 17.6195 266.98 17.1664 267.198 16.5639L267.661 16.7471C267.386 17.5087 266.975 18.063 266.425 18.4197C265.874 18.7716 265.159 18.95 264.285 18.95H264.189V15.219Z" fill="#888888"/>
<path d="M269.579 15.7973V15.3586H273.385V15.7973C273.293 16.1203 273.134 16.4191 272.902 16.6987C272.67 16.9735 272.399 17.2 272.081 17.3687L271.81 16.9686C272.341 16.6794 272.689 16.2938 272.849 15.8021H269.579V15.7973ZM270.897 16.2118H271.395C271.395 16.7614 271.351 17.2145 271.264 17.5615C271.178 17.9134 271.037 18.1978 270.849 18.4148C270.661 18.6317 270.4 18.8148 270.067 18.9643L269.83 18.5497C270.1 18.4292 270.313 18.2798 270.463 18.0966C270.612 17.9134 270.724 17.6724 270.791 17.3784C270.859 17.0795 270.893 16.6939 270.893 16.2118H270.897Z" fill="#888888"/>
<path d="M219.19 39.6004C219.19 38.4628 219.885 37.7783 220.769 37.7783C221.209 37.7783 221.552 37.9856 221.764 38.217L221.465 38.5689C221.286 38.3857 221.064 38.2555 220.779 38.2555C220.175 38.2555 219.755 38.7569 219.755 39.5811C219.755 40.4054 220.146 40.9212 220.764 40.9212C221.083 40.9212 221.33 40.7766 221.537 40.55L221.832 40.8971C221.552 41.2201 221.194 41.3984 220.745 41.3984C219.866 41.3984 219.19 40.7428 219.19 39.6004Z" fill="#888888"/>
<path d="M222.696 40.039C222.696 39.1665 223.281 38.6604 223.928 38.6604C224.575 38.6604 225.159 39.1617 225.159 40.039C225.159 40.9163 224.575 41.4032 223.928 41.4032C223.281 41.4032 222.696 40.9019 222.696 40.039ZM224.599 40.039C224.599 39.4847 224.343 39.1135 223.928 39.1135C223.513 39.1135 223.261 39.4847 223.261 40.039C223.261 40.5934 223.517 40.9549 223.928 40.9549C224.338 40.9549 224.599 40.5885 224.599 40.039Z" fill="#888888"/>
<path d="M226.28 38.7279H226.729L226.773 39.0942H226.787C227.009 38.858 227.27 38.6604 227.594 38.6604C227.985 38.6604 228.202 38.8388 228.318 39.1376C228.574 38.8629 228.84 38.6604 229.168 38.6604C229.714 38.6604 229.975 39.0316 229.975 39.6968V41.3405H229.429V39.7643C229.429 39.3111 229.289 39.1328 228.99 39.1328C228.811 39.1328 228.618 39.2533 228.4 39.4895V41.3405H227.855V39.7643C227.855 39.3111 227.714 39.1328 227.415 39.1328C227.241 39.1328 227.043 39.2533 226.826 39.4895V41.3405H226.285V38.7327L226.28 38.7279Z" fill="#888888"/>
<path d="M231.733 41.0658H231.718L231.665 41.3357H231.235V37.5518H231.776V38.5544L231.762 39.0027C231.984 38.8099 232.264 38.6604 232.539 38.6604C233.201 38.6604 233.578 39.1859 233.578 39.9909C233.578 40.8875 233.042 41.3984 232.452 41.3984C232.216 41.3984 231.955 41.2779 231.728 41.0658H231.733ZM233.013 40.0005C233.013 39.4558 232.834 39.1184 232.399 39.1184C232.196 39.1184 231.994 39.2244 231.776 39.4365V40.7139C231.974 40.8875 232.187 40.9501 232.346 40.9501C232.728 40.9501 233.013 40.6127 233.013 40.0005Z" fill="#888888"/>
<path d="M234.481 40.6464C234.481 40.0872 234.959 39.798 236.046 39.6775C236.046 39.3738 235.93 39.1087 235.548 39.1087C235.273 39.1087 235.017 39.234 234.79 39.3738L234.587 39.0026C234.858 38.8339 235.225 38.6604 235.645 38.6604C236.297 38.6604 236.596 39.075 236.596 39.7643V41.3357H236.147L236.099 41.0368H236.084C235.848 41.2393 235.568 41.3984 235.254 41.3984C234.8 41.3984 234.481 41.1043 234.481 40.6416V40.6464ZM236.046 40.6657V40.0246C235.268 40.121 235.007 40.3138 235.007 40.6078C235.007 40.8633 235.186 40.9694 235.418 40.9694C235.65 40.9694 235.833 40.8585 236.046 40.6657Z" fill="#888888"/>
<path d="M237.852 40.4825V39.1617H237.47V38.752L237.876 38.7231L237.939 38H238.398V38.7231H239.079V39.1617H238.398V40.4873C238.398 40.8006 238.509 40.9597 238.779 40.9597C238.871 40.9597 238.982 40.9308 239.059 40.897L239.161 41.302C239.016 41.3502 238.837 41.3984 238.649 41.3984C238.06 41.3984 237.857 41.032 237.857 40.4825H237.852Z" fill="#888888"/>
<path d="M241.672 38.7279H242.117L242.16 39.1955H242.175C242.358 38.858 242.633 38.6604 242.918 38.6604C243.044 38.6604 243.131 38.6797 243.213 38.7182L243.112 39.1906C243.02 39.1617 242.952 39.1473 242.851 39.1473C242.638 39.1473 242.378 39.2967 242.213 39.7064V41.3357H241.672V38.7279Z" fill="#888888"/>
<path d="M243.807 40.6464C243.807 40.0872 244.28 39.798 245.372 39.6775C245.372 39.3738 245.256 39.1087 244.875 39.1087C244.599 39.1087 244.343 39.234 244.121 39.3738L243.918 39.0026C244.189 38.8339 244.556 38.6604 244.971 38.6604C245.623 38.6604 245.923 39.075 245.923 39.7643V41.3357H245.473L245.425 41.0368H245.411C245.174 41.2393 244.894 41.3984 244.58 41.3984C244.126 41.3984 243.807 41.1043 243.807 40.6416V40.6464ZM245.372 40.6657V40.0246C244.599 40.121 244.334 40.3138 244.334 40.6078C244.334 40.8633 244.512 40.9694 244.744 40.9694C244.976 40.9694 245.159 40.8585 245.372 40.6657Z" fill="#888888"/>
<path d="M247.169 38.7279H247.613L247.657 39.1955H247.671C247.855 38.858 248.135 38.6604 248.415 38.6604C248.545 38.6604 248.627 38.6797 248.709 38.7182L248.608 39.1906C248.516 39.1617 248.449 39.1473 248.347 39.1473C248.135 39.1473 247.879 39.2967 247.71 39.7064V41.3357H247.169V38.7279Z" fill="#888888"/>
<path d="M249.352 40.039C249.352 39.1906 249.931 38.6604 250.545 38.6604C251.24 38.6604 251.612 39.1617 251.612 39.8992C251.612 40.0053 251.602 40.1113 251.588 40.174H249.888C249.931 40.6753 250.245 40.9694 250.694 40.9694C250.926 40.9694 251.129 40.8971 251.317 40.7765L251.506 41.1236C251.264 41.2827 250.965 41.3984 250.622 41.3984C249.912 41.3984 249.347 40.897 249.347 40.0342L249.352 40.039ZM251.144 39.8028C251.144 39.3497 250.941 39.0894 250.559 39.0894C250.231 39.0894 249.941 39.3401 249.888 39.8028H251.144Z" fill="#888888"/>
<path d="M254.075 40.0391C254.075 39.1907 254.611 38.6604 255.196 38.6604C255.495 38.6604 255.683 38.7761 255.901 38.9545L255.877 38.5207V37.5518H256.422V41.3357H255.978L255.93 41.0417H255.915C255.722 41.2393 255.447 41.3984 255.152 41.3984C254.495 41.3984 254.07 40.8971 254.07 40.0342L254.075 40.0391ZM255.877 40.632V39.3546C255.683 39.181 255.495 39.1184 255.302 39.1184C254.935 39.1184 254.64 39.4654 254.64 40.0294C254.64 40.6223 254.872 40.9501 255.283 40.9501C255.5 40.9501 255.688 40.8489 255.877 40.632Z" fill="#888888"/>
<path d="M257.649 37.9182C257.649 37.7254 257.794 37.5952 257.997 37.5952C258.2 37.5952 258.349 37.7254 258.349 37.9182C258.349 38.111 258.195 38.2411 257.997 38.2411C257.799 38.2411 257.649 38.111 257.649 37.9182ZM257.722 38.728H258.263V41.3358H257.722V38.728Z" fill="#888888"/>
<path d="M259.287 41.0368L259.543 40.6849C259.774 40.8681 260.006 40.9838 260.286 40.9838C260.6 40.9838 260.75 40.8295 260.75 40.6319C260.75 40.3957 260.455 40.2896 260.17 40.1788C259.823 40.0486 259.422 39.8606 259.422 39.422C259.422 38.9833 259.774 38.6555 260.349 38.6555C260.702 38.6555 260.987 38.8001 261.199 38.964L260.943 39.3014C260.764 39.1665 260.576 39.0749 260.359 39.0749C260.074 39.0749 259.939 39.2195 259.939 39.3979C259.939 39.6196 260.209 39.7064 260.494 39.8124C260.861 39.9522 261.262 40.1113 261.262 40.6078C261.262 41.0464 260.914 41.3983 260.267 41.3983C259.905 41.3983 259.533 41.2441 259.282 41.0368H259.287Z" fill="#888888"/>
<path d="M262.141 40.039C262.141 39.1906 262.72 38.6604 263.334 38.6604C264.029 38.6604 264.401 39.1617 264.401 39.8992C264.401 40.0053 264.391 40.1113 264.377 40.174H262.677C262.72 40.6753 263.034 40.9694 263.483 40.9694C263.715 40.9694 263.918 40.8971 264.107 40.7765L264.295 41.1236C264.053 41.2827 263.754 41.3984 263.411 41.3984C262.701 41.3984 262.136 40.897 262.136 40.0342L262.141 40.039ZM263.928 39.8028C263.928 39.3497 263.725 39.0894 263.343 39.0894C263.015 39.0894 262.725 39.3401 262.672 39.8028H263.928Z" fill="#888888"/>
<path d="M265.266 40.6464C265.266 40.0872 265.739 39.798 266.831 39.6775C266.831 39.3738 266.715 39.1087 266.333 39.1087C266.058 39.1087 265.802 39.234 265.575 39.3738L265.372 39.0026C265.643 38.8339 266.01 38.6604 266.425 38.6604C267.077 38.6604 267.376 39.075 267.376 39.7643V41.3357H266.927L266.879 41.0368H266.864C266.628 41.2393 266.348 41.3984 266.034 41.3984C265.58 41.3984 265.261 41.1043 265.261 40.6416L265.266 40.6464ZM266.831 40.6657V40.0246C266.053 40.121 265.792 40.3138 265.792 40.6078C265.792 40.8633 265.966 40.9694 266.203 40.9694C266.439 40.9694 266.618 40.8585 266.831 40.6657Z" fill="#888888"/>
<path d="M268.352 41.0368L268.608 40.6849C268.84 40.8681 269.072 40.9838 269.352 40.9838C269.666 40.9838 269.815 40.8295 269.815 40.6319C269.815 40.3957 269.521 40.2896 269.236 40.1788C268.888 40.0486 268.492 39.8606 268.492 39.422C268.492 38.9833 268.845 38.6555 269.419 38.6555C269.772 38.6555 270.057 38.8001 270.269 38.964L270.013 39.3014C269.835 39.1665 269.646 39.0749 269.429 39.0749C269.144 39.0749 269.009 39.2195 269.009 39.3979C269.009 39.6196 269.279 39.7064 269.564 39.8124C269.931 39.9522 270.332 40.1113 270.332 40.6078C270.332 41.0464 269.985 41.3983 269.337 41.3983C268.975 41.3983 268.603 41.2441 268.352 41.0368Z" fill="#888888"/>
<path d="M271.202 40.039C271.202 39.1906 271.781 38.6604 272.395 38.6604C273.09 38.6604 273.462 39.1617 273.462 39.8992C273.462 40.0053 273.452 40.1113 273.438 40.174H271.738C271.781 40.6753 272.095 40.9694 272.544 40.9694C272.776 40.9694 272.979 40.8971 273.167 40.7765L273.356 41.1236C273.114 41.2827 272.815 41.3984 272.472 41.3984C271.762 41.3984 271.197 40.897 271.197 40.0342L271.202 40.039ZM272.989 39.8028C272.989 39.3497 272.786 39.0894 272.404 39.0894C272.076 39.0894 271.786 39.3401 271.733 39.8028H272.989Z" fill="#888888"/>
</g>
<g clip-path="url(#clip1_4114_2135)">
<path d="M326.395 51.7926C321.06 51.8307 315.547 49.2455 311.39 46.6349C309.629 45.5324 307.931 44.3285 306.296 43.0359C305.738 42.5924 305.194 42.0601 305.219 41.2871C305.219 40.8436 305.548 40.8055 305.916 40.983C306.41 41.2237 306.879 41.6293 307.284 41.9841C308.793 43.0106 310.351 43.9737 311.935 44.8734C314.875 46.5209 317.955 48.3077 321.224 49.2075C322.568 49.575 323.873 49.9298 325.28 49.8411C326.724 49.7524 328.194 49.4356 329.525 48.8526C330.437 48.4598 331.603 47.9909 332.085 47.0531C332.541 46.166 332.503 44.8481 331.4 44.5313C330.336 44.2145 329.069 44.3539 327.991 44.4933L323.265 45.1396C323.265 45.1396 315.636 46.5716 323.049 42.0601C325.698 40.4507 328.967 39.4749 332.085 39.6143C333.808 39.6904 335.443 40.362 337.027 40.9703C338.015 41.3505 339.029 41.5406 340.081 41.6673C342.717 42.0094 345.34 41.6039 347.596 40.1212C349.256 39.0314 350.599 37.422 351.461 35.6351C351.702 35.1409 351.892 34.6213 352.044 34.0891C352.272 33.2654 352.475 32.429 352.627 31.5799C352.931 29.8565 353.083 28.1077 353.045 26.3588C353.02 25.345 352.944 24.3312 352.804 23.3174C350.865 9.12417 337.939 -0.91249 323.746 0.658907C324.481 0.494164 325.229 0.354766 325.989 0.253385C341.437 -1.83759 355.643 8.98477 357.747 24.4326C359.838 39.8805 349.015 54.0864 333.567 56.19C324.506 57.4193 315.864 54.1878 309.857 48.1936C314.216 51.1717 321.3 55.1255 328.131 54.9354H328.156C328.258 54.9228 328.334 54.8341 328.321 54.7327C328.321 54.6186 328.232 54.5426 328.118 54.5426C322.77 54.6947 317.194 52.2235 312.974 49.7144C311.213 48.6625 309.692 47.6234 308.514 46.749C308.45 46.6983 308.387 46.6476 308.324 46.5716C307.88 46.2547 304.94 44.0751 306.131 43.5935C306.119 43.5555 306.093 43.5301 306.081 43.5048C306.119 43.5048 306.144 43.5555 306.182 43.5682C309.971 46.5716 318.284 52.3122 326.395 52.2869C326.395 52.2869 326.407 52.2869 326.42 52.2869C326.547 52.2742 326.635 52.1728 326.635 52.0461C326.635 51.9067 326.521 51.7927 326.382 51.8053L326.395 51.7926Z" fill="#F7CDE4"/>
<path d="M335.063 23.0004C335.494 23.1145 336.761 25.2181 337.014 25.8391C337.04 25.9025 336.305 25.0407 336 24.6352C335.836 24.4071 335.253 23.6848 335.012 23.4313C334.885 23.3046 334.771 22.9244 335.063 23.0004Z" fill="#C8CCB8"/>
<path d="M333.694 22.6331C334.1 22.7472 335.278 24.6988 335.519 25.2817C335.544 25.3324 334.86 24.534 334.569 24.1538C334.416 23.9384 333.872 23.2668 333.643 23.0386C333.529 22.9119 333.415 22.5571 333.694 22.6331Z" fill="#C8CCB8"/>
<path d="M332.617 22.4937C332.946 22.5824 333.922 24.2044 334.125 24.686C334.15 24.7367 333.58 24.0777 333.339 23.7609C333.213 23.5835 332.769 23.0259 332.579 22.8358C332.478 22.7344 332.389 22.443 332.617 22.5063V22.4937Z" fill="#C8CCB8"/>
<path d="M347.963 22.8992C348.331 22.9626 349.51 24.5973 349.776 25.0916C349.801 25.1422 349.129 24.4833 348.851 24.1665C348.698 23.989 348.166 23.4441 347.951 23.254C347.837 23.1527 347.71 22.8485 347.951 22.8992H347.963Z" fill="#C8CCB8"/>
<path d="M347.114 23.0132C347.457 23.0639 348.597 24.5719 348.851 25.0281C348.876 25.0661 348.242 24.4705 347.976 24.1917C347.824 24.027 347.33 23.5328 347.114 23.3553C347 23.2666 346.886 22.9878 347.114 23.0259V23.0132Z" fill="#C8CCB8"/>
<path d="M346.253 23.2032C346.531 23.2539 347.444 24.5085 347.647 24.8887C347.659 24.9267 347.152 24.4198 346.937 24.179C346.823 24.0396 346.417 23.6214 346.24 23.4694C346.151 23.3933 346.062 23.1525 346.24 23.1906L346.253 23.2032Z" fill="#C8CCB8"/>
<path d="M342.806 20.3015C342.894 20.3775 342.97 20.4662 343.059 20.5423C342.983 20.4029 342.932 20.2508 342.945 20.1241C343.084 20.4535 343.363 20.7197 343.68 20.9224C343.756 20.9858 343.832 21.0492 343.908 21.1125C344.314 21.3279 344.744 21.4927 345.226 21.6194C345.822 21.7081 346.506 21.6701 346.937 21.2646C347.368 20.8591 347.178 20.3268 347.393 19.8579C347.469 19.6932 347.71 19.7059 347.9 19.7692C347.938 19.7819 347.963 19.8072 348.001 19.8326C347.735 19.8706 347.608 20.2381 347.558 20.5296C347.469 20.9731 347.431 21.5054 347.102 21.8475C346.81 22.1517 346.354 22.1897 345.961 22.1643C345.936 22.1643 345.923 22.1643 345.898 22.1643C345.556 22.1643 345.213 22.1136 344.947 22.063C344.415 21.9489 343.921 21.7081 343.465 21.404C343.427 21.3786 343.401 21.3406 343.363 21.3153C343.034 21.0111 342.844 20.6816 342.768 20.2761C342.78 20.2761 342.793 20.2888 342.806 20.3015Z" fill="#C8CCB8"/>
<path d="M334.328 21.3532C334.087 21.0871 333.884 20.7956 333.669 20.4915C333.466 20.2 333.111 19.7058 332.756 19.7438C332.845 19.6551 332.934 19.5918 333.06 19.6044C333.39 19.6298 333.795 19.9212 333.973 20.1493C334.29 20.5675 334.467 20.935 334.949 21.1758C335.62 21.3913 336.317 21.48 336.989 21.2899C337.344 21.2265 337.699 21.0744 338.003 20.8337C338.041 20.821 338.079 20.7956 338.117 20.7703C338.218 20.6816 338.294 20.5802 338.37 20.4788C338.56 20.2507 338.712 19.9973 338.814 19.7058C338.814 19.8199 338.814 19.9593 338.788 20.0987C338.877 19.9466 338.953 19.7692 339.042 19.5664C338.928 20.8337 337.965 21.6954 336.9 22.0249C336.14 22.177 335.253 21.9869 334.594 21.5307C334.505 21.48 334.429 21.4166 334.353 21.3532H334.328Z" fill="#C8CCB8"/>
<path d="M336.609 27.7781C337.927 28.437 340.043 27.1824 341.158 27.005C341.678 26.929 342.273 26.9924 342.755 27.1698C343.11 27.2965 343.427 27.4612 343.756 27.626C343.908 27.702 344.073 27.8034 344.238 27.8921C344.504 27.9555 344.77 27.9808 345.061 27.9681C345.074 27.9681 345.087 27.9681 345.099 27.9681C344.897 28.1709 344.63 28.2976 344.339 28.361C343.921 28.2596 343.49 28.1329 343.059 28.0822C342.97 28.0822 342.894 28.0568 342.806 28.0568C342.615 28.0315 342.425 28.0062 342.235 27.9935C341.488 27.9681 340.74 28.0188 339.992 28.1075C339.574 28.1582 339.156 28.2089 338.725 28.2723C338.294 28.3356 337.863 28.475 337.432 28.5131C337.014 28.3483 336.697 28.0822 336.495 27.7274C336.533 27.7274 336.558 27.7654 336.596 27.7907L336.609 27.7781Z" fill="#C8CCB8"/>
<path d="M341.513 27.7401C342.096 27.7148 342.654 27.7401 343.224 27.7655C343.287 27.7655 343.351 27.7655 343.401 27.7781C343.351 27.7401 343.313 27.7021 343.262 27.6641C342.59 27.4233 341.969 27.3219 341.184 27.436C340.715 27.4993 340.258 27.6514 339.802 27.7908C340.373 27.7528 340.93 27.7528 341.5 27.7274L341.513 27.7401Z" fill="#C8CCB8"/>
<path d="M340.334 30.0846C340.144 29.9959 339.929 29.8945 339.739 29.7805C339.739 29.7678 339.764 29.7551 339.789 29.7424C340.22 29.7931 340.639 29.8565 341.069 29.8945C341.627 29.9325 342.324 30.0212 342.894 29.8818C342.501 30.2113 341.944 30.3887 341.336 30.4648C340.968 30.3887 340.639 30.2367 340.309 30.0846H340.334Z" fill="#C8CCB8"/>
<path d="M305.244 39.0059C301.1 32.8217 301.012 24.3565 304.484 17.7414C307.956 11.1263 314.508 6.12067 321.82 4.3972C326.23 3.35805 330.817 3.56081 335.126 5.24626C332.123 5.08152 329.411 7.40059 328.207 10.1505C327.016 12.9005 327.028 15.9926 327.155 18.9833C327.282 21.974 327.497 25.0154 326.673 27.9048C325.748 31.0856 323.581 33.8355 320.933 35.8378C318.284 37.8401 313.126 39.7409 309.933 40.666C309.705 29.2354 314.546 17.64 322.986 9.80838C312.683 15.6251 305.916 27.2965 305.244 39.0059Z" fill="#51B2ED"/>
<path d="M328.397 2.66114C328.105 2.26829 327.675 1.96415 327.218 1.76139C326.749 1.54596 326.243 1.45725 325.723 1.40656C325.216 1.36854 324.697 1.40656 324.202 1.45725C323.708 1.52061 323.227 1.59665 322.745 1.68535C320.806 2.05286 318.943 2.59778 317.093 3.07933C315.243 3.56089 313.393 3.99176 311.517 4.13116C310.579 4.20719 309.654 4.20719 308.818 3.91572C308.4 3.77632 308.007 3.53555 307.677 3.21873C307.348 2.90192 307.082 2.4964 306.968 2.01484C306.942 2.50907 307.107 3.01597 307.399 3.44684C307.69 3.87771 308.095 4.23254 308.552 4.48599C309.008 4.73944 309.515 4.90418 310.022 4.99289C310.529 5.09427 311.036 5.13229 311.542 5.13229C313.545 5.18298 315.522 4.8028 317.41 4.32124C319.311 3.82702 321.136 3.20606 322.973 2.66114C323.898 2.39502 324.811 2.11622 325.723 2.02751C326.635 1.9388 327.599 2.0782 328.397 2.66114Z" fill="#51B2ED"/>
</g>
<defs>
<clipPath id="clip0_4114_2135">
<rect width="80" height="26.3529" fill="white" transform="translate(206 15.0454)"/>
</clipPath>
<clipPath id="clip1_4114_2135">
<rect width="56" height="56.4435" fill="white" transform="translate(302)"/>
</clipPath>
</defs>
</svg>
