<svg width="143" height="142" viewBox="0 0 143 142" fill="none" xmlns="http://www.w3.org/2000/svg">
<g filter="url(#filter0_d_11_6339)">
<circle cx="71.5" cy="69" r="67" fill="url(#paint0_linear_11_6339)"/>
<circle cx="71.5" cy="69" r="64" stroke="url(#paint1_linear_11_6339)" stroke-opacity="0.6" stroke-width="6"/>
<path d="M55.3 59.3999V56.6571C55.3 47.5404 62.5257 40.2 71.5 40.2C80.4743 40.2 87.7 47.5404 87.7 56.6571V59.3999M55.3 59.3999C52.33 59.3999 49.9 61.8685 49.9 64.8857V92.3142C49.9 95.3314 52.33 97.7999 55.3 97.7999H87.7C90.67 97.7999 93.1 95.3314 93.1 92.3142V64.8857C93.1 61.8685 90.67 59.3999 87.7 59.3999M55.3 59.3999H87.7M71.5 73.1142C74.47 73.1142 76.9 75.5828 76.9 78.5999C76.9 81.6171 74.47 84.0857 71.5 84.0857C68.53 84.0857 66.1 81.6171 66.1 78.5999C66.1 75.5828 68.53 73.1142 71.5 73.1142Z" stroke="white" stroke-width="5"/>
</g>
<defs>
<filter id="filter0_d_11_6339" x="0.5" y="0" width="142" height="142" filterUnits="userSpaceOnUse" color-interpolation-filters="sRGB">
<feFlood flood-opacity="0" result="BackgroundImageFix"/>
<feColorMatrix in="SourceAlpha" type="matrix" values="0 0 0 0 0 0 0 0 0 0 0 0 0 0 0 0 0 0 127 0" result="hardAlpha"/>
<feOffset dy="2"/>
<feGaussianBlur stdDeviation="2"/>
<feComposite in2="hardAlpha" operator="out"/>
<feColorMatrix type="matrix" values="0 0 0 0 0 0 0 0 0 0 0 0 0 0 0 0 0 0 0.12 0"/>
<feBlend mode="normal" in2="BackgroundImageFix" result="effect1_dropShadow_11_6339"/>
<feBlend mode="normal" in="SourceGraphic" in2="effect1_dropShadow_11_6339" result="shape"/>
</filter>
<linearGradient id="paint0_linear_11_6339" x1="123.038" y1="136" x2="4.49998" y2="2.00002" gradientUnits="userSpaceOnUse">
<stop stop-color="#EAE5C9"/>
<stop offset="1" stop-color="#6CC6CB"/>
</linearGradient>
<linearGradient id="paint1_linear_11_6339" x1="15.9354" y1="2" x2="134.474" y2="136" gradientUnits="userSpaceOnUse">
<stop stop-color="white"/>
<stop offset="1" stop-color="#E7F8F9"/>
</linearGradient>
</defs>
</svg>
