<svg width="159" height="158" viewBox="0 0 159 158" fill="none" xmlns="http://www.w3.org/2000/svg">
<g filter="url(#filter0_d_146_5894)">
<circle cx="79.5" cy="73" r="67" fill="url(#paint0_linear_146_5894)" fill-opacity="0.68"/>
<circle cx="79.5" cy="73" r="64" stroke="white" stroke-opacity="0.62" stroke-width="6"/>
<path d="M64.3998 53.89V56.39C65.289 56.39 66.1112 55.9178 66.5592 55.1497L64.3998 53.89ZM69.8598 44.53V42.03C68.9706 42.03 68.1484 42.5023 67.7004 43.2704L69.8598 44.53ZM90.1398 44.53L92.2992 43.2704C91.8512 42.5023 91.029 42.03 90.1398 42.03V44.53ZM95.5998 53.89L93.4404 55.1497C93.8884 55.9178 94.7106 56.39 95.5998 56.39V53.89ZM51.2998 93.67V61.69H46.2998V93.67H51.2998ZM56.5998 56.39H64.3998V51.39H56.5998V56.39ZM66.5592 55.1497L72.0193 45.7897L67.7004 43.2704L62.2404 52.6304L66.5592 55.1497ZM69.8598 47.03H90.1398V42.03H69.8598V47.03ZM87.9804 45.7897L93.4404 55.1497L97.7592 52.6304L92.2992 43.2704L87.9804 45.7897ZM95.5998 56.39H103.4V51.39H95.5998V56.39ZM108.7 61.69V93.67H113.7V61.69H108.7ZM108.7 93.67C108.7 96.5971 106.327 98.97 103.4 98.97V103.97C109.088 103.97 113.7 99.3586 113.7 93.67H108.7ZM103.4 56.39C106.327 56.39 108.7 58.7629 108.7 61.69H113.7C113.7 56.0015 109.088 51.39 103.4 51.39V56.39ZM51.2998 61.69C51.2998 58.7629 53.6727 56.39 56.5998 56.39V51.39C50.9113 51.39 46.2998 56.0015 46.2998 61.69H51.2998ZM56.5998 98.97C53.6727 98.97 51.2998 96.5971 51.2998 93.67H46.2998C46.2998 99.3586 50.9113 103.97 56.5998 103.97V98.97ZM89.1998 75.73C89.1998 80.811 85.0808 84.93 79.9998 84.93V89.93C87.8422 89.93 94.1998 83.5725 94.1998 75.73H89.1998ZM79.9998 84.93C74.9188 84.93 70.7998 80.811 70.7998 75.73H65.7998C65.7998 83.5725 72.1574 89.93 79.9998 89.93V84.93ZM70.7998 75.73C70.7998 70.649 74.9188 66.53 79.9998 66.53V61.53C72.1574 61.53 65.7998 67.8876 65.7998 75.73H70.7998ZM79.9998 66.53C85.0808 66.53 89.1998 70.649 89.1998 75.73H94.1998C94.1998 67.8876 87.8422 61.53 79.9998 61.53V66.53ZM103.4 98.97H56.5998V103.97H103.4V98.97Z" fill="white"/>
</g>
<defs>
<filter id="filter0_d_146_5894" x="0.5" y="0" width="158" height="158" filterUnits="userSpaceOnUse" color-interpolation-filters="sRGB">
<feFlood flood-opacity="0" result="BackgroundImageFix"/>
<feColorMatrix in="SourceAlpha" type="matrix" values="0 0 0 0 0 0 0 0 0 0 0 0 0 0 0 0 0 0 127 0" result="hardAlpha"/>
<feOffset dy="6"/>
<feGaussianBlur stdDeviation="6"/>
<feComposite in2="hardAlpha" operator="out"/>
<feColorMatrix type="matrix" values="0 0 0 0 0 0 0 0 0 0 0 0 0 0 0 0 0 0 0.1 0"/>
<feBlend mode="normal" in2="BackgroundImageFix" result="effect1_dropShadow_146_5894"/>
<feBlend mode="normal" in="SourceGraphic" in2="effect1_dropShadow_146_5894" result="shape"/>
</filter>
<linearGradient id="paint0_linear_146_5894" x1="131.038" y1="140" x2="12.5" y2="6.00002" gradientUnits="userSpaceOnUse">
<stop stop-color="#EAE5C9"/>
<stop offset="1" stop-color="#6CC6CB"/>
</linearGradient>
</defs>
</svg>
