<svg width="32" height="34" viewBox="0 0 32 34" fill="none" xmlns="http://www.w3.org/2000/svg">
<path d="M1 13.0753H7.96336M1 13.0753L7.866 13.0771C7.89864 13.0771 7.9311 13.0765 7.96336 13.0753M1 13.0753L1 6.6C1 5.71634 1.89543 5 3 5H7.86667C8.97124 5 9.86667 5.71634 9.86667 6.6V11.4771C9.86667 12.3349 9.02298 13.0349 7.96336 13.0753M1 13.0753L1 21.153M7.96336 13.0753L17.2933 13.0753C18.3979 13.0753 19.2933 13.7916 19.2933 14.6753V19.553C19.2933 20.4366 18.3979 21.153 17.2933 21.153M1 21.153H17.2933M1 21.153L1 27.4C1 28.2836 1.89543 29 3 29L29 29C30.1046 29 31 28.2836 31 27.4V22.753C31 21.8693 30.1046 21.153 29 21.153L17.2933 21.153M1 33V1" stroke="#22998D" stroke-width="2" stroke-linecap="round" stroke-linejoin="round"/>
</svg>
