<svg width="32" height="33" viewBox="0 0 32 33" fill="none" xmlns="http://www.w3.org/2000/svg">
<path d="M14.7977 5.51527H7.2157C4.70325 5.51527 2.6665 7.55195 2.6665 10.0643V25.228C2.6665 27.7403 4.70325 29.777 7.2157 29.777H22.3797C24.8921 29.777 26.9289 27.7403 26.9289 25.228L26.9289 17.6461M10.2485 22.1951L15.7656 21.0835C16.0585 21.0245 16.3275 20.8803 16.5387 20.6689L28.8893 8.3119C29.4815 7.71945 29.4811 6.75911 28.8884 6.16715L26.2721 3.55387C25.6797 2.96216 24.7198 2.96256 24.1279 3.55477L11.776 15.9131C11.5652 16.124 11.4212 16.3924 11.3622 16.6847L10.2485 22.1951Z" stroke="#22998D" stroke-width="2" stroke-linecap="round" stroke-linejoin="round"/>
</svg>
