<svg width="96" height="116" viewBox="0 0 96 116" fill="none" xmlns="http://www.w3.org/2000/svg">
<g filter="url(#filter0_d_59_8018)">
<circle cx="48" cy="44" r="40" fill="#2ABFB0"/>
<circle cx="48" cy="44" r="38" stroke="url(#paint0_linear_59_8018)" stroke-opacity="0.62" stroke-width="4"/>
</g>
<path d="M65.9375 41.5205C69.1259 43.2973 69.1376 45.5324 65.9375 47.5413L41.2111 64.2173C38.1043 65.8753 35.9942 64.8963 35.7727 61.3087L35.6678 26.4063C35.5979 23.1016 38.32 22.1679 40.9139 23.7523L65.9375 41.5205Z" stroke="white" stroke-width="4"/>
<path d="M33.084 107.312C32.892 107.312 32.7267 107.248 32.588 107.12C32.4493 106.981 32.38 106.816 32.38 106.624C32.38 106.432 32.4493 106.267 32.588 106.128C32.7267 105.989 32.892 105.92 33.084 105.92H33.804C33.9 105.92 33.948 105.872 33.948 105.776V100.992C33.948 100.747 34.0333 100.533 34.204 100.352C34.3853 100.171 34.5987 100.08 34.844 100.08H38.764C38.86 100.08 38.908 100.032 38.908 99.936V99.024C38.908 98.928 38.86 98.88 38.764 98.88H33.628C33.4467 98.88 33.2867 98.8107 33.148 98.672C33.0093 98.5333 32.94 98.3733 32.94 98.192C32.94 98.0107 33.0093 97.856 33.148 97.728C33.2867 97.5893 33.4467 97.52 33.628 97.52H46.188C46.3693 97.52 46.524 97.5893 46.652 97.728C46.7907 97.856 46.86 98.0107 46.86 98.192C46.86 98.3733 46.7907 98.5333 46.652 98.672C46.524 98.8107 46.3693 98.88 46.188 98.88H40.684C40.588 98.88 40.54 98.928 40.54 99.024V99.936C40.54 100.032 40.588 100.08 40.684 100.08H44.956C45.2013 100.08 45.4147 100.171 45.596 100.352C45.7773 100.533 45.868 100.747 45.868 100.992V105.776C45.868 105.872 45.9107 105.92 45.996 105.92H46.716C46.908 105.92 47.0733 105.989 47.212 106.128C47.3507 106.267 47.42 106.432 47.42 106.624C47.42 106.816 47.3507 106.981 47.212 107.12C47.0733 107.248 46.908 107.312 46.716 107.312H45.996C45.9107 107.312 45.868 107.36 45.868 107.456V109.2C45.868 110.203 45.7507 110.811 45.516 111.024C45.292 111.248 44.6627 111.36 43.628 111.36C43.3293 111.36 42.844 111.344 42.172 111.312C41.9693 111.301 41.7933 111.221 41.644 111.072C41.5053 110.933 41.4307 110.763 41.42 110.56C41.4093 110.368 41.4733 110.203 41.612 110.064C41.7507 109.925 41.916 109.861 42.108 109.872C42.716 109.904 43.1267 109.92 43.34 109.92C43.7453 109.92 43.9853 109.883 44.06 109.808C44.1453 109.733 44.188 109.52 44.188 109.168V107.456C44.188 107.36 44.14 107.312 44.044 107.312H35.756C35.66 107.312 35.612 107.36 35.612 107.456V110.608C35.612 110.843 35.532 111.04 35.372 111.2C35.212 111.36 35.0147 111.44 34.78 111.44C34.5453 111.44 34.348 111.36 34.188 111.2C34.028 111.04 33.948 110.843 33.948 110.608V107.456C33.948 107.36 33.9 107.312 33.804 107.312H33.084ZM40.54 101.536V102.784C40.54 102.88 40.588 102.928 40.684 102.928H44.044C44.14 102.928 44.188 102.88 44.188 102.784V101.536C44.188 101.44 44.14 101.392 44.044 101.392H40.684C40.588 101.392 40.54 101.44 40.54 101.536ZM40.54 104.304V105.776C40.54 105.872 40.588 105.92 40.684 105.92H44.044C44.14 105.92 44.188 105.872 44.188 105.776V104.304C44.188 104.208 44.14 104.16 44.044 104.16H40.684C40.588 104.16 40.54 104.208 40.54 104.304ZM35.612 101.536V102.784C35.612 102.88 35.66 102.928 35.756 102.928H38.764C38.86 102.928 38.908 102.88 38.908 102.784V101.536C38.908 101.44 38.86 101.392 38.764 101.392H35.756C35.66 101.392 35.612 101.44 35.612 101.536ZM35.612 104.304V105.776C35.612 105.872 35.66 105.92 35.756 105.92H38.764C38.86 105.92 38.908 105.872 38.908 105.776V104.304C38.908 104.208 38.86 104.16 38.764 104.16H35.756C35.66 104.16 35.612 104.208 35.612 104.304ZM49.684 104.224C49.4707 104.107 49.3267 103.941 49.252 103.728C49.1773 103.504 49.1933 103.285 49.3 103.072C50.036 101.493 50.628 99.84 51.076 98.112C51.1293 97.888 51.252 97.712 51.444 97.584C51.6467 97.4453 51.8653 97.3973 52.1 97.44C52.324 97.4827 52.5 97.6 52.628 97.792C52.756 97.9733 52.7933 98.1707 52.74 98.384C52.612 98.8747 52.5267 99.2 52.484 99.36C52.4627 99.4347 52.4947 99.472 52.58 99.472H55.46C55.5453 99.472 55.588 99.4293 55.588 99.344V97.872C55.588 97.6373 55.6733 97.4347 55.844 97.264C56.0253 97.0827 56.2387 96.992 56.484 96.992C56.7187 96.992 56.9213 97.0773 57.092 97.248C57.2627 97.4187 57.348 97.6267 57.348 97.872V99.344C57.348 99.4293 57.396 99.472 57.492 99.472H61.86C62.0627 99.472 62.2333 99.5467 62.372 99.696C62.5213 99.8347 62.596 100.011 62.596 100.224C62.596 100.427 62.5267 100.603 62.388 100.752C62.2493 100.891 62.0733 100.96 61.86 100.96H57.492C57.396 100.96 57.348 101.008 57.348 101.104V103.936C57.348 104.032 57.396 104.08 57.492 104.08H61.076C61.2787 104.08 61.4493 104.149 61.588 104.288C61.7267 104.427 61.796 104.597 61.796 104.8C61.796 105.003 61.7267 105.173 61.588 105.312C61.4493 105.451 61.2787 105.52 61.076 105.52H57.492C57.396 105.52 57.348 105.568 57.348 105.664V109.296C57.348 109.392 57.396 109.44 57.492 109.44H62.42C62.6227 109.44 62.7933 109.515 62.932 109.664C63.0813 109.803 63.156 109.973 63.156 110.176C63.156 110.389 63.0813 110.565 62.932 110.704C62.7933 110.853 62.6227 110.928 62.42 110.928H49.972C49.7693 110.928 49.5933 110.853 49.444 110.704C49.3053 110.565 49.236 110.389 49.236 110.176C49.236 109.973 49.3053 109.803 49.444 109.664C49.5933 109.515 49.7693 109.44 49.972 109.44H55.46C55.5453 109.44 55.588 109.392 55.588 109.296V105.664C55.588 105.568 55.5453 105.52 55.46 105.52H52.116C51.9133 105.52 51.7427 105.451 51.604 105.312C51.4653 105.173 51.396 105.003 51.396 104.8C51.396 104.597 51.4653 104.427 51.604 104.288C51.7427 104.149 51.9133 104.08 52.116 104.08H55.46C55.5453 104.08 55.588 104.032 55.588 103.936V101.104C55.588 101.008 55.5453 100.96 55.46 100.96H52.132C52.0467 100.96 51.9827 101.008 51.94 101.104C51.6307 102 51.252 102.917 50.804 103.856C50.6973 104.069 50.5373 104.213 50.324 104.288C50.1107 104.352 49.8973 104.331 49.684 104.224Z" fill="white"/>
<defs>
<filter id="filter0_d_59_8018" x="0" y="0" width="96" height="96" filterUnits="userSpaceOnUse" color-interpolation-filters="sRGB">
<feFlood flood-opacity="0" result="BackgroundImageFix"/>
<feColorMatrix in="SourceAlpha" type="matrix" values="0 0 0 0 0 0 0 0 0 0 0 0 0 0 0 0 0 0 127 0" result="hardAlpha"/>
<feOffset dy="4"/>
<feGaussianBlur stdDeviation="4"/>
<feComposite in2="hardAlpha" operator="out"/>
<feColorMatrix type="matrix" values="0 0 0 0 0 0 0 0 0 0 0 0 0 0 0 0 0 0 0.1 0"/>
<feBlend mode="normal" in2="BackgroundImageFix" result="effect1_dropShadow_59_8018"/>
<feBlend mode="normal" in="SourceGraphic" in2="effect1_dropShadow_59_8018" result="shape"/>
</filter>
<linearGradient id="paint0_linear_59_8018" x1="88" y1="84" x2="8" y2="4.00002" gradientUnits="userSpaceOnUse">
<stop stop-color="#A0F1EA"/>
<stop offset="1" stop-color="#EAD6EE"/>
</linearGradient>
</defs>
</svg>
