<svg width="81" height="106" viewBox="0 0 81 106" fill="none" xmlns="http://www.w3.org/2000/svg">
<circle cx="40.5" cy="40" r="40" fill="#6AD2C8"/>
<circle cx="40.5" cy="40" r="37" stroke="white" stroke-opacity="0.62" stroke-width="6"/>
<path d="M37.7091 40.3452L29.6214 31.7496C29.3516 31.4629 28.8816 31.538 28.7119 31.8943L25.2776 39.1908C24.9185 39.9536 25.0764 40.8597 25.6724 41.4561L37.1779 52.9715C37.3948 53.1886 37.748 53.1886 37.9649 52.9715L59.1437 31.7774C59.2772 31.6438 59.3328 31.4545 59.2939 31.2708L58.4734 27.3098C58.3928 26.9229 57.9478 26.7392 57.6196 26.9619L37.7151 40.3458C37.7132 40.3471 37.7107 40.3469 37.7091 40.3452Z" fill="white"/>
<path d="M12.984 99.68C13.0693 99.68 13.1013 99.6373 13.08 99.552C12.9413 99.1787 12.744 98.704 12.488 98.128C12.456 98.0427 12.392 98 12.296 98H12.136C11.8907 98 11.6773 97.9093 11.496 97.728C11.3253 97.5467 11.24 97.3333 11.24 97.088V94.864C11.24 94.6187 11.3253 94.4053 11.496 94.224C11.6773 94.0427 11.8907 93.952 12.136 93.952H20.488C20.7333 93.952 20.9467 94.0427 21.128 94.224C21.3093 94.4053 21.4 94.6187 21.4 94.864V97.088C21.4 97.3333 21.3093 97.5467 21.128 97.728C20.9467 97.9093 20.7333 98 20.488 98H20.328C20.232 98 20.168 98.0427 20.136 98.128C19.9333 98.5867 19.672 99.0613 19.352 99.552C19.3307 99.5733 19.3253 99.6 19.336 99.632C19.3573 99.664 19.384 99.68 19.416 99.68H22.712C22.9147 99.68 23.0853 99.7493 23.224 99.888C23.3627 100.027 23.432 100.197 23.432 100.4C23.432 100.603 23.3627 100.773 23.224 100.912C23.0853 101.051 22.9147 101.12 22.712 101.12H9.912C9.70933 101.12 9.53867 101.051 9.4 100.912C9.26133 100.773 9.192 100.603 9.192 100.4C9.192 100.197 9.26133 100.027 9.4 99.888C9.53867 99.7493 9.70933 99.68 9.912 99.68H12.984ZM18.344 98.112C18.3547 98.0907 18.3493 98.0693 18.328 98.048C18.3173 98.016 18.296 98 18.264 98H14.36C14.264 98 14.2373 98.0427 14.28 98.128C14.504 98.6613 14.6907 99.136 14.84 99.552C14.872 99.6373 14.9307 99.68 15.016 99.68H17.288C17.3733 99.68 17.4427 99.6427 17.496 99.568C17.8373 99.056 18.12 98.5707 18.344 98.112ZM13.048 96.768H19.576C19.672 96.768 19.72 96.72 19.72 96.624V95.376C19.72 95.28 19.672 95.232 19.576 95.232H13.048C12.9627 95.232 12.92 95.28 12.92 95.376V96.624C12.92 96.72 12.9627 96.768 13.048 96.768ZM10.152 94.368C9.97067 94.4747 9.77867 94.4907 9.576 94.416C9.37333 94.3413 9.22933 94.208 9.144 94.016C9.05867 93.8133 9.05333 93.6107 9.128 93.408C9.20267 93.1947 9.336 93.0347 9.528 92.928C10.3707 92.4693 11.0373 92.0747 11.528 91.744C11.56 91.7333 11.576 91.7067 11.576 91.664C11.576 91.6213 11.5653 91.5893 11.544 91.568C10.5947 90.7147 10.104 90.272 10.072 90.24C9.912 90.1013 9.82667 89.9307 9.816 89.728C9.816 89.5253 9.89067 89.3493 10.04 89.2C10.2 89.0507 10.3867 88.9707 10.6 88.96C10.8133 88.9493 11.0053 89.0133 11.176 89.152C11.3787 89.3227 11.9173 89.808 12.792 90.608C12.8667 90.6613 12.936 90.6667 13 90.624C13.6933 90.0267 14.264 89.4293 14.712 88.832C14.7333 88.8107 14.7333 88.7893 14.712 88.768C14.7013 88.736 14.68 88.72 14.648 88.72H11.768C11.576 88.72 11.4107 88.656 11.272 88.528C11.1333 88.3893 11.064 88.224 11.064 88.032C11.064 87.84 11.1333 87.6747 11.272 87.536C11.4107 87.3973 11.576 87.328 11.768 87.328H16.2C16.7867 87.328 17.24 87.5893 17.56 88.112C17.7733 88.4533 18.0027 88.7787 18.248 89.088C18.3013 89.1627 18.36 89.168 18.424 89.104C18.7867 88.6987 19.128 88.2933 19.448 87.888C19.576 87.7173 19.7413 87.616 19.944 87.584C20.1467 87.5413 20.3387 87.5733 20.52 87.68C20.7013 87.7973 20.808 87.952 20.84 88.144C20.8827 88.336 20.8453 88.512 20.728 88.672C20.3013 89.216 19.8747 89.7173 19.448 90.176C19.384 90.24 19.384 90.304 19.448 90.368C19.6933 90.592 19.992 90.848 20.344 91.136C20.4187 91.1893 20.4827 91.1893 20.536 91.136C20.888 90.7627 21.2933 90.2773 21.752 89.68C21.88 89.5093 22.0453 89.408 22.248 89.376C22.4613 89.3333 22.6587 89.3653 22.84 89.472C23.0213 89.5893 23.128 89.7493 23.16 89.952C23.2027 90.144 23.1653 90.32 23.048 90.48C22.6747 90.9493 22.2427 91.4507 21.752 91.984C21.7307 92.0053 21.72 92.0373 21.72 92.08C21.7307 92.1227 21.752 92.1493 21.784 92.16C22.2427 92.448 22.68 92.704 23.096 92.928C23.288 93.0347 23.4213 93.1947 23.496 93.408C23.5707 93.6107 23.5653 93.8133 23.48 94.016C23.3947 94.208 23.2507 94.3413 23.048 94.416C22.8453 94.48 22.6533 94.4587 22.472 94.352C21.288 93.6907 20.2533 92.9867 19.368 92.24C19.3253 92.2187 19.2933 92.24 19.272 92.304C19.272 92.496 19.2027 92.6613 19.064 92.8C18.9253 92.928 18.76 92.992 18.568 92.992H14.056C13.864 92.992 13.6987 92.928 13.56 92.8C13.4213 92.6613 13.352 92.496 13.352 92.304C13.352 92.2827 13.336 92.2667 13.304 92.256C13.2827 92.2347 13.2667 92.2293 13.256 92.24C12.328 93.0187 11.2933 93.728 10.152 94.368ZM16.232 89.04C15.624 89.904 14.9093 90.7253 14.088 91.504C14.0667 91.5147 14.0613 91.536 14.072 91.568C14.0827 91.5893 14.0987 91.6 14.12 91.6H18.504C18.5253 91.6 18.5413 91.5893 18.552 91.568C18.5627 91.536 18.5573 91.5147 18.536 91.504C17.672 90.6827 16.952 89.856 16.376 89.024C16.3333 88.96 16.2853 88.9653 16.232 89.04ZM27.344 98.016C27.248 98.1653 27.1147 98.2613 26.944 98.304C26.7733 98.3467 26.6133 98.32 26.464 98.224C26.3147 98.128 26.2187 97.9947 26.176 97.824C26.0373 97.2053 25.8933 96.6133 25.744 96.048C25.6907 95.8773 25.7067 95.7173 25.792 95.568C25.8773 95.408 26.0053 95.3067 26.176 95.264C26.3467 95.2107 26.512 95.2267 26.672 95.312C26.832 95.3973 26.9333 95.5253 26.976 95.696C27.0827 96.0693 27.232 96.672 27.424 97.504C27.4667 97.6853 27.44 97.856 27.344 98.016ZM30.416 95.2C30.5547 95.104 30.7093 95.072 30.88 95.104C31.0507 95.136 31.1787 95.2213 31.264 95.36C31.36 95.4987 31.3867 95.6533 31.344 95.824C31.2053 96.4427 31.0773 96.944 30.96 97.328C30.9173 97.4987 30.8213 97.6267 30.672 97.712C30.5227 97.7867 30.3627 97.8027 30.192 97.76C30.032 97.7173 29.9093 97.6267 29.824 97.488C29.7493 97.3387 29.7333 97.184 29.776 97.024C29.872 96.6933 29.9947 96.208 30.144 95.568C30.1867 95.408 30.2773 95.2853 30.416 95.2ZM25.968 91.344C25.8187 91.472 25.6587 91.504 25.488 91.44C25.3173 91.3653 25.2107 91.232 25.168 91.04C25.0613 90.5067 25.216 90.0587 25.632 89.696C26.2187 89.1733 26.816 88.5333 27.424 87.776C27.7547 87.36 28.1653 87.152 28.656 87.152C29.1467 87.152 29.5787 87.3493 29.952 87.744C30.4107 88.2347 30.8853 88.656 31.376 89.008C31.5573 89.136 31.6747 89.3067 31.728 89.52C31.792 89.7227 31.7867 89.9253 31.712 90.128L31.568 90.48C31.5253 90.5653 31.4613 90.624 31.376 90.656C31.2907 90.688 31.2053 90.6773 31.12 90.624C31.0987 90.6027 31.088 90.608 31.088 90.64V90.72C31.088 90.9547 31.0027 91.152 30.832 91.312C30.672 91.472 30.4747 91.552 30.24 91.552H29.536C29.44 91.552 29.392 91.6 29.392 91.696V92.992C29.392 93.0773 29.44 93.12 29.536 93.12H30.656C30.848 93.12 31.0133 93.1893 31.152 93.328C31.2907 93.4667 31.36 93.632 31.36 93.824C31.36 94.016 31.2907 94.1813 31.152 94.32C31.0133 94.4587 30.848 94.528 30.656 94.528H29.536C29.44 94.528 29.392 94.5707 29.392 94.656V98.448C29.392 98.5333 29.44 98.5653 29.536 98.544C29.7067 98.4907 29.9467 98.416 30.256 98.32C30.576 98.2133 30.7893 98.144 30.896 98.112C31.0347 98.0693 31.1733 98.08 31.312 98.144C31.4507 98.1973 31.552 98.2933 31.616 98.432C31.6587 98.496 31.7067 98.5067 31.76 98.464C32.7627 97.728 33.6907 96.9067 34.544 96C34.608 95.936 34.64 95.856 34.64 95.76V94.064C34.64 93.968 34.5973 93.92 34.512 93.92H31.984C31.792 93.92 31.6267 93.8507 31.488 93.712C31.3493 93.5733 31.28 93.408 31.28 93.216C31.28 93.024 31.3493 92.864 31.488 92.736C31.6267 92.5973 31.792 92.528 31.984 92.528H37.024C37.12 92.528 37.168 92.48 37.168 92.384V91.456C37.168 91.3707 37.12 91.328 37.024 91.328H32.656C32.4747 91.328 32.32 91.264 32.192 91.136C32.064 90.9973 32 90.8373 32 90.656C32 90.4747 32.064 90.32 32.192 90.192C32.32 90.064 32.4747 90 32.656 90H37.024C37.12 90 37.168 89.9573 37.168 89.872V88.976C37.168 88.8907 37.12 88.848 37.024 88.848H32.496C32.304 88.848 32.1387 88.7787 32 88.64C31.872 88.5013 31.808 88.336 31.808 88.144C31.808 87.952 31.872 87.7867 32 87.648C32.1387 87.5093 32.304 87.44 32.496 87.44H37.968C38.2133 87.44 38.4267 87.5307 38.608 87.712C38.7893 87.8933 38.88 88.1067 38.88 88.352V92.384C38.88 92.48 38.928 92.528 39.024 92.528H39.216C39.408 92.528 39.5733 92.5973 39.712 92.736C39.8507 92.864 39.92 93.024 39.92 93.216C39.92 93.408 39.8507 93.5733 39.712 93.712C39.5733 93.8507 39.408 93.92 39.216 93.92H36.304C36.2933 93.92 36.288 93.9253 36.288 93.936V93.968C36.5013 94.5973 36.784 95.2373 37.136 95.888C37.1787 95.9733 37.232 95.984 37.296 95.92C37.6907 95.5253 38.0427 95.136 38.352 94.752C38.48 94.6027 38.64 94.5173 38.832 94.496C39.0347 94.464 39.2107 94.512 39.36 94.64C39.52 94.7787 39.6107 94.9493 39.632 95.152C39.664 95.344 39.616 95.52 39.488 95.68C39.0507 96.2347 38.5867 96.7467 38.096 97.216C38.032 97.2693 38.0267 97.3333 38.08 97.408C38.5493 98.0587 39.0827 98.6773 39.68 99.264C39.84 99.424 39.9253 99.6213 39.936 99.856C39.9573 100.08 39.8933 100.277 39.744 100.448C39.5947 100.619 39.4027 100.709 39.168 100.72C38.944 100.731 38.7573 100.651 38.608 100.48C37.7227 99.5307 36.9653 98.4 36.336 97.088C36.3253 97.0773 36.3147 97.072 36.304 97.072C36.2933 97.072 36.288 97.0827 36.288 97.104V98.864C36.288 99.9413 36.1813 100.613 35.968 100.88C35.7547 101.147 35.2053 101.28 34.32 101.28C33.968 101.28 33.648 101.269 33.36 101.248C33.168 101.237 33.0027 101.163 32.864 101.024C32.7253 100.885 32.6507 100.72 32.64 100.528C32.6293 100.347 32.688 100.192 32.816 100.064C32.944 99.936 33.0987 99.8773 33.28 99.888C33.728 99.9093 33.984 99.92 34.048 99.92C34.3147 99.92 34.48 99.872 34.544 99.776C34.608 99.68 34.64 99.4133 34.64 98.976V97.952C34.64 97.9307 34.6293 97.9147 34.608 97.904C34.5867 97.8933 34.5653 97.8987 34.544 97.92C33.6587 98.8373 32.6773 99.6853 31.6 100.464C31.4187 100.592 31.2213 100.64 31.008 100.608C30.7947 100.576 30.6133 100.475 30.464 100.304C30.3787 100.197 30.3253 100.064 30.304 99.904C30.304 99.8187 30.2613 99.7867 30.176 99.808C28.672 100.288 27.3173 100.661 26.112 100.928C25.92 100.971 25.744 100.933 25.584 100.816C25.4347 100.709 25.3493 100.56 25.328 100.368C25.3067 100.165 25.3493 99.9787 25.456 99.808C25.5627 99.6373 25.7173 99.5307 25.92 99.488C26.464 99.3707 27.0507 99.2267 27.68 99.056C27.7653 99.0347 27.808 98.9813 27.808 98.896V94.656C27.808 94.5707 27.76 94.528 27.664 94.528H26.144C25.952 94.528 25.7867 94.4587 25.648 94.32C25.5093 94.1813 25.44 94.016 25.44 93.824C25.44 93.632 25.5093 93.4667 25.648 93.328C25.7867 93.1893 25.952 93.12 26.144 93.12H27.664C27.76 93.12 27.808 93.0773 27.808 92.992V91.696C27.808 91.6 27.76 91.552 27.664 91.552H26.912C26.7627 91.552 26.64 91.504 26.544 91.408C26.448 91.312 26.4 91.1947 26.4 91.056C26.4 91.0453 26.3947 91.0347 26.384 91.024C26.3733 91.0133 26.3627 91.0133 26.352 91.024C26.3093 91.056 26.2453 91.1093 26.16 91.184C26.0747 91.2587 26.0107 91.312 25.968 91.344ZM27.296 90.096C27.2747 90.1067 27.2693 90.128 27.28 90.16C27.2907 90.1813 27.3067 90.192 27.328 90.192H30.432C30.4533 90.192 30.4693 90.1867 30.48 90.176C30.4907 90.1547 30.4853 90.1333 30.464 90.112C29.888 89.6427 29.3333 89.0773 28.8 88.416C28.7467 88.3627 28.6933 88.368 28.64 88.432C28.2133 89.04 27.7653 89.5947 27.296 90.096ZM32.016 96.528C31.8667 96.2187 31.6747 95.8613 31.44 95.456C31.344 95.2853 31.3227 95.104 31.376 94.912C31.44 94.72 31.5573 94.5813 31.728 94.496C31.92 94.4 32.112 94.384 32.304 94.448C32.5067 94.512 32.6613 94.6347 32.768 94.816C32.8853 95.0187 33.0507 95.3227 33.264 95.728C33.36 95.92 33.3813 96.1227 33.328 96.336C33.2747 96.5387 33.1573 96.6933 32.976 96.8C32.8053 96.9067 32.624 96.9333 32.432 96.88C32.24 96.8267 32.1013 96.7093 32.016 96.528ZM47.24 89.52C47.4853 89.5413 47.6987 89.6267 47.88 89.776C48.5627 90.352 49.3147 90.848 50.136 91.264C50.2 91.296 50.2747 91.2907 50.36 91.248C51.288 90.7787 52.0507 90.2453 52.648 89.648L52.68 89.616C52.7013 89.6053 52.7067 89.5893 52.696 89.568C52.6853 89.536 52.6693 89.52 52.648 89.52H47.24ZM44.824 88.816C44.9947 88.9547 45.0853 89.136 45.096 89.36C45.1067 89.5733 45.0427 89.7653 44.904 89.936C44.7653 90.096 44.5893 90.1867 44.376 90.208C44.1733 90.2187 43.992 90.1547 43.832 90.016C43.4587 89.6853 42.9733 89.2853 42.376 88.816C42.216 88.688 42.12 88.5227 42.088 88.32C42.0667 88.1067 42.1253 87.92 42.264 87.76C42.4027 87.5893 42.5787 87.4933 42.792 87.472C43.0053 87.4507 43.1973 87.504 43.368 87.632C44.0613 88.176 44.5467 88.5707 44.824 88.816ZM42.52 91.152C43.0747 91.5573 43.656 92.032 44.264 92.576C44.4347 92.7147 44.5253 92.896 44.536 93.12C44.5573 93.3333 44.4933 93.5253 44.344 93.696C44.2053 93.856 44.0293 93.9467 43.816 93.968C43.6133 93.9787 43.432 93.9147 43.272 93.776C42.6 93.1787 42.0187 92.6933 41.528 92.32C41.368 92.192 41.2773 92.0267 41.256 91.824C41.2453 91.6213 41.304 91.44 41.432 91.28C41.5707 91.12 41.7413 91.0293 41.944 91.008C42.1573 90.976 42.3493 91.024 42.52 91.152ZM43.4 96.304C43.4747 96.1013 43.608 95.9573 43.8 95.872C43.992 95.7867 44.1893 95.7813 44.392 95.856C44.5947 95.9413 44.7387 96.0853 44.824 96.288C44.92 96.48 44.9307 96.6773 44.856 96.88C44.376 98.2347 43.8 99.4773 43.128 100.608C43.0107 100.8 42.84 100.917 42.616 100.96C42.4027 101.013 42.2 100.976 42.008 100.848C41.8267 100.731 41.7093 100.56 41.656 100.336C41.6027 100.112 41.6347 99.904 41.752 99.712C42.4027 98.6347 42.952 97.4987 43.4 96.304ZM55.608 92.976C55.8 93.0187 55.9493 93.1253 56.056 93.296C56.1627 93.456 56.1947 93.632 56.152 93.824C56.1093 94.016 56.0027 94.1707 55.832 94.288C55.672 94.3947 55.496 94.4267 55.304 94.384C55.24 94.3733 55.1493 94.3573 55.032 94.336C54.9147 94.304 54.8293 94.2827 54.776 94.272C54.7013 94.2507 54.664 94.2827 54.664 94.368V100.448C54.664 100.683 54.5787 100.88 54.408 101.04C54.248 101.2 54.0507 101.28 53.816 101.28C53.5813 101.28 53.3787 101.2 53.208 101.04C53.048 100.88 52.968 100.683 52.968 100.448V98.736C52.968 98.64 52.9253 98.592 52.84 98.592H47.688C47.592 98.592 47.5333 98.6347 47.512 98.72C47.2453 99.552 46.8667 100.272 46.376 100.88C46.216 101.072 46.008 101.179 45.752 101.2C45.5067 101.232 45.2827 101.179 45.08 101.04C44.8987 100.923 44.7973 100.752 44.776 100.528C44.7653 100.315 44.8293 100.128 44.968 99.968C45.8213 98.944 46.248 97.568 46.248 95.84V94.336C46.248 94.304 46.2373 94.2773 46.216 94.256C46.1947 94.224 46.168 94.2133 46.136 94.224C45.8587 94.2987 45.624 94.3573 45.432 94.4C45.24 94.4427 45.0587 94.4107 44.888 94.304C44.728 94.1973 44.6267 94.0427 44.584 93.84C44.5413 93.6373 44.5733 93.456 44.68 93.296C44.7973 93.1253 44.9573 93.0133 45.16 92.96C46.472 92.6613 47.5547 92.3627 48.408 92.064C48.4293 92.0533 48.44 92.0373 48.44 92.016C48.44 91.984 48.4293 91.9573 48.408 91.936C47.672 91.5093 47.0533 91.0987 46.552 90.704C46.392 90.576 46.3173 90.4053 46.328 90.192C46.3387 89.9787 46.4293 89.8133 46.6 89.696C46.7387 89.6 46.9093 89.5413 47.112 89.52H45.8C45.608 89.52 45.4427 89.4507 45.304 89.312C45.1653 89.1733 45.096 89.008 45.096 88.816C45.096 88.624 45.1653 88.464 45.304 88.336C45.4427 88.1973 45.608 88.128 45.8 88.128H49.352C49.448 88.128 49.496 88.08 49.496 87.984V87.504C49.496 87.2587 49.576 87.056 49.736 86.896C49.9067 86.7253 50.1147 86.64 50.36 86.64C50.5947 86.64 50.792 86.7253 50.952 86.896C51.1227 87.056 51.208 87.2587 51.208 87.504V87.984C51.208 88.08 51.256 88.128 51.352 88.128H55.192C55.384 88.128 55.5493 88.1973 55.688 88.336C55.8267 88.464 55.896 88.624 55.896 88.816C55.896 89.008 55.8267 89.1733 55.688 89.312C55.5493 89.4507 55.384 89.52 55.192 89.52H54.552C54.4667 89.52 54.4347 89.5573 54.456 89.632C54.5093 89.8347 54.4667 90.0053 54.328 90.144C53.6667 90.8053 52.904 91.4027 52.04 91.936C52.0187 91.9573 52.008 91.9787 52.008 92C52.008 92.0213 52.0187 92.0373 52.04 92.048C52.9253 92.3573 54.1147 92.6667 55.608 92.976ZM52.968 97.136V95.856C52.968 95.76 52.9253 95.712 52.84 95.712H48.04C47.944 95.712 47.896 95.76 47.896 95.856C47.896 96.368 47.8747 96.8 47.832 97.152C47.832 97.2373 47.8693 97.28 47.944 97.28H52.84C52.9253 97.28 52.968 97.232 52.968 97.136ZM52.968 94.256V93.952C52.968 93.856 52.9253 93.7973 52.84 93.776C51.976 93.5307 51.1493 93.2427 50.36 92.912C50.2853 92.88 50.2053 92.88 50.12 92.912C49.5547 93.168 48.8507 93.4293 48.008 93.696C47.9333 93.7067 47.896 93.7653 47.896 93.872V94.256C47.896 94.352 47.944 94.4 48.04 94.4H52.84C52.9253 94.4 52.968 94.352 52.968 94.256ZM62.928 94.336C61.84 94.4533 60.9973 94.7147 60.4 95.12C59.8133 95.5253 59.52 95.9893 59.52 96.512C59.52 97.056 59.7227 97.5893 60.128 98.112C60.5333 98.624 60.928 98.88 61.312 98.88C61.984 98.88 62.5653 97.4027 63.056 94.448C63.0667 94.416 63.056 94.3893 63.024 94.368C62.992 94.3467 62.96 94.336 62.928 94.336ZM61.312 100.48C60.48 100.48 59.6907 100.075 58.944 99.264C58.208 98.4427 57.84 97.5307 57.84 96.528C57.84 95.5893 58.3147 94.7733 59.264 94.08C60.224 93.376 61.5253 92.96 63.168 92.832C63.2427 92.832 63.2907 92.7893 63.312 92.704C63.472 91.488 63.5893 90.4747 63.664 89.664C63.664 89.568 63.6213 89.52 63.536 89.52H59.712C59.5093 89.52 59.3387 89.4507 59.2 89.312C59.072 89.1733 59.008 89.0027 59.008 88.8C59.008 88.5973 59.072 88.4267 59.2 88.288C59.3387 88.1493 59.5093 88.08 59.712 88.08H64.416C64.6613 88.08 64.8693 88.1707 65.04 88.352C65.2213 88.5333 65.312 88.7467 65.312 88.992V89.52C65.0987 91.504 64.9813 92.56 64.96 92.688C64.9387 92.784 64.976 92.832 65.072 92.832C66.0213 92.896 66.9387 93.0453 67.824 93.28C67.9093 93.3013 67.952 93.2693 67.952 93.184C67.984 92.32 68 91.312 68 90.16C68 89.936 68.0747 89.7493 68.224 89.6C68.384 89.44 68.576 89.36 68.8 89.36C69.024 89.36 69.2107 89.44 69.36 89.6C69.52 89.76 69.6 89.952 69.6 90.176C69.6 91.4133 69.5733 92.5813 69.52 93.68C69.52 93.776 69.5627 93.84 69.648 93.872C70.1813 94.0747 70.784 94.368 71.456 94.752C71.6373 94.8587 71.76 95.0133 71.824 95.216C71.888 95.4187 71.8667 95.616 71.76 95.808C71.664 95.9893 71.5147 96.112 71.312 96.176C71.1093 96.2293 70.9227 96.2027 70.752 96.096C70.2933 95.84 69.888 95.6373 69.536 95.488C69.504 95.4773 69.472 95.4827 69.44 95.504C69.408 95.5147 69.392 95.536 69.392 95.568C69.2427 97.0293 68.96 98.112 68.544 98.816C68.1387 99.5093 67.4773 100.123 66.56 100.656C66.368 100.763 66.1653 100.784 65.952 100.72C65.7387 100.667 65.5733 100.544 65.456 100.352C65.3387 100.181 65.3067 99.9947 65.36 99.792C65.4133 99.5787 65.5307 99.4187 65.712 99.312C66.4267 98.9067 66.9333 98.416 67.232 97.84C67.5413 97.2533 67.7493 96.304 67.856 94.992C67.856 94.896 67.8133 94.8373 67.728 94.816C66.8107 94.5387 65.856 94.368 64.864 94.304C64.768 94.304 64.7147 94.3413 64.704 94.416C64.544 95.4507 64.368 96.3307 64.176 97.056C63.9947 97.7813 63.8027 98.368 63.6 98.816C63.408 99.2533 63.184 99.6 62.928 99.856C62.6827 100.101 62.4373 100.267 62.192 100.352C61.9467 100.437 61.6533 100.48 61.312 100.48Z" fill="#BEC2C2"/>
</svg>
