<svg width="32" height="33" viewBox="0 0 32 33" fill="none" xmlns="http://www.w3.org/2000/svg">
<path d="M15.3602 8.76356V12.6036C15.3602 13.3105 15.9333 13.8836 16.6402 13.8836H20.4802M23.0402 3.64355H14.0799C12.6661 3.64355 11.52 4.7897 11.5199 6.20354V8.76356M23.0402 3.64355H23.7543C24.1148 3.64355 24.4579 3.79538 24.7062 4.05665C25.0794 4.44929 25.6706 5.05384 26.2402 5.56356C26.6867 5.96304 27.3882 6.67998 27.8082 7.1157C28.0354 7.35133 28.1602 7.66595 28.1602 7.99324L28.1602 8.76356M23.0402 3.64355V7.48356C23.0402 8.19048 23.6133 8.76356 24.3202 8.76356H28.1602M28.1602 8.76356L28.1599 21.5636C28.1599 22.9774 27.0137 24.1236 25.5999 24.1235H20.4798M18.5602 10.6836C17.9906 10.1738 17.3994 9.56929 17.0262 9.17665C16.7779 8.91538 16.4348 8.76356 16.0743 8.76356H6.39994C4.9861 8.76356 3.83995 9.9097 3.83994 11.3235L3.83984 26.6835C3.83983 28.0973 4.98598 29.2435 6.39983 29.2435L17.9199 29.2435C19.3337 29.2436 20.4799 28.0974 20.4799 26.6836L20.4802 13.1132C20.4802 12.7859 20.3554 12.4713 20.1282 12.2357C19.7082 11.8 19.0067 11.083 18.5602 10.6836Z" stroke="#22998D" stroke-width="2" stroke-linecap="round" stroke-linejoin="round"/>
</svg>
