<svg width="337" height="30" viewBox="0 0 337 30" fill="none" xmlns="http://www.w3.org/2000/svg">
<path d="M12.257 10.417C12.3023 10.281 12.3873 10.179 12.512 10.111C12.6367 10.043 12.7727 10.0317 12.92 10.077C13.0673 10.111 13.1807 10.1903 13.26 10.315C13.736 11.1197 14.042 11.658 14.178 11.93C14.246 12.0547 14.2517 12.185 14.195 12.321C14.1497 12.457 14.0647 12.559 13.94 12.627C13.8153 12.695 13.6793 12.7063 13.532 12.661C13.396 12.6043 13.294 12.5137 13.226 12.389C12.886 11.777 12.5857 11.25 12.325 10.808C12.2457 10.6833 12.223 10.553 12.257 10.417ZM15.589 10.043C15.8837 10.5303 16.1953 11.08 16.524 11.692C16.592 11.8167 16.5977 11.9527 16.541 12.1C16.4957 12.236 16.4107 12.338 16.286 12.406C16.15 12.474 16.0083 12.4853 15.861 12.44C15.725 12.3833 15.6173 12.287 15.538 12.151C15.3113 11.743 15.0053 11.2047 14.62 10.536C14.5407 10.4113 14.5237 10.281 14.569 10.145C14.6143 9.99767 14.6993 9.89 14.824 9.822C14.96 9.754 15.1017 9.74267 15.249 9.788C15.3963 9.83333 15.5097 9.91833 15.589 10.043ZM3.706 11.811H11.526C11.6847 11.811 11.8207 11.8733 11.934 11.998C12.0587 12.1113 12.121 12.2473 12.121 12.406C12.121 12.5647 12.0587 12.7063 11.934 12.831C11.8207 12.9443 11.6847 13.001 11.526 13.001H3.706C3.54733 13.001 3.40567 12.9443 3.281 12.831C3.16767 12.7063 3.111 12.5647 3.111 12.406C3.111 12.2473 3.16767 12.1113 3.281 11.998C3.40567 11.8733 3.54733 11.811 3.706 11.811ZM1.785 17.591C1.62633 17.591 1.48467 17.5343 1.36 17.421C1.24667 17.2963 1.19 17.1547 1.19 16.996C1.19 16.8373 1.24667 16.7013 1.36 16.588C1.48467 16.4633 1.62633 16.401 1.785 16.401H14.875C15.0337 16.401 15.1697 16.4633 15.283 16.588C15.4077 16.7013 15.47 16.8373 15.47 16.996C15.47 17.1547 15.4077 17.2963 15.283 17.421C15.1697 17.5343 15.0337 17.591 14.875 17.591H9.775C9.68433 17.591 9.639 17.6363 9.639 17.727C9.61633 19.6423 9.20833 21.1497 8.415 22.249C7.62167 23.3483 6.34667 24.1757 4.59 24.731C4.43133 24.7763 4.27267 24.7537 4.114 24.663C3.96667 24.5837 3.86467 24.4647 3.808 24.306C3.76267 24.1473 3.77967 23.9943 3.859 23.847C3.93833 23.6997 4.05733 23.5977 4.216 23.541C5.65533 23.065 6.681 22.385 7.293 21.501C7.91633 20.6057 8.23933 19.3533 8.262 17.744C8.262 17.642 8.21667 17.591 8.126 17.591H1.785ZM19.856 24.051C19.8333 23.881 19.873 23.7337 19.975 23.609C20.0883 23.473 20.23 23.3937 20.4 23.371C23.664 23.0197 26.1233 22.1527 27.778 20.77C29.4327 19.376 30.5603 17.217 31.161 14.293C31.195 14.123 31.28 13.987 31.416 13.885C31.552 13.783 31.7107 13.7433 31.892 13.766C32.062 13.7887 32.198 13.8737 32.3 14.021C32.402 14.157 32.436 14.31 32.402 14.48C31.7447 17.6873 30.4867 20.0843 28.628 21.671C26.7807 23.2463 24.0947 24.2267 20.57 24.612C20.3887 24.6347 20.23 24.5893 20.094 24.476C19.958 24.374 19.8787 24.2323 19.856 24.051ZM28.968 10.587C29.0133 10.451 29.0983 10.349 29.223 10.281C29.3477 10.213 29.4837 10.2017 29.631 10.247C29.7783 10.281 29.8917 10.3603 29.971 10.485C30.447 11.2897 30.753 11.828 30.889 12.1C30.957 12.2247 30.9627 12.355 30.906 12.491C30.8607 12.627 30.7757 12.729 30.651 12.797C30.5263 12.865 30.3903 12.8763 30.243 12.831C30.107 12.7743 30.005 12.6837 29.937 12.559C29.597 11.947 29.2967 11.42 29.036 10.978C28.9567 10.8533 28.934 10.723 28.968 10.587ZM31.535 9.992C31.671 9.924 31.8127 9.91267 31.96 9.958C32.1073 10.0033 32.2207 10.0883 32.3 10.213C32.5947 10.7003 32.9063 11.25 33.235 11.862C33.303 11.9867 33.3087 12.1227 33.252 12.27C33.2067 12.406 33.1217 12.508 32.997 12.576C32.861 12.644 32.7193 12.6553 32.572 12.61C32.436 12.5533 32.3283 12.457 32.249 12.321C32.0223 11.913 31.7163 11.3747 31.331 10.706C31.2517 10.5813 31.2347 10.451 31.28 10.315C31.3253 10.1677 31.4103 10.06 31.535 9.992ZM19.686 16.945C19.516 16.911 19.38 16.826 19.278 16.69C19.1873 16.554 19.159 16.401 19.193 16.231C19.227 16.061 19.312 15.9307 19.448 15.84C19.584 15.738 19.737 15.6983 19.907 15.721C21.6297 16.0383 23.069 16.3103 24.225 16.537C24.395 16.571 24.5253 16.6617 24.616 16.809C24.718 16.945 24.752 17.098 24.718 17.268C24.684 17.438 24.599 17.574 24.463 17.676C24.327 17.7667 24.174 17.795 24.004 17.761C22.0887 17.387 20.6493 17.115 19.686 16.945ZM20.417 12.729C20.2583 12.7063 20.128 12.627 20.026 12.491C19.924 12.3437 19.89 12.1907 19.924 12.032C19.958 11.862 20.0487 11.7317 20.196 11.641C20.3433 11.539 20.502 11.4993 20.672 11.522C21.93 11.726 23.4487 12.0037 25.228 12.355C25.398 12.389 25.5283 12.4797 25.619 12.627C25.7097 12.763 25.738 12.916 25.704 13.086C25.67 13.256 25.5793 13.3863 25.432 13.477C25.296 13.5677 25.143 13.596 24.973 13.562C23.1937 13.2107 21.675 12.933 20.417 12.729ZM37.162 18.305C37.0373 18.4297 36.89 18.492 36.72 18.492C36.5613 18.492 36.4197 18.4353 36.295 18.322C36.1817 18.2087 36.1193 18.067 36.108 17.897C36.108 17.727 36.1647 17.5853 36.278 17.472C37.8987 15.7493 38.9073 13.6753 39.304 11.25C39.3267 11.08 39.406 10.9383 39.542 10.825C39.678 10.7003 39.831 10.6437 40.001 10.655C40.171 10.6663 40.307 10.74 40.409 10.876C40.5223 11.0007 40.5677 11.148 40.545 11.318C40.5223 11.4653 40.477 11.7317 40.409 12.117C40.3977 12.151 40.4033 12.185 40.426 12.219C40.46 12.253 40.494 12.27 40.528 12.27H47.43C47.6907 12.27 47.9173 12.3663 48.11 12.559C48.3027 12.7403 48.3933 12.9613 48.382 13.222C48.314 16.792 47.43 19.478 45.73 21.28C44.0413 23.0707 41.395 24.1643 37.791 24.561C37.621 24.5837 37.468 24.544 37.332 24.442C37.196 24.34 37.1167 24.204 37.094 24.034C37.0713 23.8753 37.1053 23.728 37.196 23.592C37.298 23.456 37.4283 23.3823 37.587 23.371C39.5023 23.1443 41.089 22.7363 42.347 22.147C43.6163 21.5577 44.6193 20.7417 45.356 19.699C45.424 19.6083 45.4183 19.546 45.339 19.512C43.9563 18.798 42.296 18.0103 40.358 17.149C40.1993 17.081 40.086 16.962 40.018 16.792C39.9613 16.6107 39.9783 16.4463 40.069 16.299C40.1597 16.1403 40.2843 16.0327 40.443 15.976C40.613 15.908 40.7773 15.9137 40.936 15.993C42.738 16.7977 44.4097 17.5967 45.951 18.39C46.019 18.424 46.0757 18.4013 46.121 18.322C46.6537 17.0753 46.954 15.5057 47.022 13.613C47.022 13.511 46.9767 13.46 46.886 13.46H40.256H40.205C40.103 13.46 40.0463 13.494 40.035 13.562C39.457 15.3413 38.4993 16.9223 37.162 18.305ZM60.792 24.459C60.5313 24.4703 60.3047 24.3853 60.112 24.204C59.9307 24.0227 59.84 23.796 59.84 23.524V12.151C59.84 11.9583 59.9023 11.7997 60.027 11.675C60.163 11.539 60.3273 11.471 60.52 11.471C60.7127 11.471 60.8713 11.539 60.996 11.675C61.132 11.7997 61.2 11.9583 61.2 12.151V23.014C61.2 23.116 61.251 23.1557 61.353 23.133C62.6337 22.9063 63.6763 22.3057 64.481 21.331C65.2857 20.3563 65.807 19.0643 66.045 17.455C66.0677 17.285 66.147 17.1433 66.283 17.03C66.419 16.9167 66.572 16.8713 66.742 16.894C66.912 16.9167 67.0537 17.0017 67.167 17.149C67.2803 17.285 67.3257 17.438 67.303 17.608C67.0197 19.6253 66.3057 21.2347 65.161 22.436C64.0163 23.6373 62.56 24.3117 60.792 24.459ZM53.482 24.255C53.3233 24.3457 53.1477 24.3627 52.955 24.306C52.7737 24.2607 52.632 24.1587 52.53 24C52.4393 23.8527 52.411 23.6997 52.445 23.541C52.4903 23.371 52.5923 23.2407 52.751 23.15C53.4763 22.742 54.0203 22.2547 54.383 21.688C54.7457 21.1213 55.0063 20.3167 55.165 19.274C55.335 18.22 55.42 16.7353 55.42 14.82V12.151C55.42 11.9583 55.4823 11.7997 55.607 11.675C55.743 11.539 55.9073 11.471 56.1 11.471C56.2927 11.471 56.4513 11.539 56.576 11.675C56.712 11.7997 56.78 11.9583 56.78 12.151V14.82C56.78 16.894 56.6723 18.5373 56.457 19.75C56.2417 20.9513 55.9073 21.8863 55.454 22.555C55.0007 23.2123 54.3433 23.779 53.482 24.255ZM72.08 20.481C72.1707 20.481 72.216 20.4357 72.216 20.345V19.478C72.216 19.376 72.1707 19.325 72.08 19.325H69.666C69.5187 19.325 69.394 19.274 69.292 19.172C69.19 19.0587 69.139 18.9283 69.139 18.781C69.139 18.6337 69.19 18.509 69.292 18.407C69.394 18.305 69.5187 18.254 69.666 18.254H72.08C72.1707 18.254 72.216 18.203 72.216 18.101V17.523C72.216 17.421 72.1707 17.37 72.08 17.37H70.363H70.159C69.8983 17.37 69.6717 17.2737 69.479 17.081C69.2863 16.8883 69.19 16.6617 69.19 16.401V14.565C69.19 14.3043 69.2863 14.0777 69.479 13.885C69.6717 13.6923 69.8983 13.596 70.159 13.596H70.397C70.499 13.596 70.55 13.5507 70.55 13.46V12.644C70.55 12.542 70.499 12.491 70.397 12.491H69.394C69.2353 12.491 69.105 12.44 69.003 12.338C68.901 12.2247 68.85 12.0943 68.85 11.947C68.85 11.7883 68.901 11.658 69.003 11.556C69.1163 11.4427 69.2467 11.386 69.394 11.386H70.397C70.499 11.386 70.55 11.3407 70.55 11.25V10.706C70.55 10.536 70.6067 10.3943 70.72 10.281C70.8447 10.1563 70.992 10.094 71.162 10.094C71.332 10.094 71.4737 10.1563 71.587 10.281C71.7117 10.3943 71.774 10.536 71.774 10.706V11.25C71.774 11.3407 71.8193 11.386 71.91 11.386H73.814C73.9047 11.386 73.95 11.3407 73.95 11.25V10.706C73.95 10.536 74.0067 10.3943 74.12 10.281C74.2447 10.1563 74.392 10.094 74.562 10.094C74.732 10.094 74.8737 10.1507 74.987 10.264C75.1117 10.3773 75.174 10.519 75.174 10.689V11.25C75.174 11.3407 75.2193 11.386 75.31 11.386H76.364C76.5227 11.386 76.653 11.4427 76.755 11.556C76.8683 11.6693 76.925 11.7997 76.925 11.947C76.925 12.0943 76.8683 12.2247 76.755 12.338C76.653 12.44 76.5227 12.491 76.364 12.491H75.31C75.2193 12.491 75.174 12.542 75.174 12.644V13.46C75.174 13.5507 75.2193 13.596 75.31 13.596H75.565C75.7917 13.596 75.99 13.6697 76.16 13.817C76.33 13.9643 76.4433 14.1457 76.5 14.361C76.5113 14.3837 76.5283 14.395 76.551 14.395C76.585 14.395 76.6077 14.3837 76.619 14.361C77.1743 13.5337 77.7127 12.2417 78.234 10.485C78.2793 10.3263 78.3757 10.2017 78.523 10.111C78.6817 10.0203 78.846 9.98633 79.016 10.009C79.1747 10.0317 79.2993 10.1167 79.39 10.264C79.4807 10.4 79.4977 10.5473 79.441 10.706C79.2143 11.4087 79.033 11.9243 78.897 12.253C78.8517 12.3437 78.88 12.389 78.982 12.389H80.869C80.9483 12.389 81.0107 12.338 81.056 12.236C81.2827 11.658 81.4867 11.0743 81.668 10.485C81.7247 10.3263 81.821 10.2017 81.957 10.111C82.093 10.0203 82.246 9.98633 82.416 10.009C82.5747 10.0317 82.6993 10.111 82.79 10.247C82.8807 10.3717 82.9033 10.5077 82.858 10.655C82.654 11.3123 82.4727 11.845 82.314 12.253C82.2687 12.3437 82.297 12.389 82.399 12.389H83.674C83.8327 12.389 83.963 12.4457 84.065 12.559C84.1783 12.661 84.235 12.7913 84.235 12.95C84.235 13.1087 84.1783 13.2447 84.065 13.358C83.963 13.46 83.8327 13.511 83.674 13.511H82.178C82.076 13.511 82.025 13.562 82.025 13.664V15.891C82.025 15.993 82.076 16.044 82.178 16.044H83.47C83.6173 16.044 83.742 16.095 83.844 16.197C83.9573 16.299 84.014 16.4237 84.014 16.571C84.014 16.7183 83.9573 16.8487 83.844 16.962C83.742 17.064 83.6173 17.115 83.47 17.115H82.178C82.076 17.115 82.025 17.1603 82.025 17.251V19.58C82.025 19.6707 82.076 19.716 82.178 19.716H83.47C83.6173 19.716 83.742 19.7727 83.844 19.886C83.9573 19.988 84.014 20.1127 84.014 20.26C84.014 20.4073 83.9573 20.5377 83.844 20.651C83.742 20.753 83.6173 20.804 83.47 20.804H82.178C82.076 20.804 82.025 20.8493 82.025 20.94V23.32C82.025 23.4107 82.076 23.456 82.178 23.456H83.878C84.0367 23.456 84.167 23.5127 84.269 23.626C84.3823 23.7393 84.439 23.8697 84.439 24.017C84.439 24.1643 84.3823 24.289 84.269 24.391C84.167 24.5043 84.0367 24.561 83.878 24.561H78.744C78.6647 24.561 78.625 24.6063 78.625 24.697V24.901C78.625 25.071 78.5627 25.2183 78.438 25.343C78.3133 25.4677 78.166 25.53 77.996 25.53C77.826 25.53 77.6787 25.4677 77.554 25.343C77.4407 25.2183 77.384 25.071 77.384 24.901V15.364C77.384 15.3413 77.3727 15.33 77.35 15.33C77.3273 15.3187 77.3103 15.3243 77.299 15.347C77.2423 15.4263 77.163 15.534 77.061 15.67C76.959 15.806 76.8853 15.9137 76.84 15.993C76.772 16.0837 76.7153 16.1403 76.67 16.163C76.5793 16.2083 76.534 16.2707 76.534 16.35V16.401C76.534 16.6617 76.4377 16.8883 76.245 17.081C76.0523 17.2737 75.8257 17.37 75.565 17.37H73.678C73.576 17.37 73.525 17.421 73.525 17.523V18.101C73.525 18.203 73.576 18.254 73.678 18.254H76.041C76.1883 18.254 76.313 18.305 76.415 18.407C76.5283 18.509 76.585 18.6337 76.585 18.781C76.585 18.9283 76.5283 19.0587 76.415 19.172C76.313 19.274 76.1883 19.325 76.041 19.325H73.678C73.576 19.325 73.525 19.376 73.525 19.478V20.345C73.525 20.4357 73.5703 20.481 73.661 20.481H76.296C76.4433 20.481 76.568 20.5377 76.67 20.651C76.7833 20.753 76.84 20.8833 76.84 21.042C76.84 21.2007 76.789 21.331 76.687 21.433C76.585 21.535 76.4547 21.586 76.296 21.586H73.916C73.882 21.586 73.8537 21.603 73.831 21.637C73.8197 21.671 73.8253 21.6993 73.848 21.722C74.392 22.606 75.1627 23.3313 76.16 23.898C76.3073 23.9773 76.4037 24.0907 76.449 24.238C76.4943 24.3853 76.4773 24.5327 76.398 24.68C76.3073 24.8273 76.1827 24.9237 76.024 24.969C75.8767 25.0257 75.7293 25.0143 75.582 24.935C74.562 24.323 73.7233 23.5127 73.066 22.504C73.0207 22.436 72.9753 22.4417 72.93 22.521C72.284 23.643 71.2753 24.5157 69.904 25.139C69.7453 25.207 69.581 25.2127 69.411 25.156C69.2523 25.0993 69.1277 24.9917 69.037 24.833C68.9577 24.6857 68.9463 24.5383 69.003 24.391C69.0597 24.2437 69.1673 24.136 69.326 24.068C70.7087 23.4673 71.5927 22.6853 71.978 21.722C71.9893 21.688 71.9837 21.6597 71.961 21.637C71.9383 21.603 71.91 21.586 71.876 21.586H69.394C69.2353 21.586 69.105 21.535 69.003 21.433C68.901 21.331 68.85 21.2007 68.85 21.042C68.85 20.8833 68.901 20.753 69.003 20.651C69.1163 20.5377 69.2467 20.481 69.394 20.481H72.08ZM78.625 13.664V15.891C78.625 15.993 78.676 16.044 78.778 16.044H80.682C80.784 16.044 80.835 15.993 80.835 15.891V13.664C80.835 13.562 80.784 13.511 80.682 13.511H78.778C78.676 13.511 78.625 13.562 78.625 13.664ZM78.625 17.268V19.58C78.625 19.6707 78.676 19.716 78.778 19.716H80.682C80.784 19.716 80.835 19.6707 80.835 19.58V17.268C80.835 17.166 80.784 17.115 80.682 17.115H78.778C78.676 17.115 78.625 17.166 78.625 17.268ZM78.625 20.94V23.32C78.625 23.4107 78.676 23.456 78.778 23.456H80.682C80.784 23.456 80.835 23.4107 80.835 23.32V20.94C80.835 20.8493 80.784 20.804 80.682 20.804H78.778C78.676 20.804 78.625 20.8493 78.625 20.94ZM75.293 14.582H73.644C73.542 14.582 73.491 14.633 73.491 14.735V16.265C73.491 16.367 73.542 16.418 73.644 16.418H75.293C75.395 16.418 75.446 16.367 75.446 16.265V14.735C75.446 14.633 75.395 14.582 75.293 14.582ZM71.774 12.644V13.46C71.774 13.5507 71.8193 13.596 71.91 13.596H73.814C73.9047 13.596 73.95 13.5507 73.95 13.46V12.644C73.95 12.542 73.9047 12.491 73.814 12.491H71.91C71.8193 12.491 71.774 12.542 71.774 12.644ZM72.097 16.418C72.199 16.418 72.25 16.367 72.25 16.265V14.735C72.25 14.633 72.199 14.582 72.097 14.582H70.516C70.414 14.582 70.363 14.633 70.363 14.735V16.265C70.363 16.367 70.414 16.418 70.516 16.418H72.097ZM96.033 14.735V15.704V16.01C96.033 16.1007 96.0783 16.146 96.169 16.146H99.773C100.034 16.146 100.26 16.2423 100.453 16.435C100.646 16.6277 100.742 16.8543 100.742 17.115V23.49C100.742 24.238 100.646 24.7083 100.453 24.901C100.272 25.0937 99.8297 25.19 99.127 25.19C98.787 25.19 98.226 25.173 97.444 25.139C97.2853 25.1277 97.1493 25.0653 97.036 24.952C96.9227 24.8387 96.8603 24.7027 96.849 24.544C96.8377 24.3853 96.8887 24.2493 97.002 24.136C97.1153 24.034 97.2457 23.9887 97.393 24C98.1523 24.034 98.5773 24.051 98.668 24.051C99.042 24.051 99.263 24.017 99.331 23.949C99.399 23.881 99.433 23.6543 99.433 23.269V22.215C99.433 22.2037 99.4217 22.1923 99.399 22.181C99.3763 22.1697 99.3593 22.1697 99.348 22.181C99.2007 22.3283 99.025 22.3963 98.821 22.385C98.617 22.3623 98.447 22.2717 98.311 22.113C97.4157 21.127 96.424 20.2997 95.336 19.631C95.2453 19.5857 95.183 19.6027 95.149 19.682C94.6163 20.6907 93.8683 21.5463 92.905 22.249C92.701 22.3963 92.4743 22.453 92.225 22.419C91.9757 22.3737 91.7717 22.249 91.613 22.045C91.6017 22.0223 91.5847 22.0167 91.562 22.028C91.5393 22.028 91.528 22.0393 91.528 22.062V24.612C91.528 24.7933 91.4657 24.9407 91.341 25.054C91.2163 25.1787 91.0633 25.241 90.882 25.241C90.7007 25.241 90.5477 25.1787 90.423 25.054C90.3097 24.9407 90.253 24.7933 90.253 24.612V17.115C90.253 16.8543 90.3493 16.6277 90.542 16.435C90.7347 16.2423 90.9613 16.146 91.222 16.146H94.605C94.707 16.146 94.758 16.1007 94.758 16.01V15.704V14.735C94.758 14.6443 94.707 14.599 94.605 14.599H90.491C90.3437 14.599 90.2133 14.548 90.1 14.446C89.998 14.3327 89.947 14.1967 89.947 14.038C89.947 13.8793 89.998 13.749 90.1 13.647C90.2133 13.545 90.3437 13.494 90.491 13.494H100.572C100.731 13.494 100.861 13.5507 100.963 13.664C101.076 13.766 101.133 13.8907 101.133 14.038C101.133 14.1967 101.076 14.3327 100.963 14.446C100.861 14.548 100.731 14.599 100.572 14.599H96.186C96.084 14.599 96.033 14.6443 96.033 14.735ZM91.664 21.586C92.5253 21.042 93.194 20.4357 93.67 19.767C94.1573 19.087 94.4803 18.2767 94.639 17.336C94.6503 17.302 94.639 17.2737 94.605 17.251C94.571 17.217 94.537 17.2 94.503 17.2H91.681C91.579 17.2 91.528 17.251 91.528 17.353V21.518C91.528 21.552 91.545 21.5803 91.579 21.603C91.613 21.6143 91.6413 21.6087 91.664 21.586ZM96.067 17.2C95.9763 17.2 95.9197 17.251 95.897 17.353C95.8403 17.7383 95.7667 18.0783 95.676 18.373C95.6533 18.475 95.6817 18.543 95.761 18.577C97.0757 19.325 98.2657 20.2997 99.331 21.501C99.3423 21.5237 99.3593 21.5293 99.382 21.518C99.416 21.5067 99.433 21.4897 99.433 21.467V17.353C99.433 17.251 99.3877 17.2 99.297 17.2H96.067ZM86.241 21.008C86.0937 21.076 85.9463 21.076 85.799 21.008C85.6517 20.94 85.5497 20.8267 85.493 20.668C85.4477 20.5093 85.4533 20.3563 85.51 20.209C85.578 20.0503 85.6913 19.937 85.85 19.869C86.4847 19.5857 87.108 19.2457 87.72 18.849C87.8107 18.7923 87.856 18.7243 87.856 18.645C87.89 17.9763 87.907 17.2227 87.907 16.384V16.231C87.907 16.2197 87.8957 16.2083 87.873 16.197C87.8617 16.1857 87.8503 16.1857 87.839 16.197C87.7143 16.2763 87.584 16.299 87.448 16.265C87.312 16.2197 87.2043 16.1347 87.125 16.01C86.8417 15.5227 86.3883 14.8143 85.765 13.885C85.6743 13.749 85.646 13.596 85.68 13.426C85.714 13.256 85.799 13.1257 85.935 13.035C86.0823 12.9443 86.2353 12.916 86.394 12.95C86.564 12.9727 86.6943 13.0577 86.785 13.205C87.0003 13.511 87.346 14.0437 87.822 14.803C87.8333 14.8257 87.8503 14.837 87.873 14.837C87.8957 14.8257 87.907 14.8087 87.907 14.786V12.27C87.907 12.0093 87.9977 11.7827 88.179 11.59C88.3717 11.3973 88.5983 11.301 88.859 11.301H93.908C93.9987 11.301 94.044 11.2557 94.044 11.165V10.502C94.044 10.3207 94.1063 10.1677 94.231 10.043C94.367 9.907 94.5313 9.839 94.724 9.839C94.9053 9.839 95.0583 9.907 95.183 10.043C95.319 10.1677 95.387 10.3207 95.387 10.502V11.165C95.387 11.2557 95.4323 11.301 95.523 11.301H100.742C100.889 11.301 101.02 11.3577 101.133 11.471C101.246 11.5843 101.303 11.7203 101.303 11.879C101.303 12.0263 101.246 12.1567 101.133 12.27C101.031 12.3833 100.901 12.44 100.742 12.44H89.318C89.2273 12.44 89.182 12.4853 89.182 12.576V17.166C89.182 19.0587 89.0403 20.5773 88.757 21.722C88.4737 22.8553 88.0033 23.8527 87.346 24.714C87.2327 24.8613 87.0797 24.9407 86.887 24.952C86.7057 24.9633 86.547 24.9067 86.411 24.782C86.275 24.6573 86.2013 24.4987 86.19 24.306C86.1787 24.1133 86.2353 23.9433 86.36 23.796C87.0513 22.8893 87.499 21.739 87.703 20.345C87.703 20.2657 87.669 20.2487 87.601 20.294C87.2043 20.5433 86.751 20.7813 86.241 21.008ZM103.428 20.294C103.269 20.294 103.133 20.2373 103.02 20.124C102.907 20.0107 102.85 19.8747 102.85 19.716C102.85 19.5573 102.907 19.4213 103.02 19.308C103.133 19.1833 103.269 19.121 103.428 19.121H109.922C110.024 19.121 110.075 19.0757 110.075 18.985V16.605C110.075 16.5143 110.024 16.469 109.922 16.469H104.261C104.114 16.469 103.983 16.4123 103.87 16.299C103.757 16.1857 103.7 16.0497 103.7 15.891C103.7 15.7437 103.757 15.6133 103.87 15.5C103.983 15.3867 104.114 15.33 104.261 15.33H109.922C110.024 15.33 110.075 15.2847 110.075 15.194V12.967C110.075 12.8877 110.024 12.848 109.922 12.848C108.437 12.984 106.76 13.0633 104.89 13.086C104.731 13.086 104.595 13.0293 104.482 12.916C104.369 12.8027 104.306 12.6667 104.295 12.508C104.284 12.3493 104.335 12.2133 104.448 12.1C104.561 11.9867 104.697 11.93 104.856 11.93C108.925 11.896 112.665 11.471 116.076 10.655C116.235 10.621 116.382 10.6493 116.518 10.74C116.654 10.8193 116.745 10.9383 116.79 11.097C116.835 11.2557 116.813 11.403 116.722 11.539C116.631 11.675 116.507 11.7657 116.348 11.811C114.829 12.1737 113.226 12.457 111.537 12.661C111.469 12.6723 111.435 12.729 111.435 12.831V12.899V15.194C111.435 15.2847 111.486 15.33 111.588 15.33H116.739C116.886 15.33 117.017 15.3867 117.13 15.5C117.243 15.6133 117.3 15.7437 117.3 15.891C117.3 16.0497 117.243 16.1857 117.13 16.299C117.017 16.4123 116.886 16.469 116.739 16.469H111.588C111.486 16.469 111.435 16.5143 111.435 16.605V18.985C111.435 19.0757 111.486 19.121 111.588 19.121H117.572C117.731 19.121 117.867 19.1833 117.98 19.308C118.093 19.4213 118.15 19.5573 118.15 19.716C118.15 19.8747 118.093 20.0107 117.98 20.124C117.867 20.2373 117.731 20.294 117.572 20.294H111.588C111.486 20.294 111.435 20.3393 111.435 20.43V23.099C111.435 24.051 111.322 24.646 111.095 24.884C110.868 25.122 110.313 25.241 109.429 25.241C108.817 25.241 108.052 25.224 107.134 25.19C106.975 25.1787 106.839 25.1107 106.726 24.986C106.613 24.8727 106.55 24.7367 106.539 24.578C106.528 24.4193 106.579 24.2833 106.692 24.17C106.805 24.068 106.941 24.0227 107.1 24.034C107.939 24.068 108.619 24.085 109.14 24.085C109.571 24.085 109.831 24.034 109.922 23.932C110.024 23.83 110.075 23.5523 110.075 23.099V20.43C110.075 20.3393 110.024 20.294 109.922 20.294H103.428ZM120.87 22.436C120.757 22.5493 120.621 22.606 120.462 22.606C120.303 22.606 120.167 22.5493 120.054 22.436C119.941 22.3227 119.884 22.1867 119.884 22.028V13.596C119.884 13.3353 119.975 13.1143 120.156 12.933C120.349 12.7403 120.575 12.644 120.836 12.644H121.907C122.009 12.644 122.06 12.593 122.06 12.491V10.91C122.06 10.74 122.122 10.5927 122.247 10.468C122.372 10.3433 122.519 10.281 122.689 10.281C122.859 10.281 123.001 10.3433 123.114 10.468C123.239 10.5927 123.301 10.74 123.301 10.91V12.491C123.301 12.593 123.352 12.644 123.454 12.644H124.491C124.752 12.644 124.978 12.7403 125.171 12.933C125.364 13.1143 125.46 13.3353 125.46 13.596V17.812C125.46 17.8913 125.505 17.9197 125.596 17.897C125.63 17.8857 125.675 17.88 125.732 17.88H126.225C126.316 17.88 126.361 17.829 126.361 17.727V11.675C126.361 11.4143 126.457 11.1877 126.65 10.995C126.843 10.8023 127.069 10.706 127.33 10.706H134.266C134.413 10.706 134.538 10.7627 134.64 10.876C134.753 10.978 134.81 11.1083 134.81 11.267C134.81 11.4143 134.759 11.5447 134.657 11.658C134.555 11.76 134.425 11.811 134.266 11.811H127.823C127.721 11.811 127.67 11.862 127.67 11.964V12.967C127.67 13.069 127.721 13.12 127.823 13.12H133.858C133.994 13.12 134.107 13.171 134.198 13.273C134.3 13.3637 134.351 13.477 134.351 13.613C134.351 13.749 134.3 13.868 134.198 13.97C134.107 14.072 133.994 14.123 133.858 14.123H127.823C127.721 14.123 127.67 14.1683 127.67 14.259V15.33C127.67 15.4207 127.721 15.466 127.823 15.466H133.858C133.994 15.466 134.107 15.517 134.198 15.619C134.3 15.721 134.351 15.84 134.351 15.976C134.351 16.112 134.3 16.231 134.198 16.333C134.107 16.4237 133.994 16.469 133.858 16.469H127.823C127.721 16.469 127.67 16.52 127.67 16.622V17.727C127.67 17.829 127.721 17.88 127.823 17.88H134.827C134.974 17.88 135.099 17.931 135.201 18.033C135.314 18.135 135.371 18.2653 135.371 18.424C135.371 18.5827 135.314 18.7187 135.201 18.832C135.099 18.934 134.974 18.985 134.827 18.985H129.948C129.914 18.985 129.886 19.002 129.863 19.036C129.852 19.0587 129.857 19.0813 129.88 19.104C130.401 20.09 131.064 20.974 131.869 21.756C131.96 21.824 132.033 21.824 132.09 21.756C132.611 21.2007 133.116 20.5547 133.603 19.818C133.694 19.682 133.818 19.597 133.977 19.563C134.136 19.5177 134.289 19.5347 134.436 19.614C134.583 19.7047 134.674 19.835 134.708 20.005C134.753 20.1637 134.731 20.311 134.64 20.447C134.141 21.195 133.586 21.892 132.974 22.538C132.906 22.606 132.912 22.674 132.991 22.742C133.546 23.1613 134.204 23.5693 134.963 23.966C135.11 24.0453 135.207 24.1643 135.252 24.323C135.309 24.493 135.297 24.6517 135.218 24.799C135.127 24.9577 135.003 25.0653 134.844 25.122C134.685 25.1787 134.527 25.1673 134.368 25.088C133.099 24.442 131.954 23.609 130.934 22.589C129.925 21.5577 129.126 20.4017 128.537 19.121C128.503 19.0303 128.435 18.985 128.333 18.985H127.823C127.721 18.985 127.67 19.036 127.67 19.138V23.558C127.67 23.66 127.715 23.6997 127.806 23.677C128.599 23.5183 129.489 23.3143 130.475 23.065C130.622 23.031 130.758 23.0537 130.883 23.133C131.008 23.201 131.081 23.3087 131.104 23.456C131.127 23.6033 131.093 23.745 131.002 23.881C130.923 24.0057 130.809 24.0907 130.662 24.136C128.928 24.612 127.149 24.969 125.324 25.207C125.165 25.2297 125.024 25.19 124.899 25.088C124.774 24.986 124.706 24.8613 124.695 24.714C124.684 24.5667 124.723 24.4307 124.814 24.306C124.905 24.1927 125.029 24.1247 125.188 24.102C125.301 24.0793 125.471 24.051 125.698 24.017C125.925 23.983 126.1 23.9603 126.225 23.949C126.316 23.9263 126.361 23.8697 126.361 23.779V19.138C126.361 19.036 126.316 18.985 126.225 18.985H125.732C125.675 18.985 125.63 18.9793 125.596 18.968C125.505 18.9453 125.46 18.9737 125.46 19.053V21.076C125.46 21.5747 125.392 21.9203 125.256 22.113C125.12 22.2943 124.848 22.402 124.44 22.436C124.259 22.4473 124.094 22.3963 123.947 22.283C123.8 22.1583 123.703 22.0053 123.658 21.824C123.624 21.688 123.652 21.5633 123.743 21.45C123.834 21.3253 123.958 21.246 124.117 21.212C124.219 21.1893 124.281 21.1213 124.304 21.008C124.327 20.8947 124.338 20.6283 124.338 20.209V13.936C124.338 13.8453 124.287 13.8 124.185 13.8H123.454C123.352 13.8 123.301 13.8453 123.301 13.936V24.85C123.301 25.02 123.239 25.1673 123.114 25.292C123.001 25.4167 122.859 25.479 122.689 25.479C122.519 25.479 122.372 25.4167 122.247 25.292C122.122 25.1673 122.06 25.02 122.06 24.85V13.936C122.06 13.8453 122.009 13.8 121.907 13.8H121.176C121.085 13.8 121.04 13.8453 121.04 13.936V22.028C121.04 22.1867 120.983 22.3227 120.87 22.436Z" fill="#AFB0B0"/>
<path d="M152.52 2.856C153.459 2.51467 154.557 2.22667 155.816 1.992C157.096 1.736 158.387 1.608 159.688 1.608C161.139 1.608 162.365 1.77867 163.368 2.12C164.392 2.44 165.224 2.888 165.864 3.464C166.504 4.01867 166.963 4.66933 167.24 5.416C167.539 6.16267 167.688 6.952 167.688 7.784C167.688 8.808 167.496 9.71467 167.112 10.504C166.728 11.272 166.227 11.944 165.608 12.52C165.011 13.0747 164.317 13.544 163.528 13.928C162.739 14.2907 161.949 14.568 161.16 14.76C161.523 14.9947 161.864 15.2933 162.184 15.656C162.504 15.9973 162.845 16.4027 163.208 16.872L166.376 20.968C167.037 21.8213 167.645 22.5573 168.2 23.176C168.755 23.7947 169.224 24.264 169.608 24.584V24.776C169.309 24.9253 168.872 25.032 168.296 25.096C167.72 25.1813 167.176 25.224 166.664 25.224C166.451 25.1387 166.163 24.9147 165.8 24.552C165.459 24.168 164.979 23.528 164.36 22.632L160.584 17.288C160.307 16.904 160.04 16.5733 159.784 16.296C159.549 16.0187 159.283 15.7947 158.984 15.624C158.707 15.432 158.376 15.304 157.992 15.24C157.629 15.1547 157.181 15.112 156.648 15.112H155.144V24.712C154.803 24.904 154.397 25.032 153.928 25.096C153.48 25.1813 153.011 25.224 152.52 25.224V2.856ZM158.536 3.08C158.024 3.08 157.469 3.112 156.872 3.176C156.275 3.24 155.699 3.336 155.144 3.464V13.384C155.507 13.4907 155.923 13.576 156.392 13.64C156.883 13.704 157.437 13.736 158.056 13.736C160.147 13.736 161.8 13.3093 163.016 12.456C164.232 11.6027 164.84 10.2907 164.84 8.52C164.84 7.752 164.712 7.03733 164.456 6.376C164.2 5.69333 163.805 5.11733 163.272 4.648C162.76 4.15733 162.109 3.77333 161.32 3.496C160.531 3.21866 159.603 3.08 158.536 3.08ZM187.275 23.816C187.211 23.9227 187.104 24.0507 186.955 24.2C186.827 24.3493 186.677 24.4987 186.507 24.648C186.336 24.776 186.144 24.8933 185.931 25C185.739 25.1067 185.557 25.1813 185.387 25.224C184.704 25.1813 184.128 24.9253 183.659 24.456C183.189 23.9653 182.933 23.3253 182.891 22.536C182.72 22.856 182.464 23.1973 182.123 23.56C181.781 23.9013 181.365 24.2213 180.875 24.52C180.405 24.7973 179.861 25.0213 179.243 25.192C178.624 25.384 177.952 25.48 177.227 25.48C175.712 25.48 174.507 25.096 173.611 24.328C172.736 23.56 172.299 22.536 172.299 21.256C172.299 19.9333 172.8 18.824 173.803 17.928C174.805 17.032 176.523 16.3707 178.955 15.944L182.763 15.272V14.024C182.763 12.488 182.4 11.3147 181.675 10.504C180.971 9.69333 179.915 9.288 178.507 9.288C177.632 9.288 176.885 9.512 176.267 9.96C175.669 10.3867 175.371 11.0267 175.371 11.88C175.371 12.264 175.499 12.6053 175.755 12.904C175.563 13.16 175.253 13.3947 174.827 13.608C174.4 13.8213 173.963 13.9493 173.515 13.992C173.408 13.8853 173.28 13.7253 173.131 13.512C172.981 13.2987 172.907 13.0107 172.907 12.648C172.907 11.9867 173.099 11.368 173.483 10.792C173.867 10.216 174.368 9.72533 174.987 9.32C175.605 8.89333 176.32 8.56267 177.131 8.328C177.941 8.09333 178.784 7.976 179.659 7.976C181.707 7.976 183.157 8.44533 184.011 9.384C184.864 10.3013 185.291 11.592 185.291 13.256V21.288C185.291 22.1627 185.483 22.7707 185.867 23.112C186.251 23.432 186.699 23.624 187.211 23.688L187.275 23.816ZM178.251 23.784C179.36 23.784 180.299 23.528 181.067 23.016C181.856 22.504 182.421 21.8427 182.763 21.032V16.424L178.475 17.192C177.323 17.4053 176.437 17.768 175.819 18.28C175.221 18.792 174.923 19.528 174.923 20.488C174.923 21.5547 175.243 22.376 175.883 22.952C176.544 23.5067 177.333 23.784 178.251 23.784ZM191.35 8.84C192.054 8.47733 192.854 8.296 193.75 8.296V12.904C193.964 12.264 194.252 11.656 194.614 11.08C194.977 10.4827 195.404 9.96 195.894 9.512C196.406 9.064 196.972 8.712 197.59 8.456C198.209 8.17867 198.892 8.04 199.638 8.04C200.214 8.04 200.716 8.136 201.142 8.328C201.569 8.49867 201.921 8.72267 202.198 9C202.476 9.256 202.678 9.55467 202.806 9.896C202.956 10.2373 203.041 10.568 203.062 10.888C202.892 11.1867 202.593 11.4427 202.166 11.656C201.761 11.8693 201.356 11.9973 200.95 12.04C200.844 11.464 200.609 10.952 200.246 10.504C199.884 10.056 199.276 9.832 198.422 9.832C197.804 9.832 197.228 10.0133 196.694 10.376C196.182 10.7387 195.724 11.2507 195.318 11.912C194.913 12.552 194.582 13.32 194.326 14.216C194.092 15.112 193.942 16.0933 193.878 17.16V24.744C193.58 24.9147 193.185 25.032 192.694 25.096C192.225 25.1813 191.777 25.224 191.35 25.224V8.84ZM207.258 16.744C207.322 17.896 207.525 18.9093 207.866 19.784C208.229 20.6373 208.688 21.352 209.242 21.928C209.797 22.504 210.437 22.9413 211.162 23.24C211.909 23.5173 212.698 23.656 213.53 23.656C214.576 23.656 215.472 23.5173 216.218 23.24C216.986 22.9627 217.68 22.5253 218.298 21.928C218.597 21.992 218.8 22.1947 218.906 22.536C218.757 22.7707 218.512 23.0587 218.17 23.4C217.85 23.7413 217.413 24.072 216.858 24.392C216.325 24.712 215.674 24.9787 214.906 25.192C214.16 25.4267 213.285 25.544 212.282 25.544C211.216 25.544 210.224 25.352 209.306 24.968C208.389 24.584 207.589 24.0293 206.906 23.304C206.224 22.5787 205.68 21.6827 205.274 20.616C204.89 19.5493 204.698 18.344 204.698 17C204.698 15.7627 204.912 14.6 205.338 13.512C205.765 12.4027 206.341 11.4427 207.066 10.632C207.813 9.82133 208.677 9.18133 209.658 8.712C210.661 8.22133 211.728 7.976 212.858 7.976C214.074 7.976 215.077 8.17867 215.866 8.584C216.656 8.98933 217.274 9.512 217.722 10.152C218.192 10.792 218.512 11.496 218.682 12.264C218.874 13.032 218.97 13.7787 218.97 14.504C218.8 14.76 218.565 14.984 218.266 15.176C217.989 15.368 217.68 15.5173 217.338 15.624L207.258 16.744ZM212.026 9.416C211.365 9.416 210.746 9.53333 210.17 9.768C209.594 10.0027 209.093 10.3653 208.666 10.856C208.24 11.3467 207.888 11.976 207.61 12.744C207.354 13.512 207.216 14.44 207.194 15.528L216.218 14.6C216.24 14.4933 216.25 14.3867 216.25 14.28C216.25 14.1733 216.25 14.0773 216.25 13.992C216.25 13.3307 216.165 12.7227 215.994 12.168C215.824 11.6133 215.557 11.1333 215.194 10.728C214.853 10.3227 214.416 10.0027 213.882 9.768C213.37 9.53333 212.752 9.416 212.026 9.416ZM222.672 0.903999C223.056 0.690666 223.472 0.541333 223.92 0.455999C224.389 0.349333 224.848 0.296 225.296 0.296L224.592 8.776C224.485 8.88267 224.314 8.97867 224.08 9.064C223.866 9.128 223.642 9.16 223.408 9.16L222.672 0.903999ZM227.506 21.608C227.677 21.3093 227.954 21.032 228.338 20.776C228.744 20.52 229.17 20.3707 229.618 20.328C229.768 21.416 230.29 22.3227 231.186 23.048C232.104 23.752 233.266 24.104 234.674 24.104C236.018 24.104 237.01 23.816 237.65 23.24C238.312 22.6427 238.642 21.9067 238.642 21.032C238.642 20.1573 238.333 19.4747 237.714 18.984C237.117 18.4933 236.082 18.0667 234.61 17.704L232.722 17.224C232.04 17.0533 231.421 16.8613 230.866 16.648C230.333 16.4347 229.864 16.1787 229.458 15.88C229.074 15.56 228.776 15.1867 228.562 14.76C228.349 14.3333 228.242 13.8107 228.242 13.192C228.242 12.5307 228.413 11.8907 228.754 11.272C229.096 10.632 229.565 10.0667 230.162 9.576C230.781 9.08533 231.485 8.70133 232.274 8.424C233.085 8.12533 233.96 7.976 234.898 7.976C235.858 7.976 236.669 8.09333 237.33 8.328C237.992 8.54133 238.536 8.81867 238.962 9.16C239.41 9.48 239.73 9.832 239.922 10.216C240.136 10.6 240.253 10.9413 240.274 11.24C240.125 11.5387 239.869 11.8053 239.506 12.04C239.144 12.2533 238.749 12.3813 238.322 12.424C238.173 11.6133 237.757 10.9093 237.074 10.312C236.392 9.71467 235.368 9.416 234.002 9.416C233.554 9.416 233.106 9.48 232.658 9.608C232.232 9.71467 231.848 9.88533 231.506 10.12C231.165 10.3547 230.888 10.6427 230.674 10.984C230.461 11.304 230.354 11.688 230.354 12.136C230.354 12.8613 230.61 13.448 231.122 13.896C231.634 14.3227 232.53 14.6853 233.81 14.984L235.762 15.464C237.618 15.9333 238.941 16.5307 239.73 17.256C240.541 17.96 240.946 18.8667 240.946 19.976C240.946 20.68 240.786 21.3733 240.466 22.056C240.146 22.7173 239.677 23.3147 239.058 23.848C238.44 24.36 237.682 24.7653 236.786 25.064C235.89 25.384 234.866 25.544 233.714 25.544C232.712 25.544 231.837 25.416 231.09 25.16C230.344 24.9253 229.704 24.616 229.17 24.232C228.658 23.848 228.264 23.432 227.986 22.984C227.709 22.5147 227.549 22.056 227.506 21.608ZM252.921 20.136C253.134 19.816 253.486 19.5173 253.977 19.24C254.467 18.9627 254.947 18.8133 255.417 18.792C255.481 19.3893 255.651 19.9973 255.929 20.616C256.206 21.2133 256.601 21.7573 257.113 22.248C257.646 22.7173 258.297 23.112 259.065 23.432C259.833 23.7307 260.75 23.88 261.817 23.88C263.374 23.88 264.611 23.4853 265.529 22.696C266.446 21.8853 266.905 20.8293 266.905 19.528C266.905 18.2907 266.585 17.2667 265.945 16.456C265.305 15.6453 264.142 15.0267 262.457 14.6L259.449 13.832C258.681 13.64 257.955 13.416 257.273 13.16C256.59 12.904 255.993 12.5733 255.481 12.168C254.969 11.7413 254.563 11.2293 254.265 10.632C253.987 10.0133 253.849 9.26667 253.849 8.392C253.849 7.51733 254.062 6.67467 254.489 5.864C254.915 5.05333 255.502 4.33867 256.249 3.72C257.017 3.08 257.902 2.568 258.905 2.184C259.929 1.8 261.027 1.608 262.201 1.608C263.374 1.608 264.377 1.75733 265.209 2.056C266.041 2.35467 266.713 2.71733 267.225 3.144C267.737 3.57067 268.11 4.04 268.345 4.552C268.601 5.04266 268.75 5.48 268.793 5.864C268.643 6.16267 268.366 6.44 267.961 6.696C267.555 6.93067 267.086 7.08 266.553 7.144C266.467 6.67467 266.307 6.216 266.073 5.768C265.838 5.29867 265.497 4.88267 265.049 4.52C264.622 4.136 264.089 3.82667 263.449 3.592C262.809 3.35733 262.051 3.24 261.177 3.24C259.726 3.24 258.563 3.624 257.689 4.392C256.814 5.13867 256.377 6.13067 256.377 7.368C256.377 8.072 256.483 8.65867 256.697 9.128C256.91 9.576 257.209 9.96 257.593 10.28C257.977 10.5787 258.425 10.824 258.937 11.016C259.47 11.208 260.046 11.3787 260.665 11.528L263.481 12.232C264.654 12.5307 265.625 12.8933 266.393 13.32C267.182 13.7467 267.801 14.216 268.249 14.728C268.697 15.24 269.006 15.8053 269.177 16.424C269.369 17.0213 269.465 17.64 269.465 18.28C269.465 19.24 269.262 20.1573 268.857 21.032C268.451 21.9067 267.865 22.6853 267.097 23.368C266.329 24.0293 265.401 24.5627 264.313 24.968C263.246 25.352 262.041 25.544 260.697 25.544C259.395 25.544 258.265 25.3733 257.305 25.032C256.345 24.6907 255.545 24.264 254.905 23.752C254.265 23.2187 253.774 22.632 253.433 21.992C253.113 21.352 252.942 20.7333 252.921 20.136ZM285.55 14.952C285.55 13.2027 285.198 11.912 284.494 11.08C283.812 10.2267 282.82 9.8 281.518 9.8C280.494 9.8 279.577 10.1093 278.766 10.728C277.956 11.3467 277.326 12.0827 276.878 12.936V24.744C276.58 24.9147 276.185 25.032 275.694 25.096C275.225 25.1813 274.777 25.224 274.35 25.224V8.84C275.054 8.47733 275.844 8.296 276.718 8.296V11.272C276.953 10.9093 277.252 10.536 277.614 10.152C277.998 9.74667 278.436 9.384 278.926 9.064C279.438 8.744 280.004 8.488 280.622 8.296C281.241 8.08267 281.913 7.976 282.638 7.976C283.961 7.976 285.038 8.328 285.87 9.032C286.724 9.71467 287.3 10.5467 287.598 11.528C287.854 11.1867 288.174 10.8133 288.558 10.408C288.964 9.98133 289.422 9.58667 289.934 9.224C290.446 8.86133 291.012 8.56267 291.63 8.328C292.27 8.09333 292.953 7.976 293.678 7.976C295.3 7.976 296.612 8.488 297.614 9.512C298.638 10.5147 299.15 11.9973 299.15 13.96V24.744C298.852 24.9147 298.457 25.032 297.966 25.096C297.497 25.1813 297.049 25.224 296.622 25.224V14.952C296.622 11.5173 295.289 9.8 292.622 9.8C291.748 9.8 290.894 10.0987 290.062 10.696C289.252 11.272 288.59 11.9973 288.078 12.872V24.744C287.78 24.9147 287.385 25.032 286.894 25.096C286.425 25.1813 285.977 25.224 285.55 25.224V14.952ZM308.399 3.272C308.207 3.61333 307.909 3.976 307.503 4.36C307.098 4.72267 306.735 4.97867 306.415 5.128C306.095 4.97867 305.733 4.72267 305.327 4.36C304.922 3.976 304.613 3.61333 304.399 3.272C304.613 2.90933 304.922 2.536 305.327 2.152C305.733 1.768 306.095 1.49067 306.415 1.32C306.735 1.49067 307.098 1.768 307.503 2.152C307.93 2.536 308.229 2.90933 308.399 3.272ZM305.071 8.84C305.434 8.648 305.829 8.50933 306.255 8.424C306.703 8.33867 307.151 8.296 307.599 8.296V24.744C307.301 24.9147 306.906 25.032 306.415 25.096C305.946 25.1813 305.498 25.224 305.071 25.224V8.84ZM313.634 0.839998C313.996 0.647998 314.391 0.509332 314.818 0.424C315.266 0.338666 315.714 0.296 316.162 0.296V24.744C315.863 24.9147 315.468 25.032 314.978 25.096C314.508 25.1813 314.06 25.224 313.634 25.224V0.839998ZM323.54 16.744C323.604 17.896 323.806 18.9093 324.148 19.784C324.51 20.6373 324.969 21.352 325.524 21.928C326.078 22.504 326.718 22.9413 327.444 23.24C328.19 23.5173 328.98 23.656 329.812 23.656C330.857 23.656 331.753 23.5173 332.5 23.24C333.268 22.9627 333.961 22.5253 334.58 21.928C334.878 21.992 335.081 22.1947 335.188 22.536C335.038 22.7707 334.793 23.0587 334.452 23.4C334.132 23.7413 333.694 24.072 333.14 24.392C332.606 24.712 331.956 24.9787 331.188 25.192C330.441 25.4267 329.566 25.544 328.564 25.544C327.497 25.544 326.505 25.352 325.588 24.968C324.67 24.584 323.87 24.0293 323.188 23.304C322.505 22.5787 321.961 21.6827 321.556 20.616C321.172 19.5493 320.98 18.344 320.98 17C320.98 15.7627 321.193 14.6 321.62 13.512C322.046 12.4027 322.622 11.4427 323.348 10.632C324.094 9.82133 324.958 9.18133 325.94 8.712C326.942 8.22133 328.009 7.976 329.14 7.976C330.356 7.976 331.358 8.17867 332.148 8.584C332.937 8.98933 333.556 9.512 334.004 10.152C334.473 10.792 334.793 11.496 334.964 12.264C335.156 13.032 335.252 13.7787 335.252 14.504C335.081 14.76 334.846 14.984 334.548 15.176C334.27 15.368 333.961 15.5173 333.62 15.624L323.54 16.744ZM328.308 9.416C327.646 9.416 327.028 9.53333 326.452 9.768C325.876 10.0027 325.374 10.3653 324.948 10.856C324.521 11.3467 324.169 11.976 323.891 12.744C323.636 13.512 323.497 14.44 323.476 15.528L332.5 14.6C332.521 14.4933 332.532 14.3867 332.532 14.28C332.532 14.1733 332.532 14.0773 332.532 13.992C332.532 13.3307 332.446 12.7227 332.276 12.168C332.105 11.6133 331.838 11.1333 331.476 10.728C331.134 10.3227 330.697 10.0027 330.164 9.768C329.652 9.53333 329.033 9.416 328.308 9.416Z" fill="#22998D"/>
</svg>
