<svg width="24" height="25" viewBox="0 0 24 25" fill="none" xmlns="http://www.w3.org/2000/svg">
<path d="M11.6998 21.9603H5.69979C4.37431 21.9603 3.2998 20.8857 3.2998 19.5602L3.2999 5.1603C3.29991 3.83482 4.37442 2.76031 5.6999 2.76031H16.5002C17.8256 2.76031 18.9002 3.83483 18.9002 5.16031V9.96031M7.50018 7.56031H14.7002M7.50018 11.1603H14.7002M14.7002 15.9143V18.8587C14.7002 20.3136 16.2516 21.6481 17.7065 21.6481C19.1615 21.6481 20.7002 20.3136 20.7002 18.8587V15.1394C20.7002 14.3692 20.2574 13.5875 19.2723 13.5875C18.2186 13.5875 17.7065 14.3692 17.7065 15.1394V18.7037M7.50018 14.7603H11.1002" stroke="#888888" stroke-width="2" stroke-linecap="round" stroke-linejoin="round"/>
</svg>
