<svg width="304" height="71" viewBox="0 0 304 71" fill="none" xmlns="http://www.w3.org/2000/svg">
<path d="M61.1664 28.3212H74.7434C75.7021 28.347 76.4707 29.125 76.4707 30.0835V53.3932L59.4434 53.3889V30.0836C59.4434 29.1251 60.212 28.3471 61.1664 28.3212ZM68.24 57.2053H68.2357C67.264 57.2053 66.4737 57.9918 66.4737 58.959V58.9633C66.4737 59.9347 67.264 60.7213 68.24 60.7213C69.216 60.7213 70.0063 59.9347 70.0063 58.9633V58.959C70.0063 57.9919 69.216 57.2053 68.24 57.2053ZM33.6581 55.6493H39.2763V61.2455H33.6581V55.6493ZM76.4717 56.9043V59.4833C76.4717 60.4418 75.7031 61.2198 74.7444 61.2456H61.1674C60.213 61.2198 59.4443 60.4419 59.4443 59.4833V56.9087L76.4717 56.9043ZM67.6405 6.29622e-06H5.29878C2.37091 0.00430424 0 2.36399 0 5.27396V50.3705C0 53.2846 2.3708 55.6444 5.29878 55.6487H30.13V61.245H23.0693C22.0934 61.245 21.303 62.0315 21.303 63.003C21.303 63.9744 22.0933 64.761 23.0693 64.761H31.8617H49.8652C50.8411 64.761 51.6315 63.9744 51.6315 63.003C51.6315 62.0316 50.8412 61.245 49.8652 61.245H42.8088V55.6487H50.9621C51.938 55.6487 52.7284 54.8622 52.7284 53.8907C52.7284 52.9193 51.9381 52.1327 50.9621 52.1327L5.25523 52.1284C4.29653 52.1069 3.53215 51.3246 3.53215 50.3661V44.2024H49.9819C50.9579 44.2024 51.7482 43.4158 51.7482 42.4444C51.7482 41.4729 50.9579 40.6863 49.9819 40.6863H3.53215L3.52783 5.27725C3.52783 4.31875 4.29652 3.5408 5.25522 3.51494H67.6831C68.6375 3.54073 69.4062 4.31871 69.4062 5.27725V20.3388C69.4062 21.3102 70.1965 22.0968 71.1725 22.0968C72.1485 22.0968 72.9388 21.3102 72.9388 20.3388V5.27395C72.9345 2.36409 70.5641 0.00429764 67.6405 6.29622e-06ZM61.2103 24.8051V24.8094L61.206 24.8137H61.2017H61.193C58.2738 24.8137 55.9116 27.1734 55.9116 30.079V59.488C55.9116 62.3978 58.2824 64.7619 61.2104 64.7619H74.7055C77.6291 64.7619 80 62.3979 80 59.488V30.079C80 27.1692 77.6292 24.8094 74.7055 24.8094V24.8051L61.2103 24.8051Z" fill="#5A5A5A"/>
<path d="M122.8 24.528V48.912C122.8 49.2 122.944 49.344 123.232 49.344H148.768C149.056 49.344 149.2 49.2 149.2 48.912V24.528C149.2 24.272 149.056 24.144 148.768 24.144H123.232C122.944 24.144 122.8 24.272 122.8 24.528ZM120.256 54C119.52 54 118.88 53.728 118.336 53.184C117.792 52.64 117.52 52 117.52 51.264V22.176C117.52 21.44 117.792 20.8 118.336 20.256C118.88 19.712 119.52 19.44 120.256 19.44H151.744C152.48 19.44 153.12 19.712 153.664 20.256C154.208 20.8 154.48 21.44 154.48 22.176V51.264C154.48 52 154.208 52.64 153.664 53.184C153.12 53.728 152.48 54 151.744 54H122.8H120.256ZM202.96 20.88C202.544 20.08 201.888 18.88 200.992 17.28C200.736 16.8 200.672 16.288 200.8 15.744C200.96 15.2 201.296 14.816 201.808 14.592C202.32 14.336 202.848 14.288 203.392 14.448C203.936 14.608 204.352 14.944 204.64 15.456C205.536 17.056 206.208 18.272 206.656 19.104C206.912 19.616 206.944 20.144 206.752 20.688C206.592 21.2 206.256 21.584 205.744 21.84C205.232 22.064 204.704 22.096 204.16 21.936C203.616 21.744 203.216 21.392 202.96 20.88ZM168.736 38.688C168.288 39.168 167.728 39.424 167.056 39.456C166.384 39.488 165.792 39.28 165.28 38.832C164.8 38.416 164.544 37.888 164.512 37.248C164.48 36.608 164.672 36.064 165.088 35.616C169.408 30.848 172.16 25.376 173.344 19.2C173.472 18.528 173.792 17.984 174.304 17.568C174.848 17.12 175.472 16.912 176.176 16.944C176.848 17.008 177.392 17.296 177.808 17.808C178.256 18.288 178.432 18.848 178.336 19.488C178.304 19.712 178.24 20.08 178.144 20.592C178.048 21.104 177.968 21.472 177.904 21.696C177.84 21.952 177.936 22.08 178.192 22.08H196.192C196.256 22.08 196.304 22.064 196.336 22.032C196.368 21.968 196.352 21.904 196.288 21.84C196.192 21.712 196.112 21.584 196.048 21.456C194.96 19.472 194.32 18.304 194.128 17.952C193.872 17.472 193.824 16.976 193.984 16.464C194.144 15.952 194.464 15.568 194.944 15.312C195.456 15.056 195.968 15.008 196.48 15.168C197.024 15.328 197.424 15.648 197.68 16.128C198.8 18.144 199.456 19.328 199.648 19.68C199.904 20.16 199.952 20.672 199.792 21.216C199.632 21.76 199.296 22.144 198.784 22.368C198.688 22.4 198.48 22.464 198.16 22.56C198.096 22.56 198.048 22.608 198.016 22.704C198.016 22.768 198.048 22.816 198.112 22.848C198.624 23.328 198.88 23.968 198.88 24.768C198.56 34.56 196.032 41.92 191.296 46.848C186.592 51.776 179.264 54.8 169.312 55.92C168.672 55.984 168.096 55.808 167.584 55.392C167.072 55.008 166.768 54.496 166.672 53.856C166.576 53.216 166.704 52.656 167.056 52.176C167.44 51.696 167.936 51.424 168.544 51.36C176.896 50.336 183.008 47.952 186.88 44.208C190.752 40.464 192.96 34.736 193.504 27.024C193.504 26.768 193.376 26.64 193.12 26.64H176.8C176.544 26.64 176.352 26.784 176.224 27.072C174.56 31.296 172.064 35.168 168.736 38.688ZM215.632 39.696C214.992 39.824 214.416 39.696 213.904 39.312C213.392 38.928 213.072 38.4 212.944 37.728C212.848 37.088 212.976 36.512 213.328 36C213.712 35.488 214.224 35.168 214.864 35.04C220.88 33.952 226.704 32.048 232.336 29.328C238 26.608 242.832 23.376 246.832 19.632C247.28 19.184 247.824 18.976 248.464 19.008C249.136 19.008 249.68 19.248 250.096 19.728C250.544 20.24 250.752 20.832 250.72 21.504C250.688 22.176 250.432 22.736 249.952 23.184C246.592 26.352 242.496 29.248 237.664 31.872C237.472 31.968 237.408 32.144 237.472 32.4C237.504 32.528 237.52 32.752 237.52 33.072V53.568C237.52 54.304 237.248 54.944 236.704 55.488C236.192 56.032 235.568 56.304 234.832 56.304C234.096 56.304 233.456 56.032 232.912 55.488C232.4 54.944 232.144 54.304 232.144 53.568V35.04C232.144 34.752 232.016 34.672 231.76 34.8C226.544 37.104 221.168 38.736 215.632 39.696ZM265.168 24.144C264.528 23.824 264.096 23.344 263.872 22.704C263.68 22.032 263.744 21.376 264.064 20.736C264.384 20.128 264.896 19.712 265.6 19.488C266.304 19.264 266.976 19.312 267.616 19.632C271.328 21.52 274.736 23.36 277.84 25.152C278.48 25.504 278.88 26.016 279.04 26.688C279.232 27.36 279.152 28.016 278.8 28.656C278.448 29.296 277.936 29.712 277.264 29.904C276.592 30.064 275.936 29.968 275.296 29.616C272.192 27.824 268.816 26 265.168 24.144ZM298.288 23.52C298.96 23.68 299.472 24.048 299.824 24.624C300.208 25.168 300.336 25.776 300.208 26.448C296.496 42.864 285.488 52.208 267.184 54.48C266.48 54.576 265.856 54.416 265.312 54C264.768 53.552 264.448 52.976 264.352 52.272C264.256 51.6 264.4 51.008 264.784 50.496C265.2 49.952 265.744 49.632 266.416 49.536C274.512 48.448 280.912 45.936 285.616 42C290.32 38.064 293.568 32.512 295.36 25.344C295.52 24.704 295.888 24.208 296.464 23.856C297.04 23.504 297.648 23.392 298.288 23.52Z" fill="#5A5A5A"/>
</svg>
