<svg width="24" height="25" viewBox="0 0 24 25" fill="none" xmlns="http://www.w3.org/2000/svg">
<g clip-path="url(#clip0_34_1138)">
<path d="M10.4549 22.1968C8.16838 22.2131 5.80586 21.1052 4.02446 19.9864C3.26954 19.5139 2.54177 18.9979 1.84116 18.444C1.60219 18.2539 1.36865 18.0258 1.37952 17.6945C1.37952 17.5044 1.52072 17.4881 1.67823 17.5641C1.89004 17.6673 2.09099 17.8411 2.26478 17.9932C2.91108 18.4331 3.57911 18.8459 4.25799 19.2315C5.51801 19.9375 6.83776 20.7033 8.23899 21.0889C8.81468 21.2464 9.37408 21.3985 9.97694 21.3605C10.5961 21.3224 11.2261 21.1867 11.7964 20.9368C12.1874 20.7685 12.6871 20.5675 12.8934 20.1656C13.089 19.7854 13.0727 19.2206 12.6002 19.0848C12.1439 18.9491 11.6008 19.0088 11.1392 19.0685L9.11339 19.3455C9.11339 19.3455 5.84387 19.9592 9.02106 18.0258C10.1562 17.336 11.5574 16.9178 12.8934 16.9776C13.6321 17.0102 14.3327 17.298 15.0116 17.5587C15.4352 17.7216 15.8697 17.8031 16.3205 17.8574C17.4501 18.004 18.5744 17.8302 19.5411 17.1948C20.2526 16.7277 20.8283 16.038 21.1976 15.2722C21.3008 15.0604 21.3822 14.8377 21.4474 14.6096C21.5452 14.2566 21.6321 13.8981 21.6972 13.5343C21.8276 12.7956 21.8928 12.0461 21.8765 11.2966C21.8656 10.8622 21.833 10.4277 21.7733 9.99318C20.9423 3.91036 15.4026 -0.391067 9.31977 0.282389C9.63478 0.211784 9.95521 0.152042 10.2811 0.108594C16.9016 -0.787537 22.9898 3.85062 23.8914 10.4711C24.7875 17.0916 20.1494 23.1799 13.5289 24.0814C9.64564 24.6083 5.94163 23.2233 3.3673 20.6544C5.23559 21.9307 8.27157 23.6252 11.1989 23.5438H11.2098C11.2532 23.5383 11.2858 23.5003 11.2804 23.4569C11.2804 23.408 11.2424 23.3754 11.1935 23.3754C8.90158 23.4406 6.5119 22.3815 4.70334 21.3061C3.94842 20.8554 3.29669 20.41 2.7916 20.0353C2.76444 20.0135 2.73729 19.9918 2.71013 19.9592C2.52004 19.8235 1.26003 18.8893 1.77055 18.6829C1.76512 18.6666 1.75426 18.6558 1.74883 18.6449C1.76512 18.6449 1.77598 18.6666 1.79228 18.6721C3.41617 19.9592 6.97897 22.4195 10.4549 22.4087C10.4549 22.4087 10.4603 22.4087 10.4657 22.4087C10.52 22.4032 10.5581 22.3598 10.5581 22.3055C10.5581 22.2457 10.5092 22.1968 10.4494 22.2023L10.4549 22.1968Z" fill="#F7CDE4"/>
<path d="M14.1698 9.85736C14.3544 9.90624 14.8975 10.8078 15.0061 11.0739C15.017 11.1011 14.702 10.7318 14.5717 10.558C14.5011 10.4602 14.2512 10.1506 14.148 10.042C14.0937 9.9877 14.0448 9.82477 14.1698 9.85736Z" fill="#C8CCB8"/>
<path d="M13.5832 9.6999C13.757 9.74878 14.2621 10.5852 14.3653 10.835C14.3761 10.8567 14.0828 10.5146 13.9579 10.3516C13.8928 10.2593 13.6592 9.97146 13.5615 9.8737C13.5126 9.81939 13.4637 9.66732 13.5832 9.6999Z" fill="#C8CCB8"/>
<path d="M13.1216 9.64014C13.2628 9.67815 13.681 10.3733 13.7679 10.5797C13.7787 10.6014 13.5343 10.319 13.4312 10.1832C13.3768 10.1072 13.1868 9.86824 13.1053 9.78678C13.0618 9.74333 13.0238 9.61841 13.1216 9.64557V9.64014Z" fill="#C8CCB8"/>
<path d="M19.6987 9.81395C19.8562 9.8411 20.3613 10.5417 20.4753 10.7535C20.4862 10.7752 20.1984 10.4928 20.0789 10.3571C20.0137 10.281 19.7856 10.0475 19.6933 9.96602C19.6444 9.92257 19.5901 9.79222 19.6933 9.81395H19.6987Z" fill="#C8CCB8"/>
<path d="M19.3348 9.86279C19.4814 9.88452 19.9702 10.5308 20.0788 10.7263C20.0897 10.7426 19.8181 10.4874 19.7041 10.3679C19.6389 10.2973 19.4271 10.0855 19.3348 10.0094C19.2859 9.97142 19.237 9.85193 19.3348 9.86822V9.86279Z" fill="#C8CCB8"/>
<path d="M18.9655 9.9443C19.085 9.96602 19.476 10.5037 19.5629 10.6666C19.5683 10.6829 19.3511 10.4657 19.2587 10.3625C19.2099 10.3027 19.0361 10.1235 18.96 10.0584C18.922 10.0258 18.884 9.92257 18.96 9.93887L18.9655 9.9443Z" fill="#C8CCB8"/>
<path d="M17.4882 8.70061C17.5262 8.73319 17.5588 8.77121 17.5968 8.8038C17.5643 8.74405 17.5425 8.67888 17.548 8.62457C17.6077 8.76578 17.7272 8.87983 17.863 8.96673C17.8955 8.99388 17.9281 9.02104 17.9607 9.0482C18.1345 9.14052 18.3192 9.21113 18.5256 9.26544C18.7808 9.30346 19.0741 9.28716 19.2588 9.11337C19.4434 8.93957 19.3619 8.71147 19.4543 8.51052C19.4869 8.43991 19.5901 8.44534 19.6715 8.4725C19.6878 8.47793 19.6987 8.48879 19.715 8.49965C19.6009 8.51595 19.5466 8.67345 19.5249 8.79837C19.4869 8.98845 19.4706 9.21656 19.3294 9.3632C19.2044 9.49354 19.0089 9.50984 18.8406 9.49898C18.8297 9.49898 18.8243 9.49898 18.8134 9.49898C18.6668 9.49898 18.5201 9.47725 18.4061 9.45553C18.178 9.40665 17.9662 9.30346 17.7706 9.17311C17.7543 9.16225 17.7435 9.14595 17.7272 9.13509C17.586 9.00475 17.5045 8.86354 17.4719 8.68974C17.4774 8.68974 17.4828 8.69517 17.4882 8.70061Z" fill="#C8CCB8"/>
<path d="M13.8547 9.15134C13.7515 9.03729 13.6646 8.91238 13.5723 8.78203C13.4854 8.65711 13.3333 8.4453 13.1813 8.46159C13.2193 8.42358 13.2573 8.39642 13.3116 8.40185C13.4528 8.41271 13.6266 8.53763 13.7027 8.63539C13.8384 8.81462 13.9145 8.97212 14.1209 9.07531C14.4087 9.16764 14.7074 9.20565 14.9953 9.12419C15.1473 9.09703 15.2994 9.03186 15.4297 8.92867C15.446 8.92324 15.4623 8.91238 15.4786 8.90151C15.5221 8.8635 15.5547 8.82005 15.5872 8.7766C15.6687 8.67884 15.7339 8.57022 15.7773 8.4453C15.7773 8.49418 15.7773 8.55392 15.7665 8.61367C15.8045 8.54849 15.8371 8.47246 15.8751 8.38556C15.8262 8.92867 15.4135 9.29798 14.9572 9.43919C14.6314 9.50436 14.2512 9.4229 13.9688 9.22738C13.9308 9.20565 13.8982 9.1785 13.8656 9.15134H13.8547Z" fill="#C8CCB8"/>
<path d="M14.8323 11.9049C15.3972 12.1873 16.3042 11.6497 16.7821 11.5736C17.0048 11.541 17.26 11.5682 17.4664 11.6442C17.6185 11.6985 17.7543 11.7691 17.8955 11.8397C17.9606 11.8723 18.0312 11.9158 18.1018 11.9538C18.2159 11.981 18.33 11.9918 18.4549 11.9864C18.4603 11.9864 18.4657 11.9864 18.4712 11.9864C18.3843 12.0733 18.2702 12.1276 18.1453 12.1547C17.9661 12.1113 17.7814 12.057 17.5968 12.0353C17.5587 12.0353 17.5262 12.0244 17.4881 12.0244C17.4067 12.0135 17.3252 12.0027 17.2437 11.9972C16.9233 11.9864 16.6029 12.0081 16.2824 12.0461C16.1032 12.0678 15.924 12.0896 15.7393 12.1167C15.5547 12.1439 15.37 12.2036 15.1853 12.2199C15.0061 12.1493 14.8703 12.0353 14.7834 11.8832C14.7997 11.8832 14.8106 11.8995 14.8269 11.9103L14.8323 11.9049Z" fill="#C8CCB8"/>
<path d="M16.9342 11.8886C17.1841 11.8778 17.423 11.8886 17.6674 11.8995C17.6946 11.8995 17.7218 11.8995 17.7435 11.9049C17.7218 11.8886 17.7055 11.8723 17.6837 11.856C17.3959 11.7528 17.1298 11.7094 16.793 11.7583C16.5921 11.7854 16.3966 11.8506 16.201 11.9103C16.4454 11.8941 16.6844 11.8941 16.9288 11.8832L16.9342 11.8886Z" fill="#C8CCB8"/>
<path d="M16.4291 12.8934C16.3476 12.8554 16.2553 12.8119 16.1738 12.7631C16.1738 12.7576 16.1847 12.7522 16.1956 12.7468C16.3802 12.7685 16.5594 12.7956 16.7441 12.8119C16.9831 12.8282 17.2818 12.8662 17.5262 12.8065C17.3578 12.9477 17.1188 13.0238 16.8581 13.0563C16.7006 13.0238 16.5594 12.9586 16.4182 12.8934H16.4291Z" fill="#C8CCB8"/>
<path d="M1.39041 16.7168C-0.385561 14.0665 -0.423578 10.4385 1.06454 7.60347C2.55266 4.76844 5.36054 2.62316 8.49428 1.88453C10.3843 1.43918 12.3504 1.52608 14.1969 2.24841C12.9098 2.17781 11.7475 3.1717 11.2315 4.35025C10.721 5.5288 10.7265 6.85398 10.7808 8.13572C10.8351 9.41746 10.9274 10.7209 10.5744 11.9592C10.1779 13.3224 9.2492 14.501 8.1141 15.3591C6.979 16.2172 4.76855 17.0319 3.39991 17.4283C3.30215 12.5295 5.37683 7.56002 8.99394 4.20361C4.57846 6.69648 1.67825 11.6985 1.39041 16.7168Z" fill="#51B2ED"/>
<path d="M11.313 1.14049C11.1881 0.972125 11.0034 0.841779 10.8079 0.754881C10.607 0.662552 10.3897 0.624535 10.167 0.60281C9.9498 0.586517 9.72712 0.60281 9.51531 0.624535C9.3035 0.65169 9.09712 0.684277 8.89074 0.722294C8.05978 0.879796 7.26141 1.11333 6.46847 1.31971C5.67553 1.5261 4.88259 1.71075 4.07879 1.7705C3.67689 1.80308 3.28042 1.80308 2.92196 1.67817C2.74274 1.61842 2.57437 1.51523 2.43317 1.37946C2.29196 1.24368 2.1779 1.06988 2.12902 0.863503C2.11816 1.07532 2.18877 1.29256 2.31368 1.47722C2.4386 1.66187 2.61239 1.81394 2.80791 1.92257C3.00343 2.03119 3.22067 2.10179 3.43792 2.13981C3.65516 2.18326 3.87241 2.19955 4.08965 2.19955C4.94776 2.22128 5.79501 2.05834 6.60424 1.85196C7.41891 1.64015 8.20099 1.37403 8.98849 1.14049C9.38496 1.02644 9.776 0.906952 10.167 0.868934C10.5581 0.830916 10.9708 0.890658 11.313 1.14049Z" fill="#51B2ED"/>
</g>
<defs>
<clipPath id="clip0_34_1138">
<rect width="24" height="24.1901" fill="white"/>
</clipPath>
</defs>
</svg>
