<svg width="56" height="57" viewBox="0 0 56 57" fill="none" xmlns="http://www.w3.org/2000/svg">
<g clip-path="url(#clip0_5_2678)">
<path d="M24.3946 51.7927C19.0595 51.8307 13.5469 49.2455 9.39034 46.635C7.62886 45.5325 5.93073 44.3286 4.29597 43.036C3.73838 42.5924 3.19346 42.0602 3.21881 41.2872C3.21881 40.8436 3.54829 40.8056 3.9158 40.983C4.41003 41.2238 4.87891 41.6293 5.28443 41.9842C6.79247 43.0106 8.35119 43.9737 9.93526 44.8735C12.8753 46.5209 15.9547 48.3078 19.2242 49.2075C20.5675 49.575 21.8728 49.9298 23.2795 49.8411C24.7241 49.7524 26.1941 49.4356 27.5248 48.8527C28.4372 48.4598 29.6031 47.9909 30.0846 47.0532C30.5408 46.1661 30.5028 44.8482 29.4003 44.5313C28.3358 44.2145 27.0686 44.3539 25.9914 44.4933L21.2645 45.1396C21.2645 45.1396 13.6356 46.5716 21.0491 42.0602C23.6977 40.4508 26.9672 39.475 30.0846 39.6144C31.8081 39.6904 33.4428 40.3621 35.0269 40.9704C36.0154 41.3505 37.0292 41.5406 38.081 41.6673C40.7169 42.0095 43.3401 41.604 45.5958 40.1213C47.2559 39.0315 48.5992 37.422 49.4609 35.6352C49.7017 35.141 49.8918 34.6214 50.0439 34.0892C50.272 33.2654 50.4748 32.4291 50.6268 31.58C50.931 29.8565 51.083 28.1077 51.045 26.3589C51.0197 25.3451 50.9436 24.3313 50.8042 23.3175C48.8653 9.12423 35.9393 -0.912429 21.7461 0.658968C22.4811 0.494225 23.2288 0.354827 23.9891 0.253446C39.437 -1.83752 53.6429 8.98484 55.7465 24.4327C57.8375 39.8805 47.0151 54.0864 31.5673 56.1901C22.5064 57.4193 13.8638 54.1878 7.85696 48.1937C12.2163 51.1718 19.3003 55.1256 26.1308 54.9355H26.1561C26.2575 54.9228 26.3335 54.8341 26.3209 54.7327C26.3209 54.6187 26.2322 54.5427 26.1181 54.5427C20.7703 54.6947 15.1944 52.2236 10.9744 49.7144C9.21292 48.6626 7.69222 47.6234 6.51367 46.749C6.45031 46.6983 6.38695 46.6477 6.32358 46.5716C5.88004 46.2548 2.94001 44.0751 4.13123 43.5936C4.11856 43.5556 4.09321 43.5302 4.08054 43.5049C4.11856 43.5049 4.1439 43.5556 4.18192 43.5682C7.97101 46.5716 16.2842 52.3123 24.3946 52.2869C24.3946 52.2869 24.4073 52.2869 24.42 52.2869C24.5467 52.2743 24.6354 52.1729 24.6354 52.0462C24.6354 51.9068 24.5214 51.7927 24.382 51.8054L24.3946 51.7927Z" fill="#F7CDE4"/>
<path d="M33.0626 23.0007C33.4935 23.1147 34.7607 25.2184 35.0142 25.8393C35.0395 25.9027 34.3045 25.041 34.0004 24.6354C33.8357 24.4073 33.2527 23.685 33.0119 23.4316C32.8852 23.3048 32.7712 22.9246 33.0626 23.0007Z" fill="#C8CCB8"/>
<path d="M31.694 22.6332C32.0996 22.7472 33.2781 24.6988 33.5189 25.2818C33.5442 25.3324 32.8599 24.5341 32.5685 24.1539C32.4164 23.9385 31.8715 23.2668 31.6434 23.0387C31.5293 22.912 31.4152 22.5572 31.694 22.6332Z" fill="#C8CCB8"/>
<path d="M30.6169 22.4938C30.9463 22.5825 31.9221 24.2046 32.1249 24.6861C32.1502 24.7368 31.58 24.0778 31.3392 23.761C31.2125 23.5836 30.7689 23.026 30.5788 22.8359C30.4775 22.7346 30.3887 22.4431 30.6169 22.5064V22.4938Z" fill="#C8CCB8"/>
<path d="M45.9633 22.8993C46.3308 22.9627 47.5093 24.5974 47.7755 25.0917C47.8008 25.1423 47.1292 24.4834 46.8504 24.1666C46.6983 23.9891 46.166 23.4442 45.9506 23.2541C45.8366 23.1528 45.7098 22.8486 45.9506 22.8993H45.9633Z" fill="#C8CCB8"/>
<path d="M45.1142 23.0133C45.4564 23.064 46.5969 24.5721 46.8504 25.0283C46.8757 25.0663 46.2421 24.4707 45.976 24.1919C45.8239 24.0271 45.3297 23.5329 45.1142 23.3555C45.0002 23.2668 44.8861 22.988 45.1142 23.026V23.0133Z" fill="#C8CCB8"/>
<path d="M44.2525 23.2035C44.5313 23.2541 45.4437 24.5087 45.6465 24.8889C45.6591 24.9269 45.1522 24.42 44.9368 24.1792C44.8228 24.0398 44.4172 23.6216 44.2398 23.4696C44.1511 23.3935 44.0624 23.1528 44.2398 23.1908L44.2525 23.2035Z" fill="#C8CCB8"/>
<path d="M40.8056 20.3014C40.8943 20.3774 40.9703 20.4662 41.0591 20.5422C40.983 20.4028 40.9323 20.2507 40.945 20.124C41.0844 20.4535 41.3632 20.7196 41.68 20.9224C41.756 20.9857 41.8321 21.0491 41.9081 21.1125C42.3136 21.3279 42.7445 21.4926 43.2261 21.6194C43.8217 21.7081 44.506 21.67 44.9368 21.2645C45.3677 20.859 45.1776 20.3268 45.3931 19.8579C45.4691 19.6931 45.7099 19.7058 45.9 19.7692C45.938 19.7818 45.9633 19.8072 46.0013 19.8325C45.7352 19.8705 45.6085 20.2381 45.5578 20.5295C45.4691 20.9731 45.4311 21.5053 45.1016 21.8475C44.8101 22.1516 44.3539 22.1896 43.9611 22.1643C43.9357 22.1643 43.923 22.1643 43.8977 22.1643C43.5555 22.1643 43.2134 22.1136 42.9473 22.0629C42.415 21.9488 41.9208 21.7081 41.4646 21.4039C41.4266 21.3786 41.4012 21.3406 41.3632 21.3152C41.0337 21.0111 40.8436 20.6816 40.7676 20.2761C40.7803 20.2761 40.7929 20.2887 40.8056 20.3014Z" fill="#C8CCB8"/>
<path d="M32.3277 21.3532C32.0869 21.0871 31.8841 20.7956 31.6687 20.4915C31.4659 20.2 31.1111 19.7058 30.7563 19.7438C30.845 19.6551 30.9337 19.5918 31.0604 19.6044C31.3899 19.6298 31.7954 19.9212 31.9729 20.1493C32.2897 20.5675 32.4671 20.935 32.9486 21.1758C33.6203 21.3913 34.3173 21.48 34.9889 21.2899C35.3438 21.2265 35.6986 21.0744 36.0027 20.8337C36.0407 20.821 36.0788 20.7956 36.1168 20.7703C36.2182 20.6816 36.2942 20.5802 36.3702 20.4788C36.5603 20.2507 36.7124 19.9973 36.8138 19.7058C36.8138 19.8199 36.8138 19.9593 36.7884 20.0987C36.8771 19.9466 36.9532 19.7692 37.0419 19.5664C36.9278 20.8337 35.9647 21.6954 34.9002 22.0249C34.1399 22.177 33.2528 21.9869 32.5938 21.5307C32.5051 21.48 32.4291 21.4166 32.353 21.3532H32.3277Z" fill="#C8CCB8"/>
<path d="M34.6087 27.7782C35.9267 28.4372 38.043 27.1826 39.1582 27.0052C39.6778 26.9292 40.2734 26.9925 40.7549 27.17C41.1098 27.2967 41.4266 27.4614 41.7561 27.6262C41.9081 27.7022 42.0729 27.8036 42.2376 27.8923C42.5037 27.9557 42.7699 27.981 43.0613 27.9683C43.074 27.9683 43.0867 27.9683 43.0993 27.9683C42.8966 28.1711 42.6305 28.2978 42.339 28.3612C41.9208 28.2598 41.4899 28.1331 41.0591 28.0824C40.9704 28.0824 40.8943 28.057 40.8056 28.057C40.6155 28.0317 40.4254 28.0063 40.2354 27.9937C39.4877 27.9683 38.74 28.019 37.9923 28.1077C37.5741 28.1584 37.1559 28.2091 36.7251 28.2725C36.2942 28.3358 35.8633 28.4752 35.4325 28.5132C35.0143 28.3485 34.6975 28.0824 34.4947 27.7275C34.5327 27.7275 34.5581 27.7656 34.5961 27.7909L34.6087 27.7782Z" fill="#C8CCB8"/>
<path d="M39.513 27.7402C40.0959 27.7149 40.6535 27.7402 41.2238 27.7655C41.2871 27.7655 41.3505 27.7655 41.4012 27.7782C41.3505 27.7402 41.3125 27.7022 41.2618 27.6642C40.5901 27.4234 39.9692 27.322 39.1835 27.4361C38.7146 27.4994 38.2584 27.6515 37.8022 27.7909C38.3724 27.7529 38.93 27.7529 39.5003 27.7275L39.513 27.7402Z" fill="#C8CCB8"/>
<path d="M38.3344 30.0846C38.1444 29.9959 37.9289 29.8945 37.7388 29.7805C37.7388 29.7678 37.7642 29.7551 37.7895 29.7425C38.2204 29.7932 38.6386 29.8565 39.0694 29.8945C39.627 29.9326 40.324 30.0213 40.8943 29.8819C40.5014 30.2113 39.9439 30.3888 39.3356 30.4648C38.9681 30.3888 38.6386 30.2367 38.3091 30.0846H38.3344Z" fill="#C8CCB8"/>
<path d="M3.24416 39.0061C-0.899764 32.8219 -0.988471 24.3566 2.48381 17.7416C5.95609 11.1265 12.5078 6.12085 19.8199 4.39738C24.2299 3.35823 28.8174 3.56099 33.126 5.24644C30.1226 5.0817 27.4107 7.40078 26.2068 10.1507C25.0156 12.9007 25.0283 15.9928 25.155 18.9835C25.2817 21.9742 25.4972 25.0156 24.6734 27.905C23.7483 31.0858 21.5813 33.8357 18.9328 35.838C16.2842 37.8402 11.1265 39.7411 7.933 40.6662C7.7049 29.2356 12.5458 17.6402 20.9857 9.80856C10.6829 15.6253 3.91581 27.2967 3.24416 39.0061Z" fill="#51B2ED"/>
<path d="M26.3969 2.6612C26.1055 2.26835 25.6746 1.96421 25.2184 1.76145C24.7495 1.54602 24.2426 1.45731 23.723 1.40662C23.2161 1.3686 22.6965 1.40662 22.2023 1.45731C21.7081 1.52067 21.2265 1.59671 20.745 1.68541C18.8061 2.05292 16.9432 2.59784 15.093 3.0794C13.2428 3.56095 11.3926 3.99182 9.51709 4.13122C8.57932 4.20725 7.65422 4.20725 6.81783 3.91578C6.39964 3.77639 6.00679 3.53561 5.6773 3.21879C5.34782 2.90198 5.08169 2.49646 4.96764 2.0149C4.9423 2.50913 5.10704 3.01603 5.39851 3.4469C5.68998 3.87777 6.0955 4.2326 6.55171 4.48605C7.00792 4.7395 7.51482 4.90424 8.02173 4.99295C8.52863 5.09433 9.03553 5.13235 9.54243 5.13235C11.5447 5.18304 13.5216 4.80286 15.4098 4.32131C17.3107 3.82708 19.1356 3.20612 20.9731 2.6612C21.8982 2.39508 22.8106 2.11628 23.723 2.02757C24.6354 1.93887 25.5986 2.07826 26.3969 2.6612Z" fill="#51B2ED"/>
</g>
<defs>
<clipPath id="clip0_5_2678">
<rect width="56" height="56.4435" fill="white"/>
</clipPath>
</defs>
</svg>
