<svg width="24" height="24" viewBox="0 0 24 24" fill="none" xmlns="http://www.w3.org/2000/svg">
<path d="M6.432 11.68C6.21867 11.68 6.03733 11.6107 5.888 11.472C5.74933 11.3227 5.68 11.1413 5.68 10.928C5.68 10.7147 5.75467 10.5333 5.904 10.384C6.05333 10.2347 6.22933 10.16 6.432 10.16H17.552C17.7547 10.16 17.9307 10.2347 18.08 10.384C18.24 10.5333 18.32 10.7147 18.32 10.928C18.32 11.1307 18.2453 11.3067 18.096 11.456C17.9467 11.6053 17.7653 11.68 17.552 11.68H13.056C12.96 11.68 12.912 11.728 12.912 11.824V17.728C12.912 17.9733 12.8213 18.1867 12.64 18.368C12.4693 18.5493 12.2613 18.64 12.016 18.64H11.984C11.7387 18.64 11.5253 18.5493 11.344 18.368C11.1627 18.1867 11.072 17.9733 11.072 17.728V11.824C11.072 11.728 11.0293 11.68 10.944 11.68H6.432ZM6.432 7.52C6.21867 7.52 6.03733 7.45067 5.888 7.312C5.74933 7.16267 5.68 6.98133 5.68 6.768C5.68 6.55467 5.75467 6.37333 5.904 6.224C6.05333 6.07467 6.22933 6 6.432 6H17.552C17.7547 6 17.9307 6.07467 18.08 6.224C18.24 6.37333 18.32 6.55467 18.32 6.768C18.32 6.97067 18.2453 7.14667 18.096 7.296C17.9467 7.44533 17.7653 7.52 17.552 7.52H6.432Z" fill="#5A5A5A"/>
</svg>
