<svg width="24" height="25" viewBox="0 0 24 25" fill="none" xmlns="http://www.w3.org/2000/svg">
<path d="M11.0984 4.34855H5.4119C3.52756 4.34855 2 5.87606 2 7.76034V19.1331C2 21.0174 3.52756 22.5449 5.4119 22.5449H16.7849C18.6692 22.5449 20.1968 21.0174 20.1968 19.1331L20.1968 13.4467M7.68649 16.8584L11.8244 16.0247C12.044 15.9805 12.2457 15.8723 12.4041 15.7138L21.6671 6.44602C22.1112 6.00168 22.1109 5.28143 21.6664 4.83746L19.7042 2.8775C19.2599 2.43372 18.54 2.43402 18.0961 2.87818L8.8321 12.1469C8.674 12.3051 8.56605 12.5064 8.52175 12.7256L7.68649 16.8584Z" stroke="#888888" stroke-width="2" stroke-linecap="round" stroke-linejoin="round"/>
</svg>
