<svg width="24" height="25" viewBox="0 0 24 25" fill="none" xmlns="http://www.w3.org/2000/svg">
<path d="M5.40002 19.5603C5.86119 19.0438 8.02107 16.667 8.65403 16.667H15.3464C16.2636 16.667 18.136 18.6372 18.6 19.3317M21.6 12.3603C21.6 17.6622 17.302 21.9603 12 21.9603C6.69809 21.9603 2.40002 17.6622 2.40002 12.3603C2.40002 7.05835 6.69809 2.76028 12 2.76028C17.302 2.76028 21.6 7.05835 21.6 12.3603ZM15.4389 9.08824C15.4389 7.25673 13.8927 5.76028 12.0003 5.76028C10.1079 5.76028 8.56176 7.25673 8.56176 9.08824C8.56176 10.9198 10.1079 12.4162 12.0003 12.4162C13.8927 12.4162 15.4389 10.9198 15.4389 9.08824Z" stroke="#888888" stroke-width="2"/>
</svg>
