<svg width="81" height="106" viewBox="0 0 81 106" fill="none" xmlns="http://www.w3.org/2000/svg">
<circle cx="40.5" cy="40" r="40" fill="#E9E9E9"/>
<circle cx="40.5" cy="40" r="37" stroke="white" stroke-opacity="0.62" stroke-width="6"/>
<path d="M28.7998 42.2931V47.2343C28.7998 47.9831 29.0948 48.7013 29.6199 49.2308C30.145 49.7603 30.8572 50.0578 31.5998 50.0578H48.3998C49.1424 50.0578 49.8546 49.7603 50.3797 49.2308C50.9048 48.7013 51.1998 47.9831 51.1998 47.2343V42.2931M40.0576 41.9422L40.0576 25.9422M40.0576 25.9422L33.6576 32.0557M40.0576 25.9422L46.4575 32.0557" stroke="#5A5A5A" stroke-width="2" stroke-linecap="round" stroke-linejoin="round"/>
<path d="M18.38 100.176C18.1987 100.293 18.0013 100.325 17.788 100.272C17.5747 100.229 17.4147 100.112 17.308 99.92C17.2013 99.7173 17.1747 99.504 17.228 99.28C17.2813 99.056 17.404 98.8853 17.596 98.768C19.7827 97.36 21.4947 95.8773 22.732 94.32C22.7853 94.2453 22.7693 94.208 22.684 94.208H18.22C18.0173 94.208 17.8467 94.1387 17.708 94C17.5693 93.8613 17.5 93.6907 17.5 93.488C17.5 93.2853 17.5693 93.1147 17.708 92.976C17.8467 92.8373 18.0173 92.768 18.22 92.768H23.388C23.4733 92.768 23.516 92.72 23.516 92.624V90.416C23.516 90.32 23.4733 90.272 23.388 90.272H18.86C18.6573 90.272 18.4867 90.208 18.348 90.08C18.2093 89.9413 18.14 89.7707 18.14 89.568C18.14 89.3653 18.2093 89.1947 18.348 89.056C18.4867 88.9067 18.6573 88.832 18.86 88.832H23.388C23.4733 88.832 23.516 88.7893 23.516 88.704V87.744C23.516 87.5093 23.6013 87.3067 23.772 87.136C23.9427 86.9653 24.1453 86.88 24.38 86.88C24.6147 86.88 24.8173 86.9653 24.988 87.136C25.1587 87.3067 25.244 87.5093 25.244 87.744V88.704C25.244 88.7893 25.2867 88.832 25.372 88.832H29.9C30.1027 88.832 30.2733 88.9067 30.412 89.056C30.5507 89.1947 30.62 89.3653 30.62 89.568C30.62 89.7707 30.5507 89.9413 30.412 90.08C30.2733 90.208 30.1027 90.272 29.9 90.272H25.372C25.2867 90.272 25.244 90.32 25.244 90.416V92.624C25.244 92.72 25.2867 92.768 25.372 92.768H30.54C30.7427 92.768 30.9133 92.8373 31.052 92.976C31.1907 93.1147 31.26 93.2853 31.26 93.488C31.26 93.6907 31.1907 93.8613 31.052 94C30.9133 94.1387 30.7427 94.208 30.54 94.208H26.076C25.9907 94.208 25.9747 94.2453 26.028 94.32C27.2653 95.8773 28.9773 97.36 31.164 98.768C31.356 98.8853 31.4787 99.056 31.532 99.28C31.596 99.504 31.5747 99.7173 31.468 99.92C31.3507 100.112 31.1853 100.235 30.972 100.288C30.7587 100.341 30.5613 100.309 30.38 100.192C28.3213 98.816 26.6413 97.3067 25.34 95.664C25.3187 95.6427 25.2973 95.6373 25.276 95.648C25.2547 95.648 25.244 95.6587 25.244 95.68V100.576C25.244 100.811 25.1587 101.013 24.988 101.184C24.8173 101.355 24.6147 101.44 24.38 101.44C24.1453 101.44 23.9427 101.355 23.772 101.184C23.6013 101.013 23.516 100.811 23.516 100.576V95.632C23.516 95.6107 23.5053 95.6 23.484 95.6C23.4627 95.5893 23.4467 95.5947 23.436 95.616C22.1987 97.216 20.5133 98.736 18.38 100.176ZM37.284 99.68C37.3693 99.68 37.4013 99.6373 37.38 99.552C37.2413 99.1787 37.044 98.704 36.788 98.128C36.756 98.0427 36.692 98 36.596 98H36.436C36.1907 98 35.9773 97.9093 35.796 97.728C35.6253 97.5467 35.54 97.3333 35.54 97.088V94.864C35.54 94.6187 35.6253 94.4053 35.796 94.224C35.9773 94.0427 36.1907 93.952 36.436 93.952H44.788C45.0333 93.952 45.2467 94.0427 45.428 94.224C45.6093 94.4053 45.7 94.6187 45.7 94.864V97.088C45.7 97.3333 45.6093 97.5467 45.428 97.728C45.2467 97.9093 45.0333 98 44.788 98H44.628C44.532 98 44.468 98.0427 44.436 98.128C44.2333 98.5867 43.972 99.0613 43.652 99.552C43.6307 99.5733 43.6253 99.6 43.636 99.632C43.6573 99.664 43.684 99.68 43.716 99.68H47.012C47.2147 99.68 47.3853 99.7493 47.524 99.888C47.6627 100.027 47.732 100.197 47.732 100.4C47.732 100.603 47.6627 100.773 47.524 100.912C47.3853 101.051 47.2147 101.12 47.012 101.12H34.212C34.0093 101.12 33.8387 101.051 33.7 100.912C33.5613 100.773 33.492 100.603 33.492 100.4C33.492 100.197 33.5613 100.027 33.7 99.888C33.8387 99.7493 34.0093 99.68 34.212 99.68H37.284ZM42.644 98.112C42.6547 98.0907 42.6493 98.0693 42.628 98.048C42.6173 98.016 42.596 98 42.564 98H38.66C38.564 98 38.5373 98.0427 38.58 98.128C38.804 98.6613 38.9907 99.136 39.14 99.552C39.172 99.6373 39.2307 99.68 39.316 99.68H41.588C41.6733 99.68 41.7427 99.6427 41.796 99.568C42.1373 99.056 42.42 98.5707 42.644 98.112ZM37.348 96.768H43.876C43.972 96.768 44.02 96.72 44.02 96.624V95.376C44.02 95.28 43.972 95.232 43.876 95.232H37.348C37.2627 95.232 37.22 95.28 37.22 95.376V96.624C37.22 96.72 37.2627 96.768 37.348 96.768ZM34.452 94.368C34.2707 94.4747 34.0787 94.4907 33.876 94.416C33.6733 94.3413 33.5293 94.208 33.444 94.016C33.3587 93.8133 33.3533 93.6107 33.428 93.408C33.5027 93.1947 33.636 93.0347 33.828 92.928C34.6707 92.4693 35.3373 92.0747 35.828 91.744C35.86 91.7333 35.876 91.7067 35.876 91.664C35.876 91.6213 35.8653 91.5893 35.844 91.568C34.8947 90.7147 34.404 90.272 34.372 90.24C34.212 90.1013 34.1267 89.9307 34.116 89.728C34.116 89.5253 34.1907 89.3493 34.34 89.2C34.5 89.0507 34.6867 88.9707 34.9 88.96C35.1133 88.9493 35.3053 89.0133 35.476 89.152C35.6787 89.3227 36.2173 89.808 37.092 90.608C37.1667 90.6613 37.236 90.6667 37.3 90.624C37.9933 90.0267 38.564 89.4293 39.012 88.832C39.0333 88.8107 39.0333 88.7893 39.012 88.768C39.0013 88.736 38.98 88.72 38.948 88.72H36.068C35.876 88.72 35.7107 88.656 35.572 88.528C35.4333 88.3893 35.364 88.224 35.364 88.032C35.364 87.84 35.4333 87.6747 35.572 87.536C35.7107 87.3973 35.876 87.328 36.068 87.328H40.5C41.0867 87.328 41.54 87.5893 41.86 88.112C42.0733 88.4533 42.3027 88.7787 42.548 89.088C42.6013 89.1627 42.66 89.168 42.724 89.104C43.0867 88.6987 43.428 88.2933 43.748 87.888C43.876 87.7173 44.0413 87.616 44.244 87.584C44.4467 87.5413 44.6387 87.5733 44.82 87.68C45.0013 87.7973 45.108 87.952 45.14 88.144C45.1827 88.336 45.1453 88.512 45.028 88.672C44.6013 89.216 44.1747 89.7173 43.748 90.176C43.684 90.24 43.684 90.304 43.748 90.368C43.9933 90.592 44.292 90.848 44.644 91.136C44.7187 91.1893 44.7827 91.1893 44.836 91.136C45.188 90.7627 45.5933 90.2773 46.052 89.68C46.18 89.5093 46.3453 89.408 46.548 89.376C46.7613 89.3333 46.9587 89.3653 47.14 89.472C47.3213 89.5893 47.428 89.7493 47.46 89.952C47.5027 90.144 47.4653 90.32 47.348 90.48C46.9747 90.9493 46.5427 91.4507 46.052 91.984C46.0307 92.0053 46.02 92.0373 46.02 92.08C46.0307 92.1227 46.052 92.1493 46.084 92.16C46.5427 92.448 46.98 92.704 47.396 92.928C47.588 93.0347 47.7213 93.1947 47.796 93.408C47.8707 93.6107 47.8653 93.8133 47.78 94.016C47.6947 94.208 47.5507 94.3413 47.348 94.416C47.1453 94.48 46.9533 94.4587 46.772 94.352C45.588 93.6907 44.5533 92.9867 43.668 92.24C43.6253 92.2187 43.5933 92.24 43.572 92.304C43.572 92.496 43.5027 92.6613 43.364 92.8C43.2253 92.928 43.06 92.992 42.868 92.992H38.356C38.164 92.992 37.9987 92.928 37.86 92.8C37.7213 92.6613 37.652 92.496 37.652 92.304C37.652 92.2827 37.636 92.2667 37.604 92.256C37.5827 92.2347 37.5667 92.2293 37.556 92.24C36.628 93.0187 35.5933 93.728 34.452 94.368ZM40.532 89.04C39.924 89.904 39.2093 90.7253 38.388 91.504C38.3667 91.5147 38.3613 91.536 38.372 91.568C38.3827 91.5893 38.3987 91.6 38.42 91.6H42.804C42.8253 91.6 42.8413 91.5893 42.852 91.568C42.8627 91.536 42.8573 91.5147 42.836 91.504C41.972 90.6827 41.252 89.856 40.676 89.024C40.6333 88.96 40.5853 88.9653 40.532 89.04ZM51.644 98.016C51.548 98.1653 51.4147 98.2613 51.244 98.304C51.0733 98.3467 50.9133 98.32 50.764 98.224C50.6147 98.128 50.5187 97.9947 50.476 97.824C50.3373 97.2053 50.1933 96.6133 50.044 96.048C49.9907 95.8773 50.0067 95.7173 50.092 95.568C50.1773 95.408 50.3053 95.3067 50.476 95.264C50.6467 95.2107 50.812 95.2267 50.972 95.312C51.132 95.3973 51.2333 95.5253 51.276 95.696C51.3827 96.0693 51.532 96.672 51.724 97.504C51.7667 97.6853 51.74 97.856 51.644 98.016ZM54.716 95.2C54.8547 95.104 55.0093 95.072 55.18 95.104C55.3507 95.136 55.4787 95.2213 55.564 95.36C55.66 95.4987 55.6867 95.6533 55.644 95.824C55.5053 96.4427 55.3773 96.944 55.26 97.328C55.2173 97.4987 55.1213 97.6267 54.972 97.712C54.8227 97.7867 54.6627 97.8027 54.492 97.76C54.332 97.7173 54.2093 97.6267 54.124 97.488C54.0493 97.3387 54.0333 97.184 54.076 97.024C54.172 96.6933 54.2947 96.208 54.444 95.568C54.4867 95.408 54.5773 95.2853 54.716 95.2ZM50.268 91.344C50.1187 91.472 49.9587 91.504 49.788 91.44C49.6173 91.3653 49.5107 91.232 49.468 91.04C49.3613 90.5067 49.516 90.0587 49.932 89.696C50.5187 89.1733 51.116 88.5333 51.724 87.776C52.0547 87.36 52.4653 87.152 52.956 87.152C53.4467 87.152 53.8787 87.3493 54.252 87.744C54.7107 88.2347 55.1853 88.656 55.676 89.008C55.8573 89.136 55.9747 89.3067 56.028 89.52C56.092 89.7227 56.0867 89.9253 56.012 90.128L55.868 90.48C55.8253 90.5653 55.7613 90.624 55.676 90.656C55.5907 90.688 55.5053 90.6773 55.42 90.624C55.3987 90.6027 55.388 90.608 55.388 90.64V90.72C55.388 90.9547 55.3027 91.152 55.132 91.312C54.972 91.472 54.7747 91.552 54.54 91.552H53.836C53.74 91.552 53.692 91.6 53.692 91.696V92.992C53.692 93.0773 53.74 93.12 53.836 93.12H54.956C55.148 93.12 55.3133 93.1893 55.452 93.328C55.5907 93.4667 55.66 93.632 55.66 93.824C55.66 94.016 55.5907 94.1813 55.452 94.32C55.3133 94.4587 55.148 94.528 54.956 94.528H53.836C53.74 94.528 53.692 94.5707 53.692 94.656V98.448C53.692 98.5333 53.74 98.5653 53.836 98.544C54.0067 98.4907 54.2467 98.416 54.556 98.32C54.876 98.2133 55.0893 98.144 55.196 98.112C55.3347 98.0693 55.4733 98.08 55.612 98.144C55.7507 98.1973 55.852 98.2933 55.916 98.432C55.9587 98.496 56.0067 98.5067 56.06 98.464C57.0627 97.728 57.9907 96.9067 58.844 96C58.908 95.936 58.94 95.856 58.94 95.76V94.064C58.94 93.968 58.8973 93.92 58.812 93.92H56.284C56.092 93.92 55.9267 93.8507 55.788 93.712C55.6493 93.5733 55.58 93.408 55.58 93.216C55.58 93.024 55.6493 92.864 55.788 92.736C55.9267 92.5973 56.092 92.528 56.284 92.528H61.324C61.42 92.528 61.468 92.48 61.468 92.384V91.456C61.468 91.3707 61.42 91.328 61.324 91.328H56.956C56.7747 91.328 56.62 91.264 56.492 91.136C56.364 90.9973 56.3 90.8373 56.3 90.656C56.3 90.4747 56.364 90.32 56.492 90.192C56.62 90.064 56.7747 90 56.956 90H61.324C61.42 90 61.468 89.9573 61.468 89.872V88.976C61.468 88.8907 61.42 88.848 61.324 88.848H56.796C56.604 88.848 56.4387 88.7787 56.3 88.64C56.172 88.5013 56.108 88.336 56.108 88.144C56.108 87.952 56.172 87.7867 56.3 87.648C56.4387 87.5093 56.604 87.44 56.796 87.44H62.268C62.5133 87.44 62.7267 87.5307 62.908 87.712C63.0893 87.8933 63.18 88.1067 63.18 88.352V92.384C63.18 92.48 63.228 92.528 63.324 92.528H63.516C63.708 92.528 63.8733 92.5973 64.012 92.736C64.1507 92.864 64.22 93.024 64.22 93.216C64.22 93.408 64.1507 93.5733 64.012 93.712C63.8733 93.8507 63.708 93.92 63.516 93.92H60.604C60.5933 93.92 60.588 93.9253 60.588 93.936V93.968C60.8013 94.5973 61.084 95.2373 61.436 95.888C61.4787 95.9733 61.532 95.984 61.596 95.92C61.9907 95.5253 62.3427 95.136 62.652 94.752C62.78 94.6027 62.94 94.5173 63.132 94.496C63.3347 94.464 63.5107 94.512 63.66 94.64C63.82 94.7787 63.9107 94.9493 63.932 95.152C63.964 95.344 63.916 95.52 63.788 95.68C63.3507 96.2347 62.8867 96.7467 62.396 97.216C62.332 97.2693 62.3267 97.3333 62.38 97.408C62.8493 98.0587 63.3827 98.6773 63.98 99.264C64.14 99.424 64.2253 99.6213 64.236 99.856C64.2573 100.08 64.1933 100.277 64.044 100.448C63.8947 100.619 63.7027 100.709 63.468 100.72C63.244 100.731 63.0573 100.651 62.908 100.48C62.0227 99.5307 61.2653 98.4 60.636 97.088C60.6253 97.0773 60.6147 97.072 60.604 97.072C60.5933 97.072 60.588 97.0827 60.588 97.104V98.864C60.588 99.9413 60.4813 100.613 60.268 100.88C60.0547 101.147 59.5053 101.28 58.62 101.28C58.268 101.28 57.948 101.269 57.66 101.248C57.468 101.237 57.3027 101.163 57.164 101.024C57.0253 100.885 56.9507 100.72 56.94 100.528C56.9293 100.347 56.988 100.192 57.116 100.064C57.244 99.936 57.3987 99.8773 57.58 99.888C58.028 99.9093 58.284 99.92 58.348 99.92C58.6147 99.92 58.78 99.872 58.844 99.776C58.908 99.68 58.94 99.4133 58.94 98.976V97.952C58.94 97.9307 58.9293 97.9147 58.908 97.904C58.8867 97.8933 58.8653 97.8987 58.844 97.92C57.9587 98.8373 56.9773 99.6853 55.9 100.464C55.7187 100.592 55.5213 100.64 55.308 100.608C55.0947 100.576 54.9133 100.475 54.764 100.304C54.6787 100.197 54.6253 100.064 54.604 99.904C54.604 99.8187 54.5613 99.7867 54.476 99.808C52.972 100.288 51.6173 100.661 50.412 100.928C50.22 100.971 50.044 100.933 49.884 100.816C49.7347 100.709 49.6493 100.56 49.628 100.368C49.6067 100.165 49.6493 99.9787 49.756 99.808C49.8627 99.6373 50.0173 99.5307 50.22 99.488C50.764 99.3707 51.3507 99.2267 51.98 99.056C52.0653 99.0347 52.108 98.9813 52.108 98.896V94.656C52.108 94.5707 52.06 94.528 51.964 94.528H50.444C50.252 94.528 50.0867 94.4587 49.948 94.32C49.8093 94.1813 49.74 94.016 49.74 93.824C49.74 93.632 49.8093 93.4667 49.948 93.328C50.0867 93.1893 50.252 93.12 50.444 93.12H51.964C52.06 93.12 52.108 93.0773 52.108 92.992V91.696C52.108 91.6 52.06 91.552 51.964 91.552H51.212C51.0627 91.552 50.94 91.504 50.844 91.408C50.748 91.312 50.7 91.1947 50.7 91.056C50.7 91.0453 50.6947 91.0347 50.684 91.024C50.6733 91.0133 50.6627 91.0133 50.652 91.024C50.6093 91.056 50.5453 91.1093 50.46 91.184C50.3747 91.2587 50.3107 91.312 50.268 91.344ZM51.596 90.096C51.5747 90.1067 51.5693 90.128 51.58 90.16C51.5907 90.1813 51.6067 90.192 51.628 90.192H54.732C54.7533 90.192 54.7693 90.1867 54.78 90.176C54.7907 90.1547 54.7853 90.1333 54.764 90.112C54.188 89.6427 53.6333 89.0773 53.1 88.416C53.0467 88.3627 52.9933 88.368 52.94 88.432C52.5133 89.04 52.0653 89.5947 51.596 90.096ZM56.316 96.528C56.1667 96.2187 55.9747 95.8613 55.74 95.456C55.644 95.2853 55.6227 95.104 55.676 94.912C55.74 94.72 55.8573 94.5813 56.028 94.496C56.22 94.4 56.412 94.384 56.604 94.448C56.8067 94.512 56.9613 94.6347 57.068 94.816C57.1853 95.0187 57.3507 95.3227 57.564 95.728C57.66 95.92 57.6813 96.1227 57.628 96.336C57.5747 96.5387 57.4573 96.6933 57.276 96.8C57.1053 96.9067 56.924 96.9333 56.732 96.88C56.54 96.8267 56.4013 96.7093 56.316 96.528Z" fill="#BEC2C2"/>
</svg>
