<svg width="25" height="26" viewBox="0 0 25 26" fill="none" xmlns="http://www.w3.org/2000/svg">
<path d="M4.10557 19.6074L3.31176 18.9992L3.31176 18.9992L4.10557 19.6074ZM5.26855 16.3377L4.26855 16.3254V16.3377H5.26855ZM5.29296 14.3609L6.29296 14.3732V14.3609H5.29296ZM19.9006 19.6233L20.7065 19.0312L20.7065 19.0312L19.9006 19.6233ZM18.7814 16.3377L17.7814 16.3247V16.3377H18.7814ZM18.8058 14.4588L19.8058 14.4718V14.4588H18.8058ZM4.89939 20.2156C5.58054 19.3265 6.26855 17.9851 6.26855 16.3377H4.26855C4.26855 17.4189 3.81418 18.3434 3.31176 18.9992L4.89939 20.2156ZM6.26848 16.3501L6.29289 14.3732L4.29304 14.3485L4.26863 16.3254L6.26848 16.3501ZM20.7065 19.0312C20.2257 18.3767 19.7814 17.4405 19.7814 16.3377H17.7814C17.7814 17.9822 18.4401 19.3243 19.0948 20.2153L20.7065 19.0312ZM19.7813 16.3507L19.8057 14.4718L17.8059 14.4458L17.7815 16.3247L19.7813 16.3507ZM19.8058 14.4588C19.8058 10.1716 16.303 6.71053 12 6.71053V8.71053C15.2145 8.71053 17.8058 11.2921 17.8058 14.4588H19.8058ZM19.4933 21.5394C20.2194 21.5394 20.6784 21.0334 20.864 20.601C21.0482 20.1718 21.0878 19.5502 20.7065 19.0312L19.0947 20.2153C18.9586 20.03 19.0028 19.8665 19.0262 19.812C19.051 19.7543 19.1836 19.5394 19.4933 19.5394V21.5394ZM6.29296 14.3609C6.29296 11.2483 8.84007 8.71053 12 8.71053V6.71053C7.75154 6.71053 4.29296 10.1277 4.29296 14.3609H6.29296ZM4.50763 19.5394C4.82438 19.5394 4.95436 19.7618 4.97604 19.8139C4.99661 19.8633 5.04246 20.0288 4.89939 20.2156L3.31176 18.9992C2.91365 19.5189 2.94973 20.1504 3.12969 20.5826C3.31075 21.0175 3.76928 21.5394 4.50763 21.5394V19.5394ZM19.4933 19.5394H4.50763V21.5394H19.4933V19.5394ZM14.2 20.5395C14.2 21.5504 13.2897 22.5 12 22.5V24.5C14.2449 24.5 16.2 22.7986 16.2 20.5395H14.2ZM12 22.5C10.7103 22.5 9.8 21.5504 9.8 20.5395H7.8C7.8 22.7986 9.75506 24.5 12 24.5V22.5ZM13.1333 5.60526C13.1333 6.20324 12.6385 6.71053 12 6.71053V8.71053C13.718 8.71053 15.1333 7.3327 15.1333 5.60526H13.1333ZM12 6.71053C11.3615 6.71053 10.8667 6.20324 10.8667 5.60526H8.86667C8.86667 7.3327 10.282 8.71053 12 8.71053V6.71053ZM10.8667 5.60526C10.8667 5.00729 11.3615 4.5 12 4.5V2.5C10.282 2.5 8.86667 3.87783 8.86667 5.60526H10.8667ZM12 4.5C12.6385 4.5 13.1333 5.00729 13.1333 5.60526H15.1333C15.1333 3.87783 13.718 2.5 12 2.5V4.5Z" fill="#5A5A5A"/>
<circle cx="21" cy="4.5" r="4" fill="#FC8884"/>
</svg>
