<svg width="24" height="25" viewBox="0 0 24 25" fill="none" xmlns="http://www.w3.org/2000/svg">
<path d="M9.6001 21.7762H7.2001C5.21187 21.7762 3.6001 20.1644 3.6001 18.1762V6.17617C3.6001 4.18795 5.21187 2.57617 7.2001 2.57617H15.6001C17.5883 2.57617 19.2001 4.18795 19.2001 6.17617V9.17617M15.0001 15.1762V13.9762C15.0001 12.9821 15.806 12.1762 16.8001 12.1762C17.7942 12.1762 18.6001 12.9821 18.6001 13.9762V15.7762M15.0001 7.37617H7.2001M11.4001 10.9762H7.2001M9.6001 14.5762H7.2001M14.4001 21.7762H19.2001C19.8628 21.7762 20.4001 21.2389 20.4001 20.5762V16.9762C20.4001 16.3134 19.8628 15.7762 19.2001 15.7762H14.4001C13.7374 15.7762 13.2001 16.3134 13.2001 16.9762V20.5762C13.2001 21.2389 13.7374 21.7762 14.4001 21.7762Z" stroke="#888888" stroke-width="2" stroke-linecap="round" stroke-linejoin="round"/>
</svg>
