<svg width="56" height="56" viewBox="0 0 56 56" fill="none" xmlns="http://www.w3.org/2000/svg">
<path d="M29.7145 37.4534C30.0681 37.8777 30.6987 37.935 31.1229 37.5815C31.5472 37.2279 31.6045 36.5973 31.251 36.173L29.7145 37.4534ZM22.7487 27.5324L21.9805 26.8922C21.6715 27.2631 21.6715 27.8017 21.9805 28.1726L22.7487 27.5324ZM31.251 18.8917C31.6045 18.4675 31.5472 17.8369 31.1229 17.4833C30.6987 17.1298 30.0681 17.1871 29.7145 17.6114L31.251 18.8917ZM31.251 36.173L23.5169 26.8922L21.9805 28.1726L29.7145 37.4534L31.251 36.173ZM23.5169 28.1726L31.251 18.8917L29.7145 17.6114L21.9805 26.8922L23.5169 28.1726ZM28 8C39.0457 8 48 16.9543 48 28H50C50 15.8497 40.1503 6 28 6V8ZM48 28C48 39.0457 39.0457 48 28 48V50C40.1503 50 50 40.1503 50 28H48ZM28 48C16.9543 48 8 39.0457 8 28H6C6 40.1503 15.8497 50 28 50V48ZM8 28C8 16.9543 16.9543 8 28 8V6C15.8497 6 6 15.8497 6 28H8Z" fill="#888888"/>
</svg>
