<svg width="24" height="25" viewBox="0 0 24 25" fill="none" xmlns="http://www.w3.org/2000/svg">
<path d="M14.25 10.8603H18" stroke="#888888" stroke-width="2" stroke-linecap="round" stroke-linejoin="round"/>
<path d="M14.25 13.8603H18" stroke="#888888" stroke-width="2" stroke-linecap="round" stroke-linejoin="round"/>
<path d="M8.6344 13.8603C9.87704 13.8603 10.8844 12.8529 10.8844 11.6103C10.8844 10.3676 9.87704 9.36029 8.6344 9.36029C7.39176 9.36029 6.3844 10.3676 6.3844 11.6103C6.3844 12.8529 7.39176 13.8603 8.6344 13.8603Z" stroke="#888888" stroke-width="2" stroke-linecap="round" stroke-linejoin="round"/>
<path d="M5.72815 16.1103C5.89338 15.465 6.26868 14.893 6.79488 14.4846C7.32109 14.0761 7.96827 13.8544 8.6344 13.8544C9.30053 13.8544 9.94771 14.0761 10.4739 14.4846C11.0001 14.893 11.3754 15.465 11.5406 16.1103" stroke="#888888" stroke-width="2" stroke-linecap="round" stroke-linejoin="round"/>
<path d="M20.25 4.86029H3.75C3.33579 4.86029 3 5.19608 3 5.61029V19.1103C3 19.5245 3.33579 19.8603 3.75 19.8603H20.25C20.6642 19.8603 21 19.5245 21 19.1103V5.61029C21 5.19608 20.6642 4.86029 20.25 4.86029Z" stroke="#888888" stroke-width="2" stroke-linecap="round" stroke-linejoin="round"/>
</svg>
