<svg width="81" height="106" viewBox="0 0 81 106" fill="none" xmlns="http://www.w3.org/2000/svg">
<circle cx="40.5" cy="40" r="40" fill="#FC8884"/>
<circle cx="40.5" cy="40" r="37" stroke="white" stroke-opacity="0.62" stroke-width="6"/>
<path d="M40.5 39.5V32.0241M40.5 45.0413V45.107M49.9499 51.3333H31.0501C28.4685 51.3333 26.2899 49.6271 25.6044 47.2928C25.3118 46.2964 25.6713 45.2585 26.2213 44.3748L35.6711 27.335C37.8852 23.7772 43.1148 23.7772 45.3289 27.335L54.7787 44.3748C55.3287 45.2585 55.6882 46.2964 55.3956 47.2928C54.7101 49.6271 52.5315 51.3333 49.9499 51.3333Z" stroke="white" stroke-width="4" stroke-linecap="round" stroke-linejoin="round"/>
<path d="M20.84 99.808C21.16 99.808 21.3467 99.776 21.4 99.712C21.4533 99.648 21.48 99.4133 21.48 99.008V96.656C21.48 96.56 21.4373 96.512 21.352 96.512H18.664C18.568 96.512 18.52 96.56 18.52 96.656C18.3707 98.2027 18.04 99.5307 17.528 100.64C17.432 100.843 17.2773 100.965 17.064 101.008C16.8507 101.051 16.6587 101.003 16.488 100.864C16.296 100.704 16.1733 100.501 16.12 100.256C16.0773 100.011 16.104 99.7707 16.2 99.536C16.5307 98.7787 16.76 97.9307 16.888 96.992C17.016 96.0427 17.08 94.7787 17.08 93.2V88.352C17.08 88.1067 17.1707 87.8933 17.352 87.712C17.5333 87.5307 17.7467 87.44 17.992 87.44H22.216C22.4613 87.44 22.6693 87.5307 22.84 87.712C23.0213 87.8933 23.112 88.1067 23.112 88.352V98.96C23.112 99.536 23.1013 99.9573 23.08 100.224C23.0587 100.491 22.9893 100.715 22.872 100.896C22.7547 101.077 22.6053 101.184 22.424 101.216C22.2533 101.259 21.9813 101.28 21.608 101.28C21.288 101.28 20.824 101.264 20.216 101.232C20.0027 101.221 19.8213 101.141 19.672 100.992C19.5227 100.843 19.4427 100.667 19.432 100.464C19.4213 100.261 19.4853 100.091 19.624 99.952C19.7733 99.8133 19.9493 99.7547 20.152 99.776C20.5573 99.7973 20.7867 99.808 20.84 99.808ZM18.632 89.024V91.072C18.632 91.1573 18.68 91.2 18.776 91.2H21.352C21.4373 91.2 21.48 91.1573 21.48 91.072V89.024C21.48 88.928 21.4373 88.88 21.352 88.88H18.776C18.68 88.88 18.632 88.928 18.632 89.024ZM21.352 95.12C21.4373 95.12 21.48 95.072 21.48 94.976V92.736C21.48 92.6507 21.4373 92.608 21.352 92.608H18.776C18.68 92.608 18.632 92.6507 18.632 92.736V93.888V94.976C18.632 95.072 18.6747 95.12 18.76 95.12H21.352ZM9.544 97.76C9.36267 97.76 9.20267 97.696 9.064 97.568C8.92533 97.4293 8.856 97.2693 8.856 97.088C8.856 96.9067 8.92533 96.7467 9.064 96.608C9.20267 96.4693 9.36267 96.4 9.544 96.4H9.768C9.85333 96.4 9.896 96.3573 9.896 96.272V89.968C9.896 89.8827 9.85333 89.84 9.768 89.84H9.64C9.448 89.84 9.28267 89.7707 9.144 89.632C9.00533 89.4933 8.936 89.328 8.936 89.136C8.936 88.944 9.00533 88.7787 9.144 88.64C9.28267 88.5013 9.448 88.432 9.64 88.432H9.768C9.85333 88.432 9.896 88.3947 9.896 88.32V87.92C9.896 87.696 9.97067 87.5093 10.12 87.36C10.28 87.2 10.472 87.12 10.696 87.12C10.92 87.12 11.1067 87.2 11.256 87.36C11.416 87.5093 11.496 87.696 11.496 87.92V88.304C11.496 88.3893 11.544 88.432 11.64 88.432H14.008C14.0933 88.432 14.136 88.3893 14.136 88.304V87.872C14.136 87.6693 14.2107 87.4933 14.36 87.344C14.5093 87.1947 14.6907 87.12 14.904 87.12C15.1067 87.12 15.2827 87.1947 15.432 87.344C15.5813 87.4827 15.656 87.6587 15.656 87.872V88.32C15.656 88.3947 15.6933 88.432 15.768 88.432H15.848C16.04 88.432 16.2 88.5013 16.328 88.64C16.4667 88.7787 16.536 88.944 16.536 89.136C16.536 89.328 16.4667 89.4933 16.328 89.632C16.2 89.7707 16.04 89.84 15.848 89.84H15.768C15.6933 89.84 15.656 89.8773 15.656 89.952V96.288C15.656 96.3627 15.6933 96.4 15.768 96.4H15.816C15.9973 96.4 16.1573 96.4693 16.296 96.608C16.4347 96.7467 16.504 96.9067 16.504 97.088C16.504 97.2693 16.4347 97.4293 16.296 97.568C16.1573 97.696 15.9973 97.76 15.816 97.76H14.84C14.8187 97.76 14.7973 97.7707 14.776 97.792C14.7653 97.8133 14.7653 97.8347 14.776 97.856C15.16 98.3467 15.528 98.8747 15.88 99.44C15.9867 99.6107 16.0133 99.7973 15.96 100C15.9067 100.203 15.7947 100.357 15.624 100.464C15.4533 100.571 15.2667 100.597 15.064 100.544C14.872 100.491 14.7227 100.379 14.616 100.208C14.4667 99.9627 14.2213 99.5947 13.88 99.104C13.7307 98.9013 13.6773 98.6827 13.72 98.448C13.7627 98.2133 13.8853 98.0267 14.088 97.888L14.168 97.84C14.1787 97.8293 14.184 97.8133 14.184 97.792C14.184 97.7707 14.1733 97.76 14.152 97.76H11.704C11.6827 97.76 11.6667 97.7707 11.656 97.792C11.656 97.8133 11.6667 97.8293 11.688 97.84L11.736 97.856C11.9493 98.0053 12.088 98.2027 12.152 98.448C12.216 98.6933 12.1787 98.9227 12.04 99.136C11.5813 99.8293 11.096 100.448 10.584 100.992C10.4453 101.141 10.2693 101.216 10.056 101.216C9.84267 101.227 9.656 101.163 9.496 101.024C9.34667 100.896 9.26667 100.731 9.256 100.528C9.24533 100.325 9.30933 100.155 9.448 100.016C10.152 99.2693 10.696 98.56 11.08 97.888C11.1013 97.8667 11.1013 97.84 11.08 97.808C11.0693 97.776 11.048 97.76 11.016 97.76H9.544ZM11.496 89.984V91.024C11.496 91.12 11.544 91.168 11.64 91.168H14.008C14.0933 91.168 14.136 91.12 14.136 91.024V89.984C14.136 89.888 14.0933 89.84 14.008 89.84H11.64C11.544 89.84 11.496 89.888 11.496 89.984ZM11.496 92.544V93.632C11.496 93.7173 11.544 93.76 11.64 93.76H14.008C14.0933 93.76 14.136 93.7173 14.136 93.632V92.544C14.136 92.448 14.0933 92.4 14.008 92.4H11.64C11.544 92.4 11.496 92.448 11.496 92.544ZM11.496 95.136V96.256C11.496 96.352 11.544 96.4 11.64 96.4H14.008C14.0933 96.4 14.136 96.352 14.136 96.256V95.136C14.136 95.0507 14.0933 95.008 14.008 95.008H11.64C11.544 95.008 11.496 95.0507 11.496 95.136ZM27.12 101.12C26.9707 101.28 26.784 101.36 26.56 101.36C26.336 101.36 26.144 101.28 25.984 101.12C25.8347 100.971 25.76 100.784 25.76 100.56V88.352C25.76 88.1067 25.8507 87.8933 26.032 87.712C26.2133 87.5307 26.4267 87.44 26.672 87.44H30.224C30.4053 87.44 30.56 87.504 30.688 87.632C30.816 87.76 30.88 87.9147 30.88 88.096C30.88 88.5227 30.8053 88.9493 30.656 89.376C30.2187 90.56 29.7493 91.6053 29.248 92.512C29.1947 92.5973 29.2 92.6773 29.264 92.752C30.0747 93.8293 30.48 94.9547 30.48 96.128C30.48 96.8533 30.3253 97.3973 30.016 97.76C29.7173 98.1227 29.248 98.3307 28.608 98.384C28.4053 98.3947 28.224 98.336 28.064 98.208C27.9147 98.08 27.8187 97.9147 27.776 97.712C27.744 97.5413 27.7813 97.392 27.888 97.264C28.0053 97.1253 28.1547 97.04 28.336 97.008C28.5707 96.9547 28.7307 96.8427 28.816 96.672C28.912 96.4907 28.96 96.1867 28.96 95.76C28.96 94.9813 28.6773 94.208 28.112 93.44C27.7493 92.9493 27.7067 92.448 27.984 91.936C28.5067 90.9653 28.9493 89.9467 29.312 88.88C29.3333 88.8053 29.3013 88.768 29.216 88.768H27.504C27.408 88.768 27.36 88.8107 27.36 88.896V100.56C27.36 100.784 27.28 100.971 27.12 101.12ZM29.904 101.04C29.7547 100.923 29.6693 100.763 29.648 100.56C29.6267 100.357 29.68 100.176 29.808 100.016C29.936 99.8667 30.1013 99.7813 30.304 99.76C30.4 99.7493 30.5387 99.7333 30.72 99.712C30.9013 99.68 31.0347 99.6587 31.12 99.648C31.2053 99.6267 31.248 99.5733 31.248 99.488V88.384C31.248 88.1387 31.3333 87.9253 31.504 87.744C31.6853 87.5627 31.8987 87.472 32.144 87.472H38.176C38.4213 87.472 38.6293 87.5627 38.8 87.744C38.9813 87.9253 39.072 88.1387 39.072 88.384V93.968C39.072 94.2133 38.9813 94.4267 38.8 94.608C38.6293 94.7893 38.4213 94.88 38.176 94.88H35.952C35.8667 94.88 35.8347 94.9227 35.856 95.008C36.0587 95.6587 36.3307 96.2827 36.672 96.88C36.6827 96.912 36.7093 96.9333 36.752 96.944C36.7947 96.944 36.8267 96.9333 36.848 96.912C37.36 96.496 37.856 96.048 38.336 95.568C38.4747 95.4187 38.64 95.344 38.832 95.344C39.024 95.3333 39.1893 95.3973 39.328 95.536C39.4773 95.6853 39.552 95.8613 39.552 96.064C39.552 96.256 39.4827 96.4267 39.344 96.576C38.768 97.1627 38.224 97.664 37.712 98.08C37.6373 98.144 37.632 98.208 37.696 98.272C38.1333 98.752 38.672 99.1947 39.312 99.6C39.4933 99.7173 39.6053 99.8773 39.648 100.08C39.7013 100.283 39.6693 100.475 39.552 100.656C39.424 100.848 39.2533 100.971 39.04 101.024C38.8267 101.077 38.624 101.045 38.432 100.928C37.4613 100.341 36.6133 99.5413 35.888 98.528C35.1733 97.504 34.6347 96.336 34.272 95.024C34.2507 94.928 34.192 94.88 34.096 94.88H33.024C32.928 94.88 32.88 94.9227 32.88 95.008V99.216C32.88 99.312 32.9227 99.3493 33.008 99.328C33.8827 99.1573 34.5387 99.0187 34.976 98.912C35.168 98.8693 35.344 98.9013 35.504 99.008C35.664 99.1147 35.7653 99.264 35.808 99.456C35.8507 99.6587 35.8133 99.84 35.696 100C35.5893 100.171 35.4347 100.283 35.232 100.336C33.728 100.709 32.128 100.997 30.432 101.2C30.2293 101.221 30.0533 101.168 29.904 101.04ZM32.88 89.024V90.304C32.88 90.4 32.928 90.448 33.024 90.448H37.264C37.36 90.448 37.408 90.4 37.408 90.304V89.024C37.408 88.928 37.36 88.88 37.264 88.88H33.024C32.928 88.88 32.88 88.928 32.88 89.024ZM32.88 92.016V93.376C32.88 93.472 32.928 93.52 33.024 93.52H37.264C37.36 93.52 37.408 93.472 37.408 93.376V92.016C37.408 91.92 37.36 91.872 37.264 91.872H33.024C32.928 91.872 32.88 91.92 32.88 92.016ZM52.504 99.36C52.9093 99.36 53.208 99.2053 53.4 98.896C53.592 98.576 53.7413 97.824 53.848 96.64C53.9653 95.4453 54.024 93.6213 54.024 91.168V89.536C54.024 89.4507 53.9813 89.408 53.896 89.408H51.752C51.656 89.408 51.608 89.4507 51.608 89.536C51.5227 92.448 51.1653 94.7307 50.536 96.384C49.9173 98.0373 48.8773 99.4773 47.416 100.704C47.2347 100.853 47.0213 100.928 46.776 100.928C46.5307 100.928 46.3173 100.848 46.136 100.688C45.976 100.539 45.896 100.357 45.896 100.144C45.9067 99.9413 45.9973 99.7707 46.168 99.632C47.5013 98.5547 48.4507 97.2853 49.016 95.824C49.592 94.3627 49.9227 92.2667 50.008 89.536C50.008 89.4507 49.9653 89.408 49.88 89.408H47.256C47.0533 89.408 46.8773 89.3387 46.728 89.2C46.5893 89.0507 46.52 88.8693 46.52 88.656C46.52 88.4533 46.5893 88.2827 46.728 88.144C46.8667 87.9947 47.0427 87.92 47.256 87.92H54.808C55.0533 87.92 55.2613 88.0107 55.432 88.192C55.6133 88.3733 55.704 88.5867 55.704 88.832V90.112C55.704 91.7973 55.688 93.216 55.656 94.368C55.624 95.5093 55.5547 96.4907 55.448 97.312C55.352 98.1333 55.24 98.7787 55.112 99.248C54.984 99.7067 54.7973 100.064 54.552 100.32C54.3173 100.576 54.072 100.741 53.816 100.816C53.5707 100.891 53.24 100.928 52.824 100.928C52.4827 100.928 51.912 100.885 51.112 100.8C50.888 100.779 50.7013 100.683 50.552 100.512C50.4027 100.352 50.328 100.16 50.328 99.936C50.328 99.7333 50.4027 99.568 50.552 99.44C50.7013 99.3013 50.8827 99.2427 51.096 99.264C51.672 99.328 52.1413 99.36 52.504 99.36ZM41.816 93.088C41.624 93.1307 41.448 93.0933 41.288 92.976C41.128 92.8587 41.0373 92.6987 41.016 92.496C40.9947 92.2827 41.0427 92.096 41.16 91.936C41.288 91.7653 41.4533 91.6587 41.656 91.616L42.344 91.472C42.4293 91.4507 42.472 91.3973 42.472 91.312V88.096C42.472 87.872 42.552 87.68 42.712 87.52C42.872 87.36 43.064 87.28 43.288 87.28C43.512 87.28 43.704 87.36 43.864 87.52C44.0347 87.68 44.12 87.872 44.12 88.096V90.976C44.12 91.072 44.1627 91.1093 44.248 91.088L47.24 90.464C47.432 90.4213 47.608 90.4587 47.768 90.576C47.9387 90.6933 48.0347 90.8533 48.056 91.056C48.0773 91.2693 48.024 91.4613 47.896 91.632C47.768 91.8027 47.6027 91.9093 47.4 91.952L44.248 92.592C44.1627 92.6133 44.12 92.6667 44.12 92.752V96.496C44.12 96.8693 44.152 97.088 44.216 97.152C44.28 97.216 44.5253 97.248 44.952 97.248C45.208 97.248 45.384 97.2373 45.48 97.216C45.5867 97.1947 45.6933 97.1573 45.8 97.104C45.9173 97.04 45.992 96.912 46.024 96.72C46.056 96.5173 46.0827 96.288 46.104 96.032C46.136 95.7653 46.1573 95.3707 46.168 94.848C46.1787 94.6453 46.2587 94.4853 46.408 94.368C46.5573 94.24 46.7333 94.1867 46.936 94.208C47.1387 94.2293 47.3093 94.32 47.448 94.48C47.5867 94.64 47.6507 94.8267 47.64 95.04C47.6187 95.648 47.5867 96.1333 47.544 96.496C47.512 96.8587 47.448 97.1893 47.352 97.488C47.2667 97.776 47.1707 97.9893 47.064 98.128C46.968 98.256 46.8027 98.368 46.568 98.464C46.3333 98.5493 46.0987 98.6027 45.864 98.624C45.6293 98.6347 45.2987 98.64 44.872 98.64C43.7627 98.64 43.0853 98.5387 42.84 98.336C42.5947 98.1227 42.472 97.5413 42.472 96.592V93.088C42.472 92.992 42.4293 92.9547 42.344 92.976L41.816 93.088ZM61.584 87.52C61.744 87.36 61.936 87.28 62.16 87.28C62.384 87.28 62.5707 87.36 62.72 87.52C62.88 87.6693 62.96 87.856 62.96 88.08V91.744C62.96 91.7653 62.9707 91.7813 62.992 91.792C63.024 91.8027 63.0507 91.7973 63.072 91.776C64.192 90.7733 65.0827 90.08 65.744 89.696C66.4053 89.312 66.9973 89.12 67.52 89.12C68.224 89.12 68.7253 89.36 69.024 89.84C69.3227 90.32 69.472 91.1733 69.472 92.4C69.472 93.0507 69.408 93.7867 69.28 94.608C69.152 95.4507 69.088 96.1813 69.088 96.8C69.088 97.2907 69.12 97.6747 69.184 97.952C69.2587 98.2187 69.3387 98.3893 69.424 98.464C69.5093 98.528 69.6213 98.56 69.76 98.56C70.0907 98.56 70.5653 98.2827 71.184 97.728C71.3227 97.6 71.488 97.5413 71.68 97.552C71.872 97.5627 72.0213 97.6427 72.128 97.792C72.2453 97.9627 72.2987 98.1547 72.288 98.368C72.2773 98.5707 72.1973 98.7413 72.048 98.88C71.5893 99.296 71.1147 99.6267 70.624 99.872C70.1333 100.117 69.696 100.24 69.312 100.24C68.64 100.24 68.1493 99.9947 67.84 99.504C67.5413 99.0027 67.392 98.1547 67.392 96.96C67.392 96.4053 67.4613 95.6693 67.6 94.752C67.7387 93.8667 67.808 93.136 67.808 92.56C67.808 92.08 67.7707 91.7067 67.696 91.44C67.632 91.1627 67.552 90.9867 67.456 90.912C67.3707 90.8373 67.2587 90.8 67.12 90.8C66.6187 90.8 65.2693 91.824 63.072 93.872C62.9973 93.9467 62.96 94.0267 62.96 94.112V100.24C62.96 100.464 62.88 100.651 62.72 100.8C62.5707 100.96 62.384 101.04 62.16 101.04C61.936 101.04 61.744 100.96 61.584 100.8C61.4347 100.651 61.36 100.464 61.36 100.24V95.632C61.36 95.6107 61.344 95.5947 61.312 95.584C61.2907 95.5627 61.2747 95.5627 61.264 95.584C60.8267 96.0107 60.096 96.736 59.072 97.76C58.9227 97.9093 58.7413 97.984 58.528 97.984C58.3253 97.984 58.1493 97.9093 58 97.76C57.8507 97.6107 57.776 97.4347 57.776 97.232C57.776 97.0187 57.8453 96.8373 57.984 96.688C59.232 95.4293 60.3253 94.352 61.264 93.456C61.328 93.392 61.36 93.3173 61.36 93.232V91.424C61.36 91.328 61.312 91.28 61.216 91.28H58.48C58.2773 91.28 58.1067 91.2107 57.968 91.072C57.8293 90.9333 57.76 90.7627 57.76 90.56C57.76 90.3573 57.8293 90.1867 57.968 90.048C58.1067 89.9093 58.2773 89.84 58.48 89.84H61.216C61.312 89.84 61.36 89.792 61.36 89.696V88.08C61.36 87.856 61.4347 87.6693 61.584 87.52Z" fill="#BEC2C2"/>
</svg>
