<svg width="96" height="116" viewBox="0 0 96 116" fill="none" xmlns="http://www.w3.org/2000/svg">
<g filter="url(#filter0_d_59_8016)">
<circle cx="48" cy="44" r="40" fill="#FC8884"/>
<circle cx="48" cy="44" r="38" stroke="url(#paint0_linear_59_8016)" stroke-opacity="0.3" stroke-width="4"/>
</g>
<path d="M30.2617 42.0801C30.882 46.3419 33.0159 50.238 36.2732 53.0555C39.5304 55.873 43.6932 57.4236 48 57.4236M48 57.4236C52.3067 57.4236 56.4695 55.873 59.7267 53.0555C62.984 50.238 65.1179 46.3419 65.7382 42.0801M48 57.4236V66.4001M48.0025 21.6001C45.9657 21.6001 44.0122 22.4092 42.5719 23.8495C41.1317 25.2898 40.3225 27.2432 40.3225 29.2801V39.5201C40.3225 41.557 41.1317 43.5104 42.5719 44.9507C44.0122 46.391 45.9657 47.2001 48.0025 47.2001C50.0394 47.2001 51.9928 46.391 53.4331 44.9507C54.8734 43.5104 55.6825 41.557 55.6825 39.5201V29.2801C55.6825 27.2432 54.8734 25.2898 53.4331 23.8495C51.9928 22.4092 50.0394 21.6001 48.0025 21.6001Z" stroke="white" stroke-width="4" stroke-linecap="round" stroke-linejoin="round"/>
<path d="M34.844 108.016C34.748 108.165 34.6147 108.261 34.444 108.304C34.2733 108.347 34.1133 108.32 33.964 108.224C33.8147 108.128 33.7187 107.995 33.676 107.824C33.5373 107.205 33.3933 106.613 33.244 106.048C33.1907 105.877 33.2067 105.717 33.292 105.568C33.3773 105.408 33.5053 105.307 33.676 105.264C33.8467 105.211 34.012 105.227 34.172 105.312C34.332 105.397 34.4333 105.525 34.476 105.696C34.5827 106.069 34.732 106.672 34.924 107.504C34.9667 107.685 34.94 107.856 34.844 108.016ZM37.916 105.2C38.0547 105.104 38.2093 105.072 38.38 105.104C38.5507 105.136 38.6787 105.221 38.764 105.36C38.86 105.499 38.8867 105.653 38.844 105.824C38.7053 106.443 38.5773 106.944 38.46 107.328C38.4173 107.499 38.3213 107.627 38.172 107.712C38.0227 107.787 37.8627 107.803 37.692 107.76C37.532 107.717 37.4093 107.627 37.324 107.488C37.2493 107.339 37.2333 107.184 37.276 107.024C37.372 106.693 37.4947 106.208 37.644 105.568C37.6867 105.408 37.7773 105.285 37.916 105.2ZM33.468 101.344C33.3187 101.472 33.1587 101.504 32.988 101.44C32.8173 101.365 32.7107 101.232 32.668 101.04C32.5613 100.507 32.716 100.059 33.132 99.696C33.7187 99.1733 34.316 98.5333 34.924 97.776C35.2547 97.36 35.6653 97.152 36.156 97.152C36.6467 97.152 37.0787 97.3493 37.452 97.744C37.9107 98.2347 38.3853 98.656 38.876 99.008C39.0573 99.136 39.1747 99.3067 39.228 99.52C39.292 99.7227 39.2867 99.9253 39.212 100.128L39.068 100.48C39.0253 100.565 38.9613 100.624 38.876 100.656C38.7907 100.688 38.7053 100.677 38.62 100.624C38.5987 100.603 38.588 100.608 38.588 100.64V100.72C38.588 100.955 38.5027 101.152 38.332 101.312C38.172 101.472 37.9747 101.552 37.74 101.552H37.036C36.94 101.552 36.892 101.6 36.892 101.696V102.992C36.892 103.077 36.94 103.12 37.036 103.12H38.156C38.348 103.12 38.5133 103.189 38.652 103.328C38.7907 103.467 38.86 103.632 38.86 103.824C38.86 104.016 38.7907 104.181 38.652 104.32C38.5133 104.459 38.348 104.528 38.156 104.528H37.036C36.94 104.528 36.892 104.571 36.892 104.656V108.448C36.892 108.533 36.94 108.565 37.036 108.544C37.2067 108.491 37.4467 108.416 37.756 108.32C38.076 108.213 38.2893 108.144 38.396 108.112C38.5347 108.069 38.6733 108.08 38.812 108.144C38.9507 108.197 39.052 108.293 39.116 108.432C39.1587 108.496 39.2067 108.507 39.26 108.464C40.2627 107.728 41.1907 106.907 42.044 106C42.108 105.936 42.14 105.856 42.14 105.76V104.064C42.14 103.968 42.0973 103.92 42.012 103.92H39.484C39.292 103.92 39.1267 103.851 38.988 103.712C38.8493 103.573 38.78 103.408 38.78 103.216C38.78 103.024 38.8493 102.864 38.988 102.736C39.1267 102.597 39.292 102.528 39.484 102.528H44.524C44.62 102.528 44.668 102.48 44.668 102.384V101.456C44.668 101.371 44.62 101.328 44.524 101.328H40.156C39.9747 101.328 39.82 101.264 39.692 101.136C39.564 100.997 39.5 100.837 39.5 100.656C39.5 100.475 39.564 100.32 39.692 100.192C39.82 100.064 39.9747 100 40.156 100H44.524C44.62 100 44.668 99.9573 44.668 99.872V98.976C44.668 98.8907 44.62 98.848 44.524 98.848H39.996C39.804 98.848 39.6387 98.7787 39.5 98.64C39.372 98.5013 39.308 98.336 39.308 98.144C39.308 97.952 39.372 97.7867 39.5 97.648C39.6387 97.5093 39.804 97.44 39.996 97.44H45.468C45.7133 97.44 45.9267 97.5307 46.108 97.712C46.2893 97.8933 46.38 98.1067 46.38 98.352V102.384C46.38 102.48 46.428 102.528 46.524 102.528H46.716C46.908 102.528 47.0733 102.597 47.212 102.736C47.3507 102.864 47.42 103.024 47.42 103.216C47.42 103.408 47.3507 103.573 47.212 103.712C47.0733 103.851 46.908 103.92 46.716 103.92H43.804C43.7933 103.92 43.788 103.925 43.788 103.936V103.968C44.0013 104.597 44.284 105.237 44.636 105.888C44.6787 105.973 44.732 105.984 44.796 105.92C45.1907 105.525 45.5427 105.136 45.852 104.752C45.98 104.603 46.14 104.517 46.332 104.496C46.5347 104.464 46.7107 104.512 46.86 104.64C47.02 104.779 47.1107 104.949 47.132 105.152C47.164 105.344 47.116 105.52 46.988 105.68C46.5507 106.235 46.0867 106.747 45.596 107.216C45.532 107.269 45.5267 107.333 45.58 107.408C46.0493 108.059 46.5827 108.677 47.18 109.264C47.34 109.424 47.4253 109.621 47.436 109.856C47.4573 110.08 47.3933 110.277 47.244 110.448C47.0947 110.619 46.9027 110.709 46.668 110.72C46.444 110.731 46.2573 110.651 46.108 110.48C45.2227 109.531 44.4653 108.4 43.836 107.088C43.8253 107.077 43.8147 107.072 43.804 107.072C43.7933 107.072 43.788 107.083 43.788 107.104V108.864C43.788 109.941 43.6813 110.613 43.468 110.88C43.2547 111.147 42.7053 111.28 41.82 111.28C41.468 111.28 41.148 111.269 40.86 111.248C40.668 111.237 40.5027 111.163 40.364 111.024C40.2253 110.885 40.1507 110.72 40.14 110.528C40.1293 110.347 40.188 110.192 40.316 110.064C40.444 109.936 40.5987 109.877 40.78 109.888C41.228 109.909 41.484 109.92 41.548 109.92C41.8147 109.92 41.98 109.872 42.044 109.776C42.108 109.68 42.14 109.413 42.14 108.976V107.952C42.14 107.931 42.1293 107.915 42.108 107.904C42.0867 107.893 42.0653 107.899 42.044 107.92C41.1587 108.837 40.1773 109.685 39.1 110.464C38.9187 110.592 38.7213 110.64 38.508 110.608C38.2947 110.576 38.1133 110.475 37.964 110.304C37.8787 110.197 37.8253 110.064 37.804 109.904C37.804 109.819 37.7613 109.787 37.676 109.808C36.172 110.288 34.8173 110.661 33.612 110.928C33.42 110.971 33.244 110.933 33.084 110.816C32.9347 110.709 32.8493 110.56 32.828 110.368C32.8067 110.165 32.8493 109.979 32.956 109.808C33.0627 109.637 33.2173 109.531 33.42 109.488C33.964 109.371 34.5507 109.227 35.18 109.056C35.2653 109.035 35.308 108.981 35.308 108.896V104.656C35.308 104.571 35.26 104.528 35.164 104.528H33.644C33.452 104.528 33.2867 104.459 33.148 104.32C33.0093 104.181 32.94 104.016 32.94 103.824C32.94 103.632 33.0093 103.467 33.148 103.328C33.2867 103.189 33.452 103.12 33.644 103.12H35.164C35.26 103.12 35.308 103.077 35.308 102.992V101.696C35.308 101.6 35.26 101.552 35.164 101.552H34.412C34.2627 101.552 34.14 101.504 34.044 101.408C33.948 101.312 33.9 101.195 33.9 101.056C33.9 101.045 33.8947 101.035 33.884 101.024C33.8733 101.013 33.8627 101.013 33.852 101.024C33.8093 101.056 33.7453 101.109 33.66 101.184C33.5747 101.259 33.5107 101.312 33.468 101.344ZM34.796 100.096C34.7747 100.107 34.7693 100.128 34.78 100.16C34.7907 100.181 34.8067 100.192 34.828 100.192H37.932C37.9533 100.192 37.9693 100.187 37.98 100.176C37.9907 100.155 37.9853 100.133 37.964 100.112C37.388 99.6427 36.8333 99.0773 36.3 98.416C36.2467 98.3627 36.1933 98.368 36.14 98.432C35.7133 99.04 35.2653 99.5947 34.796 100.096ZM39.516 106.528C39.3667 106.219 39.1747 105.861 38.94 105.456C38.844 105.285 38.8227 105.104 38.876 104.912C38.94 104.72 39.0573 104.581 39.228 104.496C39.42 104.4 39.612 104.384 39.804 104.448C40.0067 104.512 40.1613 104.635 40.268 104.816C40.3853 105.019 40.5507 105.323 40.764 105.728C40.86 105.92 40.8813 106.123 40.828 106.336C40.7747 106.539 40.6573 106.693 40.476 106.8C40.3053 106.907 40.124 106.933 39.932 106.88C39.74 106.827 39.6013 106.709 39.516 106.528ZM51.652 103.952H60.548C60.7933 103.952 61.0067 104.043 61.188 104.224C61.3693 104.405 61.46 104.619 61.46 104.864V110.48C61.46 110.715 61.3693 110.917 61.188 111.088C61.0173 111.269 60.8147 111.36 60.58 111.36H60.26C60.1107 111.36 59.9773 111.301 59.86 111.184C59.7533 111.077 59.7 110.949 59.7 110.8C59.7 110.747 59.6733 110.72 59.62 110.72H52.58C52.5267 110.72 52.5 110.747 52.5 110.8C52.5 110.949 52.4413 111.077 52.324 111.184C52.2173 111.301 52.0893 111.36 51.94 111.36H51.62C51.3853 111.36 51.1773 111.269 50.996 111.088C50.8253 110.917 50.74 110.715 50.74 110.48V104.864C50.74 104.619 50.8307 104.405 51.012 104.224C51.1933 104.043 51.4067 103.952 51.652 103.952ZM59.7 109.216V108.144C59.7 108.048 59.652 108 59.556 108H52.644C52.548 108 52.5 108.048 52.5 108.144V109.216C52.5 109.312 52.548 109.36 52.644 109.36H59.556C59.652 109.36 59.7 109.312 59.7 109.216ZM59.7 106.544V105.488C59.7 105.403 59.652 105.36 59.556 105.36H52.644C52.548 105.36 52.5 105.403 52.5 105.488V106.544C52.5 106.629 52.548 106.672 52.644 106.672H59.556C59.652 106.672 59.7 106.629 59.7 106.544ZM49.508 103.04C49.3267 103.04 49.1667 102.971 49.028 102.832C48.8893 102.693 48.82 102.533 48.82 102.352C48.82 102.171 48.8893 102.016 49.028 101.888C49.1667 101.749 49.3267 101.68 49.508 101.68H52.628C52.7133 101.68 52.7347 101.637 52.692 101.552C52.4147 100.976 52.0733 100.341 51.668 99.648C51.6147 99.5627 51.5453 99.52 51.46 99.52H50.004C49.812 99.52 49.6467 99.4507 49.508 99.312C49.3693 99.1733 49.3 99.008 49.3 98.816C49.3 98.624 49.3693 98.464 49.508 98.336C49.6467 98.1973 49.812 98.128 50.004 98.128H55.076C55.172 98.128 55.22 98.08 55.22 97.984V97.52C55.22 97.2853 55.3053 97.0827 55.476 96.912C55.6573 96.7307 55.8653 96.64 56.1 96.64C56.3347 96.64 56.5373 96.7307 56.708 96.912C56.8893 97.0827 56.98 97.2853 56.98 97.52V97.984C56.98 98.08 57.028 98.128 57.124 98.128H62.196C62.388 98.128 62.5533 98.1973 62.692 98.336C62.8307 98.464 62.9 98.624 62.9 98.816C62.9 99.008 62.8307 99.1733 62.692 99.312C62.5533 99.4507 62.388 99.52 62.196 99.52H60.676C60.58 99.52 60.516 99.5627 60.484 99.648C60.196 100.352 59.8867 100.987 59.556 101.552C59.5347 101.573 59.5293 101.6 59.54 101.632C59.5613 101.664 59.588 101.68 59.62 101.68H62.692C62.8733 101.68 63.0333 101.749 63.172 101.888C63.3107 102.016 63.38 102.171 63.38 102.352C63.38 102.533 63.3107 102.693 63.172 102.832C63.0333 102.971 62.8733 103.04 62.692 103.04H49.508ZM53.636 99.52C53.5507 99.52 53.5293 99.5627 53.572 99.648C53.8813 100.235 54.2013 100.869 54.532 101.552C54.564 101.637 54.6333 101.68 54.74 101.68H57.428C57.5347 101.68 57.6093 101.643 57.652 101.568C58.0147 101.013 58.3613 100.373 58.692 99.648C58.7347 99.5627 58.708 99.52 58.612 99.52H53.636Z" fill="white"/>
<defs>
<filter id="filter0_d_59_8016" x="0" y="0" width="96" height="96" filterUnits="userSpaceOnUse" color-interpolation-filters="sRGB">
<feFlood flood-opacity="0" result="BackgroundImageFix"/>
<feColorMatrix in="SourceAlpha" type="matrix" values="0 0 0 0 0 0 0 0 0 0 0 0 0 0 0 0 0 0 127 0" result="hardAlpha"/>
<feOffset dy="4"/>
<feGaussianBlur stdDeviation="4"/>
<feComposite in2="hardAlpha" operator="out"/>
<feColorMatrix type="matrix" values="0 0 0 0 0 0 0 0 0 0 0 0 0 0 0 0 0 0 0.1 0"/>
<feBlend mode="normal" in2="BackgroundImageFix" result="effect1_dropShadow_59_8016"/>
<feBlend mode="normal" in="SourceGraphic" in2="effect1_dropShadow_59_8016" result="shape"/>
</filter>
<linearGradient id="paint0_linear_59_8016" x1="78.7692" y1="84" x2="7.99999" y2="4.00001" gradientUnits="userSpaceOnUse">
<stop stop-color="white"/>
<stop offset="1" stop-color="#E7F8F9"/>
</linearGradient>
</defs>
</svg>
