<svg width="288" height="71" viewBox="0 0 288 71" fill="none" xmlns="http://www.w3.org/2000/svg">
<path d="M3.3999 57.5997C3.39972 59.2565 4.74271 60.5998 6.39957 60.6C8.05642 60.6002 9.39972 59.2572 9.3999 57.6003L3.3999 57.5997ZM6.40098 47.9989L9.40098 47.9992L6.40098 47.9989ZM33.5999 41.4C35.2568 41.4 36.5999 40.0568 36.5999 38.4C36.5999 36.7431 35.2568 35.4 33.5999 35.4V41.4ZM57.5999 44.6C59.2567 44.6 60.5999 43.2568 60.5999 41.6C60.5999 39.9431 59.2567 38.6 57.5999 38.6V44.6ZM43.1999 38.6C41.543 38.6 40.1999 39.9431 40.1999 41.6C40.1999 43.2568 41.543 44.6 43.1999 44.6V38.6ZM47.3999 48.7996C47.3999 50.4565 48.743 51.7996 50.3999 51.7996C52.0568 51.7996 53.3999 50.4565 53.3999 48.7996H47.3999ZM53.3999 34.3996C53.3999 32.7428 52.0568 31.3996 50.3999 31.3996C48.743 31.3996 47.3999 32.7428 47.3999 34.3996H53.3999ZM35.3999 16C35.3999 19.6451 32.445 22.6 28.7999 22.6V28.6C35.7587 28.6 41.3999 22.9588 41.3999 16H35.3999ZM28.7999 22.6C25.1548 22.6 22.1999 19.6451 22.1999 16H16.1999C16.1999 22.9588 21.8411 28.6 28.7999 28.6V22.6ZM22.1999 16C22.1999 12.3549 25.1548 9.39999 28.7999 9.39999V3.39999C21.8411 3.39999 16.1999 9.04121 16.1999 16H22.1999ZM28.7999 9.39999C32.445 9.39999 35.3999 12.3549 35.3999 16H41.3999C41.3999 9.0412 35.7587 3.39999 28.7999 3.39999V9.39999ZM9.3999 57.6003L9.40098 47.9992L3.40098 47.9986L3.3999 57.5997L9.3999 57.6003ZM16.001 35.4C9.04275 35.4 3.40176 41.0403 3.40098 47.9986L9.40098 47.9992C9.40139 44.3545 12.3562 41.4 16.001 41.4V35.4ZM16.001 41.4H33.5999V35.4H16.001V41.4ZM57.5999 38.6H50.3999V44.6H57.5999V38.6ZM50.3999 38.6H43.1999V44.6H50.3999V38.6ZM53.3999 48.7996V41.6H47.3999V48.7996H53.3999ZM53.3999 41.6V34.3996H47.3999V41.6H53.3999Z" fill="#5A5A5A"/>
<path d="M110.928 57.6C110.448 58.08 109.856 58.32 109.152 58.32C108.448 58.32 107.856 58.08 107.376 57.6C106.896 57.12 106.656 56.528 106.656 55.824V47.76C106.656 47.696 106.624 47.664 106.56 47.664C106.496 47.664 106.448 47.68 106.416 47.712C105.072 49.888 103.6 51.808 102 53.472C101.552 53.92 101.024 54.128 100.416 54.096C99.808 54.064 99.312 53.792 98.928 53.28C98.512 52.736 98.336 52.144 98.4 51.504C98.496 50.864 98.784 50.32 99.264 49.872C101.664 47.632 103.616 45.168 105.12 42.48C105.184 42.416 105.184 42.336 105.12 42.24C105.056 42.144 104.976 42.096 104.88 42.096H100.608C100.032 42.096 99.536 41.904 99.12 41.52C98.704 41.104 98.496 40.608 98.496 40.032C98.496 39.456 98.704 38.96 99.12 38.544C99.536 38.128 100.032 37.92 100.608 37.92H106.224C106.512 37.92 106.656 37.776 106.656 37.488V35.328C106.656 35.04 106.512 34.896 106.224 34.896H100.512C99.968 34.896 99.488 34.704 99.072 34.32C98.688 33.904 98.496 33.424 98.496 32.88C98.496 32.336 98.688 31.856 99.072 31.44C99.488 31.024 99.968 30.816 100.512 30.816H103.248C103.536 30.816 103.616 30.72 103.488 30.528C103.424 30.4 103.376 30.288 103.344 30.192C102.736 27.856 102.272 26.224 101.952 25.296C101.76 24.784 101.808 24.256 102.096 23.712C102.256 23.488 102.192 23.376 101.904 23.376H100.848C100.272 23.376 99.776 23.184 99.36 22.8C98.944 22.384 98.736 21.888 98.736 21.312C98.736 20.736 98.944 20.24 99.36 19.824C99.776 19.408 100.272 19.2 100.848 19.2H106.224C106.512 19.2 106.656 19.056 106.656 18.768V16.944C106.656 16.24 106.896 15.648 107.376 15.168C107.856 14.656 108.448 14.4 109.152 14.4C109.856 14.4 110.448 14.656 110.928 15.168C111.44 15.648 111.696 16.24 111.696 16.944V18.768C111.696 19.056 111.84 19.2 112.128 19.2H118.848C119.424 19.2 119.92 19.408 120.336 19.824C120.752 20.24 120.96 20.736 120.96 21.312C120.96 21.888 120.752 22.384 120.336 22.8C119.92 23.184 119.424 23.376 118.848 23.376H118.272C118.048 23.376 117.968 23.504 118.032 23.76C118.096 24.08 118.08 24.4 117.984 24.72C117.408 26.736 116.736 28.656 115.968 30.48C115.84 30.704 115.92 30.816 116.208 30.816H118.752C119.296 30.816 119.776 31.024 120.192 31.44C120.608 31.856 120.816 32.336 120.816 32.88C120.816 33.424 120.608 33.904 120.192 34.32C119.776 34.704 119.296 34.896 118.752 34.896H112.128C111.84 34.896 111.696 35.04 111.696 35.328V37.488C111.696 37.776 111.84 37.92 112.128 37.92H118.224C118.8 37.92 119.296 38.128 119.712 38.544C120.128 38.96 120.336 39.456 120.336 40.032C120.336 40.608 120.128 41.104 119.712 41.52C119.296 41.904 118.8 42.096 118.224 42.096H112.32C112.256 42.096 112.208 42.128 112.176 42.192C112.144 42.256 112.16 42.32 112.224 42.384H112.272C112.304 42.384 112.32 42.4 112.32 42.432C114.144 44.032 115.744 45.504 117.12 46.848C117.536 47.264 117.744 47.776 117.744 48.384C117.776 48.992 117.6 49.504 117.216 49.92C116.864 50.336 116.4 50.56 115.824 50.592C115.28 50.592 114.816 50.384 114.432 49.968C114.272 49.776 113.904 49.376 113.328 48.768C112.752 48.128 112.304 47.648 111.984 47.328C111.856 47.264 111.76 47.312 111.696 47.472V55.824C111.696 56.528 111.44 57.12 110.928 57.6ZM107.664 29.136C107.76 29.616 107.744 30.048 107.616 30.432C107.552 30.688 107.616 30.816 107.808 30.816H110.688C111.008 30.816 111.216 30.688 111.312 30.432C112.208 28.48 112.96 26.4 113.568 24.192L113.712 23.76C113.776 23.696 113.776 23.616 113.712 23.52C113.68 23.424 113.616 23.376 113.52 23.376H106.224C105.968 23.376 105.92 23.504 106.08 23.76L106.224 24.192C106.768 25.888 107.248 27.536 107.664 29.136ZM140.16 29.568C140.768 29.568 141.296 29.792 141.744 30.24C142.192 30.688 142.416 31.232 142.416 31.872C142.416 32.48 142.192 33.008 141.744 33.456C141.328 33.904 140.8 34.128 140.16 34.128H138.384C138.128 34.128 138 34.272 138 34.56V55.44C138 56.112 137.744 56.688 137.232 57.168C136.752 57.648 136.176 57.888 135.504 57.888C134.832 57.888 134.256 57.648 133.776 57.168C133.296 56.688 133.056 56.112 133.056 55.44V34.56C133.056 34.272 132.928 34.128 132.672 34.128H127.824C127.504 34.128 127.344 34.256 127.344 34.512C126.928 39.568 126.24 43.744 125.28 47.04C124.352 50.304 123.04 53.216 121.344 55.776C120.992 56.352 120.48 56.672 119.808 56.736C119.168 56.8 118.592 56.608 118.08 56.16C117.568 55.68 117.264 55.088 117.168 54.384C117.072 53.68 117.216 53.024 117.6 52.416C119.584 49.248 120.976 45.456 121.776 41.04C122.576 36.624 123.008 30.048 123.072 21.312C123.072 20.544 123.328 19.872 123.84 19.296C124.352 18.688 124.992 18.352 125.76 18.288C130.336 17.808 134.48 17.024 138.192 15.936C138.8 15.744 139.376 15.808 139.92 16.128C140.496 16.416 140.864 16.864 141.024 17.472C141.184 18.112 141.104 18.72 140.784 19.296C140.496 19.872 140.032 20.256 139.392 20.448C136.128 21.408 132.416 22.128 128.256 22.608C128 22.672 127.872 22.832 127.872 23.088C127.808 25.808 127.744 27.84 127.68 29.184C127.68 29.44 127.808 29.568 128.064 29.568H140.16ZM148.32 37.584C147.712 37.584 147.2 37.376 146.784 36.96C146.368 36.512 146.16 35.984 146.16 35.376C146.16 34.768 146.368 34.272 146.784 33.888C147.2 33.472 147.712 33.264 148.32 33.264H151.824C152.112 33.264 152.256 33.104 152.256 32.784V30.864V27.168C152.256 26.88 152.128 26.736 151.872 26.736H148.848C148.24 26.736 147.712 26.528 147.264 26.112C146.848 25.696 146.64 25.168 146.64 24.528C146.64 23.888 146.848 23.36 147.264 22.944C147.712 22.528 148.24 22.32 148.848 22.32H151.872C152.128 22.32 152.256 22.176 152.256 21.888V17.568C152.256 16.896 152.496 16.32 152.976 15.84C153.488 15.36 154.08 15.12 154.752 15.12C155.424 15.12 156 15.36 156.48 15.84C156.96 16.32 157.2 16.896 157.2 17.568V21.888C157.2 22.176 157.344 22.32 157.632 22.32H160.368C161.008 22.32 161.536 22.544 161.952 22.992C162.4 23.408 162.624 23.92 162.624 24.528C162.624 25.136 162.4 25.664 161.952 26.112C161.536 26.528 161.008 26.736 160.368 26.736H157.632C157.344 26.736 157.2 26.88 157.2 27.168V30.576C157.2 30.832 157.184 31.216 157.152 31.728C157.152 32.24 157.152 32.608 157.152 32.832C157.152 33.12 157.296 33.264 157.584 33.264H160.704C161.312 33.264 161.808 33.472 162.192 33.888C162.608 34.272 162.816 34.768 162.816 35.376C162.816 35.984 162.608 36.512 162.192 36.96C161.808 37.376 161.312 37.584 160.704 37.584H157.296C157.04 37.584 156.88 37.712 156.816 37.968V38.16C156.752 38.416 156.832 38.656 157.056 38.88C158.72 40.832 160.512 43.104 162.432 45.696C162.848 46.272 163.008 46.912 162.912 47.616C162.848 48.288 162.544 48.848 162 49.296C161.488 49.712 160.912 49.872 160.272 49.776C159.664 49.68 159.184 49.376 158.832 48.864C157.904 47.488 156.944 46.096 155.952 44.688C155.824 44.496 155.712 44.544 155.616 44.832C154.496 49.056 152.72 52.64 150.288 55.584C149.84 56.096 149.264 56.336 148.56 56.304C147.888 56.272 147.344 55.984 146.928 55.44C146.48 54.832 146.272 54.16 146.304 53.424C146.336 52.656 146.576 51.952 147.024 51.312C149.648 47.664 151.28 43.216 151.92 37.968C151.952 37.872 151.92 37.792 151.824 37.728C151.728 37.632 151.632 37.584 151.536 37.584H148.32ZM187.92 46.32C188.592 46.384 189.152 46.688 189.6 47.232C190.048 47.744 190.256 48.336 190.224 49.008C190.128 50.672 190 51.968 189.84 52.896C189.712 53.824 189.536 54.608 189.312 55.248C189.088 55.92 188.688 56.384 188.112 56.64C187.568 56.896 187.008 57.072 186.432 57.168C185.856 57.296 184.96 57.376 183.744 57.408C183.552 57.408 183.232 57.424 182.784 57.456C182.368 57.488 182.048 57.504 181.824 57.504C181.376 57.504 180.768 57.472 180 57.408C178.112 57.312 176.912 57.056 176.4 56.64C175.92 56.224 175.68 55.312 175.68 53.904V44.592C175.68 44.304 175.552 44.16 175.296 44.16H174.144C173.92 44.16 173.808 44.304 173.808 44.592C173.808 44.784 173.792 44.928 173.76 45.024C172.736 51.04 168.832 55.2 162.048 57.504C161.408 57.728 160.784 57.68 160.176 57.36C159.568 57.072 159.136 56.608 158.88 55.968C158.656 55.392 158.672 54.816 158.928 54.24C159.184 53.696 159.616 53.312 160.224 53.088C165.152 51.328 168.032 48.496 168.864 44.592C168.928 44.304 168.832 44.16 168.576 44.16H167.136C166.4 44.16 165.76 43.888 165.216 43.344C164.672 42.8 164.4 42.16 164.4 41.424V19.056C164.4 18.32 164.672 17.68 165.216 17.136C165.76 16.592 166.4 16.32 167.136 16.32H184.944C185.68 16.32 186.32 16.592 186.864 17.136C187.408 17.68 187.68 18.32 187.68 19.056V41.424C187.68 42.16 187.408 42.8 186.864 43.344C186.32 43.888 185.68 44.16 184.944 44.16H181.152C180.864 44.16 180.72 44.304 180.72 44.592V51.504C180.72 52.304 180.752 52.768 180.816 52.896C180.912 53.024 181.168 53.104 181.584 53.136H182.88H184.32C184.576 53.136 184.752 53.12 184.848 53.088C184.944 53.024 185.04 52.832 185.136 52.512C185.232 52.16 185.296 51.712 185.328 51.168C185.36 50.592 185.392 49.696 185.424 48.48C185.456 47.84 185.712 47.312 186.192 46.896C186.704 46.448 187.28 46.256 187.92 46.32ZM169.344 21.072V24.048C169.344 24.336 169.472 24.48 169.728 24.48H182.208C182.496 24.48 182.64 24.336 182.64 24.048V21.072C182.64 20.784 182.496 20.64 182.208 20.64H169.728C169.472 20.64 169.344 20.784 169.344 21.072ZM169.344 28.752V31.728C169.344 32.016 169.472 32.16 169.728 32.16H182.208C182.496 32.16 182.64 32.016 182.64 31.728V28.752C182.64 28.464 182.496 28.32 182.208 28.32H169.728C169.472 28.32 169.344 28.464 169.344 28.752ZM169.728 39.84H182.208C182.496 39.84 182.64 39.696 182.64 39.408V36.432C182.64 36.144 182.496 36 182.208 36H169.728C169.472 36 169.344 36.144 169.344 36.432V39.408C169.344 39.696 169.472 39.84 169.728 39.84ZM206.352 53.04C206.608 53.04 206.704 52.912 206.64 52.656C206.224 51.536 205.632 50.112 204.864 48.384C204.768 48.128 204.576 48 204.288 48H203.808C203.072 48 202.432 47.728 201.888 47.184C201.376 46.64 201.12 46 201.12 45.264V38.592C201.12 37.856 201.376 37.216 201.888 36.672C202.432 36.128 203.072 35.856 203.808 35.856H228.864C229.6 35.856 230.24 36.128 230.784 36.672C231.328 37.216 231.6 37.856 231.6 38.592V45.264C231.6 46 231.328 46.64 230.784 47.184C230.24 47.728 229.6 48 228.864 48H228.384C228.096 48 227.904 48.128 227.808 48.384C227.2 49.76 226.416 51.184 225.456 52.656C225.392 52.72 225.376 52.8 225.408 52.896C225.472 52.992 225.552 53.04 225.648 53.04H235.536C236.144 53.04 236.656 53.248 237.072 53.664C237.488 54.08 237.696 54.592 237.696 55.2C237.696 55.808 237.488 56.32 237.072 56.736C236.656 57.152 236.144 57.36 235.536 57.36H197.136C196.528 57.36 196.016 57.152 195.6 56.736C195.184 56.32 194.976 55.808 194.976 55.2C194.976 54.592 195.184 54.08 195.6 53.664C196.016 53.248 196.528 53.04 197.136 53.04H206.352ZM222.432 48.336C222.464 48.272 222.448 48.208 222.384 48.144C222.352 48.048 222.288 48 222.192 48H210.48C210.192 48 210.112 48.128 210.24 48.384C210.912 49.984 211.472 51.408 211.92 52.656C212.016 52.912 212.192 53.04 212.448 53.04H219.264C219.52 53.04 219.728 52.928 219.888 52.704C220.912 51.168 221.76 49.712 222.432 48.336ZM206.544 44.304H226.128C226.416 44.304 226.56 44.16 226.56 43.872V40.128C226.56 39.84 226.416 39.696 226.128 39.696H206.544C206.288 39.696 206.16 39.84 206.16 40.128V43.872C206.16 44.16 206.288 44.304 206.544 44.304ZM197.856 37.104C197.312 37.424 196.736 37.472 196.128 37.248C195.52 37.024 195.088 36.624 194.832 36.048C194.576 35.44 194.56 34.832 194.784 34.224C195.008 33.584 195.408 33.104 195.984 32.784C198.512 31.408 200.512 30.224 201.984 29.232C202.08 29.2 202.128 29.12 202.128 28.992C202.128 28.864 202.096 28.768 202.032 28.704C199.184 26.144 197.712 24.816 197.616 24.72C197.136 24.304 196.88 23.792 196.848 23.184C196.848 22.576 197.072 22.048 197.52 21.6C198 21.152 198.56 20.912 199.2 20.88C199.84 20.848 200.416 21.04 200.928 21.456C201.536 21.968 203.152 23.424 205.776 25.824C206 25.984 206.208 26 206.4 25.872C208.48 24.08 210.192 22.288 211.536 20.496C211.6 20.432 211.6 20.368 211.536 20.304C211.504 20.208 211.44 20.16 211.344 20.16H202.704C202.128 20.16 201.632 19.968 201.216 19.584C200.8 19.168 200.592 18.672 200.592 18.096C200.592 17.52 200.8 17.024 201.216 16.608C201.632 16.192 202.128 15.984 202.704 15.984H216C217.76 15.984 219.12 16.768 220.08 18.336C220.72 19.36 221.408 20.336 222.144 21.264C222.304 21.488 222.48 21.504 222.672 21.312C223.76 20.096 224.784 18.88 225.744 17.664C226.128 17.152 226.624 16.848 227.232 16.752C227.84 16.624 228.416 16.72 228.96 17.04C229.504 17.392 229.824 17.856 229.92 18.432C230.048 19.008 229.936 19.536 229.584 20.016C228.304 21.648 227.024 23.152 225.744 24.528C225.552 24.72 225.552 24.912 225.744 25.104C226.48 25.776 227.376 26.544 228.432 27.408C228.656 27.568 228.848 27.568 229.008 27.408C230.064 26.288 231.28 24.832 232.656 23.04C233.04 22.528 233.536 22.224 234.144 22.128C234.784 22 235.376 22.096 235.92 22.416C236.464 22.768 236.784 23.248 236.88 23.856C237.008 24.432 236.896 24.96 236.544 25.44C235.424 26.848 234.128 28.352 232.656 29.952C232.592 30.016 232.56 30.112 232.56 30.24C232.592 30.368 232.656 30.448 232.752 30.48C234.128 31.344 235.44 32.112 236.688 32.784C237.264 33.104 237.664 33.584 237.888 34.224C238.112 34.832 238.096 35.44 237.84 36.048C237.584 36.624 237.152 37.024 236.544 37.248C235.936 37.44 235.36 37.376 234.816 37.056C231.264 35.072 228.16 32.96 225.504 30.72C225.376 30.656 225.28 30.72 225.216 30.912C225.216 31.488 225.008 31.984 224.592 32.4C224.176 32.784 223.68 32.976 223.104 32.976H209.568C208.992 32.976 208.496 32.784 208.08 32.4C207.664 31.984 207.456 31.488 207.456 30.912C207.456 30.848 207.408 30.8 207.312 30.768C207.248 30.704 207.2 30.688 207.168 30.72C204.384 33.056 201.28 35.184 197.856 37.104ZM216.096 21.12C214.272 23.712 212.128 26.176 209.664 28.512C209.6 28.544 209.584 28.608 209.616 28.704C209.648 28.768 209.696 28.8 209.76 28.8H222.912C222.976 28.8 223.024 28.768 223.056 28.704C223.088 28.608 223.072 28.544 223.008 28.512C220.416 26.048 218.256 23.568 216.528 21.072C216.4 20.88 216.256 20.896 216.096 21.12ZM248.832 48.048C248.544 48.496 248.144 48.784 247.632 48.912C247.12 49.04 246.64 48.96 246.192 48.672C245.744 48.384 245.456 47.984 245.328 47.472C244.912 45.616 244.48 43.84 244.032 42.144C243.872 41.632 243.92 41.152 244.176 40.704C244.432 40.224 244.816 39.92 245.328 39.792C245.84 39.632 246.336 39.68 246.816 39.936C247.296 40.192 247.6 40.576 247.728 41.088C248.048 42.208 248.496 44.016 249.072 46.512C249.2 47.056 249.12 47.568 248.832 48.048ZM258.048 39.6C258.464 39.312 258.928 39.216 259.44 39.312C259.952 39.408 260.336 39.664 260.592 40.08C260.88 40.496 260.96 40.96 260.832 41.472C260.416 43.328 260.032 44.832 259.68 45.984C259.552 46.496 259.264 46.88 258.816 47.136C258.368 47.36 257.888 47.408 257.376 47.28C256.896 47.152 256.528 46.88 256.272 46.464C256.048 46.016 256 45.552 256.128 45.072C256.416 44.08 256.784 42.624 257.232 40.704C257.36 40.224 257.632 39.856 258.048 39.6ZM244.704 28.032C244.256 28.416 243.776 28.512 243.264 28.32C242.752 28.096 242.432 27.696 242.304 27.12C241.984 25.52 242.448 24.176 243.696 23.088C245.456 21.52 247.248 19.6 249.072 17.328C250.064 16.08 251.296 15.456 252.768 15.456C254.24 15.456 255.536 16.048 256.656 17.232C258.032 18.704 259.456 19.968 260.928 21.024C261.472 21.408 261.824 21.92 261.984 22.56C262.176 23.168 262.16 23.776 261.936 24.384L261.504 25.44C261.376 25.696 261.184 25.872 260.928 25.968C260.672 26.064 260.416 26.032 260.16 25.872C260.096 25.808 260.064 25.824 260.064 25.92V26.16C260.064 26.864 259.808 27.456 259.296 27.936C258.816 28.416 258.224 28.656 257.52 28.656H255.408C255.12 28.656 254.976 28.8 254.976 29.088V32.976C254.976 33.232 255.12 33.36 255.408 33.36H258.768C259.344 33.36 259.84 33.568 260.256 33.984C260.672 34.4 260.88 34.896 260.88 35.472C260.88 36.048 260.672 36.544 260.256 36.96C259.84 37.376 259.344 37.584 258.768 37.584H255.408C255.12 37.584 254.976 37.712 254.976 37.968V49.344C254.976 49.6 255.12 49.696 255.408 49.632C255.92 49.472 256.64 49.248 257.568 48.96C258.528 48.64 259.168 48.432 259.488 48.336C259.904 48.208 260.32 48.24 260.736 48.432C261.152 48.592 261.456 48.88 261.648 49.296C261.776 49.488 261.92 49.52 262.08 49.392C265.088 47.184 267.872 44.72 270.432 42C270.624 41.808 270.72 41.568 270.72 41.28V36.192C270.72 35.904 270.592 35.76 270.336 35.76H262.752C262.176 35.76 261.68 35.552 261.264 35.136C260.848 34.72 260.64 34.224 260.64 33.648C260.64 33.072 260.848 32.592 261.264 32.208C261.68 31.792 262.176 31.584 262.752 31.584H277.872C278.16 31.584 278.304 31.44 278.304 31.152V28.368C278.304 28.112 278.16 27.984 277.872 27.984H264.768C264.224 27.984 263.76 27.792 263.376 27.408C262.992 26.992 262.8 26.512 262.8 25.968C262.8 25.424 262.992 24.96 263.376 24.576C263.76 24.192 264.224 24 264.768 24H277.872C278.16 24 278.304 23.872 278.304 23.616V20.928C278.304 20.672 278.16 20.544 277.872 20.544H264.288C263.712 20.544 263.216 20.336 262.8 19.92C262.416 19.504 262.224 19.008 262.224 18.432C262.224 17.856 262.416 17.36 262.8 16.944C263.216 16.528 263.712 16.32 264.288 16.32H280.704C281.44 16.32 282.08 16.592 282.624 17.136C283.168 17.68 283.44 18.32 283.44 19.056V31.152C283.44 31.44 283.584 31.584 283.872 31.584H284.448C285.024 31.584 285.52 31.792 285.936 32.208C286.352 32.592 286.56 33.072 286.56 33.648C286.56 34.224 286.352 34.72 285.936 35.136C285.52 35.552 285.024 35.76 284.448 35.76H275.712C275.68 35.76 275.664 35.776 275.664 35.808V35.904C276.304 37.792 277.152 39.712 278.208 41.664C278.336 41.92 278.496 41.952 278.688 41.76C279.872 40.576 280.928 39.408 281.856 38.256C282.24 37.808 282.72 37.552 283.296 37.488C283.904 37.392 284.432 37.536 284.88 37.92C285.36 38.336 285.632 38.848 285.696 39.456C285.792 40.032 285.648 40.56 285.264 41.04C283.952 42.704 282.56 44.24 281.088 45.648C280.896 45.808 280.88 46 281.04 46.224C282.448 48.176 284.048 50.032 285.84 51.792C286.32 52.272 286.576 52.864 286.608 53.568C286.672 54.24 286.48 54.832 286.032 55.344C285.584 55.856 285.008 56.128 284.304 56.16C283.632 56.192 283.072 55.952 282.624 55.44C279.968 52.592 277.696 49.2 275.808 45.264C275.776 45.232 275.744 45.216 275.712 45.216C275.68 45.216 275.664 45.248 275.664 45.312V50.592C275.664 53.824 275.344 55.84 274.704 56.64C274.064 57.44 272.416 57.84 269.76 57.84C268.704 57.84 267.744 57.808 266.88 57.744C266.304 57.712 265.808 57.488 265.392 57.072C264.976 56.656 264.752 56.16 264.72 55.584C264.688 55.04 264.864 54.576 265.248 54.192C265.632 53.808 266.096 53.632 266.64 53.664C267.984 53.728 268.752 53.76 268.944 53.76C269.744 53.76 270.24 53.616 270.432 53.328C270.624 53.04 270.72 52.24 270.72 50.928V47.856C270.72 47.792 270.688 47.744 270.624 47.712C270.56 47.68 270.496 47.696 270.432 47.76C267.776 50.512 264.832 53.056 261.6 55.392C261.056 55.776 260.464 55.92 259.824 55.824C259.184 55.728 258.64 55.424 258.192 54.912C257.936 54.592 257.776 54.192 257.712 53.712C257.712 53.456 257.584 53.36 257.328 53.424C252.816 54.864 248.752 55.984 245.136 56.784C244.56 56.912 244.032 56.8 243.552 56.448C243.104 56.128 242.848 55.68 242.784 55.104C242.72 54.496 242.848 53.936 243.168 53.424C243.488 52.912 243.952 52.592 244.56 52.464C246.192 52.112 247.952 51.68 249.84 51.168C250.096 51.104 250.224 50.944 250.224 50.688V37.968C250.224 37.712 250.08 37.584 249.792 37.584H245.232C244.656 37.584 244.16 37.376 243.744 36.96C243.328 36.544 243.12 36.048 243.12 35.472C243.12 34.896 243.328 34.4 243.744 33.984C244.16 33.568 244.656 33.36 245.232 33.36H249.792C250.08 33.36 250.224 33.232 250.224 32.976V29.088C250.224 28.8 250.08 28.656 249.792 28.656H247.536C247.088 28.656 246.72 28.512 246.432 28.224C246.144 27.936 246 27.584 246 27.168C246 27.136 245.984 27.104 245.952 27.072C245.92 27.04 245.888 27.04 245.856 27.072C245.728 27.168 245.536 27.328 245.28 27.552C245.024 27.776 244.832 27.936 244.704 28.032ZM248.688 24.288C248.624 24.32 248.608 24.384 248.64 24.48C248.672 24.544 248.72 24.576 248.784 24.576H258.096C258.16 24.576 258.208 24.56 258.24 24.528C258.272 24.464 258.256 24.4 258.192 24.336C256.464 22.928 254.8 21.232 253.2 19.248C253.04 19.088 252.88 19.104 252.72 19.296C251.44 21.12 250.096 22.784 248.688 24.288ZM262.848 43.584C262.4 42.656 261.824 41.584 261.12 40.368C260.832 39.856 260.768 39.312 260.928 38.736C261.12 38.16 261.472 37.744 261.984 37.488C262.56 37.2 263.136 37.152 263.712 37.344C264.32 37.536 264.784 37.904 265.104 38.448C265.456 39.056 265.952 39.968 266.592 41.184C266.88 41.76 266.944 42.368 266.784 43.008C266.624 43.616 266.272 44.08 265.728 44.4C265.216 44.72 264.672 44.8 264.096 44.64C263.52 44.48 263.104 44.128 262.848 43.584Z" fill="#5A5A5A"/>
</svg>
