<svg width="56" height="57" viewBox="0 0 56 57" fill="none" xmlns="http://www.w3.org/2000/svg">
<path d="M24.3945 51.7927C19.0593 51.8307 13.5468 49.2455 9.39016 46.635C7.62867 45.5325 5.93055 44.3286 4.29579 43.036C3.7382 42.5924 3.19328 42.0602 3.21862 41.2872C3.21862 40.8436 3.54811 40.8056 3.91561 40.983C4.40984 41.2238 4.87873 41.6293 5.28425 41.9842C6.79228 43.0106 8.35101 43.9737 9.93508 44.8735C12.8751 46.5209 15.9545 48.3078 19.2241 49.2075C20.5673 49.575 21.8726 49.9298 23.2793 49.8411C24.7239 49.7524 26.194 49.4356 27.5246 48.8527C28.437 48.4598 29.6029 47.9909 30.0844 47.0532C30.5406 46.1661 30.5026 44.8482 29.4001 44.5313C28.3356 44.2145 27.0684 44.3539 25.9912 44.4933L21.2643 45.1396C21.2643 45.1396 13.6355 46.5716 21.0489 42.0602C23.6975 40.4508 26.967 39.475 30.0844 39.6144C31.8079 39.6904 33.4427 40.3621 35.0267 40.9704C36.0152 41.3505 37.029 41.5406 38.0808 41.6673C40.7167 42.0095 43.3399 41.604 45.5956 40.1213C47.2557 39.0315 48.599 37.422 49.4608 35.6352C49.7015 35.141 49.8916 34.6214 50.0437 34.0892C50.2718 33.2654 50.4746 32.4291 50.6266 31.58C50.9308 29.8565 51.0828 28.1077 51.0448 26.3589C51.0195 25.3451 50.9435 24.3313 50.8041 23.3175C48.8652 9.12423 35.9392 -0.912429 21.7459 0.658968C22.4809 0.494225 23.2286 0.354827 23.9889 0.253446C39.4368 -1.83752 53.6427 8.98484 55.7464 24.4327C57.8373 39.8805 47.015 54.0864 31.5671 56.1901C22.5062 57.4193 13.8636 54.1878 7.85678 48.1937C12.2161 51.1718 19.3001 55.1256 26.1306 54.9355H26.1559C26.2573 54.9228 26.3334 54.8341 26.3207 54.7327C26.3207 54.6187 26.232 54.5427 26.1179 54.5427C20.7701 54.6947 15.1942 52.2236 10.9742 49.7144C9.21274 48.6626 7.69204 47.6234 6.51349 46.749C6.45013 46.6983 6.38676 46.6477 6.3234 46.5716C5.87986 46.2548 2.93983 44.0751 4.13105 43.5936C4.11838 43.5556 4.09303 43.5302 4.08036 43.5049C4.11838 43.5049 4.14372 43.5556 4.18174 43.5682C7.97083 46.5716 16.284 52.3123 24.3945 52.2869C24.3945 52.2869 24.4071 52.2869 24.4198 52.2869C24.5465 52.2743 24.6352 52.1729 24.6352 52.0462C24.6352 51.9068 24.5212 51.7927 24.3818 51.8054L24.3945 51.7927Z" fill="white"/>
<path d="M33.0629 23.0007C33.4938 23.1147 34.7611 25.2184 35.0145 25.8393C35.0399 25.9027 34.3048 25.041 34.0007 24.6354C33.836 24.4073 33.253 23.685 33.0122 23.4316C32.8855 23.3048 32.7715 22.9246 33.0629 23.0007Z" fill="white"/>
<path d="M31.6941 22.6332C32.0996 22.7472 33.2782 24.6988 33.519 25.2817C33.5443 25.3324 32.86 24.534 32.5685 24.1539C32.4164 23.9384 31.8715 23.2668 31.6434 23.0387C31.5294 22.912 31.4153 22.5571 31.6941 22.6332Z" fill="white"/>
<path d="M30.6169 22.4938C30.9464 22.5825 31.9222 24.2046 32.1249 24.6861C32.1503 24.7368 31.58 24.0778 31.3392 23.761C31.2125 23.5836 30.769 23.026 30.5789 22.8359C30.4775 22.7346 30.3888 22.4431 30.6169 22.5064V22.4938Z" fill="white"/>
<path d="M45.9632 22.8993C46.3307 22.9627 47.5093 24.5974 47.7754 25.0917C47.8007 25.1423 47.1291 24.4834 46.8503 24.1666C46.6982 23.9891 46.166 23.4442 45.9505 23.2541C45.8365 23.1528 45.7098 22.8486 45.9505 22.8993H45.9632Z" fill="white"/>
<path d="M45.1141 23.0133C45.4563 23.064 46.5968 24.5721 46.8503 25.0283C46.8756 25.0663 46.242 24.4707 45.9759 24.1919C45.8238 24.0271 45.3296 23.5329 45.1141 23.3555C45.0001 23.2668 44.886 22.988 45.1141 23.026V23.0133Z" fill="white"/>
<path d="M44.2528 23.2035C44.5316 23.2541 45.444 24.5087 45.6468 24.8889C45.6595 24.9269 45.1525 24.42 44.9371 24.1792C44.8231 24.0398 44.4175 23.6216 44.2401 23.4696C44.1514 23.3935 44.0627 23.1528 44.2401 23.1908L44.2528 23.2035Z" fill="white"/>
<path d="M40.8056 20.3014C40.8943 20.3774 40.9703 20.4662 41.0591 20.5422C40.983 20.4028 40.9323 20.2507 40.945 20.124C41.0844 20.4535 41.3632 20.7196 41.68 20.9224C41.756 20.9857 41.8321 21.0491 41.9081 21.1125C42.3136 21.3279 42.7445 21.4926 43.2261 21.6194C43.8217 21.7081 44.506 21.67 44.9368 21.2645C45.3677 20.859 45.1776 20.3268 45.3931 19.8579C45.4691 19.6931 45.7099 19.7058 45.9 19.7692C45.938 19.7818 45.9633 19.8072 46.0013 19.8325C45.7352 19.8705 45.6085 20.2381 45.5578 20.5295C45.4691 20.9731 45.4311 21.5053 45.1016 21.8475C44.8101 22.1516 44.3539 22.1896 43.9611 22.1643C43.9357 22.1643 43.923 22.1643 43.8977 22.1643C43.5555 22.1643 43.2134 22.1136 42.9473 22.0629C42.415 21.9488 41.9208 21.7081 41.4646 21.4039C41.4266 21.3786 41.4012 21.3406 41.3632 21.3152C41.0337 21.0111 40.8436 20.6816 40.7676 20.2761C40.7803 20.2761 40.7929 20.2887 40.8056 20.3014Z" fill="white"/>
<path d="M32.3277 21.3532C32.087 21.0871 31.8842 20.7956 31.6688 20.4915C31.466 20.2 31.1112 19.7058 30.7563 19.7438C30.8451 19.6551 30.9338 19.5918 31.0605 19.6044C31.39 19.6298 31.7955 19.9212 31.9729 20.1493C32.2897 20.5675 32.4671 20.935 32.9487 21.1758C33.6203 21.3913 34.3173 21.48 34.989 21.2899C35.3438 21.2265 35.6986 21.0744 36.0028 20.8337C36.0408 20.821 36.0788 20.7956 36.1168 20.7703C36.2182 20.6816 36.2943 20.5802 36.3703 20.4788C36.5604 20.2507 36.7124 19.9973 36.8138 19.7058C36.8138 19.8199 36.8138 19.9593 36.7885 20.0987C36.8772 19.9466 36.9532 19.7692 37.0419 19.5664C36.9279 20.8337 35.9648 21.6954 34.9003 22.0249C34.1399 22.177 33.2528 21.9869 32.5939 21.5307C32.5052 21.48 32.4291 21.4166 32.3531 21.3532H32.3277Z" fill="white"/>
<path d="M34.6087 27.7782C35.9266 28.4372 38.0429 27.1826 39.1581 27.0052C39.6777 26.9292 40.2733 26.9925 40.7549 27.17C41.1097 27.2967 41.4265 27.4614 41.756 27.6262C41.9081 27.7022 42.0728 27.8036 42.2376 27.8923C42.5037 27.9557 42.7698 27.981 43.0613 27.9683C43.0739 27.9683 43.0866 27.9683 43.0993 27.9683C42.8965 28.1711 42.6304 28.2978 42.3389 28.3612C41.9207 28.2598 41.4899 28.1331 41.059 28.0824C40.9703 28.0824 40.8943 28.057 40.8056 28.057C40.6155 28.0317 40.4254 28.0063 40.2353 27.9937C39.4876 27.9683 38.7399 28.019 37.9923 28.1077C37.5741 28.1584 37.1559 28.2091 36.725 28.2725C36.2941 28.3358 35.8633 28.4752 35.4324 28.5132C35.0142 28.3485 34.6974 28.0824 34.4946 27.7275C34.5326 27.7275 34.558 27.7656 34.596 27.7909L34.6087 27.7782Z" fill="white"/>
<path d="M39.513 27.7402C40.096 27.7149 40.6536 27.7402 41.2238 27.7655C41.2872 27.7655 41.3506 27.7655 41.4012 27.7782C41.3506 27.7402 41.3125 27.7022 41.2619 27.6642C40.5902 27.4234 39.9693 27.322 39.1836 27.4361C38.7147 27.4994 38.2585 27.6515 37.8022 27.7909C38.3725 27.7529 38.9301 27.7529 39.5004 27.7275L39.513 27.7402Z" fill="white"/>
<path d="M38.3344 30.0846C38.1443 29.9959 37.9289 29.8945 37.7388 29.7805C37.7388 29.7678 37.7641 29.7551 37.7895 29.7425C38.2203 29.7932 38.6385 29.8565 39.0694 29.8945C39.627 29.9326 40.324 30.0213 40.8942 29.8819C40.5014 30.2113 39.9438 30.3888 39.3355 30.4648C38.968 30.3888 38.6385 30.2367 38.309 30.0846H38.3344Z" fill="white"/>
<path d="M3.24416 39.0061C-0.899764 32.8219 -0.988471 24.3567 2.48381 17.7416C5.95609 11.1265 12.5078 6.12085 19.8199 4.39738C24.2299 3.35823 28.8174 3.56099 33.126 5.24644C30.1226 5.0817 27.4107 7.40078 26.2068 10.1507C25.0156 12.9007 25.0283 15.9928 25.155 18.9835C25.2817 21.9742 25.4972 25.0156 24.6734 27.905C23.7483 31.0858 21.5813 33.8357 18.9328 35.838C16.2842 37.8402 11.1265 39.7411 7.933 40.6662C7.7049 29.2356 12.5458 17.6402 20.9857 9.80856C10.6829 15.6253 3.91581 27.2967 3.24416 39.0061Z" fill="white"/>
<path d="M26.3967 2.66123C26.1052 2.26838 25.6743 1.96424 25.2181 1.76148C24.7492 1.54605 24.2423 1.45734 23.7228 1.40665C23.2159 1.36863 22.6963 1.40665 22.2021 1.45734C21.7078 1.5207 21.2263 1.59674 20.7447 1.68545C18.8058 2.05295 16.943 2.59787 15.0928 3.07943C13.2426 3.56098 11.3924 3.99185 9.51684 4.13125C8.57907 4.20728 7.65398 4.20728 6.81759 3.91581C6.3994 3.77642 6.00655 3.53564 5.67706 3.21882C5.34757 2.90201 5.08145 2.49649 4.9674 2.01493C4.94205 2.50916 5.1068 3.01606 5.39826 3.44693C5.68973 3.8778 6.09525 4.23263 6.55147 4.48608C7.00768 4.73953 7.51458 4.90427 8.02148 4.99298C8.52838 5.09436 9.03529 5.13238 9.54219 5.13238C11.5445 5.18307 13.5214 4.80289 15.4096 4.32134C17.3105 3.82711 19.1353 3.20615 20.9728 2.66123C21.8979 2.39511 22.8103 2.11631 23.7228 2.0276C24.6352 1.9389 25.5983 2.07829 26.3967 2.66123Z" fill="white"/>
</svg>
