<svg width="104" height="120" viewBox="0 0 104 120" fill="none" xmlns="http://www.w3.org/2000/svg">
<g filter="url(#filter0_d_59_8017)">
<circle cx="52" cy="48" r="42" fill="white" stroke="url(#paint0_linear_59_8017)" stroke-width="4"/>
<path d="M65.125 27H38.875C34.5258 27 31 30.5258 31 34.875V61.125C31 65.4742 34.5258 69 38.875 69H65.125C69.4742 69 73 65.4742 73 61.125V34.875C73 30.5258 69.4742 27 65.125 27Z" stroke="#888888" stroke-width="4" stroke-linejoin="round"/>
<path d="M44.125 43.0781C44.125 41.4472 45.4472 40.125 47.0781 40.125H56.9219C58.5528 40.125 59.875 41.4472 59.875 43.0781V52.9219C59.875 54.5528 58.5528 55.875 56.9219 55.875H47.0781C45.4472 55.875 44.125 54.5528 44.125 52.9219V43.0781Z" stroke="#888888" stroke-width="4" stroke-linejoin="round"/>
</g>
<path d="M51.116 102.032C51.3187 102.032 51.4893 102.107 51.628 102.256C51.7667 102.395 51.836 102.565 51.836 102.768C51.836 102.971 51.7667 103.141 51.628 103.28C51.4893 103.408 51.3187 103.472 51.116 103.472H41.276C41.148 103.472 41.0413 103.451 40.956 103.408C40.8707 103.365 40.8173 103.381 40.796 103.456C40.636 104.064 40.3853 104.784 40.044 105.616C40.012 105.701 39.996 105.792 39.996 105.888V114.624C39.996 114.848 39.916 115.04 39.756 115.2C39.596 115.36 39.404 115.44 39.18 115.44C38.956 115.44 38.764 115.36 38.604 115.2C38.444 115.04 38.364 114.848 38.364 114.624V108.32C38.364 108.299 38.3533 108.288 38.332 108.288C38.3107 108.277 38.2947 108.277 38.284 108.288C38.124 108.576 37.9747 108.816 37.836 109.008C37.7187 109.179 37.5533 109.259 37.34 109.248C37.1267 109.227 36.972 109.125 36.876 108.944C36.5987 108.421 36.636 107.92 36.988 107.44C38.1613 105.776 38.9987 103.893 39.5 101.792C39.5533 101.568 39.6707 101.392 39.852 101.264C40.044 101.125 40.2573 101.072 40.492 101.104C40.6947 101.136 40.86 101.227 40.988 101.376C41.116 101.525 41.1747 101.701 41.164 101.904C41.164 101.989 41.2013 102.032 41.276 102.032H45.132C45.228 102.032 45.276 101.989 45.276 101.904V101.68C45.276 101.445 45.3613 101.243 45.532 101.072C45.7027 100.891 45.9107 100.8 46.156 100.8C46.4013 100.8 46.6093 100.891 46.78 101.072C46.9507 101.243 47.036 101.445 47.036 101.68V101.904C47.036 101.989 47.084 102.032 47.18 102.032H51.116ZM43.196 107.44H42.428C42.1827 107.44 41.9693 107.349 41.788 107.168C41.6067 106.987 41.516 106.773 41.516 106.528V105.024C41.516 104.779 41.6067 104.571 41.788 104.4C41.9693 104.219 42.1827 104.128 42.428 104.128H49.724C49.9693 104.128 50.1827 104.219 50.364 104.4C50.5453 104.571 50.636 104.779 50.636 105.024V106.528C50.636 106.773 50.5453 106.987 50.364 107.168C50.1827 107.349 49.9693 107.44 49.724 107.44H43.196ZM43.196 105.456V106.144C43.196 106.24 43.244 106.288 43.34 106.288H48.78C48.876 106.288 48.924 106.24 48.924 106.144V105.456C48.924 105.371 48.876 105.328 48.78 105.328H43.34C43.244 105.328 43.196 105.371 43.196 105.456ZM40.396 108.992C40.396 108.747 40.4867 108.533 40.668 108.352C40.8493 108.171 41.0627 108.08 41.308 108.08H50.844C51.0893 108.08 51.3027 108.171 51.484 108.352C51.6653 108.533 51.756 108.747 51.756 108.992V110.672C51.756 110.907 51.676 111.109 51.516 111.28C51.356 111.44 51.1587 111.52 50.924 111.52C50.6893 111.52 50.4867 111.44 50.316 111.28C50.156 111.109 50.076 110.907 50.076 110.672V109.584C50.076 109.488 50.0333 109.44 49.948 109.44H42.172C42.0867 109.44 42.044 109.488 42.044 109.584V110.704C42.044 110.928 41.9587 111.12 41.788 111.28C41.628 111.44 41.436 111.52 41.212 111.52C40.988 111.52 40.796 111.44 40.636 111.28C40.476 111.12 40.396 110.928 40.396 110.704V108.992ZM43.9 113.808C44.2413 113.829 44.604 113.84 44.988 113.84C45.372 113.84 45.596 113.808 45.66 113.744C45.724 113.669 45.756 113.424 45.756 113.008V111.824C45.756 111.728 45.708 111.68 45.612 111.68H43.164C42.9613 111.68 42.7853 111.611 42.636 111.472C42.4973 111.333 42.428 111.163 42.428 110.96C42.428 110.757 42.4973 110.587 42.636 110.448C42.7853 110.309 42.9613 110.24 43.164 110.24H48.956C49.1587 110.24 49.3293 110.309 49.468 110.448C49.6067 110.587 49.676 110.757 49.676 110.96C49.676 111.163 49.6067 111.333 49.468 111.472C49.3293 111.611 49.1587 111.68 48.956 111.68H47.66C47.564 111.68 47.516 111.728 47.516 111.824V112.96C47.516 114.016 47.3933 114.667 47.148 114.912C46.9133 115.157 46.2893 115.28 45.276 115.28C44.9773 115.28 44.5347 115.264 43.948 115.232C43.7453 115.221 43.5693 115.147 43.42 115.008C43.2813 114.869 43.2067 114.693 43.196 114.48C43.1853 114.288 43.2493 114.128 43.388 114C43.5373 113.861 43.708 113.797 43.9 113.808ZM53.732 114.832C53.5187 114.832 53.3373 114.757 53.188 114.608C53.0493 114.459 52.98 114.283 52.98 114.08C52.98 113.877 53.0493 113.701 53.188 113.552C53.3373 113.403 53.5187 113.328 53.732 113.328H54.884C54.9693 113.328 55.012 113.28 55.012 113.184V104.48C55.012 104.245 55.092 104.048 55.252 103.888C55.4227 103.717 55.6253 103.632 55.86 103.632C56.0947 103.632 56.292 103.717 56.452 103.888C56.612 104.048 56.692 104.245 56.692 104.48V113.184C56.692 113.28 56.74 113.328 56.836 113.328H59.62C59.716 113.328 59.764 113.28 59.764 113.184V102.176C59.764 101.931 59.844 101.728 60.004 101.568C60.1747 101.408 60.3773 101.328 60.612 101.328C60.8573 101.328 61.06 101.413 61.22 101.584C61.3907 101.744 61.476 101.941 61.476 102.176V105.056C61.476 105.152 61.524 105.2 61.62 105.2H65.924C66.1373 105.2 66.3133 105.269 66.452 105.408C66.5907 105.547 66.66 105.723 66.66 105.936C66.66 106.149 66.5907 106.325 66.452 106.464C66.3133 106.603 66.1373 106.672 65.924 106.672H61.62C61.524 106.672 61.476 106.72 61.476 106.816V113.184C61.476 113.28 61.524 113.328 61.62 113.328H66.468C66.6813 113.328 66.8573 113.403 66.996 113.552C67.1453 113.701 67.22 113.877 67.22 114.08C67.22 114.283 67.1453 114.459 66.996 114.608C66.8573 114.757 66.6813 114.832 66.468 114.832H53.732Z" fill="white"/>
<defs>
<filter id="filter0_d_59_8017" x="0" y="0" width="104" height="104" filterUnits="userSpaceOnUse" color-interpolation-filters="sRGB">
<feFlood flood-opacity="0" result="BackgroundImageFix"/>
<feColorMatrix in="SourceAlpha" type="matrix" values="0 0 0 0 0 0 0 0 0 0 0 0 0 0 0 0 0 0 127 0" result="hardAlpha"/>
<feOffset dy="4"/>
<feGaussianBlur stdDeviation="4"/>
<feComposite in2="hardAlpha" operator="out"/>
<feColorMatrix type="matrix" values="0 0 0 0 0 0 0 0 0 0 0 0 0 0 0 0 0 0 0.1 0"/>
<feBlend mode="normal" in2="BackgroundImageFix" result="effect1_dropShadow_59_8017"/>
<feBlend mode="normal" in="SourceGraphic" in2="effect1_dropShadow_59_8017" result="shape"/>
</filter>
<linearGradient id="paint0_linear_59_8017" x1="92" y1="88" x2="12" y2="8.00002" gradientUnits="userSpaceOnUse">
<stop stop-color="#A0F1EA"/>
<stop offset="1" stop-color="#EAD6EE"/>
</linearGradient>
</defs>
</svg>
