<svg width="24" height="24" viewBox="0 0 24 24" fill="none" xmlns="http://www.w3.org/2000/svg">
<path d="M15.0001 2.40001V6.00001C15.0001 6.66275 15.5373 7.20001 16.2001 7.20001H19.8001M8.40008 7.20001H10.8001M8.40008 10.8H15.6001M8.40008 14.4H15.6001M18.0001 4.20001C17.466 3.72215 16.9118 3.15538 16.5619 2.78728C16.3291 2.54234 16.0074 2.40001 15.6695 2.40001H6.5998C5.27432 2.40001 4.19981 3.47451 4.1998 4.79999L4.19971 19.1999C4.1997 20.5254 5.27421 21.5999 6.5997 21.6L17.3997 21.6C18.7252 21.6 19.7997 20.5255 19.7998 19.2001L19.8001 6.47784C19.8001 6.171 19.683 5.87604 19.4701 5.65514C19.0763 5.24665 18.4187 4.57452 18.0001 4.20001Z" stroke="#5A5A5A" stroke-width="2" stroke-linecap="round" stroke-linejoin="round"/>
</svg>
