<svg width="32" height="33" viewBox="0 0 32 33" fill="none" xmlns="http://www.w3.org/2000/svg">
<path d="M4 13.3038H9.57069M4 13.3038L9.4928 13.3053C9.51891 13.3053 9.54488 13.3048 9.57069 13.3038M4 13.3038L4 8.12355C4 7.41663 4.71634 6.84355 5.6 6.84355H9.49334C10.377 6.84355 11.0933 7.41663 11.0933 8.12355V12.0253C11.0933 12.7115 10.4184 13.2715 9.57069 13.3038M4 13.3038L4 19.7659M9.57069 13.3038L17.0347 13.3038C17.9183 13.3038 18.6347 13.8769 18.6347 14.5838V18.4859C18.6347 19.1928 17.9183 19.7659 17.0347 19.7659M4 19.7659H17.0347M4 19.7659L4 24.7635C4 25.4705 4.71635 26.0435 5.6 26.0435L26.4 26.0436C27.2837 26.0436 28 25.4705 28 24.7635V21.0459C28 20.339 27.2837 19.7659 26.4 19.7659L17.0347 19.7659M4 29.2435V3.64355" stroke="white" stroke-width="2" stroke-linecap="round" stroke-linejoin="round"/>
</svg>
