<svg width="19" height="18" viewBox="0 0 19 18" fill="none" xmlns="http://www.w3.org/2000/svg">
<path d="M3.5 4.63235H15.5M8 12.5735V7.80882M11 12.5735V7.80882M12.5 15.75H6.5C5.67157 15.75 5 15.0389 5 14.1618V5.42647C5 4.98789 5.33579 4.63235 5.75 4.63235H13.25C13.6642 4.63235 14 4.98789 14 5.42647V14.1618C14 15.0389 13.3284 15.75 12.5 15.75ZM8 4.63235H11C11.4142 4.63235 11.75 4.27681 11.75 3.83824V3.04412C11.75 2.60554 11.4142 2.25 11 2.25H8C7.58579 2.25 7.25 2.60554 7.25 3.04412V3.83824C7.25 4.27681 7.58579 4.63235 8 4.63235Z" stroke="#E9E9E9" stroke-width="2" stroke-linecap="round" stroke-linejoin="round"/>
</svg>
