<svg width="32" height="33" viewBox="0 0 32 33" fill="none" xmlns="http://www.w3.org/2000/svg">
<path d="M14.7982 5.51478H7.21619C4.70374 5.51478 2.66699 7.55146 2.66699 10.0638V25.2275C2.66699 27.7399 4.70374 29.7765 7.21619 29.7765H22.3802C24.8926 29.7765 26.9294 27.7399 26.9294 25.2275L26.9294 17.6457M10.249 22.1946L15.7661 21.083C16.059 21.024 16.3279 20.8798 16.5392 20.6685L28.8898 8.31142C29.482 7.71896 29.4816 6.75862 28.8889 6.16666L26.2726 3.55339C25.6802 2.96167 24.7203 2.96207 24.1284 3.55429L11.7765 15.9126C11.5657 16.1235 11.4217 16.3919 11.3627 16.6842L10.249 22.1946Z" stroke="white" stroke-width="2" stroke-linecap="round" stroke-linejoin="round"/>
</svg>
