<svg width="34" height="30" viewBox="0 0 34 30" fill="none" xmlns="http://www.w3.org/2000/svg">
<path d="M24.5294 12.5H31.2222C32.2041 12.5 33 13.2959 33 14.2778V24.6634V26.5C33 27.6046 32.1046 28.5 31 28.5H5M1 3.27778V25.5C1 27.1569 2.34315 28.5 4 28.5H5C6.65685 28.5 8 27.1569 8 25.5V14.2778C8 13.2959 8.79594 12.5 9.77778 12.5H29.4444V8.29739C29.4444 7.31555 28.6485 6.51961 27.6667 6.51961H15.9542L13.2377 2.31329C12.9102 1.80625 12.3478 1.5 11.7443 1.5H2.77778C1.79594 1.5 1 2.29594 1 3.27778Z" stroke="white" stroke-width="2" stroke-linecap="round" stroke-linejoin="round"/>
</svg>
