<svg width="32" height="32" viewBox="0 0 32 32" fill="none" xmlns="http://www.w3.org/2000/svg">
<path d="M9.25 26.5V19.75C9.25 18.9216 9.92157 18.25 10.75 18.25H21.25C22.0784 18.25 22.75 18.9216 22.75 19.75V27.25M22.75 5.5V8.5C22.75 9.32843 22.0784 10 21.25 10L10.75 10C9.92157 10 9.25 9.32843 9.25 8.5L9.25 4M27.2468 9.24684L22.7532 4.75316C22.2709 4.27092 21.6169 4 20.9349 4H6.57143C5.15125 4 4 5.15125 4 6.57143V25.4286C4 26.8488 5.15125 28 6.57143 28H25.4286C26.8488 28 28 26.8488 28 25.4286V11.0651C28 10.3831 27.7291 9.72907 27.2468 9.24684Z" stroke="white" stroke-width="2" stroke-linecap="round"/>
</svg>
