<svg width="73" height="72" viewBox="0 0 73 72" fill="none" xmlns="http://www.w3.org/2000/svg">
<path d="M20.3 26.3999V23.6571C20.3 14.5404 27.5257 7.19995 36.5 7.19995C45.4743 7.19995 52.7 14.5404 52.7 23.6571V26.3999M20.3 26.3999C17.33 26.3999 14.9 28.8685 14.9 31.8857V59.3142C14.9 62.3314 17.33 64.7999 20.3 64.7999H52.7C55.67 64.7999 58.1 62.3314 58.1 59.3142V31.8857C58.1 28.8685 55.67 26.3999 52.7 26.3999M20.3 26.3999H52.7M36.5 40.1142C39.47 40.1142 41.9 42.5828 41.9 45.5999C41.9 48.6171 39.47 51.0857 36.5 51.0857C33.53 51.0857 31.1 48.6171 31.1 45.5999C31.1 42.5828 33.53 40.1142 36.5 40.1142Z" stroke="white" stroke-width="5"/>
</svg>
