<svg width="28" height="34" viewBox="0 0 28 34" fill="none" xmlns="http://www.w3.org/2000/svg">
<path d="M19.0003 1V7C19.0003 8.10457 19.8958 9 21.0003 9H27.0003M8.00032 9H12.0003M8.00032 15H20.0003M8.00032 21H20.0003M24.0003 4C23.1102 3.20357 22.1865 2.25896 21.6034 1.64546C21.2154 1.23722 20.6793 1 20.116 1H4.99985C2.79072 1 0.999864 2.79085 0.999849 4.99998L0.999695 28.9999C0.999681 31.209 2.79054 32.9999 4.99968 32.9999L22.9998 33C25.2089 33 26.9997 31.2092 26.9998 29.0001L27.0003 7.79639C27.0003 7.28499 26.8052 6.79339 26.4503 6.42522C25.794 5.74441 24.6979 4.62419 24.0003 4Z" stroke="white" stroke-width="2" stroke-linecap="round" stroke-linejoin="round"/>
</svg>
