<svg width="32" height="33" viewBox="0 0 32 33" fill="none" xmlns="http://www.w3.org/2000/svg">
<path d="M12.7998 29.2436H9.59981C6.94884 29.2436 4.7998 27.0945 4.7998 24.4436V8.44355C4.7998 5.79259 6.94884 3.64355 9.59981 3.64355H20.7998C23.4508 3.64355 25.5998 5.79259 25.5998 8.44355V12.4436M19.9998 20.4436V18.8436C19.9998 17.5181 21.0743 16.4436 22.3998 16.4436C23.7253 16.4436 24.7998 17.5181 24.7998 18.8436V21.2436M19.9998 10.0436H9.59981M15.1998 14.8436H9.59981M12.7998 19.6436H9.59981M19.1998 29.2436H25.5998C26.4835 29.2436 27.1998 28.5272 27.1998 27.6436V22.8436C27.1998 21.9599 26.4835 21.2436 25.5998 21.2436H19.1998C18.3162 21.2436 17.5998 21.9599 17.5998 22.8436V27.6436C17.5998 28.5272 18.3162 29.2436 19.1998 29.2436Z" stroke="white" stroke-width="2" stroke-linecap="round" stroke-linejoin="round"/>
</svg>
