<svg width="16" height="16" viewBox="0 0 16 16" fill="none" xmlns="http://www.w3.org/2000/svg">
<path d="M13.9875 4.91669C13.9783 4.80986 13.7399 4.60472 13.639 4.56813C13.5378 4.53131 13.4246 4.55637 13.3485 4.63206L11.8221 6.15846L9.83947 4.17583L11.3964 2.62475C11.4726 2.54891 11.4975 2.43609 11.4608 2.3355C11.4237 2.2347 11.1792 2.02117 11.0718 2.01191C10.1262 1.93075 9.19976 2.26708 8.52992 2.93449C7.61252 3.84852 7.36957 5.18325 7.79978 6.32095C7.75276 6.36042 7.70636 6.40224 7.6606 6.44733L2.46353 11.3329C2.4617 11.3346 2.45989 11.3366 2.45791 11.3383C1.84671 11.9473 1.84671 12.938 2.45791 13.547C3.0692 14.1559 4.05642 14.1485 4.66752 13.5396C4.67015 13.5371 4.67256 13.5347 4.67497 13.532L9.5362 8.31415C9.58051 8.2698 9.62166 8.22341 9.66045 8.17579C10.8027 8.60515 12.1434 8.3637 13.0616 7.44907C13.7313 6.7816 14.0691 5.85855 13.9875 4.91669Z" stroke="#888888" stroke-width="2" stroke-linejoin="round"/>
</svg>
